<svg height="621" viewBox="0 0 720 621" width="720" xmlns="http://www.w3.org/2000/svg" xmlns:xlink="http://www.w3.org/1999/xlink"><defs><path id="a" d="m0 100h600"/><mask id="b" height="5" width="604" x="-2" y="-2"><path d="m-2 97.5h604v5h-604z" fill="#fff"/><use xlink:href="#a"/></mask><path id="c" d="m61 .9925187v394.0149623"/><mask id="d" height="399" width="6" x="-2" y="-2"><path d="m58-1.5h6v399h-6z" fill="#fff"/><use xlink:href="#c"/></mask><path id="e" d="m541 .9925187v394.0149623"/><mask id="f" height="399" width="6" x="-2" y="-2"><path d="m538-1.5h6v399h-6z" fill="#fff"/><use xlink:href="#e"/></mask></defs><g fill="none" fill-rule="evenodd"><path d="m0 0h720v621h-720z" fill="#7fc784" fill-rule="nonzero"/><g stroke="#fff" transform="translate(59 60)"><g stroke-linecap="round" stroke-linejoin="round" transform="matrix(-1 0 0 -1 342 533)"><path d="m6.575227 130-6.575227-130" stroke-width="4"/><path d="m80.575227 130-6.575227-130" stroke-width="4" transform="matrix(-1 0 0 1 154.575226 0)"/><path d="m75 78h-70" stroke-width="6"/></g><g stroke-width="2"><path d="m0 400h602v82h-602z" transform="matrix(1 0 0 -1 0 882)"/><path d="m0 0h602v482h-602z" transform="matrix(1 0 0 -1 0 482)"/><path d="m1 223h600"/></g><use mask="url(#b)" stroke-dasharray="10" stroke-width="4" xlink:href="#a"/><use mask="url(#d)" stroke-dasharray="10" stroke-width="4" xlink:href="#c"/><use mask="url(#f)" stroke-dasharray="10" stroke-width="4" xlink:href="#e"/></g></g></svg>