<svg viewBox="0 0 24 24" xmlns="http://www.w3.org/2000/svg" width="24" height="24" xmlns:xlink="http://www.w3.org/1999/xlink" class="svg_icon"><svg xmlns="http://www.w3.org/2000/svg" viewBox="0 0 24 24">
    <path d="M18.5 4c.8284 0 1.5.6716 1.5 1.5v9c0 .8284-.6716 1.5-1.5 1.5h-9c-.8284 0-1.5-.6716-1.5-1.5v-9C8 4.6716 8.6716 4 9.5 4h9zm-9 13H16v1.5c0 .8284-.6716 1.5-1.5 1.5h-9c-.8284 0-1.5-.6716-1.5-1.5v-9C4 8.6716 4.6716 8 5.5 8H7v6.5C7 15.8785 8.1215 17 9.5 17z" fill="#000" fill-rule="nonzero"/>
  </svg></svg>