<svg viewBox="0 0 24 24" xmlns="http://www.w3.org/2000/svg" width="24" height="24" xmlns:xlink="http://www.w3.org/1999/xlink" class="svg_icon"><svg xmlns="http://www.w3.org/2000/svg" viewBox="0 0 24 24">
    <path d="M17.5 5c.828 0 1.5.6719 1.5 1.5v11c0 .8281-.672 1.5-1.5 1.5h-11c-.8281 0-1.5-.6719-1.5-1.5v-11C5 5.672 5.6719 5 6.5 5h11zm-1.7 9.0344L13.75 12l2.0531-2.0312a.3753.3753 0 0 0 0-.5313L14.5656 8.2a.3753.3753 0 0 0-.5313 0L12 10.25 9.9687 8.197a.3753.3753 0 0 0-.5312 0L8.2 9.4344a.3753.3753 0 0 0 0 .5313L10.25 12 8.2 14.0313a.3753.3753 0 0 0 0 .5312L9.4344 15.8a.3753.3753 0 0 0 .5312 0L12 13.75l2.0312 2.05a.3753.3753 0 0 0 .5313 0L15.8 14.5656a.3753.3753 0 0 0 0-.5312z" fill="#000" fill-rule="nonzero"/>
  </svg></svg>