<?xml version="1.0" encoding="utf-8"?>
<!-- Generator: Adobe Illustrator 28.1.0, SVG Export Plug-In . SVG Version: 6.00 Build 0)  -->
<svg version="1.1" id="Layer_1" xmlns="http://www.w3.org/2000/svg" xmlns:xlink="http://www.w3.org/1999/xlink" x="0px" y="0px"
	 viewBox="0 0 51 49.5" style="enable-background:new 0 0 51 49.5;" xml:space="preserve">
<style type="text/css">
	.st0{fill:none;stroke:#000000;stroke-width:4;stroke-linecap:round;stroke-linejoin:round;}
	.st1{fill:none;stroke:#7F7F7F;stroke-width:2;stroke-linejoin:round;}
	.st2{fill:none;}
	.st3{fill:#7F7F7F;}
	.st4{fill:none;stroke:#7F7F7F;stroke-width:2;stroke-miterlimit:10;}
</style>
<g id="Calque_2">
	<g id="Calque_1-2">
		<path class="st0" d="M40.5,22.6c3.6,1.9,5.8,4.4,5.8,7.3c0,5.6-8.4,10.2-18.8,10.2S8.8,35.5,8.8,29.9s8.4-10.1,18.8-10.1"/>
		<line class="st1" x1="44.7" y1="8.1" x2="29.2" y2="27.4"/>
		<polyline class="st1" points="40.4,4.1 22.7,26.2 20.6,38.1 31.5,33.7 49.3,11.6 		"/>
		<polyline class="st2" points="6.8,0 51,0 51,49.5 0,49.5 0,0 6.8,0 		"/>
		<path class="st3" d="M21.5,33.2c0,0,1.7-1.4,3.2-0.5c1.4,0.9,0.9,3.4,0.9,3.4l-4.9,2L21.5,33.2z"/>
		<path class="st4" d="M22.7,26.2c0,0,4.4-0.5,6.5,1.2s2.4,6.3,2.4,6.3"/>
	</g>
</g>
</svg>
