<svg xmlns="http://www.w3.org/2000/svg" viewBox="0 0 765.36 96.86">
  <defs>
    <style>.cls-1,.cls-3{fill:#fff;}.cls-2{fill:#57e451;}.cls-3{font-size:12px;font-family:Helvetica;}</style>
  </defs>
  <title>PlayMetrics-logo-color</title>
  <g id="Layer_2" data-name="Layer 2">
    <g id="Layer_7" data-name="Layer 7">
      <path class="cls-1"
            d="M278.31,12.63H253.37L221.55,64.08H198.88l8.93-51.45H184.06l-2.91,16.2a.2.2,0,0,1-.39,0A18.14,18.14,0,0,0,174,18.41c-4.92-3.84-12.06-5.78-21.37-5.78H125.73l-12.61,72h23.54L140.72,61h6.92a59.08,59.08,0,0,0,14.18-1.57,29.3,29.3,0,0,0,10.6-4.82A19.82,19.82,0,0,0,177,49.9a.2.2,0,0,1,.37.14l-5.94,34.55H235.1l6.36-11.42h23.43l1.71,11.42h24.47ZM155.16,41.68a15.1,15.1,0,0,1-7.63,1.62h-3.78L146,31h3.57a13,13,0,0,1,6.12,1.19c1.51.81,2.21,2.27,2.21,4.43A5.51,5.51,0,0,1,155.16,41.68Zm105.69-4,2.09,17.83H250.5l10-17.9A.2.2,0,0,1,260.85,37.65Z"/>
      <path class="cls-1"
            d="M405.84,12.63,387.12,51.91h-.49L380.3,12.63H330.58L315.21,34.81l-7.73-22.18H281.23l19,42.2-5.07,29.76h23.37l5.18-29.76L347.4,26.69a.21.21,0,0,1,.36.17L337.5,84.59h22.19l6.06-41.83h.54l6.55,41.83h16.5L410.5,42.76h.65l-8.28,41.83h22.89l12.93-72Z"/>
      <path class="cls-1"
            d="M727.85,48.07c-.48-.49-1-.92-1.46-1.36a27.31,27.31,0,0,0-4.76-3.41,52.9,52.9,0,0,0-8.33-3.46,30.49,30.49,0,0,1-5.68-2.33,3.45,3.45,0,0,1-2-3.13,4,4,0,0,1,2.27-3.74,10.79,10.79,0,0,1,5.14-1.19,15.91,15.91,0,0,1,6.44,1.25A12.71,12.71,0,0,1,724,34l15.1-14.5a19.82,19.82,0,0,0-4.82-3.63,38.63,38.63,0,0,0-6.22-2.81,45,45,0,0,0-14.77-2.49,39.06,39.06,0,0,0-12.88,2A31,31,0,0,0,690.36,18c-.38.32-.76.65-1.08,1A32.76,32.76,0,0,0,680,13.49a43.36,43.36,0,0,0-16.5-2.87A42.34,42.34,0,0,0,624,35.84a.19.19,0,0,1-.37-.11l4.09-23H603.88L592.16,78.34a.06.06,0,0,1-.11,0l-11.37-23a21,21,0,0,0,11.53-8q4.21-5.76,4.22-14.77a19.36,19.36,0,0,0-1.79-8.49,17.41,17.41,0,0,0-5.14-6.28A23.39,23.39,0,0,0,581.39,14a38.64,38.64,0,0,0-10.66-1.35H442.63l-12.23,72h50.1L484,64.78h-28.1l1.23-7.25h22.62L483,39.25H460.16l1.19-6.71H500.6L490.9,84.6h23.38l9.92-52.06h13.47l-9.43,52.61h22.67l4.67-26.8h2.87l10.17,26.4h46.47l4.78-27.09a.2.2,0,0,1,.39,0,34.06,34.06,0,0,0,2.25,10.46,25.93,25.93,0,0,0,6.76,10.06c4.38,3.87,12.42,7.59,25.32,7.59h46.26c8.92,0,18.35-2.82,21.49-4.88a25.14,25.14,0,0,0,7.73-7.9,22.14,22.14,0,0,0,3-11.8,18.48,18.48,0,0,0-1.35-7.3A16.17,16.17,0,0,0,727.85,48.07ZM570.4,41.79a14.6,14.6,0,0,1-7.3,1.57h-4.65l2.11-12.12h4.38a12.37,12.37,0,0,1,5.95,1.19c1.46.76,2.16,2.22,2.16,4.33A5.33,5.33,0,0,1,570.4,41.79Zm136,24.67a11.08,11.08,0,0,1-5.68,1.19c-10.44-.36-31.24-2.25-41.67-2.87-4.43-.26-7.73-1.24-10-3.67a12.77,12.77,0,0,1-2.38-3.79l-.81-3a15.93,15.93,0,0,1-.17-2.32A23.52,23.52,0,0,1,647,44.39a19,19,0,0,1,3.46-6.23,17.48,17.48,0,0,1,5.41-4.27,15.79,15.79,0,0,1,7-1.57,18,18,0,0,1,6.76,1.24,11.07,11.07,0,0,1,4.81,3.9l7.66-7.85a.19.19,0,0,1,.32.19,23.92,23.92,0,0,0-.94,6.85A19.39,19.39,0,0,0,683,44.39a16.5,16.5,0,0,0,3.95,5.46,24.23,24.23,0,0,0,5.89,3.9c.6.27,5,2.27,5.63,2.54s1.14.38,1.73.6a23.17,23.17,0,0,1,6.66,2.92,4.16,4.16,0,0,1,1.78,3.24A3.67,3.67,0,0,1,706.43,66.46Z"/>
      <path class="cls-2" d="M4.48,67.44A37,37,0,0,0,9.81,48.28,37,37,0,0,0,4.48,29.12a43.21,43.21,0,0,0,0,38.32Z"/>
      <path class="cls-2" d="M79.6,72.21A37.14,37.14,0,0,0,46.41,91.37,43.24,43.24,0,0,0,79.6,72.21Z"/>
      <path class="cls-2"
            d="M46.41,5.19A37.1,37.1,0,0,0,60.34,19.38a37.07,37.07,0,0,0,19.26,5A43.16,43.16,0,0,0,46.41,5.19Z"/>
      <path class="cls-2"
            d="M94.17,39.13a.8.8,0,0,0-.57-.62A160.47,160.47,0,0,1,32.23,4.93a200.57,200.57,0,0,1,3.83,24.71.8.8,0,0,0,.34.58A200.11,200.11,0,0,0,93.31,57.14a.8.8,0,0,0,1-.63,51.88,51.88,0,0,0-.15-17.38Z"/>
      <path class="cls-2"
            d="M11.43,79.69A201.21,201.21,0,0,1,30.91,64.07a.79.79,0,0,0,.34-.59A200.22,200.22,0,0,0,26.12.61.8.8,0,0,0,25.06.05,51.46,51.46,0,0,0,17.6,3.6a52.06,52.06,0,0,0-7.51,5.28.79.79,0,0,0-.26.79A160.45,160.45,0,0,1,11.43,79.69Z"/>
      <path class="cls-2"
            d="M62.87,51.08a200,200,0,0,0-52.11,36,.8.8,0,0,0,0,1.2,51.4,51.4,0,0,0,15.13,8.55.78.78,0,0,0,.81-.17A160.49,160.49,0,0,1,86.83,60.16a201.29,201.29,0,0,1-23.29-9.09A.82.82,0,0,0,62.87,51.08Z"/>
      <text class="cls-3" transform="translate(748.04 20.9)">TM</text>
    </g>
  </g>
</svg>
