<svg xmlns="http://www.w3.org/2000/svg" viewBox="0 0 96.86 96.86">
  <defs>
    <style>.cls-2{fill:#000;}.cls-3{font-size:12px;font-family:Helvetica;}</style>
  </defs>
  <title>PlayMetrics-logo-color</title>
  <g id="Layer_2" data-name="Layer 2">
    <g id="Layer_7" data-name="Layer 7">
      <path class="cls-2" d="M4.48,67.44A37,37,0,0,0,9.81,48.28,37,37,0,0,0,4.48,29.12a43.21,43.21,0,0,0,0,38.32Z"/>
      <path class="cls-2" d="M79.6,72.21A37.14,37.14,0,0,0,46.41,91.37,43.24,43.24,0,0,0,79.6,72.21Z"/>
      <path class="cls-2"
            d="M46.41,5.19A37.1,37.1,0,0,0,60.34,19.38a37.07,37.07,0,0,0,19.26,5A43.16,43.16,0,0,0,46.41,5.19Z"/>
      <path class="cls-2"
            d="M94.17,39.13a.8.8,0,0,0-.57-.62A160.47,160.47,0,0,1,32.23,4.93a200.57,200.57,0,0,1,3.83,24.71.8.8,0,0,0,.34.58A200.11,200.11,0,0,0,93.31,57.14a.8.8,0,0,0,1-.63,51.88,51.88,0,0,0-.15-17.38Z"/>
      <path class="cls-2"
            d="M11.43,79.69A201.21,201.21,0,0,1,30.91,64.07a.79.79,0,0,0,.34-.59A200.22,200.22,0,0,0,26.12.61.8.8,0,0,0,25.06.05,51.46,51.46,0,0,0,17.6,3.6a52.06,52.06,0,0,0-7.51,5.28.79.79,0,0,0-.26.79A160.45,160.45,0,0,1,11.43,79.69Z"/>
      <path class="cls-2"
            d="M62.87,51.08a200,200,0,0,0-52.11,36,.8.8,0,0,0,0,1.2,51.4,51.4,0,0,0,15.13,8.55.78.78,0,0,0,.81-.17A160.49,160.49,0,0,1,86.83,60.16a201.29,201.29,0,0,1-23.29-9.09A.82.82,0,0,0,62.87,51.08Z"/>
    </g>
  </g>
</svg>
