<svg viewBox="0 0 24 24" xmlns="http://www.w3.org/2000/svg" width="24" height="24" xmlns:xlink="http://www.w3.org/1999/xlink" class="svg_icon"><svg xmlns="http://www.w3.org/2000/svg" viewBox="0 0 24 24">
    <path d="M12.2257 22.8955l-1.9647-4.7749-2.1932 2.475C6.989 21.813 5 21.037 5 19.3828V1.8076C5 .1804 6.9407-.6147 8.0372.5612L19.51 12.863c1.064 1.1407.2847 3.051-1.2748 3.051h-3.0801l2.0066 4.8768c.382.9284-.0485 1.9927-.9597 2.3724l-1.6875.7031c-.8923.3716-1.9128-.057-2.2888-.9708zm-1.4925-7.5694l2.8798 6.9987c.0554.1349.193.2118.3246.157l1.6875-.7032c.146-.0609.2158-.2557.1494-.417L12.916 14.414h5.3193c.2348 0 .3571-.3357.1777-.5281L6.9402 1.5842c-.169-.1811-.4402-.043-.4402.2234v17.5752c0 .2707.2782.4064.4452.218l3.788-4.2747z" fill="#000" fill-rule="nonzero"/>
  </svg></svg>