<?xml version="1.0" encoding="utf-8"?>
<!-- Generator: Adobe Illustrator 28.1.0, SVG Export Plug-In . SVG Version: 6.00 Build 0)  -->
<svg version="1.1" id="Layer_1" xmlns="http://www.w3.org/2000/svg" xmlns:xlink="http://www.w3.org/1999/xlink" x="0px" y="0px"
	 viewBox="0 0 51 49.5" style="enable-background:new 0 0 51 49.5;" xml:space="preserve">
<style type="text/css">
	.st0{stroke:#000000;stroke-miterlimit:10;}
	.st1{fill:none;stroke:#000000;stroke-width:2;stroke-miterlimit:10;}
	.st2{fill:none;stroke:#000000;stroke-width:2;stroke-miterlimit:10;}
	.st3{fill:none;stroke:#FFFFFF;stroke-width:2.0016;stroke-miterlimit:10;}
	.st4{fill:none;stroke:#7F7F7F;stroke-width:2;stroke-miterlimit:10;stroke-dasharray:2.89,2.89;}
	.st5{fill:none;}
</style>
<path class="st0" d="M12.8,36.2c-8.5-2.8-13.2-12-10.4-20.5s12-13.2,20.5-10.4c4.9,1.6,8.7,5.4,10.3,10.2"/>
<path class="st1" d="M33.3,15.5C36.1,24,31.5,33.3,23,36.1c-3.3,1.1-6.9,1.1-10.2,0"/>
<polyline class="st2" points="32.2,16.5 50,16.5 50,46.4 20.2,46.4 20.2,28.8 "/>
<polyline class="st3" points="20.2,29.1 20.2,16.5 32.2,16.5 "/>
<line class="st1" x1="45" y1="3.6" x2="43.9" y2="4.6"/>
<line class="st4" x1="41.9" y1="6.7" x2="6.5" y2="42.7"/>
<line class="st1" x1="5.5" y1="43.7" x2="4.4" y2="44.8"/>
<rect class="st5" width="51" height="49.5"/>
</svg>
