<?xml version="1.0" standalone="no"?>
<!DOCTYPE svg PUBLIC "-//W3C//DTD SVG 1.1//EN" "http://www.w3.org/Graphics/SVG/1.1/DTD/svg11.dtd" >
<svg xmlns="http://www.w3.org/2000/svg">
<metadata>
This is a custom SVG webfont generated by Font Squirrel.
Copyright   : 4.1 (c)1986-92 by Richard A. Ware. All Rights Reserved.
</metadata>
<defs>
<font id="webfont" horiz-adv-x="428" >
<font-face units-per-em="1000" ascent="800" descent="-200" />
<missing-glyph horiz-adv-x="400" />
<glyph unicode=" "  horiz-adv-x="400" />
<glyph unicode="&#x09;" horiz-adv-x="400" />
<glyph unicode="&#xa0;" horiz-adv-x="400" />
<glyph unicode="!" horiz-adv-x="270" d="M220 647q-19 0 -40 -3.5t-25 -8.5q-12 -16 -25.5 -42.5t-24.5 -56.5t-19 -60.5t-11 -55.5q0 -6 6 -7.5t11 -3.5q-9 -40 -15 -71.5t-10 -59.5t-5.5 -55t-1.5 -58q0 -17 5.5 -19.5t23.5 -2.5q19 0 37.5 5t18.5 13q0 7 -1.5 18.5t-1.5 23.5q0 43 11.5 99t28 115t35.5 117 t33 106q0 4 -6.5 5.5t-23.5 1.5zM143 53q0 17 -7 29t-20 12q-9 0 -22 -7.5t-25 -19t-20.5 -25.5t-8.5 -27q0 -16 13 -20.5t26 -4.5q34 0 49 20.5t15 42.5z" />
<glyph unicode="&#x22;" horiz-adv-x="225" d="M128 489q0 -11 1.5 -18.5t6.5 -7.5q13 0 19 16.5t9 29.5q3 14 9 28t18 28q8 9 11.5 18.5t3.5 18.5q0 17 -9 28t-20 11q-15 0 -24.5 -21t-15 -47.5t-7.5 -51t-2 -32.5zM51 568q0 -18 1.5 -35.5t4.5 -31.5t6.5 -22.5t7.5 -8.5t8.5 12t10.5 41l6 43q3 22 8 34q4 10 5 15 t1 10q0 15 -6.5 26t-17.5 11q-13 0 -24 -23t-11 -71z" />
<glyph unicode="#" horiz-adv-x="660" d="M282 624q-9 -29 -19 -58t-22 -73q-15 -2 -36.5 -4t-43.5 -4.5t-42 -5.5t-32 -6q-7 -2 -12 -14t-5 -23q0 -6 2.5 -10.5t7.5 -4.5h1l35 5l38 4l39 6q19 2 34 3l-14 -47l-16 -58q-31 -5 -67.5 -8t-66.5 -8q-14 -2 -21 -18t-7 -28q0 -10 5 -10q35 1 69 6t72 9q-7 -19 -17 -55 l-23 -75v-2q0 -4 5 -5.5t12 -1.5q13 0 27 4.5t16 12.5l7 29l10 34l10 33q4 16 8 28l68 4q36 2 54 2l-10 -43l-10 -40l-8 -34q-4 -16 -4 -24v-1q0 -5 6 -7t15 -2q13 0 26 4.5t15 14.5q3 13 6.5 31t7.5 36l8 36q4 17 9 30q31 2 69 5t83 7q3 0 5.5 5t5 12.5t3.5 16t1 15.5 q0 16 -6 16q-19 -1 -40 -3l-41 -4q-20 -2 -37 -3t-27 -2q7 26 15 53t16 50q20 2 51 2t83 1q3 0 6.5 6t6 14.5t4 17.5t1.5 16q0 9 -3 9q-39 0 -73 -3t-59 -5l13 35l12 33l13 34l16 41l-78 -14q-12 -38 -20 -68t-20 -67q-23 -4 -57 -6l-60 -4q8 24 19.5 55t34.5 84zM372 346 q-24 -1 -57.5 -3t-61.5 -5q2 9 6 22l9 28l8 28q4 14 8 25q11 2 27.5 4t33.5 3.5t32.5 2t26.5 0.5l-16 -51q-8 -24 -16 -54z" />
<glyph unicode="$" horiz-adv-x="492" d="M176 477q0 27 20 40.5t66 25.5q-2 -11 -4 -29t-6 -39l-8 -43l-6 -41q-9 6 -19.5 14t-20 18.5t-16 23.5t-6.5 30zM154 1h13q6 0 11 1q-2 -10 -5 -28.5t-3 -27.5q0 -8 9.5 -12.5t19.5 -4.5q7 0 12.5 3t6.5 8q3 18 5 34l4 33q39 6 76 18t65.5 29.5t46 40.5t17.5 52 q0 42 -12.5 74t-34 58t-49.5 47t-59 39q1 17 5 41l8 51l6 51l7 43q13 4 28.5 6.5t31.5 2.5q12 0 12 -3q0 -4 -4.5 -8.5t-10.5 -9.5q-6 -6 -11.5 -10.5t-5.5 -7.5q0 -2 5 -2q19 0 40 7t38 19.5t28.5 29t11.5 35.5q0 8 -4 14t-12 6q-42 0 -74 -2l-64 -4q2 12 4.5 30t2.5 25 q0 13 -14 13q-7 0 -14 -4.5t-8 -9.5q-3 -16 -5 -32l-4 -27q-56 -9 -92.5 -25t-58 -37t-30 -46t-8.5 -52q0 -32 13 -56.5t34 -44.5q20 -18 44 -34l47 -30l-7 -46l-9 -58l-10 -64q-5 -32 -9 -62q-23 -5 -43.5 -8.5t-49.5 -3.5q-9 0 -20 0.5t-20.5 1.5t-17 1.5t-10.5 0.5 q-8 0 -8 -6q0 -7 9.5 -17t20.5 -14q30 -11 56.5 -14.5t48.5 -3.5zM331 150q0 -14 -9 -26t-22.5 -21t-30.5 -15.5t-32 -9.5l26 189q35 -27 51.5 -54t16.5 -63z" />
<glyph unicode="%" horiz-adv-x="605" d="M500 646q-9 0 -21 -4t-23 -10t-19.5 -14.5t-11.5 -17.5q-17 -66 -56.5 -139t-86.5 -149q-97 -161 -142 -249t-45 -121q0 -9 13 -9q14 0 31.5 9.5t20.5 22.5q8 31 26 69t43 80l55 89l60 95q54 85 88 147t52.5 102.5t25 61.5t6.5 26q0 11 -16 11zM300 513q0 24 -4.5 46 t-13.5 38.5t-22.5 26.5t-30.5 10q-31 0 -49.5 -5t-37.5 -16l4 13q2 8 3 11q0 5 -11 5q-8 0 -16 -2.5t-10 -4.5q-3 -5 -12 -26t-18 -51t-16 -64.5t-7 -67.5q0 -23 4.5 -43t15 -35t28.5 -23.5t44 -8.5q37 0 64.5 18.5t46.5 47t28.5 63.5t9.5 68zM189 605q16 0 26.5 -8 t17 -21.5t9 -31t2.5 -35.5q0 -39 -7.5 -69.5t-18.5 -50.5t-25.5 -30.5t-27.5 -10.5q-31 0 -42 28.5t-11 67.5q0 37 6.5 74.5t13.5 60.5q2 4 15.5 15t41.5 11zM586 187q0 24 -4.5 46t-13.5 38.5t-22.5 26.5t-30.5 10q-31 0 -49.5 -5t-37.5 -16l4 13q2 8 3 11q0 5 -11 5 q-8 0 -16 -2.5t-10 -4.5q-3 -5 -12 -26t-18 -51t-16 -64.5t-7 -67.5q0 -23 4.5 -43t15 -35t28.5 -23.5t44 -8.5q37 0 64.5 18.5t46.5 47t28.5 63.5t9.5 68zM475 279q16 0 26.5 -8t17 -21.5t9 -31t2.5 -35.5q0 -39 -7.5 -69.5t-18.5 -50.5t-25.5 -30.5t-27.5 -10.5 q-31 0 -42 28.5t-11 67.5q0 37 6.5 74.5t13.5 60.5q2 4 15.5 15t41.5 11z" />
<glyph unicode="&#x26;" horiz-adv-x="567" d="M423 615q-6 0 -14.5 -3.5t-17 -8.5t-16 -11t-11.5 -12q-11 -18 -20 -39t-16 -43t-12 -44.5t-8 -41.5q-26 29 -56.5 42t-59.5 13t-56 -11t-47.5 -29.5t-32.5 -42.5t-12 -51q0 -36 20.5 -68t53.5 -56t74 -38t82 -15q-2 -16 -4 -34.5t-2 -37.5q0 -17 2 -32.5t9 -31.5 q2 -6 7.5 -8.5t11.5 -2.5q17 0 26 11q25 30 39 70l26 75q16 4 35.5 14t39 22.5t35.5 25.5t25 23q5 5 6.5 12t1.5 15t-2 13.5t-7 5.5q-2 0 -4 -1q-26 -14 -54.5 -23.5t-50.5 -9.5q-2 0 -5 0.5t-5 0.5q1 5 1.5 10.5t0.5 10.5q0 18 -5.5 36.5t-18.5 34.5q1 20 3 47.5t7.5 60.5 t14 69t22.5 73q1 2 1 4q0 6 -7 6zM293 336q-7 -30 -9 -54l-5 -44q-21 -9 -49 -9q-27 0 -55 8t-50.5 22.5t-37 34t-14.5 42.5q0 29 18.5 52t48.5 23q22 0 44 -8t42 -19q21 -10 38 -24z" />
<glyph unicode="'" horiz-adv-x="145" d="M51 568q0 -18 1.5 -35.5t4.5 -31.5t6.5 -22.5t7.5 -8.5q7 0 10 11.5t5 22.5q5 23 8 50t10 45q4 9 5 15t1 11q0 15 -7 26t-17 11q-13 0 -24 -23t-11 -71z" />
<glyph unicode="(" horiz-adv-x="288" d="M126 153q0 52 7.5 111t26.5 123t52 131.5t85 136.5q3 4 3 11q0 11 -7 22.5t-15 11.5q-13 0 -35 -22.5t-48.5 -63.5t-53.5 -97.5t-48.5 -124t-35.5 -143.5t-14 -156q0 -62 8.5 -103t20.5 -65.5t25 -35t22 -10.5q12 0 23.5 7t11.5 18v1q-1 13 -5.5 36t-9.5 54.5t-9 71.5 t-4 86z" />
<glyph unicode=")" horiz-adv-x="220" d="M-9 -121q27 0 60.5 39t62 108t48 164t19.5 208q0 73 -9.5 131t-22 97.5t-24.5 60.5t-18 21q-9 0 -19.5 -11t-10.5 -22v-4q20 -72 29.5 -133.5t9.5 -119.5q0 -102 -22 -185.5t-49.5 -147t-53.5 -106t-35 -61.5q-1 -2 -1 -7q0 -11 12 -21.5t24 -10.5z" />
<glyph unicode="*" horiz-adv-x="530" d="M421 573q0 13 -11 23.5t-28 10.5q-14 0 -28.5 -10.5t-29.5 -26.5q-14 -15 -28 -33l-25 -33l-31 58l-34 63q-5 9 -12 13.5t-15 4.5q-13 0 -23 -8.5t-10 -23.5q0 -11 7 -25.5t19 -31.5l26 -34l28 -33q-15 -2 -34.5 -6t-39 -8.5t-37.5 -10t-29 -9.5q-14 -6 -20 -16t-6 -18 q0 -12 8 -12q2 0 3 1q16 6 35 11t38.5 9.5t37.5 8t32 5.5q-20 -21 -34.5 -42.5t-24 -40.5t-14.5 -33t-5 -20q0 -17 12 -17q5 0 11 4.5t11 14.5q25 44 52.5 75.5t41.5 45.5q42 -67 68.5 -101.5t42.5 -34.5q12 0 12 14q0 12 -10 25q-22 30 -40 60l-29 48q9 2 22.5 3.5 t31.5 1.5t39 -2t38 -5q8 -2 16.5 -3t16.5 -1q13 0 20 9t7 21q0 19 -13.5 30t-60.5 11q-33 0 -60 -4t-45 -8q15 11 35 24l52 33q8 5 11 11t3 12z" />
<glyph unicode="+" horiz-adv-x="444" d="M225 425q-5 -32 -12 -58.5t-18 -58.5l-51 -4q-28 -2 -49 -4q-6 0 -10 -6.5t-7 -15t-4.5 -17.5t-1.5 -15q0 -7 2 -7q12 0 27 1t30 3l29 4q14 2 23 4q-2 -10 -6 -25.5t-9.5 -34t-10.5 -37.5t-9 -36q7 0 21 1.5t28 4t25 6t11 8.5q0 6 2 21t5 33l6 36q3 18 6 32q18 2 44 4 l59 6q1 0 5.5 6.5t8.5 16.5t7.5 20t3.5 18q0 11 -8 11q-1 0 -1.5 -0.5t-2.5 -0.5q-32 -8 -56.5 -13t-45.5 -10q2 12 8 30l12 38q6 20 10 38.5t4 32.5q0 1 -3 1q-5 0 -17 -3.5t-24 -9t-21.5 -11t-9.5 -9.5z" />
<glyph unicode="," horiz-adv-x="230" d="M49 23q0 -13 6.5 -21.5t20.5 -10.5q3 0 3 -3q0 -7 -13.5 -25.5t-29.5 -38.5l-30 -37q-14 -17 -14 -21q0 -1 2 -1h1q28 9 60.5 32.5t60.5 53t46 60.5t18 55q0 19 -14 30.5t-46 11.5q-14 0 -27 -8.5t-22.5 -21t-15.5 -27.5t-6 -28z" />
<glyph unicode="-" horiz-adv-x="429" d="M382 242q0 9 -3.5 17.5t-11.5 10.5q-28 6 -57.5 8.5t-59.5 2.5q-53 0 -101.5 -8t-83.5 -23q-4 -2 -5.5 -7.5t-1.5 -12.5q0 -8 2 -14t4 -6t4 0.5t3 0.5q51 8 96.5 12t86.5 4q32 0 59.5 -2t53.5 -5h2q7 0 10 7t3 15z" />
<glyph unicode="." horiz-adv-x="230" d="M183 61q0 24 -11 43.5t-26 19.5q-12 0 -27.5 -11t-30 -27.5t-24.5 -35.5t-10 -35q0 -17 13 -21.5t32 -4.5q24 0 40 6.5t25.5 16.5t14 23t4.5 26z" />
<glyph unicode="/" horiz-adv-x="272" d="M285 656q-9 0 -21 -4t-23 -10t-19.5 -14.5t-11.5 -17.5l-43 -157l-47 -169l-46 -169l-41 -153q-1 -3 -2 -6.5t-1 -8.5q0 -9 13 -9q14 0 31.5 9.5t20.5 22.5q15 58 39 137l50 167l58 182l57 180q2 5 2 6v3q0 11 -16 11z" />
<glyph unicode="0" horiz-adv-x="535" d="M517 396q0 48 -9 91.5t-27 76.5t-44.5 52t-61.5 19q-31 0 -58 -1t-52 -5t-48.5 -12.5t-47.5 -22.5q0 11 2 23t5 22v2q0 6 -10 6q-7 0 -14.5 -2.5t-10.5 -7.5q-6 -11 -23 -52.5t-35 -101t-32 -128.5t-14 -134q0 -45 9 -85.5t30 -70.5t56 -47.5t88 -17.5q76 0 132 36.5 t93 94t54.5 127.5t17.5 138zM424 363q0 -53 -11 -106.5t-33.5 -96.5t-56.5 -70t-79 -27q-35 0 -58.5 17.5t-38 47.5t-20.5 69t-6 81q0 69 12 136t25 111q1 4 12 12.5t29 17.5t42.5 15.5t53.5 6.5q47 0 73 -25t38.5 -59.5t15 -70.5t2.5 -59z" />
<glyph unicode="1" horiz-adv-x="342" d="M39 415q6 0 11 5q55 55 95.5 82.5t70.5 39.5q-1 -63 -10 -130.5t-23 -137.5q-13 -70 -31 -142l-36 -142v-2q0 -6 8 -6q7 0 19.5 4.5t24 11t20.5 13.5t10 11l38 132q20 70 37.5 146t29.5 156.5t12 163.5q0 15 -14 23t-31 8q-20 0 -30 -10l-46 -42l-58 -51 q-30 -28 -57.5 -57t-48.5 -56q-3 -5 -3 -9q0 -5 3.5 -8t8.5 -3z" />
<glyph unicode="2" horiz-adv-x="480" d="M420 496q0 26 -9 47.5t-29 33.5l-28 16q-16 9 -37 16.5t-48 12.5t-62 5q-41 0 -95 -9q-21 -4 -36.5 -19.5t-25.5 -36.5t-14.5 -44t-4.5 -42q0 -16 3.5 -26t10.5 -10t12 8q11 18 17 38t23 32q14 10 37 14.5t49 4.5q78 0 114.5 -25t36.5 -67q0 -23 -10.5 -46.5t-28.5 -48 t-41.5 -50t-50.5 -51.5q-60 -59 -96 -97.5t-54.5 -61.5t-24.5 -34.5t-6 -16.5q0 -21 25 -32.5t57.5 -16t63 -5t41.5 -0.5q54 0 103 10.5t111 30.5q16 5 23.5 17t7.5 23q0 6 -3 10.5t-9 4.5q-2 0 -2.5 -0.5t-2.5 -0.5q-29 -8 -57 -11.5t-56 -3.5q-54 0 -100 9.5t-75 18.5 q26 40 68 81.5t84 88.5q43 48 67.5 85.5t35.5 66.5t13.5 49t2.5 32z" />
<glyph unicode="3" horiz-adv-x="460" d="M70 620q-14 -2 -21 -16t-7 -31q0 -33 13.5 -41t31.5 -8q12 0 25 1.5t27 3.5q24 4 50 7.5t52 3.5q30 0 48 -5.5t18 -7.5q0 -5 -7 -15q-6 -10 -18 -24l-26 -29l-30 -33l-29 -34q-14 -16 -25 -30.5t-17.5 -26.5t-6.5 -19q0 -11 20.5 -21.5t42.5 -19.5l36 -13q18 -6 32.5 -13 t23.5 -15t9 -18q0 -15 -16 -35.5t-49.5 -45t-85 -51.5t-121.5 -54q-7 -3 -7 -6t7 -7t17.5 -7t22.5 -5t23 -2q5 0 9 0.5t8 1.5q57 15 113 38.5t100.5 51.5t71.5 59t27 62q0 17 -8.5 30t-22.5 23.5t-32.5 18.5t-37.5 15q-42 17 -62.5 23.5t-20.5 12.5q0 10 23 33l51 53 q15 15 29 31t25 32t18 31t7 28q0 15 -12.5 29t-40 24.5t-71.5 17t-107 6.5q-23 0 -48.5 -1t-51.5 -3z" />
<glyph unicode="4" horiz-adv-x="448" d="M220 661q-11 0 -27.5 -5t-32.5 -13.5t-29 -19.5t-19 -23q-5 -12 -5 -17t4 -11l2 -4q1 -2 1 -5t-1 -5q-8 -23 -16.5 -53t-16.5 -64t-15 -69t-12.5 -67t-8.5 -58.5t-3 -43.5q0 -11 1.5 -17t7.5 -8q20 -9 47 -13t56 -4q69 0 126 15q-4 -25 -8.5 -65.5t-4.5 -79.5 q0 -24 3 -43q0 -3 4 -3t12.5 4t17 9.5t14.5 11t6 8.5q-1 5 -1 10v11q0 35 4 74.5t10 78.5q18 5 40 13.5t40 21.5q5 3 6.5 9t1.5 13q0 9 -3 16t-8 7h-2q-19 -7 -33.5 -14t-32.5 -10q4 36 12.5 95t24.5 128q0 3 -17.5 5t-32.5 2h-11q-4 0 -4 -2q-12 -77 -20 -138t-12 -96 q-17 -1 -32 -1h-31q-39 0 -72.5 4t-59.5 16q6 22 19.5 66.5t32 98.5t41.5 111.5t48 105.5q3 6 3 9q0 9 -14 9z" />
<glyph unicode="5" horiz-adv-x="451" d="M356 642q-66 0 -126.5 -8.5t-107.5 -17.5q-4 -1 -13.5 -19.5t-20 -45.5t-18.5 -58.5t-8 -56.5q0 -15 5.5 -27t13 -21t15 -14.5t12.5 -8.5l56 -28q30 -15 60.5 -33t57.5 -40t45 -50q3 -5 3 -10q0 -18 -29.5 -40t-75.5 -41.5t-101 -35t-106 -19.5q-12 -1 -12 -7t12 -16 t29 -19t37 -15.5t35 -6.5q21 0 51 5.5t63 16t66.5 24t61 30t46.5 35t23 37.5q4 16 4 34q0 44 -24.5 77t-63.5 59q-40 26 -90 46l-98 39q-6 2 -8.5 11t-2.5 21q0 15 3 32.5t7 32.5t9 25.5t9 10.5q26 4 50.5 7t49.5 7l51 7q26 4 56 11q7 1 14 7.5t12 14.5t8.5 17t3.5 16 q0 10 -20.5 12.5t-43.5 2.5z" />
<glyph unicode="6" horiz-adv-x="480" d="M246 68q-30 0 -57.5 11.5t-48.5 31t-33 43.5t-12 50q0 86 27.5 153.5t66.5 120t81.5 92t72.5 70.5q4 5 4 11q0 16 -17 16q-5 0 -11 -3q-23 -13 -54 -34t-64.5 -49t-66 -62.5t-58 -75t-41.5 -87t-16 -97.5q0 -56 13.5 -104.5t45 -84.5t84 -57t130.5 -21q44 0 75 15 t50.5 37t28.5 48t9 49q0 34 -16 66t-41 60.5t-56 51.5t-60.5 40t-54.5 26t-38 9q-8 0 -10 -2q-4 -3 -4 -6q0 -4 10 -9.5t27.5 -16.5t40 -31t46.5 -53q22 -29 39 -64.5t17 -65.5q0 -22 -11 -37t-27.5 -24t-35.5 -13t-35 -4z" />
<glyph unicode="7" horiz-adv-x="435" d="M22 624q0 -10 4.5 -23t11.5 -25t14 -21t13 -10q19 -5 49 -11l62 -12q32 -6 63.5 -13t53.5 -14q20 -7 26.5 -14t6.5 -16q0 -35 -17 -89t-41 -114l-50 -122q-26 -60 -43 -107q-8 -23 -12 -36l-6 -20q-2 -7 -2 -10v-4q0 -8 7 -8q6 0 14.5 4.5t17 11t16 14.5t10.5 15 q12 23 32 57l41 73l44 84t40 86.5t29 82t11 71.5q0 21 -6 36.5t-16 27t-24.5 20.5t-30.5 18q-32 16 -72 29.5t-81.5 24t-81 18.5t-70.5 12q-13 0 -13 -16z" />
<glyph unicode="8" horiz-adv-x="475" d="M128 476q0 38 27 79q5 6 5 12q0 5 -7 5q-12 0 -30 -11.5t-34.5 -31t-28 -45t-11.5 -53.5q0 -30 11 -53.5t28.5 -42.5t39 -33.5t42.5 -26.5l-32 -28q-18 -16 -34.5 -35.5t-28 -41.5t-11.5 -45q0 -33 12.5 -57.5t33.5 -40.5t48 -24t56 -8q31 0 61 12t53.5 33t37.5 49.5 t14 60.5q0 21 -11 41t-27 38.5t-34.5 34.5t-33.5 27l61 59q31 32 56 65t40.5 67.5t15.5 69.5q0 36 -14 63.5t-37 46.5t-53 29t-63 10q-51 0 -100 -18.5t-80 -47.5q-2 -2 -2 -4q0 -5 8 -10.5t16 -5.5h3q35 11 70.5 19t69.5 8q30 0 53 -8.5t39 -22t24.5 -29.5t8.5 -31 q0 -30 -21 -63.5t-49 -63.5t-57 -56l-44 -40q-48 42 -69.5 78t-21.5 70zM133 102q0 26 25 60t70 78l26 -24q14 -13 25 -28t18.5 -30.5t7.5 -30.5q0 -17 -8 -32.5t-21 -27t-29.5 -18.5t-32.5 -7q-23 0 -38 6.5t-25 16t-14 19.5t-4 18z" />
<glyph unicode="9" horiz-adv-x="460" d="M385 530q-23 -29 -55 -58.5t-65 -54t-64.5 -40t-53.5 -15.5q-14 0 -22.5 7t-8.5 18q0 19 20 48t57.5 59t92 56t124.5 40q9 1 9 8q0 6 -7 14t-17.5 15.5t-23 12.5t-22.5 5h-4q-50 -8 -106.5 -35.5t-104 -64.5t-79 -77.5t-31.5 -74.5q0 -19 10 -33t26.5 -23t37 -13.5 t42.5 -4.5q50 0 96 21t84 45q0 -66 -10 -124t-26 -107.5t-35.5 -89.5t-37.5 -69q-2 -4 -2 -5q0 -7 14 -7t33.5 7.5t25.5 19.5q31 63 59 128.5t49 130t33 127t12 119.5q0 10 -10.5 16t-21.5 6q-12 0 -18 -7z" />
<glyph unicode=":" horiz-adv-x="230" d="M183 61q0 24 -11 43.5t-26 19.5q-12 0 -27.5 -11t-30 -27.5t-24.5 -35.5t-10 -35t13 -21t32 -5q24 0 40 6.5t25.5 16.5t14 23t4.5 26zM191 286q0 17 -7.5 29.5t-20.5 12.5q-20 0 -38 -10t-32 -25t-22.5 -31.5t-8.5 -29.5q0 -14 12 -20.5t30 -6.5q24 0 40.5 7.5t27 19.5 t15 26t4.5 28z" />
<glyph unicode=";" horiz-adv-x="230" d="M49 23q0 -13 6.5 -21.5t20.5 -10.5q3 0 3 -3q0 -7 -13.5 -25.5t-29.5 -38.5l-30 -37q-14 -17 -14 -21q0 -1 2 -1h1q28 9 60.5 32.5t60.5 53t46 60.5t18 55q0 19 -14 30.5t-46 11.5q-14 0 -27 -8.5t-22.5 -21t-15.5 -27.5t-6 -28zM191 286q0 17 -7.5 29.5t-20.5 12.5 q-20 0 -38 -10t-32 -25t-22.5 -31.5t-8.5 -29.5q0 -14 12 -20.5t30 -6.5q24 0 40.5 7.5t27 19.5t15 26t4.5 28z" />
<glyph unicode="&#x3c;" horiz-adv-x="472" d="M199 269q-19 17 -19 29q0 11 5.5 16.5t14.5 8.5q26 9 67.5 21.5t81 26t68 26t28.5 21.5q0 8 -9 11t-31 3q-27 0 -68 -7t-85.5 -18.5t-86.5 -26.5t-72 -32q-21 -12 -34 -24t-14 -25q0 -10 8.5 -22t22.5 -26q26 -25 67.5 -53t85 -51t82.5 -38.5t61 -15.5q11 0 15 4t4 7 q0 12 -23 32t-54 43l-64 47q-32 24 -51 43z" />
<glyph unicode="=" horiz-adv-x="429" d="M383 208q0 9 -4 17t-12 10q-28 6 -57.5 8.5t-59.5 2.5q-53 0 -101.5 -8t-83.5 -23q-5 -2 -7 -8.5t-2 -13.5q0 -8 2 -13t7 -5q56 9 102 13t87 4q32 0 59.5 -2t53.5 -5q8 0 12 7t4 16zM397 343q0 9 -3.5 17t-11.5 10q-28 6 -57.5 8.5t-59.5 2.5q-53 0 -101.5 -8t-83.5 -23 q-5 -2 -6.5 -8t-1.5 -14q0 -7 1.5 -12.5t6.5 -5.5q56 9 102 13t87 4q32 0 59.5 -2t53.5 -5q8 0 11.5 7t3.5 16z" />
<glyph unicode="&#x3e;" horiz-adv-x="472" d="M379 355q-34 20 -79 37.5t-85 28.5t-67.5 13t-27.5 -9q0 -8 17 -19.5t41 -24.5l52 -27q28 -14 48 -27q11 -7 19 -14t8 -17q0 -8 -6 -16.5t-20 -19.5q-25 -22 -65 -44l-78 -43q-38 -21 -64.5 -39t-26.5 -29q0 -7 19.5 -4t51.5 12.5t71.5 25t79 33.5t75.5 37.5t60 37.5 q20 15 29 27.5t9 25.5q0 14 -18.5 27.5t-42.5 27.5z" />
<glyph unicode="?" horiz-adv-x="455" d="M104 439q5 27 19.5 47t32.5 32.5t38 18.5t35 6q21 0 40 -7.5t33.5 -20.5t23.5 -30.5t9 -38.5t-7 -38.5t-18.5 -33.5t-26.5 -31.5t-31 -30.5q-15 -14 -29.5 -29.5t-27.5 -32.5t-23 -37t-15 -43v-2q0 -8 9 -17t16 -9q3 0 4 4q9 39 38 72t64 62l55 44q24 18 40 36t24.5 38.5 t8.5 51.5t-11.5 64t-36.5 59t-64.5 43t-95.5 17q-37 0 -64.5 -15t-45.5 -39t-27 -55t-9 -63q0 -35 7.5 -47t13.5 -12q11 0 14.5 8.5t6.5 28.5zM212 28q0 17 -14 34t-31 17q-9 0 -20 -5t-20.5 -13.5t-16 -19t-6.5 -22.5q0 -18 17.5 -23.5t35.5 -5.5q31 0 43 11.5t12 26.5z " />
<glyph unicode="@" horiz-adv-x="618" d="M186 303q0 -17 11 -27.5t35 -10.5q36 0 70.5 19.5t64.5 55.5q-9 -18 -15.5 -37.5t-6.5 -36.5q0 -24 16 -32.5t35 -8.5q35 0 67 18.5t56.5 49.5t39 70.5t14.5 81.5q0 34 -12 64t-36.5 52t-62.5 35t-89 13q-73 0 -133.5 -25.5t-103.5 -67.5t-66.5 -95.5t-23.5 -108.5 q0 -46 18.5 -84t50 -65t74.5 -42t91 -15q44 0 92 14q5 1 5 8q0 8 -6 17t-11 9q-3 0 -8 -1q-17 -3 -41 -3q-45 0 -82.5 13t-65 36.5t-42.5 56.5t-15 73q0 41 18 84.5t52 79t81.5 58.5t107.5 23q42 0 73.5 -11.5t53 -31t32 -45t10.5 -53.5q0 -39 -13.5 -72t-33 -56t-41.5 -36 t-38 -13q-11 0 -15 8t-4 20t3 26t7.5 28t9 26.5t8.5 20.5v2q0 2 -3.5 4t-8.5 2t-8 -3q-28 -29 -54 -53t-60 -24q-14 0 -20 7.5t-6 19.5q0 16 11 37.5t31 41.5t48 34.5t62 17.5q6 0 6 9q0 6 -4 13t-9 7q-37 0 -75.5 -20t-69.5 -49.5t-51 -64t-20 -63.5z" />
<glyph unicode="A" horiz-adv-x="460" d="M39 -22q6 0 13.5 2.5t14.5 7t12 10.5t7 12q17 72 30.5 139.5t27.5 127.5l46 15l54 18l50 15q22 7 33 10q3 -33 7.5 -75.5t8.5 -88t7 -89t3 -77.5q0 -12 8 -12q7 0 15 9.5t9 21.5q2 20 4 61t4 88.5t3 95t1 81.5q7 3 14.5 9t7.5 14q0 10 -7.5 13.5t-15.5 4.5 q-2 41 -5.5 99.5t-21.5 118.5q-9 6 -22.5 13.5t-28 14t-28.5 11.5t-23 7q3 5 7.5 14t4.5 17q0 10 -12 10q-36 0 -62.5 -8t-30.5 -19h-9q-8 0 -14 -1t-7 -6v-3q0 -6 3 -10.5t6 -7.5q-13 -26 -23.5 -64t-19 -78.5t-14.5 -78.5l-10 -65q-8 -1 -20 -2t-16 -7q-7 -10 -12.5 -30.5 t-5.5 -39.5q0 -14 2.5 -18t5.5 -4q5 0 15.5 3t18.5 5l-8 -40l-12 -62l-11.5 -70t-9.5 -63.5t-4 -40.5q0 -8 10 -8zM294 550q11 -29 18.5 -75.5t9.5 -93.5l-164 -21q11 56 27 116t48 115q7 0 23 -12z" />
<glyph unicode="B" horiz-adv-x="489" d="M19 571q0 -6 4 -6q32 0 55 -1t46 -5l-26 -15q-12 -7 -12 -18v-38q-2 -23 -2 -48v-50q0 -26 -1 -47q-10 -3 -20 -8t-10 -22q0 -13 7 -17t18 -5l-10 -127q-4 -62 -9 -112q-12 -1 -28.5 -5t-16.5 -15t9 -14t20 -3h14q1 -8 7 -17.5t22 -9.5q20 0 27.5 10.5t9.5 21.5 q21 1 53 1q33 0 68.5 3t71 9.5t64 20t46 36t17.5 55.5q0 41 -29.5 72t-72.5 53t-91.5 36t-86.5 22q24 4 56.5 13t67.5 22t69 30t61.5 38.5t44 47.5t16.5 56q0 35 -16.5 58.5t-44 37.5t-64 19.5t-75.5 5.5q-32 0 -64.5 -3t-62.5 -7.5t-56.5 -10.5t-46.5 -11q-5 -1 -10 -7.5 t-9.5 -14.5t-7 -16.5t-2.5 -14.5zM198 565q21 2 41 3.5t40 1.5q30 0 51 -7.5t34 -19t19 -25t6 -25.5q0 -26 -23.5 -46.5t-57.5 -36t-72.5 -25.5t-69.5 -15l6 52l8 64t8.5 55.5t9.5 23.5zM126 60l30 229q46 -8 85 -17t67.5 -22t44.5 -31.5t16 -44.5q0 -20 -24.5 -38.5 t-61 -34.5t-79 -27t-78.5 -14z" />
<glyph unicode="C" horiz-adv-x="492" d="M136 235q0 78 16 142.5t41 111t56.5 72.5t61.5 26q9 0 28.5 -4.5t39 -11t34 -15t14.5 -17.5q0 -5 -7 -11q-8 -6 -14.5 -19t-11 -30t-7 -35.5t-2.5 -36.5q0 -21 3 -33.5t7.5 -19t11 -8t13.5 -1.5q9 0 18 3.5t14 11.5q47 68 47 138q0 75 -25 112t-88 37q-19 -1 -37 -3 l-33 -4q-53 -8 -94.5 -32t-73.5 -58t-55 -75t-37.5 -83t-21 -82.5t-6.5 -72.5q0 -58 18.5 -105.5t50.5 -81.5t75.5 -52.5t93.5 -18.5q39 0 72 6t62 19t55.5 34.5t52.5 52.5q7 8 7 18q0 9 -5.5 15t-11.5 6q-5 0 -8 -4q-12 -16 -30.5 -32.5t-42 -30t-50.5 -22.5t-56 -9 q-48 0 -81.5 16.5t-54 44.5t-30 65t-9.5 77z" />
<glyph unicode="D" horiz-adv-x="456" d="M108 550q-8 -2 -14.5 -5t-7.5 -9l-10 -86q-6 -50 -10.5 -109t-8 -121.5t-3.5 -120.5q0 -26 0.5 -33.5t3.5 -7.5q5 0 13.5 7.5t10.5 14.5q15 62 29 134l25 138l20 118q8 52 14 74q42 -11 78 -34.5t62.5 -56.5t41.5 -72.5t15 -81.5q0 -39 -14.5 -77.5t-47 -74t-83.5 -66 t-124 -51.5q-10 -3 -24 -9.5t-14 -14.5q0 -4 12.5 -6.5t24.5 -2.5q25 0 56.5 6.5t62.5 16.5t57.5 21.5t40.5 22.5q7 4 7 8t-10 7l-8 2q0 1 7 5q31 18 57.5 44.5t45.5 59t30 70t11 76.5q0 50 -21.5 99.5t-69.5 91t-126 71.5t-191 42q-2 0 -2 -10v-20q0 -16 2 -17 q20 -11 36.5 -17.5t39.5 -17.5q2 -1 2 -3q0 -1 -16 -5z" />
<glyph unicode="E" horiz-adv-x="460" d="M150 352q2 16 6.5 40t10.5 52l12 56l11 52q39 11 91 11q35 0 70.5 -5t64.5 -16q6 -2 7 -2q6 0 9 14t3 31t-3 31t-10 16q-28 8 -54 10.5t-49 2.5q-53 0 -92 -8.5t-64.5 -20.5t-39 -24.5t-15.5 -19.5q-8 -31 -18 -84t-19 -117t-15.5 -132.5t-6.5 -130.5q0 -40 3 -74 q0 -5 8 -5q6 0 6.5 -4t1.5 -9q1 -6 4 -10.5t17 -5.5q23 -1 49 -2t53 -1q35 0 71 3t71.5 12t69 25.5t62.5 42.5q9 8 12.5 15t3.5 13q0 9 -6.5 14.5t-11.5 5.5t-13 -10q-29 -31 -79 -42.5t-107 -11.5q-47 0 -89 5t-69 9q2 16 6 44l8 60q4 32 9.5 63.5t10.5 54.5q37 6 80 9 t85 3h41q13 0 26 -2q8 -1 18.5 -2.5t15.5 -1.5t7 11.5t2 25.5q0 15 -2 27.5t-7 13.5q-14 2 -27 3t-26 1q-50 0 -102.5 -10t-100.5 -26z" />
<glyph unicode="F" horiz-adv-x="442" d="M160 380l6 49q4 26 8.5 52t9.5 50t10 43q16 4 33 6.5t38 2.5q29 0 62.5 -5.5t66.5 -17.5q8 -3 13.5 -5.5t9.5 -2.5q6 0 9 14.5t3 32.5q0 17 -3 32t-10 17q-37 10 -66 14t-54 4q-27 0 -59 -6t-60.5 -17t-49.5 -26t-25 -33q-10 -57 -16 -117l-10 -105q-8 -3 -17.5 -7.5 t-18 -10t-14.5 -11.5t-6 -12q0 -9 8 -11.5t14 -2.5q8 0 15 1t13 2q-2 -19 -4 -45t-4 -55t-3.5 -60.5t-1.5 -62.5q0 -41 1.5 -63t5.5 -32.5t10.5 -12.5t15.5 -2q11 0 21 10.5t11 36.5q1 28 3.5 66.5t7 79.5t9.5 81.5t11 71.5q27 5 66.5 8t81.5 3q36 0 62.5 -1t37.5 -3 q8 -1 16.5 -2.5t13.5 -1.5q11 0 16 12.5t5 27.5q0 17 -5.5 30.5t-16.5 15.5q-23 4 -57 4q-30 0 -61.5 -3t-60.5 -8t-53 -11.5t-38 -13.5z" />
<glyph unicode="G" horiz-adv-x="575" d="M115 248q0 58 16 117.5t45.5 108t70 79.5t89.5 31q33 0 55.5 -22.5t38.5 -52.5t26 -60t16 -44q3 -7 12 -7t21.5 6.5t24 14.5t19.5 16t8 10q-12 48 -34.5 84.5t-53.5 61t-70 37t-83 12.5q-62 0 -116.5 -40t-95 -101.5t-64 -136.5t-23.5 -146q0 -48 12 -91.5t38 -76 t67 -51.5t100 -19q57 0 96.5 18.5t74.5 63.5q-1 -52 -7 -132l-15 -187q-1 -8 -1.5 -13t-0.5 -6q0 -10 14 -10q9 0 20.5 3.5t21.5 9t17.5 12t7.5 12.5q4 52 13.5 113t20 118t20.5 104.5t16 73.5q2 10 4 17.5t2 11.5t-6.5 7.5t-15.5 6t-19 4t-17 1.5q-9 0 -10 -2 q-13 -22 -32.5 -51t-43.5 -55.5t-52.5 -44.5t-59.5 -18q-44 0 -76 17t-52 46.5t-29.5 68t-9.5 81.5z" />
<glyph unicode="H" horiz-adv-x="525" d="M155 336l11 56l14 74l16 80l13 73q0 13 -15.5 19t-32.5 6t-29.5 -4t-14.5 -11q-8 -38 -16 -83q-9 -44 -15 -88l-12 -82q-6 -38 -7 -62q-19 -12 -30 -25t-11 -31q0 -14 10.5 -23t20.5 -11l-4 -54q-2 -26 -2 -56q0 -26 1.5 -53.5t6.5 -59.5q2 -9 11.5 -16.5t20.5 -7.5 t20.5 10.5t10.5 36.5q0 26 2 55.5t4.5 59t6 56.5t8.5 48l55 19q31 10 65 19t67.5 15t62.5 6h10q5 0 10 -1q-2 -17 -4.5 -52.5t-6 -80t-9 -92t-11.5 -87.5q-2 -10 -2 -15q0 -6 5.5 -8.5t13.5 -2.5q10 0 19.5 4.5t11.5 12.5l28 146q16 81 29.5 169t23 179t9.5 176q0 8 -6.5 12 t-16.5 4q-9 0 -18.5 -2.5t-18 -7t-14.5 -10t-6 -11.5q-5 -93 -10 -168t-10 -110q-10 2 -22.5 3t-27.5 1q-27 0 -59 -2.5t-62 -6.5t-55 -8.5t-39 -7.5z" />
<glyph unicode="I" horiz-adv-x="270" d="M220 647q-19 0 -40 -3.5t-25 -8.5q-12 -16 -25.5 -42.5t-24.5 -56.5t-19 -60.5t-11 -55.5q0 -6 7 -7.5t10 -3.5q-6 -29 -12 -66t-10 -77t-6.5 -81t-2.5 -78q0 -70 9 -112q1 -3 9.5 -4.5t21.5 -1.5q18 0 36 4t18 15q0 4 -2 12t-3 25t-1 37q0 63 11.5 140.5t27.5 153.5 t32 140l25 102q2 7 3.5 13.5t1.5 9.5t-8.5 4.5t-21.5 1.5z" />
<glyph unicode="J" horiz-adv-x="402" d="M269 581l14 -2q7 -1 9 -9q5 -23 5 -56q0 -37 -5 -83.5t-13.5 -95t-20 -95.5t-25 -83.5t-28 -59t-29.5 -22.5q-14 0 -22.5 16.5t-10.5 33.5q-1 4 -1 7q0 4 8 6q6 1 6 7q-2 30 -11 56.5t-18 48.5q-5 11 -16 15.5t-25 4.5q-15 0 -27 -6t-12 -19q0 -51 6 -88t15.5 -66t22 -52 t26.5 -46q2 -4 14.5 -6t29.5 -2q13 0 28 1t27 3t20.5 5t10.5 6q29 53 57 124t50 147t35.5 151t13.5 136q0 43 -7 74.5t-17 31.5q-11 0 -31.5 -9.5t-41 -22.5t-35.5 -25.5t-15 -18.5q0 -5 13 -7z" />
<glyph unicode="K" horiz-adv-x="543" d="M161 624q-11 0 -25 -3.5t-26 -8.5t-20.5 -11t-8.5 -10v-19q0 -37 -2 -86.5t-5.5 -104.5t-7.5 -111l-9 -108l-7 -94l-5 -68q0 -5 11.5 -8t25.5 -3q16 0 29 3t14 8q5 34 9 72l8 76l7 71q3 34 6 61q10 -18 29 -64.5t54 -109.5q13 -23 27.5 -44t30.5 -37t32 -25.5t32 -9.5 q29 0 53.5 4.5t47.5 16t45.5 30t47.5 45.5q8 9 8 20q0 8 -4.5 14.5t-10.5 6.5q-7 0 -13 -8q-16 -19 -30 -29.5t-26.5 -15.5t-22.5 -6t-17 -1q-14 0 -28.5 9t-32.5 30q-19 20 -38.5 48.5t-37.5 61.5t-32.5 68.5t-22.5 68.5l58 46q34 28 70 62.5t66.5 72.5t47.5 76q4 8 4 20 q0 17 -10 29t-18 12q-7 0 -19.5 -3t-24.5 -6.5t-21 -8t-9 -7.5q0 -5 8 -5q4 -1 7.5 -3t3.5 -15q0 -17 -13.5 -41t-35.5 -51.5t-49 -56t-54 -54t-51.5 -45.5t-40.5 -30q2 22 5 51l6 60q3 32 5 62.5t2 54.5q0 36 -3.5 43.5t-18.5 7.5z" />
<glyph unicode="L" horiz-adv-x="415" d="M197 650q-12 0 -23.5 -3.5t-18.5 -11.5q-16 -20 -29.5 -50.5t-24 -64.5t-18 -67t-11.5 -57l-2 -8v-4q0 -4 2 -6l6 -6q7 -5 7 -10q0 -4 -8 -38t-17 -83.5t-17 -106t-8 -104.5q0 -17 1.5 -27t4.5 -15t7.5 -6.5t9.5 -1.5q66 0 148 14t164 51q7 3 10.5 18t3.5 29 q0 10 -1.5 16.5t-5.5 6.5q-2 0 -5.5 -1.5t-10.5 -3.5q-48 -18 -102 -28.5t-92 -10.5q-30 0 -39 5.5t-9 19.5q0 23 10 64t25 91l32 105q16 55 30 108q11 41 17 77.5t6 64.5q0 10 -1 18t-3 15q-1 5 -12.5 8t-25.5 3z" />
<glyph unicode="M" horiz-adv-x="560" d="M161 644q-7 0 -19.5 -4.5t-25.5 -10.5t-24 -13t-14 -12q-4 -24 -10 -70l-12 -105q-6 -59 -12 -125l-12 -126q-6 -61 -8.5 -111.5t-2.5 -79.5q0 -4 8 -4q7 0 16.5 2.5t18.5 6t16 7t7 6.5q17 106 29 200t31 182q7 -20 16.5 -41.5t22 -39t27.5 -29t32 -11.5q34 0 67.5 25 t62.5 58.5t52 67t37 50.5q-17 -125 -31 -247l-26 -221q0 -7 6 -7t17 3t22 8t19 10.5t9 11.5q10 55 28 129l38 152q20 78 34 156.5t14 144.5q0 9 -12 9q-23 0 -45 -12t-47 -40q-5 -5 -18 -22l-30 -38l-39 -46q-21 -24 -42 -44.5t-41 -33.5t-36 -13q-21 0 -37 25.5t-28.5 62 t-21.5 76.5l-16 69q-4 16 -8.5 30t-11.5 14z" />
<glyph unicode="N" horiz-adv-x="575" d="M127 594q0 -4 0.5 -10.5t-0.5 -11.5q-9 -64 -23 -140l-28 -156l-29 -164q-14 -83 -22 -162q0 -6 11 -6t26 7.5t18 18.5q8 36 20 82l24 94l26 94l26 86l20 70q10 30 16 44q3 -16 12.5 -46.5t23.5 -69.5q12 -40 30 -84l36 -88q18 -44 38 -86.5t38 -75.5q3 -6 18 -6 q9 0 20.5 2t21.5 5t17 7t8 7q49 187 69 349.5t21 290.5q0 11 -16 11q-11 0 -22 -6t-12 -15q-8 -111 -19.5 -194.5t-23.5 -144.5q-14 -62 -26 -106l-21 -75q-10 9 -25 41q-15 34 -33 80l-37 101l-38 109q-18 54 -31.5 101.5t-21.5 78.5q-4 13 -27 13q-33 0 -59 -12.5 t-26 -32.5z" />
<glyph unicode="O" horiz-adv-x="581" d="M568 408q0 46 -10 87.5t-31 72.5t-52.5 49t-74.5 18q-36 0 -64 -1.5t-52 -5.5t-45.5 -12.5t-44.5 -21.5l4 22q2 12 3 23q0 9 -13 9q-7 0 -13.5 -3t-8.5 -8l-28 -81l-28 -84q-11 -20 -26.5 -41.5t-23.5 -41.5q-2 -5 -2 -8t5 -7t10 -4q9 0 15 5l10 10q-16 -34 -31 -88 t-15 -111q0 -36 9 -69.5t30 -59.5t56.5 -41.5t88.5 -15.5q74 0 135 33.5t105 89.5t68 130t24 155zM320 577q44 0 72.5 -19t45.5 -49t23.5 -67.5t6.5 -74.5q0 -78 -18.5 -137.5t-47 -100t-64 -61t-69.5 -20.5q-39 0 -65 16t-41 43.5t-21.5 63.5t-6.5 76q0 38 4.5 77t11.5 76 t15 69t15 56q1 4 12 12.5t29.5 17.5t43.5 15.5t54 6.5z" />
<glyph unicode="P" horiz-adv-x="402" d="M115 568q0 -1 -0.5 -2t-3.5 -5q-11 -15 -20 -53t-17 -88q-8 -48 -14 -104l-11 -105q-5 -2 -10 -6t-5 -18q0 -8 5 -11.5t10 -5.5l-5 -48q-2 -26 -2 -53q0 -43 7 -74q1 -3 10 -5t22 -2q18 0 35.5 5t17.5 13q0 2 -1 8l-2 12q-2 10 -4 39.5t-2 61.5t3 58q81 8 136 25.5 t88.5 43t48 59t14.5 72.5q0 51 -26.5 98.5t-69.5 84.5t-97 59.5t-108 22.5q-20 0 -35.5 -13.5t-15.5 -31.5q0 -14 7 -18.5t31 -11.5q14 -4 14 -7zM311 360q0 -30 -13.5 -53t-37.5 -38.5t-57.5 -25.5t-73.5 -15q1 39 6.5 83.5t12.5 87t14.5 78.5t14.5 57q24 -5 47.5 -22 t43 -41t31.5 -53t12 -58z" />
<glyph unicode="Q" horiz-adv-x="560" d="M39 223q0 33 0.5 51t-7.5 18q-6 0 -11 -15t-9 -35.5t-6.5 -41.5t-2.5 -33q0 -33 9 -63t29 -52.5t53.5 -35.5t82.5 -13q38 0 86 9l44 -34l53 -42l50 -39q24 -18 35 -25q7 -4 15 -4q18 0 32 14t14 23q0 2 -2 4q-25 15 -50 33l-48 36q-24 18 -44 36t-34 32q49 19 90 62 t70.5 98t46 117t16.5 119q0 42 -9.5 79t-30.5 65t-54 44t-79 16q-69 0 -127 -18.5t-100 -57.5t-65.5 -99.5t-23.5 -144.5q0 -52 13 -94t35 -76t50.5 -60.5t60.5 -45.5q-63 4 -99.5 21t-55 41t-23 53t-4.5 58zM165 346q0 40 8 82t25 76t45 55.5t69 21.5q46 0 75.5 -14 t46.5 -38t23.5 -56t6.5 -69q0 -47 -11.5 -96.5t-34 -94t-55 -79.5t-73.5 -52q-23 21 -45 48.5t-40 60.5t-29 71.5t-11 83.5z" />
<glyph unicode="R" horiz-adv-x="402" d="M115 568q0 -2 -1 -3q-12 -16 -20 -43.5t-14 -63.5q-6 -38 -10 -82l-9 -93l-19 -5q-8 -2 -8 -19q0 -11 8 -18t15 -11q0 -18 -2.5 -40t-5.5 -46t-5 -48t-2 -46q0 -34 7 -55q1 -3 10 -4.5t21 -1.5q19 0 36.5 4t17.5 13q0 2 -0.5 7.5t-1.5 10.5q-2 9 -3 24t-2 37q0 27 1.5 56 t3.5 55q21 -39 46.5 -82t62.5 -85.5t88.5 -81t123.5 -68.5q5 -2 10 -2t5 17q0 11 -2.5 16t-17.5 16q-18 13 -50 40.5t-69.5 69t-77 98t-71.5 128.5q34 11 74.5 28t75.5 39t58.5 47t23.5 51q0 29 -18.5 67.5t-56 73t-93 58.5t-130.5 24q-20 0 -35.5 -13.5t-15.5 -31.5 q0 -15 8 -19.5t17 -6.5q10 -3 18.5 -5t8.5 -6zM350 419q0 -21 -23.5 -41t-57 -36.5t-69 -28.5t-59.5 -17q3 78 14.5 140t23.5 104q34 -8 65 -21t54.5 -29t37.5 -34.5t14 -36.5z" />
<glyph unicode="S" horiz-adv-x="441" d="M270 562q0 -1 -2 -5l-6 -10q-4 -7 -5 -12q18 1 38 5.5t40 12t39 17t34 20.5q28 21 28 50q0 25 -16 25q-92 0 -158 -27.5t-109 -68t-63 -86.5t-20 -84q0 -29 9.5 -53.5t25.5 -45.5t36.5 -39.5t43.5 -34.5q26 -19 53 -35.5t48.5 -31.5t35.5 -30t14 -31q0 -19 -10 -24 t-27 -10q-65 -18 -121.5 -37t-104.5 -43q-21 -11 -26.5 -18t-5.5 -13q0 -8 7 -17t17 -17.5t20.5 -14t18.5 -5.5q38 0 81.5 9.5t84 27t74 41t51.5 51.5l27 24q14 12 26 29q11 15 11 27q0 8 -5 13t-10 5t-9 -4q-6 -6 -12 -13l-11 -13q4 13 4 29q0 27 -13.5 50t-35.5 43 q-23 21 -49 40l-53 39q-52 39 -80 73t-28 76q0 34 14.5 56.5t33.5 36t37 19.5t24 6q4 0 4 -2z" />
<glyph unicode="T" horiz-adv-x="370" d="M22 530q0 -6 7 -5l43 7q22 4 44 7l40 7q20 4 34 6q-10 -52 -20.5 -114.5t-19 -127.5t-14 -128.5t-5.5 -117.5q0 -22 1 -42t3 -37q1 -9 12 -9t23 7t13 17q4 50 13 113t21 131.5t26.5 137.5t29.5 131q2 10 2 11q0 4 -21 15q-8 5 -15.5 8.5t-7.5 5.5q0 3 25.5 5t55.5 2 q19 0 31.5 -0.5t24.5 -2.5q8 -1 14.5 -1.5t9.5 -0.5q2 0 3.5 10.5t1.5 24.5q0 15 -2 28t-4 14q-46 5 -90.5 7.5t-86.5 2.5q-46 0 -85.5 -3t-68.5 -9q-3 -1 -9.5 -13.5t-13 -29t-11 -32.5t-4.5 -25z" />
<glyph unicode="U" horiz-adv-x="512" d="M99 634q-7 0 -8 -4q-6 -24 -15 -66.5t-17.5 -95.5t-14.5 -112t-6 -115q0 -51 6.5 -96.5t21.5 -80t40 -54.5t63 -20q23 0 48 8.5t48 22t42.5 29.5t31.5 30q-1 -8 -3.5 -22t-2.5 -28t4.5 -24.5t16.5 -10.5t27 4.5t28 11t22 13t9 9.5q0 5 -5 5t-12 -4.5t-11 -4.5q-3 0 -3 4 q0 5 1 11.5t2 11.5l20 131q12 75 22.5 154.5t18 155.5t7.5 133q0 21 -1 30.5t-9 9.5q-6 0 -14.5 -2.5t-16.5 -6.5t-14 -8.5t-6 -7.5q-7 -54 -14.5 -118.5t-17.5 -129.5t-24.5 -126.5t-35.5 -109t-49.5 -76t-66.5 -28.5q-53 0 -75 44.5t-22 120.5q0 73 15 167.5t38 202.5v1 q0 5 -8 12t-19 13.5t-22.5 11t-18.5 4.5z" />
<glyph unicode="V" horiz-adv-x="504" d="M111 665q-20 0 -43 -13.5t-28 -31.5q-6 -24 -6 -55q0 -38 7 -84t18 -95.5t25 -101.5l29 -99l27 -91l24 -74q-6 -3 -12 -10t-6 -17q0 -9 7.5 -19t23.5 -10q19 0 45 14l54 30q5 3 5 4q0 2 -6 4q-5 2 -5 6q41 64 77 136t66 147t52 150t36 145q1 5 2 8t1 7q0 12 -17 12 q-9 0 -19.5 -3t-20 -8.5t-17 -12.5t-10.5 -15l-31 -103q-16 -54 -37 -112.5t-50.5 -122t-71.5 -132.5q-17 51 -34.5 115t-31.5 133.5t-23 141.5t-9 140q0 9 -6 13t-15 4z" />
<glyph unicode="W" horiz-adv-x="690" d="M81 657q-20 0 -26 -17q-17 -51 -24 -83t-7 -52q0 -24 7 -36t17 -23q8 -11 16 -24t11 -38q6 -57 11.5 -104t12.5 -91.5t17.5 -89.5t26.5 -99q2 -5 14.5 -7.5t27.5 -2.5q11 0 21.5 2.5t15.5 9.5q26 31 44.5 60t33.5 56l26 54l22 52q6 -27 14.5 -57t18.5 -59t22 -55t25 -45 q3 -4 13 -4q15 0 32.5 3.5t22.5 8.5q22 25 44.5 66.5t43 93t38.5 109t31 114.5t20.5 109.5t7.5 93.5v15q0 8 -1 15t-6.5 10t-13.5 3q-14 0 -27 -7t-13 -18q-1 -50 -9.5 -107t-26.5 -118.5t-45.5 -125t-64.5 -125.5q-14 30 -25.5 84.5t-11.5 134.5q0 22 1.5 48.5t4 52.5 t5.5 50.5t7 43.5q2 9 3.5 14.5t1.5 10.5q0 8 -7.5 12t-18.5 4q-18 0 -38.5 -9.5t-23.5 -25.5q-11 -57 -22 -121.5t-28.5 -126.5t-43.5 -115t-68 -87q-18 69 -35 158.5t-17 199.5q0 29 2.5 53.5t4.5 37.5q3 13 3 24q0 13 -9 25.5t-22 22.5t-28 16t-28 6z" />
<glyph unicode="X" horiz-adv-x="540" d="M43 578q0 -8 1.5 -14t6.5 -18q15 -40 38 -82l46 -80q23 -38 43 -68l32 -46l-40 -52l-50 -66l-49 -71q-24 -36 -40 -68q-2 -4 -2 -7q0 -8 10.5 -15t20.5 -7q8 0 11 5l49 67l50 62l46 54l32 39q30 -48 68.5 -101.5t83.5 -99.5q10 -10 31 -16.5t36 -6.5q16 0 16 7q0 3 -3 6 q-31 39 -58.5 79t-49.5 76l-40 65l-27 47l51 63l62 80q32 42 58.5 81t40.5 66q5 10 6 17.5t1 15.5q0 11 -2 23.5t-6 23t-10.5 17.5t-15.5 7q-20 0 -47.5 -16t-62.5 -54q-1 -1 -1 -2q0 -2 4 -2t10.5 1.5t12.5 1.5q9 0 9 -3q0 -2 -1 -5q-6 -28 -25 -62.5t-41.5 -70t-45 -67 t-36.5 -53.5q-11 18 -26 45l-31 58q-16 31 -30.5 62.5t-23.5 60.5q3 11 9 18t6 22q0 26 -19 40.5t-51 14.5q-13 0 -23.5 -7t-18 -17.5t-11.5 -23.5t-4 -24z" />
<glyph unicode="Y" horiz-adv-x="495" d="M39 608q-1 -4 1 -10l4 -14q29 -112 70 -196.5t92 -137.5l-18 -46l-20 -54t-16.5 -55t-6.5 -51q0 -31 12.5 -49t41.5 -18q13 0 26.5 3t24 8t17.5 11t7 12t-7 10q-19 10 -19 47q0 19 6.5 50.5t20.5 70t37.5 81.5t58.5 86l38 48q19 23 37 48.5t34.5 54.5t30.5 67q4 11 4 27 q0 10 -1.5 21.5t-4.5 21t-7.5 16t-10.5 6.5q-5 0 -11 -6q-23 -21 -46.5 -51t-47.5 -65l-45 -71l-41 -69l-34 -58l-24 -41l-28 53q-16 30 -31 65.5t-25 76t-10 82.5v14q0 5 1 10q0 4 0.5 8.5t0.5 7.5q0 14 -14 21t-32 7q-23 0 -44 -10.5t-21 -31.5z" />
<glyph unicode="Z" horiz-adv-x="585" d="M529 520q0 39 -44 65q-16 9 -58.5 21.5t-96.5 23t-112.5 18t-106.5 7.5q-5 0 -14.5 -14t-19.5 -32.5t-17 -37t-7 -27.5q121 0 207.5 -10.5t149.5 -33.5q10 -4 10 -14q0 -12 -12 -31.5t-33 -45t-49 -55.5l-58 -62l-68 -72l-67 -71q-32 -35 -58 -66.5t-42 -56.5 q-11 -19 -13.5 -24t-2.5 -8q0 -14 14 -25t29 -14q25 -5 54.5 -7.5t62.5 -2.5q57 0 119 8t119.5 25t105 43.5t75.5 64.5q10 14 10 27q0 17 -12 17q-7 0 -14 -7q-29 -27 -61.5 -45t-67.5 -28.5t-70.5 -15t-69.5 -4.5q-46 0 -86.5 6t-69.5 14q57 50 117 111t113 124 q77 90 110.5 147.5t33.5 87.5z" />
<glyph unicode="[" horiz-adv-x="241" d="M95 669q-11 -5 -18.5 -10t-8.5 -17q-8 -106 -13 -200.5t-7.5 -181.5t-3 -168t-0.5 -160q0 -11 7 -13.5t18 -2.5q26 0 64 5t67 18q17 8 26 16t9 20q0 13 -18 13q-10 0 -23 -3l-27 -6l-27 -6q-14 -3 -25 -3q-10 0 -15.5 2.5t-7.5 9t-2.5 19.5t-1.5 34q0 52 1 123.5t4 149.5 t9 155.5t17 141.5q5 29 34 34q15 2 34.5 4t37.5 6t30 10.5t12 17.5t-10 14.5t-26 3.5q-15 0 -33 -2.5t-36 -6.5q-18 -3 -36 -8z" />
<glyph unicode="\" horiz-adv-x="272" d="M285 -33q0 5 -1.5 11.5t-3.5 11.5l-39 148l-46 166l-47 169l-43 157q-2 9 -11 17.5t-20 14.5t-23 10t-21 4q-16 0 -16 -11q0 -2 1 -6t3 -9l56 -177l56 -180l52 -167q24 -78 38 -136q3 -13 21 -22.5t31 -9.5t13 9z" />
<glyph unicode="]" horiz-adv-x="241" d="M21 -85q21 0 49 4t53.5 10.5t43.5 15.5t19 20q9 115 14.5 211t7.5 180.5t2.5 160.5t1.5 150q0 20 -9 23.5t-23 3.5q-33 0 -62.5 -5.5t-51 -13.5t-34 -18.5t-12.5 -21.5q0 -13 18 -13q10 0 23 3l27 6l28 6q14 3 24 3q9 0 14 -1.5t8 -8.5t3.5 -20t0.5 -35q0 -52 -1 -123.5 t-4 -149.5t-9 -155.5t-16 -141.5q-2 -14 -13.5 -21.5t-26.5 -12t-32 -6.5t-30 -3q-26 -2 -36 -12.5t-10 -19.5q0 -8 9 -11.5t24 -3.5z" />
<glyph unicode="^" d="M278 500q6 0 19 -18t28 -41l29 -47q14 -24 22 -33l4 -6q2 -2 5 -2q4 0 4 10q0 11 -5 31.5t-13.5 44.5t-19.5 49t-22 45.5t-21 33.5t-18 13t-25 -15t-37.5 -37.5t-42.5 -49.5t-39.5 -51.5t-29 -42.5t-11.5 -23q0 -3 2 -3t4 2q18 12 43 36l50 47q24 23 44.5 40t29.5 17z " />
<glyph unicode="_" horiz-adv-x="994" d="M227 6q-47 0 -95.5 -1.5t-101.5 -4.5q-13 -1 -15.5 -6.5t-2.5 -13.5t2.5 -14.5t15.5 -5.5q110 5 231 7.5t249 2.5q129 0 261.5 -2.5t266.5 -7.5q7 0 14 6t7 19q0 6 -5.5 10.5t-10.5 4.5q-62 0 -126 -5.5t-123 -4.5q-72 0 -140.5 2t-137.5 5l-140.5 6t-148.5 3z" />
<glyph unicode="`" horiz-adv-x="234" d="M198 419q-16 11 -34 27l-37 34l-34 34l-26 24q-5 4 -8 4q-6 0 -10.5 -11t-4.5 -22q0 -13 6 -19q12 -12 28 -24t34 -24l34 -22l32 -18q2 -1 3.5 -2t3.5 -1q5 0 10 5.5t5 10.5q0 2 -2 4z" />
<glyph unicode="a" horiz-adv-x="474" d="M-1 80q5 0 10 4t9 8l10 10q-8 -17 -14 -34.5t-6 -39.5q0 -17 6 -27.5t16 -16t22.5 -7t25.5 -1.5q39 0 71.5 15.5t58.5 37.5t45 45l31 37q-5 -12 -7.5 -25.5t-2.5 -29.5q0 -33 22.5 -48.5t46.5 -15.5q20 0 40.5 9.5t38.5 23.5t33 29.5t26 28.5q14 17 14 30q0 8 -4.5 12 t-9.5 4q-6 0 -10 -4l-22 -23q-13 -14 -27 -26t-27.5 -21t-23.5 -9q-18 0 -18 31q0 14 3 32t7 37.5t9 38.5l9 35q3 10 3 16q0 8 -10.5 14t-24.5 6q-10 0 -19 -3.5t-14 -11.5l-38 -53q-24 -32 -51.5 -61.5t-57.5 -51t-58 -21.5q-12 0 -18 7t-6 18q0 29 26 64q38 49 104.5 93 t156.5 80q5 2 5 5t-5.5 7t-14 7t-17.5 5t-15 2h-7q-51 -9 -99.5 -36t-90.5 -59.5t-74 -64.5l-53 -52q-17 -17 -17 -33q0 -17 13 -17z" />
<glyph unicode="b" horiz-adv-x="479" d="M78 275q0 -16 0.5 -31t1.5 -30l-21 -24l-25 -27l-24 -25l-19 -20q-9 -9 -9 -19q0 -9 5.5 -15t11.5 -6q2 0 5 1.5t9 8.5l33 34l32 33q1 -26 5.5 -58.5t16 -60.5t31.5 -47t52 -19q54 0 91 40t53 119q9 -24 20.5 -39.5t23.5 -24t24 -11.5t23 -3q20 0 41.5 11.5t38.5 31.5 q8 9 8 18q0 8 -6.5 13t-12.5 5t-9 -3q-30 -33 -55 -33q-14 0 -25 9t-19 22.5t-13 30t-7 31.5l10 21q5 10 5 29q0 22 -15.5 33.5t-32.5 11.5q-31 0 -45.5 -18t-14.5 -39t9.5 -33t17.5 -20q-8 -25 -16 -46.5t-18.5 -37t-24.5 -24t-34 -8.5q-24 0 -33 29t-9 71q0 25 2.5 52 t6.5 53l29 55q18 34 36.5 77t31.5 89.5t13 90.5q0 42 -11 67t-28 25t-34 -11t-33 -27q-26 -26 -44 -65.5t-29 -86.5t-15.5 -98.5t-4.5 -101.5zM158 316q-2 0 -2 7q0 33 6 73.5t14.5 75t18.5 58t18 23.5q5 0 5 -14q0 -13 -3.5 -34t-9.5 -46t-13 -50.5t-14 -46t-12.5 -33.5 t-7.5 -13z" />
<glyph unicode="c" horiz-adv-x="368" d="M3 84q7 0 13 6q14 14 23.5 24.5t20.5 21.5q-4 -9 -4 -22q0 -35 15 -57t38 -35t50.5 -18t53.5 -5q48 0 91 23.5t75 64.5q11 14 11 26q0 8 -5 12.5t-10 4.5q-7 0 -11 -6q-29 -36 -57 -49.5t-59 -13.5q-30 0 -49 7t-30.5 19t-16 27.5t-4.5 32.5q0 15 5 27.5t17 19.5l79 42 q37 20 64 37.5t42.5 33t15.5 28.5q0 20 -17.5 29t-37.5 9q-23 0 -50 -13.5t-57 -35t-60 -48.5t-58 -55l-53 -53l-42 -44q-10 -10 -10 -21q0 -8 5 -13.5t12 -5.5z" />
<glyph unicode="d" horiz-adv-x="474" d="M103 -12q24 0 48.5 21t46 52t39 66t28.5 62q10 -53 25 -87t31.5 -54t33.5 -27.5t30 -7.5q12 0 26 8t27.5 19.5t25.5 23.5l19 19q12 12 12 25q0 8 -5 13.5t-11 5.5t-10 -5q-22 -25 -41 -37t-30 -12q-17 0 -28.5 22t-19 55t-12.5 70l-9 67l24 75q13 40 24.5 82t19.5 85 t8 87q0 25 -7.5 36t-18.5 11q-14 0 -24 -9t-20 -24q-15 -24 -28 -59.5t-23.5 -73t-17.5 -73t-10 -60.5q-32 -6 -68 -36t-70 -68l-67 -77q-32 -38 -56 -61q-13 -13 -13 -24q0 -8 5 -13.5t12 -5.5q4 0 10 4q10 9 18.5 18t16.5 19q-6 -18 -8 -34.5t-2 -25.5q0 -20 6.5 -33.5 t16.5 -22t22 -12.5t24 -4zM136 140q10 21 24 44l32 46l32 43l28 34q0 -11 1 -29t3 -30q-8 -18 -26 -50l-38 -65q-20 -33 -38.5 -57.5t-28.5 -24.5q-6 0 -9 5t-3 12q0 15 8 35.5t15 36.5z" />
<glyph unicode="e" horiz-adv-x="336" d="M2 79q3 0 6 3q7 6 19.5 20t23.5 25q-9 -17 -9 -41q0 -18 6.5 -37.5t21.5 -35t38.5 -25.5t58.5 -10q26 0 50 8.5t45.5 23t42 33t38.5 39.5q15 16 15 29q0 8 -4.5 11.5t-10.5 3.5q-3 0 -6.5 -1t-9.5 -6q-12 -10 -25.5 -24.5t-29.5 -27.5t-35.5 -22t-42.5 -9q-22 0 -36 7 t-22.5 17.5t-11.5 22.5t-3 23v6q0 4 1 7q51 12 91 30.5t68 42t42.5 50.5t14.5 55q0 17 -13.5 26t-33.5 9q-32 0 -70.5 -20.5t-78.5 -51.5q-40 -32 -78 -69l-70 -70q-8 -8 -8 -19q0 -9 5 -16t11 -7zM277 277q9 0 9 -8q0 -22 -13.5 -39t-35 -30t-48.5 -22t-54 -15q-2 0 -2 1 q0 4 18 22t42 38.5t48 36.5t36 16z" />
<glyph unicode="f" horiz-adv-x="336" d="M81 268v-25q0 -11 1 -22q-17 -24 -35 -46t-51 -51q-10 -9 -10 -21q0 -8 4.5 -14.5t11.5 -6.5q6 0 14 8l28 30l27 27l-9 -47q-6 -30 -10.5 -68t-8.5 -80.5t-4 -81.5q0 -30 3 -57t10.5 -47.5t19.5 -32t30 -11.5q20 0 34 7.5t24 20.5t16 28.5t11 32.5q7 27 12 58t8.5 61 t6 56.5t6.5 44.5q5 28 14 28q4 -1 8 -3l7 -4q4 -4 12 -8t22 -4q18 0 34 16l31 30q8 8 8 19q0 8 -5 14.5t-12 6.5q-2 0 -4.5 -1.5t-7.5 -7.5q-25 -25 -43 -25q-6 0 -12 3l-12 6q-5 2 -10 4.5t-12 2.5q-17 0 -23.5 -9t-12.5 -24q-8 -21 -13 -51q-5 -32 -9 -64l-6 -63 q-4 -31 -10 -54q-4 -17 -8 -25t-7 -11.5t-6 -3.5h-3q-9 0 -13 18t-4 47q0 41 6 97.5t13.5 113t15.5 104.5l11 72q7 15 21 47.5t28 74t25 88t11 90.5q0 52 -13 77.5t-25 25.5q-14 0 -24 -7t-20 -16q-25 -23 -42 -65t-28 -93t-16 -106t-5 -103zM202 516q0 -19 -4.5 -47.5 t-11 -55t-13 -45.5t-10.5 -19q-6 0 -6 35t4 63.5t10 48.5t12.5 31t11.5 11q7 0 7 -22zM192 537q-9 -5 -16.5 -27t-12 -50.5t-6 -57t1.5 -45.5q2 -14 7.5 -5t12.5 30t12 49.5t8 53.5t2 40.5t-9 11.5z" />
<glyph unicode="g" horiz-adv-x="344" d="M9 -214q0 -14 6 -30t20.5 -30t38 -23t58.5 -9q43 0 76 12.5t55 31.5t33 42t11 44t-8 41t-20.5 38t-28 34.5t-30.5 30.5q15 12 34 25.5t37.5 28.5t34.5 31t27 32q8 11 10.5 18.5t2.5 13.5q0 8 -3.5 11t-8.5 3q-8 0 -14 -8q-14 -21 -33 -39.5t-39 -35.5l-42 -30l-36 -26 q-12 10 -26.5 24.5t-27 31.5t-21 36.5t-8.5 39.5q0 33 24.5 66t55.5 57l50 40q22 17 37 31t22.5 27t7.5 28q0 12 -15 17t-31 5q-23 0 -50 -11t-54 -35.5t-50.5 -63.5t-38.5 -96q-10 -10 -24.5 -23t-27.5 -26t-22.5 -25.5t-9.5 -21.5q0 -7 4.5 -10.5t9.5 -3.5q6 0 12 4 t11.5 9.5t10 10.5t7.5 8q-2 -7 -3 -14.5t-1 -15.5q0 -28 9.5 -49t24.5 -36t33 -25t35 -17l-36 -30q-22 -18 -41.5 -40.5t-33.5 -47.5t-14 -50zM235 -180q0 -18 -12 -34.5t-29 -28.5t-37.5 -19t-36.5 -7q-38 0 -51.5 16.5t-13.5 34.5q0 21 13 43t31 41.5t37 35t32 24.5 l23 -25q12 -13 21.5 -26.5t16 -27.5t6.5 -27z" />
<glyph unicode="h" horiz-adv-x="492" d="M1 79q4 0 7 3l12 13q8 8 13 14q-1 -8 -2 -22.5t-1 -33.5q0 -20 1.5 -40.5t5.5 -37.5q2 -11 13 -15t25 -4q16 0 29.5 4.5t15.5 9.5q10 26 25.5 56t31.5 58t32 50t28 33q1 -8 5 -24t10 -35.5t14.5 -40.5t20.5 -39q17 -24 34.5 -32.5t41.5 -8.5q20 0 37.5 7t33.5 20 q16 12 32 30l33 38q13 16 13 29q0 17 -14 17q-6 0 -12 -6q-8 -9 -21.5 -22.5t-28 -25.5t-28.5 -21t-24 -9q-18 0 -30 25q-9 18 -14.5 44.5t-9 53t-5.5 49.5t-4 35q-3 17 -25 17q-11 0 -23.5 -4t-21.5 -10q-18 -14 -40.5 -45.5t-43.5 -68t-38.5 -72t-26.5 -57.5v9 q0 35 5.5 86.5t19.5 107.5q29 28 65.5 72t69 96t55 109t22.5 111q0 29 -13.5 45.5t-36.5 16.5q-44 0 -82 -34t-69 -97t-54.5 -154t-38.5 -205l-21 -22q-12 -13 -28 -28q-14 -13 -14 -25q0 -9 6 -14.5t13 -5.5zM306 592q0 -15 -7.5 -40t-20 -55.5t-29.5 -63.5t-36 -63.5 t-39 -55.5t-38 -39q0 8 6 33.5t17 59.5t25.5 72.5t32 72.5t36.5 59.5t38 33.5q4 2 6 2q9 0 9 -16z" />
<glyph unicode="i" horiz-adv-x="430" d="M170 286q-11 0 -18 -6l-36 -34l-44 -46l-44 -45l-36 -35q-9 -8 -9 -20q0 -9 5.5 -15.5t11.5 -6.5q5 0 8 4q34 36 58 59l48 43q8 -42 19.5 -82t26.5 -71t33 -50t40 -19q30 0 60 11.5t57 29.5t49.5 39t37.5 40q12 15 12 25q0 8 -5.5 12.5t-11.5 4.5q-5 0 -7 -2 q-6 -5 -18.5 -18t-27.5 -26.5t-32 -23.5t-33 -10q-23 0 -38 20.5t-24.5 52t-15 70t-8.5 73.5q0 2 -6 6t-14.5 8.5t-18.5 8t-19 3.5zM283 526q0 24 -11 43.5t-26 19.5q-12 0 -27.5 -11t-30 -27.5t-24.5 -35.5t-10 -35q0 -17 13 -21.5t32 -4.5q24 0 40 6.5t25.5 16.5t14 23 t4.5 26z" />
<glyph unicode="j" horiz-adv-x="394" d="M210 330q-6 0 -7 -2q-11 -12 -37 -38l-58 -57l-63 -62l-55 -53q-11 -11 -11 -21q0 -9 6 -14.5t12 -5.5t10 4q54 58 93.5 92t74.5 59q0 -36 -2 -76t-5 -76t-6 -63.5t-4 -37.5q-24 -13 -47 -34t-41 -46.5t-28.5 -53t-10.5 -52.5q0 -23 9.5 -40t23 -28.5t28.5 -17t27 -5.5 q30 0 51 30.5t35 72.5t22 86t11 71q11 3 29.5 13t41 25.5t47 36.5t47.5 47q12 13 12 26q0 8 -4.5 13t-10.5 5q-5 0 -9 -4q-12 -11 -28.5 -28t-36.5 -34t-42 -32t-45 -22q1 19 3 46t4 58l3 64q2 32 2 64q0 41 -3 74q-1 5 -14 10.5t-24 5.5zM305 557q0 16 -5.5 26t-16.5 10 q-18 0 -38.5 -12t-38.5 -29t-29.5 -37t-11.5 -36q0 -14 9.5 -19t27.5 -5q27 0 46.5 10t32 25.5t18.5 33.5t6 33zM154 -66q-3 -22 -9 -55.5t-13.5 -65t-16.5 -54.5t-19 -23q-11 0 -16.5 11t-5.5 29q0 19 5.5 42t16 45.5t25.5 41.5t33 29z" />
<glyph unicode="k" horiz-adv-x="468" d="M155 655q-12 -51 -21 -101q-9 -48 -16 -98l-14 -100l-15 -101q-2 -14 -11.5 -30.5t-22.5 -34.5t-28 -34l-29 -31q-11 -11 -11 -24q0 -8 4 -14t10 -6t12 6l11 11l14 16l14 14l10 10q-2 -10 -5.5 -24t-6.5 -30.5t-5 -34t-2 -35.5q0 -40 12.5 -52.5t26.5 -12.5q6 0 17.5 6 t28.5 23t40 47.5t53 79.5l26 -37q13 -19 28.5 -35.5t35 -27t44.5 -10.5q19 0 37 9.5t34 23.5t30 30l24 29q9 10 9 20q0 8 -5 14t-11 6q-4 0 -8 -3l-14 -14q-9 -9 -19 -18t-20 -15.5t-17 -6.5q-5 0 -11 6t-13 16l-17 27l-20 31q-10 16 -23 30t-26 23q7 9 17.5 24.5t21 36.5 t19.5 48t12 59q0 9 -10.5 15.5t-20.5 6.5q-11 0 -14 -8q-8 -23 -15.5 -41.5t-16 -36.5t-19.5 -36t-27 -40l-10 3q-6 2 -11 1q-18 0 -27.5 -16.5t-9.5 -33.5q0 -9 2 -17l4 -17q-4 -9 -13 -31t-19.5 -44.5t-21.5 -39.5t-18 -17q-5 0 -5 15q0 18 6 52t15 75t20.5 84t23.5 79 q7 22 16.5 49t18.5 57.5t15 66t6 76.5q0 30 -7.5 48.5t-17 28t-19 12.5t-13.5 3q-9 0 -12 -10z" />
<glyph unicode="l" horiz-adv-x="384" d="M79 269v-29q0 -14 1 -28q-23 -28 -48 -53l-39 -39q-14 -14 -14 -26q0 -8 5 -12.5t11 -4.5q8 0 14 6l43 44l30 32q0 -39 7 -71t22 -55.5t38.5 -36.5t56.5 -13q30 0 53.5 6t45.5 18.5t45 33t50 50.5q11 11 11 21q0 8 -5.5 12t-12.5 4q-8 0 -13 -5l-26 -25 q-12 -12 -25.5 -22.5t-29 -16.5t-34.5 -6q-30 0 -49.5 12t-30 37t-14.5 64.5t-4 94.5q21 37 41 77t35.5 80t24.5 79.5t9 75.5q0 18 -3 35t-8.5 30.5t-14 21.5t-18.5 8q-16 0 -33.5 -11t-28.5 -24q-27 -34 -45 -77.5t-28.5 -91.5t-14.5 -98t-4 -97zM158 318v14q3 39 7.5 78 t11.5 70.5t17 51.5t23 20q14 0 14 -25q0 -18 -7.5 -48t-18.5 -61.5t-24 -59t-23 -40.5z" />
<glyph unicode="m" horiz-adv-x="813" d="M238 352q-13 0 -29 -6t-27 -16q-14 -12 -38 -40l-50 -60l-54 -61q-27 -30 -47 -48q-15 -12 -15 -25q0 -8 5.5 -13t12.5 -5q8 0 14 6l64 68l64 64q7 -21 7 -45q0 -36 -11.5 -70.5t-21.5 -60.5q-4 -11 -6.5 -19.5t-2.5 -15.5q0 -10 7 -13q8 -4 21 -6.5t22 -2.5q8 0 11 5.5 t8 13.5q14 24 34 52l42 57l46 57q23 28 44 49q3 3 5 3q4 0 5 -11t1 -30q0 -21 -1.5 -48t-3.5 -52.5t-4 -46.5l-4 -30q-2 -11 -3.5 -21.5t-1.5 -17.5q0 -6 5.5 -8.5t13.5 -2.5q9 0 18 3t13 10q13 24 26 54t30.5 57t40.5 45.5t57 18.5q16 0 28 -7.5t20.5 -20t14.5 -27.5 l14 -30q12 -27 26 -45t42 -18q23 0 44.5 10.5t39.5 24.5t32 29l23 24q18 19 18 33q0 7 -4.5 10.5t-10.5 3.5q-7 0 -14 -5q-7 -6 -19.5 -19t-27.5 -26.5t-31 -23.5t-28 -10q-7 0 -11.5 9t-8.5 23t-7 32.5t-7 37.5q-5 21 -11.5 40.5t-16.5 35t-23.5 25t-30.5 9.5 q-24 0 -47.5 -12.5t-45.5 -31.5t-42 -42t-36 -44l13 41q8 26 16 56t13.5 59.5t5.5 51.5q0 17 -4 28t-15 11q-8 0 -19 -7q-26 -16 -50 -38.5t-46.5 -49t-42.5 -53.5l-38 -52q8 24 11 53.5t3 60.5q0 22 -2 35t-5 20t-7.5 9t-9.5 2z" />
<glyph unicode="n" horiz-adv-x="644" d="M-5 77q8 0 13 5q32 34 71.5 71t84.5 60q5 2 8.5 4t5.5 2q5 0 5 -16q0 -17 -5 -46l-12 -61l-12 -62q-6 -30 -10 -46q-2 -6 -3 -13.5t-1 -11.5q0 -10 9 -14.5t21 -4.5q14 0 27.5 5.5t18.5 15.5q12 21 25 51t30 57.5t41 47t58 19.5q16 0 27 -7t19.5 -18t15 -25t12.5 -29 q15 -33 28.5 -52t42.5 -19q22 0 40.5 8.5t34.5 21.5t31 29l29 31q15 16 15 30q0 8 -5 12.5t-11 4.5t-11 -5q-30 -34 -57.5 -57.5t-45.5 -23.5q-11 0 -17.5 27t-15.5 72q-5 23 -12 44t-17 36.5t-23.5 25t-31.5 9.5q-21 0 -43 -12.5t-44 -31.5q-23 -19 -43 -42l-38 -44l14 41 q8 26 16 55t13.5 58t5.5 51q0 18 -5 29t-16 11q-9 0 -18 -5q-17 -9 -39.5 -26.5t-47.5 -40t-51 -48.5l-50 -50l-44 -45l-35 -35q-15 -15 -15 -27q0 -8 5 -12t12 -4z" />
<glyph unicode="o" d="M48 97q0 -32 11.5 -52.5t31 -33t46.5 -17.5t58 -5q35 0 75 17.5t74.5 51.5t57 82.5t22.5 111.5q0 23 -5.5 44t-18 37t-32.5 25.5t-50 9.5q-27 0 -61 -9q1 4 2 9.5t1 10.5q0 8 -3 13.5t-13 5.5q-3 0 -11 -2q-29 -9 -51.5 -25t-39 -33.5t-26 -34.5t-11.5 -27 q-4 -18 -10.5 -34t-19.5 -34t-33 -39t-50 -49q-10 -10 -10 -21q0 -8 5.5 -14.5t11.5 -6.5q5 0 8 3q15 14 25 26t19 20q-3 -17 -3 -30zM210 246q5 7 11.5 15t16.5 15t23.5 11.5t32.5 4.5q23 0 37 -10.5t22 -25.5t10.5 -32t2.5 -31q0 -35 -14.5 -63t-36 -47.5t-48 -30.5 t-50.5 -11q-23 0 -34.5 9t-17 21.5t-6 26t-0.5 22.5q0 19 3 39t7 35.5t9 25.5t9 10q10 0 13 3.5t10 12.5z" />
<glyph unicode="p" horiz-adv-x="530" d="M5 79q16 15 25.5 26t15.5 17q-8 -73 -15.5 -148.5t-7.5 -147.5q0 -29 1.5 -57t5.5 -54q2 -10 10.5 -14t20.5 -4q14 0 27 6t17 17l29 84q14 42 24 77l18 62l10 37q53 -10 102 -10q44 0 80.5 8t66.5 23t55 35.5t47 45.5q15 16 15 29q0 8 -5 11t-11 3q-8 0 -12 -4l-36 -35 q-18 -18 -41.5 -34.5t-53 -28.5t-68.5 -16q28 11 56 30.5t50 46.5t35.5 60.5t13.5 71.5q0 24 -12 45t-31 36.5t-43.5 24t-49.5 8.5q-22 0 -39.5 -6.5t-31 -16.5t-24 -22t-18.5 -23q-12 -15 -25 -46.5t-26.5 -73.5l-27.5 -90l-27 -98l-25 -94l-20 -80q8 82 17 155.5t23 148 t36 154.5t57 176q3 7 3 12q0 7 -4.5 15t-11 15t-13.5 11.5t-13 4.5t-9 -7q-27 -69 -44 -119.5t-33.5 -90t-38 -71.5t-56.5 -63q-13 -12 -13 -24q0 -9 6 -15t12 -6q4 0 7 3zM203 25q6 23 17.5 61t27 74t33.5 62.5t37 26.5q15 0 25.5 -9.5t17.5 -22.5t10.5 -27.5t3.5 -23.5 q0 -29 -18 -54.5t-43 -45.5t-52.5 -31.5t-45.5 -11.5q-5 0 -13 2z" />
<glyph unicode="q" horiz-adv-x="476" d="M0 80q4 0 11 5q10 9 23 24t27 28q-16 -37 -16 -68q0 -33 19.5 -56t64.5 -23q27 0 55.5 8.5t55 21.5t49.5 29t39 31q-7 -20 -21 -56t-27.5 -77.5t-23.5 -82.5t-10 -71q0 -50 23 -68.5t53 -18.5q34 0 58.5 24.5t24.5 82.5q0 39 -10.5 80t-20.5 75q10 21 22 34.5t26 25.5 l30 24q16 12 34 33q12 13 12 26q0 16 -14 16q-8 0 -15 -7q-35 -36 -64 -59.5t-40 -46.5q8 29 15.5 61.5t14.5 52.5q17 17 31 33.5t26 42.5q2 6 2 9q0 4 -5 8t-12.5 7.5t-15.5 6t-15 2.5q-8 0 -11 -4l-19 -24l-29 -36q-17 -20 -38 -41t-43.5 -38.5t-45 -28.5t-42.5 -11 q-14 0 -21 9.5t-7 23.5q0 34 22.5 70t61 67.5t89 56t106.5 36.5q8 1 8 5q0 3 -10.5 7.5t-25 8.5t-30.5 6.5t-27 2.5q-45 0 -93.5 -23.5t-95 -57.5t-87.5 -73l-71 -69q-11 -11 -11 -25q0 -19 14 -19zM329 -195q0 29 6 63t17 66q3 -8 6 -21.5t5 -30.5t3.5 -35.5t1.5 -35.5 q0 -30 -4 -46.5t-13 -16.5q-8 0 -12 6.5t-6.5 15.5t-3 19t-0.5 16z" />
<glyph unicode="r" horiz-adv-x="359" d="M106 266q0 -2 -1 -5q-17 -41 -49.5 -76t-64.5 -66q-12 -12 -12 -21t7 -14t14 -5q5 0 8 3l30 32l38 38l38 37l31 30q1 0 1.5 0.5t2.5 0.5q3 0 8 -4t10 -10.5t8.5 -16t3.5 -19.5q0 -20 -6.5 -42t-15.5 -45l-21 -53q-10 -25 -10 -42q0 -15 9 -20.5t23 -5.5q17 0 41.5 6.5 t53 21.5t59 39t60.5 58q12 13 12 26q0 15 -16 15q-9 0 -15 -7q-11 -12 -28 -29t-37 -32t-40 -26t-36 -11q-3 0 -3 4q0 9 9 34.5t18 59.5q7 23 11.5 48.5t4.5 50.5q0 33 -9.5 55.5t-23 36t-27.5 19.5t-23 6q-10 0 -21.5 -5.5t-23.5 -13.5q-10 -7 -20 -16l-16 -15q-1 -1 -1 -3 t5 -6t10 -6q4 -1 4 -6z" />
<glyph unicode="s" horiz-adv-x="258" d="M159 338q-5 0 -5 -2q-4 -20 -21.5 -47.5t-41.5 -58t-51 -60.5l-49 -53q-11 -11 -11 -21q0 -8 6.5 -12.5t11.5 -4.5q4 0 7 1.5t8 7.5q22 21 54 55.5t77 66.5q5 -10 5 -33q0 -14 -1.5 -30t-4 -31.5t-6 -28t-6.5 -18.5q-4 -7 -10.5 -8.5t-14.5 -1.5q-5 0 -9.5 0.5t-8.5 0.5 q-10 0 -12.5 -6t-2.5 -16q0 -20 6.5 -33.5t16 -21.5t21 -12t21.5 -4t17 4.5t11 10.5q6 6 8 12l4 12q7 2 19 12l25 22q14 12 26 24l17 17q15 15 15 29q0 8 -5 13t-11 5q-5 0 -10 -5q-6 -7 -15 -15l-18 -18l-17 -14q-8 -6 -10 -9q13 34 24.5 77.5t11.5 88.5q0 23 -4 45t-14 42 q-1 3 -7.5 6t-15 5.5t-17 4.5t-13.5 2z" />
<glyph unicode="t" horiz-adv-x="302" d="M168 420q-8 -22 -15 -38l-15 -36l-17 -38q-12 -26 -31 -58t-43 -66.5t-52 -61.5q-11 -10 -11 -22q0 -9 5 -15t12 -6q4 0 7 3q29 29 58 64.5t47 68.5q-5 -18 -10.5 -40.5t-10 -48t-7.5 -52.5t-3 -53q0 -40 8.5 -53t35.5 -13q26 0 55.5 17t56.5 39.5t47 44.5l28 30 q11 12 11 23q0 16 -16 16q-7 0 -14 -6q-11 -10 -31 -30t-40 -36q-10 -8 -22 -15t-17 -7q-4 0 -4 24q0 25 4.5 71.5t12 99t17 104t19.5 88.5h24q13 0 22 1q7 1 9.5 11.5t2.5 22.5q0 13 -3 23t-12 10h-31q1 7 3 18.5t4 25.5l4 26q2 14 4 26q1 4 1 7v5q0 4 -6.5 7t-14.5 3 q-7 0 -13 -3t-8 -9l-16 -58q-6 -22 -14 -48h-40h-52q-27 0 -52.5 -0.5t-41.5 -0.5q-8 0 -12 -8.5t-4 -19.5t4.5 -21t13.5 -11q30 -3 66 -4t66 -1h31z" />
<glyph unicode="u" horiz-adv-x="417" d="M95 321q-14 0 -14 -3q-11 -74 -34 -122.5t-52 -73.5q-13 -12 -13 -23q0 -8 5.5 -13.5t11.5 -5.5q7 0 11 4q11 10 23 24l20 22q1 -14 2 -36.5t5.5 -44t14.5 -37t28 -15.5t40.5 10.5t44 26t39 33t23.5 30.5q2 -15 7.5 -30t13.5 -27.5t19.5 -20t25.5 -7.5q20 0 37.5 9t32 21 t24.5 23.5t14 16.5q9 12 9 23q0 19 -14 19q-6 0 -12 -6l-14 -14l-19 -18l-18.5 -16t-12.5 -7q-9 0 -14.5 16.5t-7.5 40t-2.5 50t-0.5 47.5q0 3 -12 8t-23 5q-13 0 -14 -8q-6 -22 -18.5 -47t-28.5 -46.5t-34.5 -36t-36.5 -14.5q-11 0 -16.5 16.5t-5.5 42.5q0 19 2.5 41.5 t8 45.5t13 45t16.5 40q0 1 -8 3.5t-19.5 4t-24.5 3t-22 1.5z" />
<glyph unicode="v" horiz-adv-x="344" d="M147 330q-8 0 -23 -3t-30 -7t-26.5 -8t-11.5 -5l-8 -74q-4 -29 -10 -48.5t-15.5 -33.5t-27.5 -30q-10 -9 -10 -20q0 -9 5.5 -14.5t11.5 -5.5t9 4l24 26q10 11 20 20q3 -15 11 -40t19.5 -48.5t25 -40.5t28.5 -17q21 0 46.5 21t51.5 54t51 74t44 80t30.5 72t11.5 51 q0 3 -13 3q-11 0 -22 -3t-12 -9q-3 -15 -11.5 -39t-21 -52t-28 -56t-30 -51t-28.5 -37.5t-23 -14.5q-5 0 -12.5 15.5t-14.5 40t-12 55.5t-5 61q0 44 11 72q1 3 1 6q0 2 -6 2z" />
<glyph unicode="w" horiz-adv-x="472" d="M167 337q-5 0 -18.5 -2t-28 -5t-26 -6.5t-11.5 -6.5q-7 -41 -15.5 -71t-19.5 -52.5t-24.5 -39.5t-29.5 -32q-12 -11 -12 -21q0 -9 6.5 -14t13.5 -5q2 0 5 0.5t8 5.5q11 10 26 26l26 30l3 -34l4.5 -43.5t7.5 -47t13 -42.5q1 -2 6 -3.5t11 -1.5q7 0 13 1t7 3l28 40l31 48 l28 46q13 22 19 34q1 -20 4.5 -48.5t11.5 -54.5t21.5 -44.5t36.5 -18.5q19 0 39.5 23.5t40.5 60.5t38 81.5t32 87.5t22 78t8 53v4q0 2 -6 3.5t-12 1.5q-10 0 -10 -3q-1 -17 -8 -46t-18 -63t-24.5 -68.5t-26 -62.5t-23.5 -46t-17 -18q-14 0 -19 28t-5 68q-1 26 1 54l4 54 q2 26 3 47t1 32q0 3 -10 3q-9 0 -20.5 -1.5t-12.5 -6.5q-4 -14 -12.5 -36.5t-20.5 -49.5t-26 -55l-29 -53q-14 -25 -27 -43.5t-23 -26.5q-5 8 -7.5 32.5t-2.5 56.5q0 42 6 89t22 81h-2z" />
<glyph unicode="x" horiz-adv-x="430" d="M1 80q2 0 4.5 1t10.5 8q11 9 25 27l31 37l33 37q17 18 34 32q3 3 6 3q4 0 7.5 -10.5t7.5 -26.5q4 -14 6 -32l4 -32q-37 -22 -64 -47.5t-48 -60.5q-3 -5 -3 -9q0 -8 7 -13t14 -5t10 5q9 17 21 32t25 27t25.5 21.5t22.5 15.5q7 -30 20 -49.5t29.5 -30t35.5 -14.5t38 -4 q17 0 35.5 8.5t36.5 22t34.5 29.5t28.5 31q10 13 10 23q0 9 -5.5 14.5t-11.5 5.5q-3 0 -7 -4q-6 -7 -18 -19l-25 -24q-13 -12 -26.5 -20.5t-22.5 -8.5q-13 0 -23 8.5t-17.5 21.5t-13 28.5t-8.5 29.5q21 12 48 33.5t50.5 48t39.5 54.5t16 53q0 12 -10 16t-40 4 q-12 0 -20.5 -1.5t-8.5 -4.5q0 -1 0.5 -2t4.5 -3l10 -6q6 -4 6 -14q0 -5 -1 -11t-4 -13q-4 -10 -12 -25t-20.5 -31.5t-29.5 -33t-39 -28.5q-3 25 -5.5 42.5t-6.5 32t-9.5 27.5t-14.5 28q-7 12 -22 12q-3 0 -6.5 -0.5t-11.5 -5.5q-24 -13 -48 -36.5t-48 -50.5l-50 -55 q-24 -28 -48 -51q-9 -8 -9 -18q0 -8 6.5 -13.5t13.5 -5.5z" />
<glyph unicode="y" horiz-adv-x="417" d="M109 295q-15 0 -16 -4q-17 -59 -40 -97.5t-58 -71.5q-12 -11 -12 -23q0 -8 6 -14t12 -6q4 0 7 3l26 28l20 20v-13q0 -16 1.5 -37t7 -39.5t15 -31t25.5 -12.5q18 0 43 16.5t49.5 38.5t44 44.5t25.5 33.5l-7 -36q-4 -22 -10 -44l-10 -43q-5 -21 -9 -35l-31 -48 q-20 -30 -39.5 -64.5t-33.5 -67.5t-14 -54q0 -11 4 -17t9 -9t11 -4t9 -1q41 0 79.5 65t68.5 199q14 7 32.5 20t36.5 28.5t35 32t28 30.5q12 15 12 29q0 15 -13 15q-8 0 -14 -6l-21 -22l-27 -28l-30 -29q-15 -14 -28 -21q6 24 17 64t21 82t17.5 80t7.5 59q0 2 -13 5.5 t-24 3.5t-12 -4q-5 -24 -21.5 -63.5t-39.5 -77t-50.5 -64.5t-54.5 -27q-11 0 -16.5 13.5t-5.5 36.5q0 33 10.5 76.5t27.5 80.5q0 1 -6 3t-15 3.5t-19 2.5t-18 1z" />
<glyph unicode="z" horiz-adv-x="370" d="M178 336q-23 0 -42 -22.5t-30 -50.5q-17 -43 -49 -77l-66 -68q-11 -11 -11 -22q0 -8 6 -13t13 -5q5 0 8 3l29 29l35 35l37 36q19 18 36 32q7 6 15 6q16 0 29 -18t13 -41t-7.5 -43.5t-18.5 -40.5l-25 -48q-12 -22 -11 -41q0 -19 6 -36.5t15 -31.5l-34 -35q-19 -20 -35 -41 t-27 -43.5t-11 -44.5q0 -23 14 -40t43 -17q23 0 50 10t50 28t38.5 44.5t15.5 59.5q0 28 -10 52.5t-21 44.5q10 15 29 33q18 18 40 38l42 39q20 19 34 36q12 15 12 27q0 8 -4.5 12t-10.5 4q-7 0 -13 -6l-40 -40l-42 -44l-36 -40q-16 -18 -25 -29q-14 22 -14 39q0 15 14 38 l29 47q15 24 26.5 49t11.5 51q0 22 -8 47.5t-22.5 47t-34 36t-43.5 14.5zM196 -178q0 -29 -8 -47.5t-20 -29.5t-26 -15.5t-26 -4.5q-33 0 -33 31q0 15 10 34.5t24 39t30 36.5t28 28q10 -16 15.5 -34t5.5 -38z" />
<glyph unicode="{" horiz-adv-x="280" d="M118 354q46 10 75 54q14 21 18.5 42t4.5 43q0 20 -2 38.5t-2 35.5q0 27 11 49.5t47 38.5q5 3 5 8q0 8 -9.5 17.5t-17.5 9.5h-3q-28 -8 -44.5 -19.5t-25.5 -26t-11.5 -32t-2.5 -35.5q0 -14 1 -29t1 -30q0 -26 -5.5 -49.5t-22.5 -43.5q-21 -25 -41 -41l-44 -34q-6 -5 -6 -9 q0 -7 14 -10q11 -3 23.5 -6t24.5 -7.5t21 -11.5t13 -16q9 -24 9 -50q0 -23 -5 -47.5t-11 -50.5l-13 -60q-6 -30 -7 -58q0 -29 10 -55.5t37 -48.5q5 -4 13 -4q7 0 14.5 3.5t14 9.5t10.5 13t4 13q0 8 -8 13q-20 14 -28 33.5t-8 44.5q0 22 4.5 46t10.5 50q7 29 12.5 57t5.5 53 q0 28 -10 48q-8 15 -31.5 28t-46.5 18q-5 1 -5 3q0 3 6 5z" />
<glyph unicode="|" horiz-adv-x="220" d="M137 680q-15 0 -30.5 -7t-16.5 -18q-8 -92 -10.5 -170.5t-2.5 -149.5q0 -114 4 -213t4 -196q0 -10 4.5 -12.5t10.5 -2.5q9 0 17 4t8 13q0 28 0.5 80t1.5 117.5t3 139t6 144t9.5 133.5t12.5 108q1 5 1.5 9t0.5 8q0 7 -6.5 10t-16.5 3z" />
<glyph unicode="}" horiz-adv-x="281" d="M200 320q-29 -7 -51 -15.5t-39 -32.5q-15 -20 -19.5 -46t-4.5 -55q0 -24 1.5 -48t1.5 -47q0 -38 -9.5 -66.5t-43.5 -39.5q-5 -1 -5 -8q0 -9 8.5 -20.5t17.5 -11.5h2q29 7 46 22t26 34.5t11.5 43t2.5 49.5q0 14 -0.5 28.5t-0.5 28.5q0 32 4.5 62.5t21.5 55.5 q18 27 35.5 38t40.5 21q13 6 13 13q0 10 -22 15q-23 6 -42.5 17.5t-25.5 26.5q-9 24 -9 48q0 22 5.5 44.5t11.5 44.5l11 42q6 21 6 42q0 25 -10.5 48t-39.5 46q-5 4 -12 4q-13 0 -24 -12.5t-11 -25.5q0 -10 9 -16q17 -11 23.5 -26t6.5 -33t-5 -39t-11 -42.5t-11 -44 t-5 -43.5q0 -26 10 -47q8 -17 28.5 -28t43.5 -14q9 -1 15.5 -3.5t6.5 -4.5q0 -3 -8 -5z" />
<glyph unicode="~" horiz-adv-x="485" d="M106 322q-21 -11 -21 -22t20 -11q7 0 13 2t13 5l23 12q12 6 28 7q17 0 30 -5.5t26 -12.5q23 -13 38.5 -18t33.5 -5q33 0 62.5 11t49.5 25q24 18 24 28q0 9 -13 9q-14 0 -39 -14l-20 -10q-10 -5 -27 -5q-18 0 -29.5 4t-27.5 14q-14 9 -31 14t-42 5q-33 0 -60.5 -10 t-50.5 -23z" />
<glyph unicode="&#xa1;" horiz-adv-x="350" d="M86 -168q19 0 40 3.5t25 8.5q12 16 25 42.5t24.5 56.5t19.5 60.5t11 55.5q0 6 -6 7.5t-11 3.5q9 40 15 71.5t10 59.5t5.5 55t1.5 58q0 17 -5.5 19.5t-23.5 2.5q-19 0 -37.5 -5t-18.5 -13q0 -7 1.5 -18.5t1.5 -23.5q0 -44 -11.5 -99.5t-28 -114.5t-35.5 -117t-33 -106 q0 -4 6.5 -5.5t23.5 -1.5zM163 426q0 -17 7 -29t20 -12q9 0 22 7.5t25 19t20.5 25.5t8.5 27q0 16 -13 20.5t-26 4.5q-17 0 -29.5 -6t-20 -15t-11 -20t-3.5 -22z" />
<glyph unicode="&#xa2;" horiz-adv-x="386" d="M230 201q-9 0 -13 1l3 40q2 26 4 55.5t3.5 56.5t2.5 43q15 4 34 4q13 0 24.5 -1t20.5 -1q22 0 22 13q0 10 -0.5 21.5t-3.5 21.5t-8.5 16.5t-14.5 6.5q-10 0 -29.5 -4.5t-40.5 -11.5q3 27 2 54q0 8 -10 8q-9 0 -18.5 -5t-10.5 -13q-2 -17 -2.5 -31t-1.5 -28 q-37 -9 -64 -26t-44.5 -38t-26 -44t-8.5 -44q0 -25 10 -49t27 -44t39 -34t46 -19q-2 -17 -3 -33.5t-1 -32.5v-10q0 -3 8 -5.5t16 -2.5q11 0 13 5q3 11 5 30l3 45q5 -1 13 -1q63 0 104 78q7 14 7 25t-5 15.5t-10 4.5t-8 -5q-20 -37 -42 -49t-42 -12zM119 305q0 27 16 51 t54 34q-1 -16 -3 -40.5t-3.5 -50t-3.5 -47.5l-3 -35q-26 11 -41.5 35.5t-15.5 52.5z" />
<glyph unicode="&#xa3;" horiz-adv-x="515" d="M354 692q-18 0 -34 -12q-44 -31 -74.5 -71t-51 -82t-33 -82.5t-19.5 -72.5l-52 -10l-48 -10q-10 -2 -16 -16t-6 -25t7 -11q6 0 16 4l53 14q24 6 35 8q-6 -21 -10.5 -48t-7.5 -57t-4.5 -61t-1.5 -59q0 -25 1.5 -47t5.5 -38.5t10.5 -26t15.5 -9.5q23 0 44 6t44 14 q25 9 54.5 16.5t71.5 7.5q47 0 97 -11q10 -3 16 -3t9 8t3 17q0 8 -2 15.5t-7 9.5q-38 20 -73 27t-65 7q-18 0 -34 -2t-30 -4l-31 -6q-14 -2 -22 -2q-10 0 -12 8q-5 26 -6 49t-1 47q0 45 5.5 85t10.5 69q17 5 46.5 10.5t61.5 6.5q3 0 6.5 5.5t7 13t6 15.5t2.5 13q0 7 -5 7 l-55 -11q-33 -6 -62 -14q8 31 17.5 58t22 53t31 52t44.5 53q6 7 12 7q10 0 14 -17.5t7 -32.5q4 -16 5 -16t4.5 10t7 24.5t6.5 30.5t3 28q0 30 -11.5 44t-28.5 14z" />
<glyph unicode="&#xa5;" horiz-adv-x="524" d="M84 266q4 0 20 1t38 3l45 2q23 2 41 2l-4 -14l-4 -12q-14 -2 -32 -3.5t-36 -3.5q-19 -3 -37 -5l-33 -4q-13 -2 -20 -10t-7 -15q0 -9 11 -9q3 0 18.5 2t36 5t43 5.5t40.5 3.5q-5 -16 -14 -38.5t-18 -48t-16 -51t-7 -46.5q0 -32 13.5 -42.5t36.5 -10.5q13 0 26.5 3t24 8 t17.5 11t7 12t-7 10q-14 8 -14 36q0 18 5.5 41.5t13 46.5t15 43t11.5 32q27 2 71 6t89 6q12 1 12 12q0 5 -5.5 9.5t-16.5 4.5q-39 -2 -74.5 -3t-61.5 -3q2 4 5 12l5 12q20 2 55 5t77 5q11 2 16 6t5 9q0 11 -15 11q-14 0 -32 -1l-35 -2q-17 -1 -33 -3l-26 -2q2 5 4.5 9t4.5 8 q27 51 51 83l46 58q22 26 40 51.5t32 63.5q3 7 3 23q0 10 -1.5 21.5t-4.5 21.5t-7.5 16t-10.5 6t-11 -5q-28 -25 -57 -61.5t-55.5 -76.5t-48.5 -79t-37 -68q-17 17 -39 42.5t-42 57.5t-34.5 68.5t-16.5 75.5q-1 15 -15.5 22.5t-33.5 7.5q-23 0 -42.5 -10t-19.5 -30 q0 -17 15 -56t42.5 -83t65.5 -86t84 -64q-1 -4 -2.5 -8.5t-3.5 -9.5l-70 -5q-40 -3 -78 -5q-9 -1 -14 -7t-5 -11q0 -8 11 -8z" />
<glyph unicode="&#xa6;" horiz-adv-x="133" d="M89 327h-35v-327h35v327zM54 436h35v319h-35v-319z" />
<glyph unicode="&#xa7;" horiz-adv-x="441" d="M324 97q-7 0 -11 -6t-8 -11v7q0 18 -15 43.5t-61 55.5q0 1 5 1q18 0 40 6.5t44 18.5t40.5 29.5t29.5 39.5l28 27q11 11 11 21q0 5 -3 8t-6 3q-4 0 -8 -5t-11 -13q2 5 2 9v8q0 16 -7.5 29t-19.5 25t-27 23.5t-31 22.5q-27 20 -48.5 41.5t-21.5 52.5q0 19 8.5 32.5t19 22 t21 12t15.5 3.5q3 0 3 -2q0 -3 -3 -6q-2 -2 -3.5 -4.5t-1.5 -4.5q0 -1 2 -1q7 0 24.5 4t35.5 12.5t32 20.5t14 28q0 13 -10 13q-50 0 -89.5 -14.5t-66.5 -38.5t-41.5 -56t-14.5 -66q0 -18 4 -33q-26 -9 -48.5 -25.5t-39 -37.5t-26.5 -46t-10 -51q0 -21 8 -38t21 -31.5 t29.5 -26.5t34.5 -23q31 -19 50 -33t29.5 -25.5t13.5 -21.5t3 -20q0 -24 -13.5 -41.5t-37.5 -23.5q-42 -11 -86 -25.5t-72 -37.5q-2 -2 -2 -4q0 -4 4 -9.5t10 -11t12 -9t10 -3.5q34 0 72.5 15t73 38t60.5 52t35 57q3 10 3 16q0 8 -5 8zM314 362q14 -15 19.5 -26t5.5 -23 q0 -14 -11 -32t-30 -33.5t-44.5 -26.5t-53.5 -11q-27 25 -49 49.5t-22 62.5q0 25 9 44.5t22.5 33.5t28 22t25.5 11q26 -21 53 -36t47 -35z" />
<glyph unicode="&#xa8;" horiz-adv-x="385" d="M174 524q0 15 -7.5 26t-19.5 11q-14 0 -29 -8t-27 -20t-20 -24.5t-8 -21.5q0 -11 9.5 -17t32.5 -6q38 0 53.5 19.5t15.5 40.5zM367 533q0 16 -8.5 27.5t-22.5 11.5q-12 0 -26.5 -8t-26.5 -19t-20 -24t-8 -23q0 -22 34 -22q43 0 60.5 18.5t17.5 38.5z" />
<glyph unicode="&#xa9;" horiz-adv-x="413" d="M136 292q0 26 19 48.5t57 22.5q26 0 41.5 -9t27.5 -20v16q-11 11 -26.5 19t-41.5 8q-23 0 -40.5 -7t-29 -19t-17 -27.5t-5.5 -31.5t5.5 -31.5t17 -27.5t29 -19.5t40.5 -7.5q25 0 41.5 7.5t26.5 18.5v20q-11 -14 -27.5 -23t-40.5 -9q-39 0 -58 22.5t-19 49.5zM399 290 q0 39 -14.5 72.5t-40 59t-59 40t-72.5 14.5t-72.5 -14.5t-59 -40t-40 -59t-14.5 -72.5t14.5 -72.5t40 -59t59 -40t72.5 -14.5t72.5 14.5t59 40t40 59t14.5 72.5zM41 290q0 36 13.5 67t37 54.5t54.5 37t67 13.5t67 -13.5t54.5 -37t37 -54.5t13.5 -67t-13.5 -67t-37 -54.5 t-54.5 -37t-67 -13.5t-67 13.5t-54.5 37t-37 54.5t-13.5 67z" />
<glyph unicode="&#xaa;" horiz-adv-x="335" d="M64 450q4 0 6 2l4 4l5 5q-4 -8 -7 -17t-3 -20q0 -17 11 -21.5t24 -4.5q19 0 35.5 8t29 18.5t22.5 22t16 19.5q-5 -13 -5 -28q0 -17 11 -24.5t23 -7.5q10 0 20.5 4.5t19.5 11.5t17 15t13 15q6 9 6 14q0 8 -6 8q-4 0 -6 -2l-11 -12q-6 -6 -13 -12t-14 -10.5t-12 -4.5 q-8 0 -8 15q0 14 4.5 34.5t9.5 37.5q0 3 0.5 4.5t0.5 3.5q0 5 -5.5 7.5t-11.5 2.5q-13 0 -17 -8l-19 -26q-12 -16 -26 -31t-29 -25.5t-29 -10.5q-12 0 -12 13q0 15 14 32q18 24 51.5 46t78.5 40q2 0 2 1v1q0 4 -9.5 7.5t-16.5 3.5h-3q-26 -5 -50 -18t-45 -29 q-22 -17 -38 -33l-26 -26q-8 -8 -8 -17q0 -8 6 -8zM312 351q0 5 -2 9t-6 5q-14 3 -35 4t-46 1q-26 0 -52.5 -1t-50.5 -3t-42.5 -5t-26.5 -6q-6 -3 -6 -12q0 -3 1.5 -6t3.5 -3t3.5 0.5t3.5 0.5q21 3 63.5 4.5t85.5 1.5q33 0 58.5 -0.5t30.5 -1.5q3 0 6 -0.5t4 -0.5q7 0 7 13z " />
<glyph unicode="&#xab;" horiz-adv-x="470" d="M217 165l-32 35q-17 18 -31.5 36t-24 34t-9.5 28q0 16 14.5 33.5t35.5 35t45 34.5l44 32q17 12 27 22.5t10 18.5q0 5 -7 5t-19 -4t-27 -10q-28 -12 -63.5 -31t-66.5 -40.5t-52 -42.5t-21 -37q0 -15 14.5 -38t37 -48t49.5 -49.5t51 -43.5q20 -16 35.5 -25t23.5 -9q5 0 5 5 q0 10 -11 25t-28 34zM383 145l-25 37l-26 38q-12 19 -20 36.5t-8 29.5q0 14 10.5 29t25.5 31q14 15 32 30l32 28q12 12 20 21.5t8 16.5q0 4 -6 4q-9 0 -30 -9q-23 -10 -54 -28t-59 -38t-47.5 -40t-19.5 -33q0 -12 13.5 -34.5t34.5 -48t45.5 -50.5t45.5 -44q17 -14 29.5 -23 t19.5 -9q4 0 4 5q0 8 -7 21t-18 30z" />
<glyph unicode="&#xac;" horiz-adv-x="291" d="M270 322q0 5 -3 10.5t-9 6.5q-22 4 -45.5 5.5t-46.5 1.5q-42 0 -80.5 -5t-66.5 -14q-3 -1 -4 -4.5t-1 -7.5q0 -13 5 -13q1 0 2.5 0.5t2.5 0.5q41 5 77 7.5t68 2.5q25 0 47 -1.5t42 -3.5h2q5 0 7.5 4.5t2.5 9.5zM94 571q3 0 5 2q24 25 42 37t32 18q-1 -57 -14.5 -121.5 t-30.5 -127.5v-1q0 -2 4 -2q7 0 19.5 7t13.5 11q7 28 16.5 59.5t17.5 65.5t13.5 70.5t5.5 73.5q0 7 -6.5 10.5t-13.5 3.5q-9 0 -14 -5l-21 -19l-25 -23q-14 -12 -26.5 -25t-21.5 -25q-2 -4 -2 -5q0 -4 6 -4zM90 193q0 9 3.5 17.5t8.5 17.5q2 2 2 6q0 2 -3 2q-6 0 -14 -5 t-15.5 -14t-12.5 -20.5t-5 -24.5q0 -27 18 -43t37 -27l-15 -12q-8 -8 -15.5 -16.5t-12.5 -18.5t-5 -20q0 -30 21 -44.5t47 -14.5q14 0 27 5.5t23.5 15t17 22t6.5 27.5q0 19 -16.5 36t-30.5 27l27 27q14 14 25.5 29t18.5 30.5t7 31.5q0 32 -23 49.5t-53 17.5q-23 0 -45 -9 t-36 -21v-2q0 -2 3.5 -4.5t6.5 -2.5h2q15 5 31 8.5t32 3.5q26 0 41 -13.5t15 -27.5t-9.5 -28.5t-22.5 -28.5l-26 -25l-19 -18q-22 19 -31.5 35t-9.5 32zM92 24q0 12 11.5 27t31.5 35q11 -10 23 -23t12 -27q0 -16 -13.5 -27.5t-27.5 -11.5q-20 0 -28.5 10t-8.5 17z" />
<glyph unicode="&#xad;" horiz-adv-x="429" d="M382 242q0 9 -3.5 17.5t-11.5 10.5q-28 6 -57.5 8.5t-59.5 2.5q-53 0 -101.5 -8t-83.5 -23q-4 -2 -5.5 -7.5t-1.5 -12.5q0 -8 2 -14t4 -6t4 0.5t3 0.5q51 8 96.5 12t86.5 4q32 0 59.5 -2t53.5 -5h2q7 0 10 7t3 15z" />
<glyph unicode="&#xae;" horiz-adv-x="385" d="M76 533q0 -26 8.5 -50t26 -43t43.5 -30.5t61 -11.5t61 11.5t43.5 30.5t26 43t8.5 50q0 25 -8.5 49.5t-26 43.5t-43.5 30.5t-61 11.5t-61 -11.5t-43.5 -30.5t-26 -43.5t-8.5 -49.5zM86 533q0 23 8 45.5t24 40t40.5 28t56.5 10.5t56 -10.5t40 -28t24 -40t8 -45.5t-8 -45.5 t-24 -40t-40 -28t-56 -10.5t-56.5 10.5t-40.5 28t-24 40t-8 45.5zM265 567q0 18 -11.5 29t-25.5 11h-60v-146h12v68h10l62 -68h14l-62 68h24q13 0 25 9t12 29zM253 567q0 -13 -7 -20t-17 -7h-49v56h49q10 0 17 -8.5t7 -20.5z" />
<glyph unicode="&#xaf;" horiz-adv-x="360" d="M103 464q-14 0 -27.5 -1t-28.5 -3q-6 -1 -6 -15q0 -5 1 -10.5t5 -4.5q31 4 65.5 6t71.5 2t75 -2t76 -6q7 0 7 19q0 11 -5 11q-18 0 -36 -4t-35 -4q-42 0 -80 6t-83 6z" />
<glyph unicode="&#xb0;" horiz-adv-x="310" d="M57 518q0 -28 17.5 -48t55.5 -20q31 0 55 8.5t40.5 23t24.5 33.5t8 40q0 32 -19.5 56t-54.5 24q-32 0 -55.5 -11.5t-39.5 -29t-24 -38t-8 -38.5zM135 487q-24 0 -34.5 9t-10.5 23q0 16 9 29.5t22.5 23.5t29 15.5t28.5 5.5q22 0 33 -11.5t11 -28.5q0 -24 -23 -45t-65 -21z " />
<glyph unicode="&#xb2;" horiz-adv-x="291" d="M227 603q0 12 -4 22t-13 15q-11 6 -29 14t-50 8q-20 0 -43 -4q-9 -2 -16 -8.5t-11.5 -16t-6.5 -20t-2 -19.5q0 -16 6 -16q3 0 6 4q5 8 7.5 17t10.5 14q6 5 16.5 7t21.5 2q35 0 51.5 -11t16.5 -30q0 -21 -17.5 -43t-41.5 -46q-27 -26 -43 -43.5t-24.5 -28t-11 -15.5 t-2.5 -7q0 -10 11.5 -15t26 -7t27.5 -2h19q24 0 46 4.5t50 13.5q8 2 11 7.5t3 10.5q0 7 -5 7l-1 -1h-1q-14 -4 -26.5 -5t-24.5 -1q-25 0 -45.5 4t-33.5 8q13 18 31 37l37 40q20 21 31 38t16 30t6 22t1 14z" />
<glyph unicode="&#xb3;" horiz-adv-x="291" d="M77 651q-6 -1 -9 -7t-3 -14q0 -15 6 -18.5t14 -3.5q5 0 11 0.5t12 1.5q11 2 22.5 3.5t23.5 1.5q14 0 22 -2t8 -4q0 -4 -12 -17l-25 -28q-13 -15 -24 -29t-11 -21q0 -5 9.5 -9.5t19.5 -8.5q16 -7 30.5 -12t14.5 -15q0 -13 -29.5 -36t-92.5 -47q-4 -1 -4 -3q0 -3 11 -6 t21 -3h8q25 7 50.5 17.5t45 23t32 26.5t12.5 28q0 16 -14 24.5t-31 15.5l-29 10q-9 3 -9 6q0 5 10.5 14.5t22.5 23.5q14 14 25 29t11 26q0 14 -23.5 24.5t-80.5 10.5q-11 0 -22 -0.5t-23 -1.5z" />
<glyph unicode="&#xb4;" horiz-adv-x="230" d="M68 404q14 6 30 16l34 21q18 11 33.5 24t27.5 25q5 5 5 19q0 11 -4 22t-11 11q-4 0 -9 -5q-11 -9 -26 -24l-32 -33l-36 -33q-18 -16 -32 -26q-5 -4 -5 -6q0 -4 5 -9.5t9 -5.5t11 4z" />
<glyph unicode="&#xb5;" horiz-adv-x="291" d="M270 322q0 5 -3 10.5t-9 6.5q-22 4 -45.5 5.5t-46.5 1.5q-42 0 -80.5 -5t-66.5 -14q-3 -1 -4 -4.5t-1 -7.5q0 -13 5 -13q1 0 2.5 0.5t2.5 0.5q41 5 77 7.5t68 2.5q25 0 47 -1.5t42 -3.5h2q5 0 7.5 4.5t2.5 9.5zM94 571q3 0 5 2q24 25 42 37t32 18q-1 -57 -14.5 -121.5 t-30.5 -127.5v-1q0 -2 4 -2q7 0 19.5 7t13.5 11q7 28 16.5 59.5t17.5 65.5t13.5 70.5t5.5 73.5q0 7 -6.5 10.5t-13.5 3.5q-9 0 -14 -5l-21 -19l-25 -23q-14 -12 -26.5 -25t-21.5 -25q-2 -4 -2 -5q0 -4 6 -4zM227 218q0 12 -4 22t-13 15q-11 6 -29 14t-50 8q-20 0 -43 -4 q-9 -2 -16 -8.5t-11.5 -16t-6.5 -20t-2 -19.5q0 -16 6 -16q3 0 6 4q5 8 7.5 17t10.5 14q6 5 16.5 7t21.5 2q35 0 51.5 -11t16.5 -30q0 -21 -17.5 -43t-41.5 -46q-27 -26 -43 -43.5t-24.5 -28t-11 -15.5t-2.5 -7q0 -10 11.5 -15t26 -7t27.5 -2h19q24 0 46 4.5t50 13.5 q8 2 11 7.5t3 10.5q0 7 -5 7h-1l-1 -1q-14 -4 -26.5 -5t-24.5 -1q-25 0 -45.5 4t-33.5 8q13 18 31 37l37 40q20 21 31 38t16 30t6 22t1 14z" />
<glyph unicode="&#xb6;" horiz-adv-x="495" d="M172 -62q11 0 19 2t9 5q2 17 10 61l18 104l24 130l28 134l26 116.5t21 79.5q2 6 7.5 8t12.5 4q6 2 11.5 4.5t7.5 8.5q2 8 2 12q0 15 -10 29t-24 14q-63 0 -119.5 -20.5t-98.5 -52.5t-66.5 -71t-24.5 -77q0 -32 16.5 -55.5t40 -41t48 -29t41.5 -18.5q-3 -19 -11 -59 l-18 -87q-10 -47 -17 -93.5t-7 -77.5q0 -17 13.5 -23.5t40.5 -6.5zM344 -67q10 0 11 7t6 46t13 96t19.5 126.5t25.5 138.5t31 131t36 104q1 1 1 3q0 5 -5.5 8.5t-13.5 6t-17.5 4t-17.5 1.5q-14 0 -18 -4q-7 -11 -18.5 -55.5t-25 -107t-27.5 -135t-25.5 -139.5t-19 -121 t-7.5 -80q0 -13 1 -16t7 -5.5t13.5 -4.5t16 -3t14.5 -1z" />
<glyph unicode="&#xb7;" horiz-adv-x="310" d="M223 241q0 24 -11 43.5t-26 19.5q-12 0 -27.5 -11t-30 -27.5t-24.5 -35.5t-10 -35q0 -17 13 -21.5t32 -4.5q24 0 40 6.5t25.5 16.5t14 23t4.5 26z" />
<glyph unicode="&#xb8;" horiz-adv-x="228" d="M63 -127q33 8 52 22.5t28.5 32.5t12 36.5t2.5 35.5h-60q10 -13 10 -33q0 -23 -17 -44t-56 -31q-15 -4 -15 -10q0 -5 4.5 -8.5t12.5 -3.5q6 0 11 0.5t15 2.5z" />
<glyph unicode="&#xb9;" horiz-adv-x="291" d="M94 571q3 0 5 2q24 25 42 37t32 18q-1 -57 -14.5 -121.5t-30.5 -127.5v-1q0 -2 4 -2q7 0 19.5 7t13.5 11q7 28 16.5 59.5t17.5 65.5t13.5 70.5t5.5 73.5q0 7 -6.5 10.5t-13.5 3.5q-9 0 -14 -5l-21 -19l-25 -23q-14 -12 -26.5 -25t-21.5 -25q-2 -4 -2 -5q0 -4 6 -4z" />
<glyph unicode="&#xba;" horiz-adv-x="335" d="M94 434q0 -32 21 -43t53 -11q17 0 37 9t37 25.5t28.5 41t11.5 55.5q0 23 -12 40.5t-41 17.5q-7 0 -14.5 -1t-16.5 -4q2 6 2 10q0 10 -8 10q-4 0 -6 -1q-14 -4 -25.5 -12t-19.5 -17t-13 -17.5t-6 -13.5q-3 -18 -14.5 -34t-41.5 -44q-5 -4 -5 -11q0 -4 3 -7t6 -3q2 0 4 2 q8 7 12.5 12.5t9.5 9.5q-2 -4 -2 -8v-6zM175 508q5 7 14 15t28 8q12 0 19 -5t10.5 -12.5t5 -16t1.5 -15.5q0 -17 -7 -31t-18.5 -24t-24.5 -15.5t-25 -5.5q-11 0 -17 4.5t-8.5 10.5t-2.5 12v12q0 20 4.5 37.5t9.5 17.5t6 1.5t5 6.5zM312 351q0 5 -2 9t-6 5q-14 3 -35 4t-46 1 q-26 0 -52.5 -1t-50.5 -3t-42.5 -5t-26.5 -6q-6 -3 -6 -12q0 -3 1.5 -6t3.5 -3t3.5 0.5t3.5 0.5q21 3 63.5 4.5t85.5 1.5q33 0 58.5 -0.5t30.5 -1.5q3 0 6 -0.5t4 -0.5q7 0 7 13z" />
<glyph unicode="&#xbb;" horiz-adv-x="468" d="M259 416l32 -36q17 -18 31.5 -35.5t24 -33.5t9.5 -28q0 -16 -14.5 -33.5t-35.5 -35t-45.5 -34.5t-43.5 -32q-17 -12 -27 -22.5t-10 -18.5q0 -5 7 -5t19 4t27 10q28 12 63.5 31t66.5 40.5t52 42.5t21 37q0 15 -15 38t-37.5 48t-49 49.5t-50.5 43.5q-20 16 -35.5 25 t-23.5 9q-5 0 -5 -5q0 -10 11 -25t28 -34zM93 436l25 -36l26 -39q12 -19 20 -36.5t8 -29.5q0 -14 -10.5 -29t-25.5 -30q-14 -16 -32 -31l-32 -28q-12 -12 -20 -21.5t-8 -16.5q0 -4 6 -4q9 0 30 9q23 10 54 27.5t59 38t47.5 40t19.5 33.5q0 12 -13.5 34.5t-34.5 48 t-45.5 50.5t-45.5 44q-17 14 -29.5 23t-19.5 9q-4 0 -4 -5q0 -8 7 -21t18 -30z" />
<glyph unicode="&#xbc;" horiz-adv-x="291" d="M270 322q0 5 -3 10.5t-9 6.5q-22 4 -45.5 5.5t-46.5 1.5q-42 0 -80.5 -5t-66.5 -14q-3 -1 -4 -4.5t-1 -7.5q0 -13 5 -13q1 0 2.5 0.5t2.5 0.5q41 5 77 7.5t68 2.5q25 0 47 -1.5t42 -3.5h2q5 0 7.5 4.5t2.5 9.5zM94 571q3 0 5 2q24 25 42 37t32 18q-1 -57 -14.5 -121.5 t-30.5 -127.5v-1q0 -2 4 -2q7 0 19.5 7t13.5 11q7 28 16.5 59.5t17.5 65.5t13.5 70.5t5.5 73.5q0 7 -6.5 10.5t-13.5 3.5q-9 0 -14 -5l-21 -19l-25 -23q-14 -12 -26.5 -25t-21.5 -25q-2 -4 -2 -5q0 -4 6 -4zM148 279q-11 0 -27.5 -8t-21.5 -19l-1 -4q0 -2 -1 -4q0 -3 2 -5 q0 -1 0.5 -1.5t0.5 -2.5q0 -1 -1 -2q-5 -15 -11 -38t-10.5 -46t-7.5 -43.5t-3 -32.5q0 -10 4 -11q9 -5 21 -6.5t25 -1.5q33 0 57 7q-2 -11 -4 -29.5t-2 -35.5q0 -5 0.5 -10t1.5 -10v-1h1q5 0 14 6t9 9q-1 3 -1 9q0 16 2 34t5 35q8 2 18 6t18 10q3 3 3 10q0 10 -5 10 q-9 -3 -15.5 -6t-14.5 -5q2 17 5.5 43.5t10.5 57.5q0 1 -7.5 2t-14.5 1t-7 -1l-9 -62l-5 -43q-8 -1 -15 -1h-13q-18 0 -33.5 2t-26.5 7l9 30l14 45q8 24 18.5 49.5t22.5 47.5q0 2 0.5 2.5t0.5 1.5q0 4 -6 4z" />
<glyph unicode="&#xbd;" horiz-adv-x="291" d="M270 322q0 5 -3 10.5t-9 6.5q-22 4 -45.5 5.5t-46.5 1.5q-42 0 -80.5 -5t-66.5 -14q-3 -1 -4 -4.5t-1 -7.5q0 -13 5 -13q1 0 2.5 0.5t2.5 0.5q41 5 77 7.5t68 2.5q25 0 47 -1.5t42 -3.5h2q5 0 7.5 4.5t2.5 9.5zM94 571q3 0 5 2q24 25 42 37t32 18q-1 -57 -14.5 -121.5 t-30.5 -127.5v-1q0 -2 4 -2q7 0 19.5 7t13.5 11q7 28 16.5 59.5t17.5 65.5t13.5 70.5t5.5 73.5q0 7 -6.5 10.5t-13.5 3.5q-9 0 -14 -5l-21 -19l-25 -23q-14 -12 -26.5 -25t-21.5 -25q-2 -4 -2 -5q0 -4 6 -4zM227 218q0 12 -4 22t-13 15q-11 6 -29 14t-50 8q-20 0 -43 -4 q-9 -2 -16 -8.5t-11.5 -16t-6.5 -20t-2 -19.5q0 -16 6 -16q3 0 6 4q5 8 7.5 17t10.5 14q6 5 16.5 7t21.5 2q35 0 51.5 -11t16.5 -30q0 -21 -17.5 -43t-41.5 -46q-27 -26 -43 -43.5t-24.5 -28t-11 -15.5t-2.5 -7q0 -10 11.5 -15t26 -7t27.5 -2h19q24 0 46 4.5t50 13.5 q8 2 11 7.5t3 10.5q0 7 -5 7h-1l-1 -1q-14 -4 -26.5 -5t-24.5 -1q-25 0 -45.5 4t-33.5 8q13 18 31 37l37 40q20 21 31 38t16 30t6 22t1 14z" />
<glyph unicode="&#xbe;" horiz-adv-x="291" d="M270 317q0 5 -3 10.5t-9 6.5q-22 4 -45.5 5.5t-46.5 1.5q-42 0 -80.5 -5t-66.5 -14q-3 -1 -4 -4.5t-1 -7.5q0 -13 5 -13q1 0 2.5 0.5t2.5 0.5q41 5 77 7.5t68 2.5q25 0 47 -1.5t42 -3.5h2q5 0 7.5 4.5t2.5 9.5zM77 651q-6 -1 -9 -7t-3 -14q0 -15 6 -18.5t14 -3.5 q5 0 11 0.5t12 1.5q11 2 22.5 3.5t23.5 1.5q14 0 22 -2t8 -4q0 -4 -12 -17l-25 -28q-13 -15 -24 -29t-11 -21q0 -5 9.5 -9.5t19.5 -8.5q16 -7 30.5 -12t14.5 -15q0 -13 -29.5 -36t-92.5 -47q-4 -1 -4 -3q0 -3 11 -6t21 -3h8q25 7 50.5 17.5t45 23t32 26.5t12.5 28 q0 16 -14 24.5t-31 15.5l-29 10q-9 3 -9 6q0 5 10.5 14.5t22.5 23.5q14 14 25 29t11 26q0 14 -23.5 24.5t-80.5 10.5q-11 0 -22 -0.5t-23 -1.5zM148 279q-11 0 -27.5 -8t-21.5 -19l-1 -4q0 -2 -1 -4q0 -3 2 -5q0 -1 0.5 -1.5t0.5 -2.5q0 -1 -1 -2q-5 -15 -11 -38t-10.5 -46 t-7.5 -43.5t-3 -32.5q0 -10 4 -11q9 -5 21 -6.5t25 -1.5q33 0 57 7q-2 -11 -4 -29.5t-2 -35.5q0 -5 0.5 -10t1.5 -10v-1h1q5 0 14 6t9 9q-1 3 -1 9q0 16 2 34t5 35q8 2 18 6t18 10q3 3 3 10q0 10 -5 10q-9 -3 -15.5 -6t-14.5 -5q2 17 5.5 43.5t10.5 57.5q0 1 -7.5 2t-14.5 1 t-7 -1l-9 -62l-5 -43q-8 -1 -15 -1h-13q-18 0 -33.5 2t-26.5 7l9 30l14 45q8 24 18.5 49.5t22.5 47.5q0 2 0.5 2.5t0.5 1.5q0 4 -6 4z" />
<glyph unicode="&#xbf;" horiz-adv-x="480" d="M388 45q-5 -27 -19.5 -47t-32.5 -32.5t-38 -18.5t-35 -6q-21 0 -40 7.5t-33.5 20.5t-23.5 30.5t-9 38.5t7 38.5t18.5 33.5t26.5 31.5t31 30.5q29 28 56.5 61.5t38.5 80.5v2q0 8 -9 17t-16 9q-3 0 -4 -4q-9 -39 -38 -72t-64 -62l-55 -44q-24 -18 -40 -36t-24.5 -38.5 t-8.5 -51.5q0 -32 11.5 -64.5t36.5 -58.5t64.5 -43t95.5 -17q37 0 64.5 15t45.5 39t27 55t9 63q0 35 -7.5 47t-13.5 12q-11 0 -14.5 -8.5t-6.5 -28.5zM280 456q0 -17 14 -34t31 -17q9 0 20 5t20.5 13.5t16 19t6.5 22.5q0 18 -17.5 23.5t-35.5 5.5q-31 0 -43 -11.5t-12 -26.5 z" />
<glyph unicode="&#xc0;" horiz-adv-x="430" d="M333 720q-15 10 -31 25l-32 31l-31 29q-14 14 -24 22q-4 4 -7 4q-5 0 -9 -9.5t-4 -20.5q0 -10 5 -17q10 -11 25 -22.5t30.5 -21.5t31.5 -19l28 -16q2 -1 3.5 -2t3.5 -1q4 0 8.5 5t4.5 10q0 1 -2 3zM39 -22q6 0 13.5 2.5t14.5 7t12 10.5t7 12q17 72 30.5 139.5t27.5 127.5 l46 15l54 18l50 15q22 7 33 10q3 -33 7.5 -75.5t8.5 -88t7 -89t3 -77.5q0 -12 8 -12q7 0 15 9.5t9 21.5q2 20 4 61t4 88.5t3 95t1 81.5q7 3 14.5 9t7.5 14q0 10 -7.5 13.5t-15.5 4.5q-2 41 -5.5 99.5t-21.5 118.5q-9 6 -22.5 13.5t-28 14t-28.5 11.5t-23 7q3 5 7.5 14 t4.5 17q0 10 -12 10q-36 0 -62.5 -8t-30.5 -19h-9q-8 0 -14 -1t-7 -6v-3q0 -6 3 -10.5t6 -7.5q-13 -26 -23.5 -64t-19 -78.5t-14.5 -78.5l-10 -65q-8 -1 -20 -2t-16 -7q-7 -10 -12.5 -30.5t-5.5 -39.5q0 -14 2.5 -18t5.5 -4q5 0 15.5 3t18.5 5l-8 -40l-12 -62l-11.5 -70 t-9.5 -63.5t-4 -40.5q0 -8 10 -8zM294 550q11 -29 18.5 -75.5t9.5 -93.5l-164 -21q11 56 27 116t48 115q7 0 23 -12z" />
<glyph unicode="&#xc1;" horiz-adv-x="435" d="M329 696q12 6 27 14.5t30.5 18.5t30 21.5t25.5 22.5q4 5 4 17q0 11 -3.5 20.5t-9.5 9.5q-5 0 -8 -5q-10 -7 -24 -21l-29 -30q-16 -16 -32 -30t-29 -23q-4 -4 -4 -5q0 -4 4.5 -9t7.5 -5q5 0 10 4zM39 -22q6 0 13.5 2.5t14.5 7t12 10.5t7 12q17 72 30.5 139.5t27.5 127.5 l46 15l54 18l50 15q22 7 33 10q3 -33 7.5 -75.5t8.5 -88t7 -89t3 -77.5q0 -12 8 -12q7 0 15 9.5t9 21.5q2 20 4 61t4 88.5t3 95t1 81.5q7 3 14.5 9t7.5 14q0 10 -7.5 13.5t-15.5 4.5q-2 41 -5.5 99.5t-21.5 118.5q-9 6 -22.5 13.5t-28 14t-28.5 11.5t-23 7q3 5 7.5 14 t4.5 17q0 10 -12 10q-36 0 -62.5 -8t-30.5 -19h-9q-8 0 -14 -1t-7 -6v-3q0 -6 3 -10.5t6 -7.5q-13 -26 -23.5 -64t-19 -78.5t-14.5 -78.5l-10 -65q-8 -1 -20 -2t-16 -7q-7 -10 -12.5 -30.5t-5.5 -39.5q0 -14 2.5 -18t5.5 -4q5 0 15.5 3t18.5 5l-8 -40l-12 -62l-11.5 -70 t-9.5 -63.5t-4 -40.5q0 -8 10 -8zM294 550q11 -29 18.5 -75.5t9.5 -93.5l-164 -21q11 56 27 116t48 115q7 0 23 -12z" />
<glyph unicode="&#xc2;" horiz-adv-x="435" d="M278 796q2 0 8 -6q15 -17 30.5 -39.5t32.5 -43.5q3 -4 4.5 -4.5t2.5 -0.5q4 0 4 6q0 10 -8.5 33.5t-21 47.5t-25.5 42.5t-22 18.5q-8 0 -23.5 -11t-34.5 -27t-39 -36l-34 -36q-13 -14 -21.5 -24t-8.5 -12t3 -2q4 0 4 2l31 20l35 26l35 23q17 11 31 17q10 6 17 6zM39 -22 q6 0 13.5 2.5t14.5 7t12 10.5t7 12q17 72 30.5 139.5t27.5 127.5l46 15l54 18l50 15q22 7 33 10q3 -33 7.5 -75.5t8.5 -88t7 -89t3 -77.5q0 -12 8 -12q7 0 15 9.5t9 21.5q2 20 4 61t4 88.5t3 95t1 81.5q7 3 14.5 9t7.5 14q0 10 -7.5 13.5t-15.5 4.5q-2 41 -5.5 99.5 t-21.5 118.5q-9 6 -22.5 13.5t-28 14t-28.5 11.5t-23 7q3 5 7.5 14t4.5 17q0 10 -12 10q-36 0 -62.5 -8t-30.5 -19h-9q-8 0 -14 -1t-7 -6v-3q0 -6 3 -10.5t6 -7.5q-13 -26 -23.5 -64t-19 -78.5t-14.5 -78.5l-10 -65q-8 -1 -20 -2t-16 -7q-7 -10 -12.5 -30.5t-5.5 -39.5 q0 -14 2.5 -18t5.5 -4q5 0 15.5 3t18.5 5l-8 -40l-12 -62l-11.5 -70t-9.5 -63.5t-4 -40.5q0 -8 10 -8zM294 550q11 -29 18.5 -75.5t9.5 -93.5l-164 -21q11 56 27 116t48 115q7 0 23 -12z" />
<glyph unicode="&#xc3;" horiz-adv-x="430" d="M133 760q-19 -9 -19 -20q0 -9 18 -9q11 0 23 6q11 5 21.5 11t24.5 6q16 0 27.5 -5t23.5 -11q20 -12 34 -16.5t30 -4.5q30 0 57 10t44 22q22 16 22 26q0 8 -12 8t-35 -13q-9 -5 -18 -9t-24 -4q-17 0 -27.5 3.5t-24.5 12.5q-12 8 -27.5 12.5t-37.5 4.5q-30 0 -55 -9.5 t-45 -20.5zM39 -22q6 0 13.5 2.5t14.5 7t12 10.5t7 12q17 72 30.5 139.5t27.5 127.5l46 15l54 18l50 15q22 7 33 10q3 -33 7.5 -75.5t8.5 -88t7 -89t3 -77.5q0 -12 8 -12q7 0 15 9.5t9 21.5q2 20 4 61t4 88.5t3 95t1 81.5q7 3 14.5 9t7.5 14q0 10 -7.5 13.5t-15.5 4.5 q-2 41 -5.5 99.5t-21.5 118.5q-9 6 -22.5 13.5t-28 14t-28.5 11.5t-23 7q3 5 7.5 14t4.5 17q0 10 -12 10q-36 0 -62.5 -8t-30.5 -19h-9q-8 0 -14 -1t-7 -6v-3q0 -6 3 -10.5t6 -7.5q-13 -26 -23.5 -64t-19 -78.5t-14.5 -78.5l-10 -65q-8 -1 -20 -2t-16 -7q-7 -10 -12.5 -30.5 t-5.5 -39.5q0 -14 2.5 -18t5.5 -4q5 0 15.5 3t18.5 5l-8 -40l-12 -62l-11.5 -70t-9.5 -63.5t-4 -40.5q0 -8 10 -8zM294 550q11 -29 18.5 -75.5t9.5 -93.5l-164 -21q11 56 27 116t48 115q7 0 23 -12z" />
<glyph unicode="&#xc4;" horiz-adv-x="445" d="M230 773q0 14 -6.5 24t-17.5 10q-12 0 -25.5 -7.5t-25 -18t-18.5 -22t-7 -19.5q0 -21 38 -21q34 0 48 17.5t14 36.5zM404 782q0 14 -8 24.5t-20 10.5q-11 0 -24 -7t-24 -17.5t-18 -22t-7 -20.5q0 -20 31 -20q38 0 54 16.5t16 35.5zM39 -22q6 0 13.5 2.5t14.5 7t12 10.5 t7 12q17 72 30.5 139.5t27.5 127.5l46 15l54 18l50 15q22 7 33 10q3 -33 7.5 -75.5t8.5 -88t7 -89t3 -77.5q0 -12 8 -12q7 0 15 9.5t9 21.5q2 20 4 61t4 88.5t3 95t1 81.5q7 3 14.5 9t7.5 14q0 10 -7.5 13.5t-15.5 4.5q-2 41 -5.5 99.5t-21.5 118.5q-9 6 -22.5 13.5t-28 14 t-28.5 11.5t-23 7q3 5 7.5 14t4.5 17q0 10 -12 10q-36 0 -62.5 -8t-30.5 -19h-9q-8 0 -14 -1t-7 -6v-3q0 -6 3 -10.5t6 -7.5q-13 -26 -23.5 -64t-19 -78.5t-14.5 -78.5l-10 -65q-8 -1 -20 -2t-16 -7q-7 -10 -12.5 -30.5t-5.5 -39.5q0 -14 2.5 -18t5.5 -4q5 0 15.5 3t18.5 5 l-8 -40l-12 -62l-11.5 -70t-9.5 -63.5t-4 -40.5q0 -8 10 -8zM294 550q11 -29 18.5 -75.5t9.5 -93.5l-164 -21q11 56 27 116t48 115q7 0 23 -12z" />
<glyph unicode="&#xc5;" horiz-adv-x="440" d="M39 -22q6 0 13.5 2.5t14.5 7t12 10.5t7 12q17 72 30.5 139.5t27.5 127.5l46 15l54 18l50 15q22 7 33 10q3 -33 7.5 -75.5t8.5 -88t7 -89t3 -77.5q0 -12 8 -12q7 0 15 9.5t9 21.5q2 20 4 61t4 88.5t3 95t1 81.5q7 3 14.5 9t7.5 14q0 10 -7.5 13.5t-15.5 4.5 q-2 41 -5.5 99.5t-21.5 118.5q-9 6 -22.5 13.5t-28 14t-28.5 11.5t-23 7q3 5 7.5 14t4.5 17q0 10 -12 10q-36 0 -62.5 -8t-30.5 -19h-9q-8 0 -14 -1t-7 -6v-3q0 -6 3 -10.5t6 -7.5q-13 -26 -23.5 -64t-19 -78.5t-14.5 -78.5l-10 -65q-8 -1 -20 -2t-16 -7q-7 -10 -12.5 -30.5 t-5.5 -39.5q0 -14 2.5 -18t5.5 -4q5 0 15.5 3t18.5 5l-8 -40l-12 -62l-11.5 -70t-9.5 -63.5t-4 -40.5q0 -8 10 -8zM294 550q11 -29 18.5 -75.5t9.5 -93.5l-164 -21q11 56 27 116t48 115q7 0 23 -12zM251 768q0 -23 14 -38.5t44 -15.5q51 0 77 25.5t26 58.5q0 25 -16 44.5 t-43 19.5q-26 0 -45 -9.5t-31.5 -23.5t-19 -30.5t-6.5 -30.5zM313 743q-19 0 -27.5 7.5t-8.5 18.5q0 13 7.5 23.5t18 18.5t23 12.5t23.5 4.5q17 0 26 -9t9 -23q0 -20 -18.5 -36.5t-52.5 -16.5z" />
<glyph unicode="&#xc6;" horiz-adv-x="755" d="M379 545q-3 -12 -6.5 -31t-6.5 -40l-6 -42q-3 -22 -4 -39q-62 -15 -104 -29l-61 -21q9 30 23 67l28 73q14 36 28.5 66.5t23.5 47.5q16 -5 40.5 -20t44.5 -32zM516 634q-16 -3 -34.5 -10t-34 -16t-26.5 -18.5t-13 -17.5q-8 12 -18 24l-20 24q-10 12 -21.5 21t-21.5 14 q4 5 7 13.5t3 15.5q0 12 -10 12q-23 0 -38.5 -2t-26 -6t-17 -8.5t-11.5 -10.5q-3 1 -10 1t-12.5 -1.5t-7.5 -6.5q-1 -2 -1 -7q0 -10 10 -14q-17 -33 -34 -77l-33 -87q-16 -44 -28 -85t-18 -68q-7 -2 -16.5 -5.5t-20.5 -6.5q-3 -1 -6 -7.5t-5 -15t-3.5 -18t-1.5 -16.5 q0 -9 3 -9q6 0 18 4l19 7l-15 -60l-18 -71q-8 -36 -14.5 -72t-10.5 -66v-2q0 -9 11 -9q13 0 30 10.5t20 22.5q14 72 36 138l43 126q11 4 35 10q23 8 50 14l52 12q26 6 41 10q-9 -92 -9 -166q0 -42 3.5 -78.5t11.5 -70.5q2 -5 19 -8.5t46 -3.5q35 0 82.5 5t96 15.5t93.5 27.5 t75 40q10 8 13.5 14.5t3.5 12.5q0 10 -7 16t-13 6q-3 0 -4 -1q-18 -15 -49 -26t-68 -17.5t-76.5 -9.5t-74.5 -3q-26 0 -47 1.5t-37 3.5q2 20 6 53l10 70l12 72.5t11 61.5q27 7 58.5 10t63.5 3q23 0 47 -1.5t47 -5.5q5 0 6.5 11t1.5 25q0 15 -2 28t-6 13q-41 7 -81 8 q-34 0 -63.5 -4t-57.5 -10q2 12 6 30l8 38q4 20 8.5 38.5l8.5 33.5q39 11 91 11q35 0 71.5 -5.5t69.5 -17.5h1q6 0 9 14t3 31t-3 31t-10 16q-28 8 -54 10.5t-49 2.5q-35 0 -61.5 -4t-41.5 -7z" />
<glyph unicode="&#xc7;" horiz-adv-x="492" d="M21 187q0 -84 42 -132t142 -70q11 -16 17.5 -33.5t6.5 -34.5q0 -29 -26 -52t-93 -31q-15 -1 -15 -10q0 -8 9 -16t16 -8q51 0 84.5 8t53.5 21t28 30.5t8 36.5q0 21 -7.5 43t-18.5 41q5 -1 11 -1h11q30 0 60.5 7t59 21t54 35t44.5 49q5 8 5 15q0 11 -5 17t-12 6 q-2 0 -5 -1.5t-8 -6.5q-9 -12 -26.5 -27.5t-41 -29t-50.5 -22.5t-56 -9q-48 0 -81 16t-54 43.5t-30 63.5t-9 76q0 57 13 119.5t36.5 115t56 86.5t71.5 34q21 0 41.5 -5.5t37 -13.5t26.5 -16t10 -13t-7 -11q-8 -6 -14.5 -19t-11 -30t-7 -35.5t-2.5 -36.5q0 -21 3 -33.5 t7.5 -19t11 -8t13.5 -1.5q16 0 30.5 15.5t25.5 39t17 50t6 48.5q0 49 -23 106q-11 26 -35 34.5t-52 8.5q-20 0 -37 -2t-36 -5q-66 -11 -120 -51t-93 -101t-60.5 -138.5t-21.5 -162.5z" />
<glyph unicode="&#xc8;" horiz-adv-x="460" d="M329 690q-15 10 -31 25l-32 31l-31 29q-14 14 -24 22q-4 4 -7 4q-5 0 -9 -9.5t-4 -20.5q0 -10 5 -17q10 -11 25 -22.5t30.5 -21.5t31.5 -19l28 -16q2 -1 3.5 -2t3.5 -1q4 0 8.5 5t4.5 10q0 1 -2 3zM150 352q2 16 6.5 40t10.5 52l12 56l11 52q39 11 91 11q35 0 70.5 -5 t64.5 -16q6 -2 7 -2q6 0 9 14t3 31t-3 31t-10 16q-28 8 -54 10.5t-49 2.5q-53 0 -92 -8.5t-64.5 -20.5t-39 -24.5t-15.5 -19.5q-8 -31 -18 -84t-19 -117t-15.5 -132.5t-6.5 -130.5q0 -40 3 -74q0 -5 8 -5q6 0 6.5 -4t1.5 -9q1 -6 4 -10.5t17 -5.5q23 -1 49 -2t53 -1 q35 0 71 3t71.5 12t69 25.5t62.5 42.5q9 8 12.5 15t3.5 13q0 9 -6.5 14.5t-11.5 5.5t-13 -10q-29 -31 -79 -42.5t-107 -11.5q-47 0 -89 5t-69 9q2 16 6 44l8 60q4 32 9.5 63.5t10.5 54.5q37 6 80 9t85 3h41q13 0 26 -2q8 -1 18.5 -2.5t15.5 -1.5t7 11.5t2 25.5q0 15 -2 27.5 t-7 13.5q-14 2 -27 3t-26 1q-50 0 -102.5 -10t-100.5 -26z" />
<glyph unicode="&#xc9;" horiz-adv-x="460" d="M293 681q12 6 27 14.5t30.5 18.5t30 21.5t25.5 22.5q4 5 4 17q0 11 -3.5 20.5t-9.5 9.5q-5 0 -8 -5q-10 -8 -24 -22l-29 -28l-32 -30.5t-29 -23.5q-4 -4 -4 -5q0 -4 4.5 -9t7.5 -5q5 0 10 4zM150 352q2 16 6.5 40t10.5 52l12 56l11 52q39 11 91 11q35 0 70.5 -5t64.5 -16 q6 -2 7 -2q6 0 9 14t3 31t-3 31t-10 16q-28 8 -54 10.5t-49 2.5q-53 0 -92 -8.5t-64.5 -20.5t-39 -24.5t-15.5 -19.5q-8 -31 -18 -84t-19 -117t-15.5 -132.5t-6.5 -130.5q0 -40 3 -74q0 -5 8 -5q6 0 6.5 -4t1.5 -9q1 -6 4 -10.5t17 -5.5q23 -1 49 -2t53 -1q35 0 71 3 t71.5 12t69 25.5t62.5 42.5q9 8 12.5 15t3.5 13q0 9 -6.5 14.5t-11.5 5.5t-13 -10q-29 -31 -79 -42.5t-107 -11.5q-47 0 -89 5t-69 9q2 16 6 44l8 60q4 32 9.5 63.5t10.5 54.5q37 6 80 9t85 3h41q13 0 26 -2q8 -1 18.5 -2.5t15.5 -1.5t7 11.5t2 25.5q0 15 -2 27.5t-7 13.5 q-14 2 -27 3t-26 1q-50 0 -102.5 -10t-100.5 -26z" />
<glyph unicode="&#xca;" horiz-adv-x="465" d="M320 761q2 0 8 -6q15 -17 30.5 -39.5t32.5 -43.5q3 -4 4.5 -4.5t2.5 -0.5q4 0 4 6q0 10 -8.5 33.5t-21 47.5t-25.5 42.5t-22 18.5q-8 0 -23.5 -11t-34.5 -27.5t-39 -36.5l-34 -35q-13 -14 -21.5 -24t-8.5 -12t3 -2q4 0 4 2l31 21l35 24l35 24q17 11 31 17q10 6 17 6z M150 352q2 16 6.5 40t10.5 52l12 56l11 52q39 11 91 11q35 0 70.5 -5t64.5 -16q6 -2 7 -2q6 0 9 14t3 31t-3 31t-10 16q-28 8 -54 10.5t-49 2.5q-53 0 -92 -8.5t-64.5 -20.5t-39 -24.5t-15.5 -19.5q-8 -31 -18 -84t-19 -117t-15.5 -132.5t-6.5 -130.5q0 -40 3 -74q0 -5 8 -5 q6 0 6.5 -4t1.5 -9q1 -6 4 -10.5t17 -5.5q23 -1 49 -2t53 -1q35 0 71 3t71.5 12t69 25.5t62.5 42.5q9 8 12.5 15t3.5 13q0 9 -6.5 14.5t-11.5 5.5t-13 -10q-29 -31 -79 -42.5t-107 -11.5q-47 0 -89 5t-69 9q2 16 6 44l8 60q4 32 9.5 63.5t10.5 54.5q37 6 80 9t85 3h41 q13 0 26 -2q8 -1 18.5 -2.5t15.5 -1.5t7 11.5t2 25.5q0 15 -2 27.5t-7 13.5q-14 2 -27 3t-26 1q-50 0 -102.5 -10t-100.5 -26z" />
<glyph unicode="&#xcb;" horiz-adv-x="460" d="M274 743q0 14 -6.5 24t-17.5 10q-12 0 -25.5 -7.5t-25 -18t-18.5 -22t-7 -19.5q0 -21 38 -21q34 0 48 17.5t14 36.5zM448 752q0 14 -8 24.5t-20 10.5q-11 0 -24 -7t-24 -17.5t-18 -22t-7 -20.5q0 -20 31 -20q38 0 54 16.5t16 35.5zM150 352q2 16 6.5 40t10.5 52l12 56 l11 52q39 11 91 11q35 0 70.5 -5t64.5 -16q6 -2 7 -2q6 0 9 14t3 31t-3 31t-10 16q-28 8 -54 10.5t-49 2.5q-53 0 -92 -8.5t-64.5 -20.5t-39 -24.5t-15.5 -19.5q-8 -31 -18 -84t-19 -117t-15.5 -132.5t-6.5 -130.5q0 -40 3 -74q0 -5 8 -5q6 0 6.5 -4t1.5 -9q1 -6 4 -10.5 t17 -5.5q23 -1 49 -2t53 -1q35 0 71 3t71.5 12t69 25.5t62.5 42.5q9 8 12.5 15t3.5 13q0 9 -6.5 14.5t-11.5 5.5t-13 -10q-29 -31 -79 -42.5t-107 -11.5q-47 0 -89 5t-69 9q2 16 6 44l8 60q4 32 9.5 63.5t10.5 54.5q37 6 80 9t85 3h41q13 0 26 -2q8 -1 18.5 -2.5t15.5 -1.5 t7 11.5t2 25.5q0 15 -2 27.5t-7 13.5q-14 2 -27 3t-26 1q-50 0 -102.5 -10t-100.5 -26z" />
<glyph unicode="&#xcc;" horiz-adv-x="265" d="M219 690q-15 10 -31 25l-32 31l-31 29q-14 14 -24 22q-4 4 -7 4q-5 0 -9 -9.5t-4 -20.5q0 -10 5 -17q10 -11 25 -22.5t30.5 -21.5t31.5 -19l28 -16q2 -1 3.5 -2t3.5 -1q4 0 8.5 5t4.5 10q0 1 -2 3zM220 647q-19 0 -40 -3.5t-25 -8.5q-12 -16 -25.5 -42.5t-24.5 -56.5 t-19 -60.5t-11 -55.5q0 -6 7 -7.5t10 -3.5q-6 -29 -12 -66t-10 -77t-6.5 -81t-2.5 -78q0 -70 9 -112q1 -3 9.5 -4.5t21.5 -1.5q18 0 36 4t18 15q0 4 -2 12t-3 25t-1 37q0 63 11.5 140.5t27.5 153.5t32 140l25 102q2 7 3.5 13.5t1.5 9.5t-8.5 4.5t-21.5 1.5z" />
<glyph unicode="&#xcd;" horiz-adv-x="260" d="M207 681q12 6 27 14.5t30.5 18.5t30 21.5t25.5 22.5q4 5 4 17q0 11 -3.5 20.5t-9.5 9.5q-5 0 -8 -5q-10 -8 -24 -22l-29 -28l-32 -30.5t-29 -23.5q-4 -4 -4 -5q0 -4 4.5 -9t7.5 -5q5 0 10 4zM220 647q-19 0 -40 -3.5t-25 -8.5q-12 -16 -25.5 -42.5t-24.5 -56.5t-19 -60.5 t-11 -55.5q0 -6 7 -7.5t10 -3.5q-6 -29 -12 -66t-10 -77t-6.5 -81t-2.5 -78q0 -70 9 -112q1 -3 9.5 -4.5t21.5 -1.5q18 0 36 4t18 15q0 4 -2 12t-3 25t-1 37q0 63 11.5 140.5t27.5 153.5t32 140l25 102q2 7 3.5 13.5t1.5 9.5t-8.5 4.5t-21.5 1.5z" />
<glyph unicode="&#xce;" horiz-adv-x="260" d="M234 761q2 0 8 -6q15 -17 30.5 -39.5t32.5 -43.5q3 -4 4.5 -4.5t2.5 -0.5q4 0 4 6q0 10 -8.5 33.5t-21 47.5t-25.5 42.5t-22 18.5q-8 0 -23.5 -11t-34.5 -27.5t-39 -36.5l-34 -35q-13 -14 -21.5 -24t-8.5 -12t3 -2q4 0 4 2l31 21l35 24l35 24q17 11 31 17q10 6 17 6z M220 647q-19 0 -40 -3.5t-25 -8.5q-12 -16 -25.5 -42.5t-24.5 -56.5t-19 -60.5t-11 -55.5q0 -6 7 -7.5t10 -3.5q-6 -29 -12 -66t-10 -77t-6.5 -81t-2.5 -78q0 -70 9 -112q1 -3 9.5 -4.5t21.5 -1.5q18 0 36 4t18 15q0 4 -2 12t-3 25t-1 37q0 63 11.5 140.5t27.5 153.5t32 140 l25 102q2 7 3.5 13.5t1.5 9.5t-8.5 4.5t-21.5 1.5z" />
<glyph unicode="&#xcf;" horiz-adv-x="265" d="M182 738q0 14 -6.5 24t-17.5 10q-12 0 -25.5 -7.5t-25 -18t-18.5 -22t-7 -19.5q0 -21 38 -21q34 0 48 17.5t14 36.5zM356 747q0 14 -8 24.5t-20 10.5q-11 0 -24 -7t-24 -17.5t-18 -22t-7 -20.5q0 -20 31 -20q38 0 54 16.5t16 35.5zM220 647q-19 0 -40 -3.5t-25 -8.5 q-12 -16 -25.5 -42.5t-24.5 -56.5t-19 -60.5t-11 -55.5q0 -6 7 -7.5t10 -3.5q-6 -29 -12 -66t-10 -77t-6.5 -81t-2.5 -78q0 -70 9 -112q1 -3 9.5 -4.5t21.5 -1.5q18 0 36 4t18 15q0 4 -2 12t-3 25t-1 37q0 63 11.5 140.5t27.5 153.5t32 140l25 102q2 7 3.5 13.5t1.5 9.5 t-8.5 4.5t-21.5 1.5z" />
<glyph unicode="&#xd0;" horiz-adv-x="456" d="M122 272q25 -1 47 -3l42 -4h2q7 0 10 7t3 15q0 9 -3.5 17.5t-11.5 10.5q-19 4 -39 6.5t-40 3.5l12 71l11 64q5 28 8.5 50t6.5 34q42 -11 78 -34.5t62.5 -56.5t41.5 -72.5t15 -81.5q0 -39 -14.5 -77.5t-47 -74t-83.5 -66t-124 -51.5q-10 -3 -24 -9.5t-14 -14.5 q0 -4 12.5 -6.5t24.5 -2.5q25 0 56.5 6.5t62.5 16.5t57.5 21.5t40.5 22.5q7 4 7 8t-10 7l-8 2q0 1 7 5q31 18 57.5 44.5t45.5 59t30 70t11 76.5q0 50 -21.5 99.5t-69.5 91t-126 71.5t-191 42q-2 0 -2 -10v-20q0 -16 2 -17q20 -11 36.5 -17.5t39.5 -17.5q2 -1 2 -3 q0 -1 -16 -5q-8 -2 -14.5 -5t-7.5 -9l-10 -94l-12 -120q-21 -4 -45 -11t-44 -16q-4 -2 -5.5 -7.5t-1.5 -12.5q0 -8 2 -14t4 -6t4 0.5t3 0.5q20 4 40 7.5t39 5.5l-4 -85q-2 -42 -2 -85q0 -26 0.5 -33.5t3.5 -7.5q5 0 13.5 7.5t10.5 14.5q11 44 21 93t19 99z" />
<glyph unicode="&#xd1;" horiz-adv-x="575" d="M217 729q-19 -9 -19 -20q0 -9 18 -9q11 0 23 6q11 5 21.5 11t24.5 6q16 0 27.5 -5t23.5 -11q20 -12 34 -16.5t30 -4.5q30 0 57 10t44 22q22 16 22 26q0 8 -12 8t-35 -13q-9 -5 -18 -9t-24 -4q-17 0 -27.5 3.5t-24.5 12.5q-12 8 -27.5 12.5t-37.5 4.5q-30 0 -55 -9.5 t-45 -20.5zM127 594q0 -4 0.5 -10.5t-0.5 -11.5q-9 -64 -23 -140l-28 -156l-29 -164q-14 -83 -22 -162q0 -6 11 -6t26 7.5t18 18.5q8 36 20 82l24 94l26 94l26 86l20 70q10 30 16 44q3 -16 12.5 -46.5t23.5 -69.5q12 -40 30 -84l36 -88q18 -44 38 -86.5t38 -75.5q3 -6 18 -6 q9 0 20.5 2t21.5 5t17 7t8 7q49 187 69 349.5t21 290.5q0 11 -16 11q-11 0 -22 -6t-12 -15q-8 -111 -19.5 -194.5t-23.5 -144.5q-14 -62 -26 -106l-21 -75q-10 9 -25 41q-15 34 -33 80l-37 101l-38 109q-18 54 -31.5 101.5t-21.5 78.5q-4 13 -27 13q-33 0 -59 -12.5 t-26 -32.5z" />
<glyph unicode="&#xd2;" horiz-adv-x="580" d="M364 690q-14 10 -30 25l-34 31l-30 29q-14 14 -24 22q-4 4 -7 4q-5 0 -9 -9.5t-4 -20.5q0 -10 5 -17q10 -11 25 -22.5t30.5 -21.5t31.5 -19l28 -16q2 -1 3.5 -2t3.5 -1q4 0 8.5 5t4.5 10q0 1 -2 3zM568 408q0 46 -10 87.5t-31 72.5t-52.5 49t-74.5 18q-36 0 -64 -1.5 t-52 -5.5t-45.5 -12.5t-44.5 -21.5l4 22q2 12 3 23q0 9 -13 9q-7 0 -13.5 -3t-8.5 -8l-28 -81l-28 -84q-11 -20 -26.5 -41.5t-23.5 -41.5q-2 -5 -2 -8t5 -7t10 -4q9 0 15 5l10 10q-16 -34 -31 -88t-15 -111q0 -36 9 -69.5t30 -59.5t56.5 -41.5t88.5 -15.5q74 0 135 33.5 t105 89.5t68 130t24 155zM320 577q44 0 72.5 -19t45.5 -49t23.5 -67.5t6.5 -74.5q0 -78 -18.5 -137.5t-47 -100t-64 -61t-69.5 -20.5q-39 0 -65 16t-41 43.5t-21.5 63.5t-6.5 76q0 38 4.5 77t11.5 76t15 69t15 56q1 4 12 12.5t29.5 17.5t43.5 15.5t54 6.5z" />
<glyph unicode="&#xd3;" horiz-adv-x="580" d="M371 681q12 6 27 14.5t30.5 18.5t30 21.5t25.5 22.5q4 5 4 17q0 11 -3.5 20.5t-9.5 9.5q-5 0 -8 -5q-10 -8 -24 -22l-29 -28l-32 -30.5t-29 -23.5q-4 -4 -4 -5q0 -4 4.5 -9t7.5 -5q5 0 10 4zM568 408q0 46 -10 87.5t-31 72.5t-52.5 49t-74.5 18q-36 0 -64 -1.5t-52 -5.5 t-45.5 -12.5t-44.5 -21.5l4 22q2 12 3 23q0 9 -13 9q-7 0 -13.5 -3t-8.5 -8l-28 -81l-28 -84q-11 -20 -26.5 -41.5t-23.5 -41.5q-2 -5 -2 -8t5 -7t10 -4q9 0 15 5l10 10q-16 -34 -31 -88t-15 -111q0 -36 9 -69.5t30 -59.5t56.5 -41.5t88.5 -15.5q74 0 135 33.5t105 89.5 t68 130t24 155zM320 577q44 0 72.5 -19t45.5 -49t23.5 -67.5t6.5 -74.5q0 -78 -18.5 -137.5t-47 -100t-64 -61t-69.5 -20.5q-39 0 -65 16t-41 43.5t-21.5 63.5t-6.5 76q0 38 4.5 77t11.5 76t15 69t15 56q1 4 12 12.5t29.5 17.5t43.5 15.5t54 6.5z" />
<glyph unicode="&#xd4;" horiz-adv-x="580" d="M389 761q2 0 8 -6q15 -17 30.5 -39.5t32.5 -43.5q3 -4 4.5 -4.5t2.5 -0.5q4 0 4 6q0 10 -8.5 33.5t-21 47.5t-25.5 42.5t-22 18.5q-8 0 -23.5 -11t-34.5 -28q-18 -16 -38 -36l-35 -35q-13 -14 -21.5 -24t-8.5 -12t3 -2q4 0 4 2q12 9 30 21l36 24l35 24q17 11 31 17 q10 6 17 6zM568 408q0 46 -10 87.5t-31 72.5t-52.5 49t-74.5 18q-36 0 -64 -1.5t-52 -5.5t-45.5 -12.5t-44.5 -21.5l4 22q2 12 3 23q0 9 -13 9q-7 0 -13.5 -3t-8.5 -8l-28 -81l-28 -84q-11 -20 -26.5 -41.5t-23.5 -41.5q-2 -5 -2 -8t5 -7t10 -4q9 0 15 5l10 10 q-16 -34 -31 -88t-15 -111q0 -36 9 -69.5t30 -59.5t56.5 -41.5t88.5 -15.5q74 0 135 33.5t105 89.5t68 130t24 155zM320 577q44 0 72.5 -19t45.5 -49t23.5 -67.5t6.5 -74.5q0 -78 -18.5 -137.5t-47 -100t-64 -61t-69.5 -20.5q-39 0 -65 16t-41 43.5t-21.5 63.5t-6.5 76 q0 38 4.5 77t11.5 76t15 69t15 56q1 4 12 12.5t29.5 17.5t43.5 15.5t54 6.5z" />
<glyph unicode="&#xd5;" horiz-adv-x="595" d="M208 735q-19 -9 -19 -20q0 -9 18 -9q11 0 23 6q11 5 21.5 11t24.5 6q16 0 27.5 -5t23.5 -11q20 -12 34 -16.5t30 -4.5q30 0 57 10t44 22q22 16 22 26q0 8 -12 8t-35 -13q-9 -5 -18 -9t-24 -4q-17 0 -27.5 3.5t-24.5 12.5q-12 8 -27.5 12.5t-37.5 4.5q-30 0 -55 -9.5 t-45 -20.5zM568 408q0 46 -10 87.5t-31 72.5t-52.5 49t-74.5 18q-36 0 -64 -1.5t-52 -5.5t-45.5 -12.5t-44.5 -21.5l4 22q2 12 3 23q0 9 -13 9q-7 0 -13.5 -3t-8.5 -8l-28 -81l-28 -84q-11 -20 -26.5 -41.5t-23.5 -41.5q-2 -5 -2 -8t5 -7t10 -4q9 0 15 5l10 10 q-16 -34 -31 -88t-15 -111q0 -36 9 -69.5t30 -59.5t56.5 -41.5t88.5 -15.5q74 0 135 33.5t105 89.5t68 130t24 155zM320 577q44 0 72.5 -19t45.5 -49t23.5 -67.5t6.5 -74.5q0 -78 -18.5 -137.5t-47 -100t-64 -61t-69.5 -20.5q-39 0 -65 16t-41 43.5t-21.5 63.5t-6.5 76 q0 38 4.5 77t11.5 76t15 69t15 56q1 4 12 12.5t29.5 17.5t43.5 15.5t54 6.5z" />
<glyph unicode="&#xd6;" horiz-adv-x="580" d="M335 743q0 14 -6.5 24t-17.5 10q-12 0 -25.5 -7.5t-25 -18t-18.5 -22t-7 -19.5q0 -21 38 -21q34 0 48 17.5t14 36.5zM509 752q0 14 -8 24.5t-20 10.5q-11 0 -24 -7t-24 -17.5t-18 -22t-7 -20.5q0 -20 31 -20q38 0 54 16.5t16 35.5zM568 408q0 46 -10 87.5t-31 72.5 t-52.5 49t-74.5 18q-36 0 -64 -1.5t-52 -5.5t-45.5 -12.5t-44.5 -21.5l4 22q2 12 3 23q0 9 -13 9q-7 0 -13.5 -3t-8.5 -8l-28 -81l-28 -84q-11 -20 -26.5 -41.5t-23.5 -41.5q-2 -5 -2 -8t5 -7t10 -4q9 0 15 5l10 10q-16 -34 -31 -88t-15 -111q0 -36 9 -69.5t30 -59.5 t56.5 -41.5t88.5 -15.5q74 0 135 33.5t105 89.5t68 130t24 155zM320 577q44 0 72.5 -19t45.5 -49t23.5 -67.5t6.5 -74.5q0 -78 -18.5 -137.5t-47 -100t-64 -61t-69.5 -20.5q-39 0 -65 16t-41 43.5t-21.5 63.5t-6.5 76q0 38 4.5 77t11.5 76t15 69t15 56q1 4 12 12.5 t29.5 17.5t43.5 15.5t54 6.5z" />
<glyph unicode="&#xd7;" horiz-adv-x="361" d="M67 413l-33 -22l123 -183l-125 -185l33 -23l117 173l117 -173l34 21l-126 188l123 183l-34 21l-114 -171z" />
<glyph unicode="&#xd8;" horiz-adv-x="581" d="M470 365q0 -55 -13.5 -111.5t-40 -102t-64.5 -74.5t-87 -29q-14 0 -28.5 2.5t-32.5 9.5q3 6 12 28l22 54l31 70l35 80l34 81l32 73l26 59q10 25 15 36q30 -27 44.5 -74t14.5 -102zM315 578q30 0 60 -10l-212 -476q-20 26 -28.5 60.5t-8.5 76.5q0 36 5.5 75.5t13.5 77.5 q9 40 19 76l19 67q1 3 11 12t27.5 18t41.5 16t52 7zM569 407q0 75 -30 135.5t-91 85.5q5 11 12 23t14 29q3 6 3 10q0 6 -7.5 9.5t-17.5 3.5q-8 0 -15.5 -3t-10.5 -10l-12 -26l-14 -29q-18 2 -39.5 3t-38.5 1q-13 0 -26 -2t-28 -7t-33 -13.5t-41 -22.5q-2 0 -2 6q0 5 2 14 t7 25v2q0 6 -11 6q-6 0 -14 -2.5t-10 -7.5q-17 -33 -28.5 -76.5t-27.5 -88.5q-6 -12 -12 -22l-14 -20l-13.5 -20t-12.5 -25v-2q0 -5 5 -8t10 -5h1q7 0 13 6t11 10q-5 -11 -14 -33t-18.5 -51.5t-16.5 -63.5t-7 -68q0 -50 19 -90t70 -60l-15 -26q-8 -14 -14 -26q-2 -5 -2.5 -7 t-0.5 -3q0 -9 12.5 -15t24.5 -6q16 0 20 10l12 29l12 29q30 -6 57 -6q77 0 138.5 38t104.5 97t66 131.5t23 141.5z" />
<glyph unicode="&#xd9;" horiz-adv-x="500" d="M308 690q-14 10 -30 25l-34 31l-30 29q-14 14 -24 22q-4 4 -7 4q-5 0 -9 -9.5t-4 -20.5q0 -10 5 -17q10 -11 25 -22.5t30.5 -21.5t31.5 -19l28 -16q2 -1 3.5 -2t3.5 -1q4 0 8.5 5t4.5 10q0 1 -2 3zM99 634q-7 0 -8 -4q-6 -24 -15 -66.5t-17.5 -95.5t-14.5 -112t-6 -115 q0 -51 6.5 -96.5t21.5 -80t40 -54.5t63 -20q23 0 48 8.5t48 22t42.5 29.5t31.5 30q-1 -8 -3.5 -22t-2.5 -28t4.5 -24.5t16.5 -10.5t27 4.5t28 11t22 13t9 9.5q0 5 -5 5t-12 -4.5t-11 -4.5q-3 0 -3 4q0 5 1 11.5t2 11.5l20 131q12 75 22.5 154.5t18 155.5t7.5 133 q0 21 -1 30.5t-9 9.5q-6 0 -14.5 -2.5t-16.5 -6.5t-14 -8.5t-6 -7.5q-7 -54 -14.5 -118.5t-17.5 -129.5t-24.5 -126.5t-35.5 -109t-49.5 -76t-66.5 -28.5q-53 0 -75 44.5t-22 120.5q0 73 15 167.5t38 202.5v1q0 5 -8 12t-19 13.5t-22.5 11t-18.5 4.5z" />
<glyph unicode="&#xda;" horiz-adv-x="495" d="M289 681q12 6 27 14.5t30.5 18.5t30 21.5t25.5 22.5q4 5 4 17q0 11 -3.5 20.5t-9.5 9.5q-5 0 -8 -5q-10 -8 -24 -22l-29 -28l-32 -30.5t-29 -23.5q-4 -4 -4 -5q0 -4 4.5 -9t7.5 -5q5 0 10 4zM99 634q-7 0 -8 -4q-6 -24 -15 -66.5t-17.5 -95.5t-14.5 -112t-6 -115 q0 -51 6.5 -96.5t21.5 -80t40 -54.5t63 -20q23 0 48 8.5t48 22t42.5 29.5t31.5 30q-1 -8 -3.5 -22t-2.5 -28t4.5 -24.5t16.5 -10.5t27 4.5t28 11t22 13t9 9.5q0 5 -5 5t-12 -4.5t-11 -4.5q-3 0 -3 4q0 5 1 11.5t2 11.5l20 131q12 75 22.5 154.5t18 155.5t7.5 133 q0 21 -1 30.5t-9 9.5q-6 0 -14.5 -2.5t-16.5 -6.5t-14 -8.5t-6 -7.5q-7 -54 -14.5 -118.5t-17.5 -129.5t-24.5 -126.5t-35.5 -109t-49.5 -76t-66.5 -28.5q-53 0 -75 44.5t-22 120.5q0 73 15 167.5t38 202.5v1q0 5 -8 12t-19 13.5t-22.5 11t-18.5 4.5z" />
<glyph unicode="&#xdb;" horiz-adv-x="500" d="M317 761q2 0 8 -6q15 -17 30.5 -39.5t32.5 -43.5q3 -4 4.5 -4.5t2.5 -0.5q4 0 4 6q0 10 -8.5 33.5t-21 47.5t-25.5 42.5t-22 18.5q-8 0 -23.5 -11t-34.5 -28q-18 -16 -38 -36l-35 -35q-13 -14 -21.5 -24t-8.5 -12t3 -2q4 0 4 2q12 9 30 21l36 24l35 24q17 11 31 17 q10 6 17 6zM99 634q-7 0 -8 -4q-6 -24 -15 -66.5t-17.5 -95.5t-14.5 -112t-6 -115q0 -51 6.5 -96.5t21.5 -80t40 -54.5t63 -20q23 0 48 8.5t48 22t42.5 29.5t31.5 30q-1 -8 -3.5 -22t-2.5 -28t4.5 -24.5t16.5 -10.5t27 4.5t28 11t22 13t9 9.5q0 5 -5 5t-12 -4.5t-11 -4.5 q-3 0 -3 4q0 5 1 11.5t2 11.5l20 131q12 75 22.5 154.5t18 155.5t7.5 133q0 21 -1 30.5t-9 9.5q-6 0 -14.5 -2.5t-16.5 -6.5t-14 -8.5t-6 -7.5q-7 -54 -14.5 -118.5t-17.5 -129.5t-24.5 -126.5t-35.5 -109t-49.5 -76t-66.5 -28.5q-53 0 -75 44.5t-22 120.5q0 73 15 167.5 t38 202.5v1q0 5 -8 12t-19 13.5t-22.5 11t-18.5 4.5z" />
<glyph unicode="&#xdc;" horiz-adv-x="500" d="M262 748q0 14 -6.5 24t-17.5 10q-12 0 -25.5 -7.5t-25 -18t-18.5 -22t-7 -19.5q0 -21 38 -21q34 0 48 17.5t14 36.5zM436 757q0 14 -8 24.5t-20 10.5q-11 0 -24 -7t-24 -17.5t-18 -22t-7 -20.5q0 -20 31 -20q38 0 54 16.5t16 35.5zM99 634q-7 0 -8 -4q-6 -24 -15 -66.5 t-17.5 -95.5t-14.5 -112t-6 -115q0 -51 6.5 -96.5t21.5 -80t40 -54.5t63 -20q23 0 48 8.5t48 22t42.5 29.5t31.5 30q-1 -8 -3.5 -22t-2.5 -28t4.5 -24.5t16.5 -10.5t27 4.5t28 11t22 13t9 9.5q0 5 -5 5t-12 -4.5t-11 -4.5q-3 0 -3 4q0 5 1 11.5t2 11.5l20 131 q12 75 22.5 154.5t18 155.5t7.5 133q0 21 -1 30.5t-9 9.5q-6 0 -14.5 -2.5t-16.5 -6.5t-14 -8.5t-6 -7.5q-7 -54 -14.5 -118.5t-17.5 -129.5t-24.5 -126.5t-35.5 -109t-49.5 -76t-66.5 -28.5q-53 0 -75 44.5t-22 120.5q0 73 15 167.5t38 202.5v1q0 5 -8 12t-19 13.5 t-22.5 11t-18.5 4.5z" />
<glyph unicode="&#xdd;" horiz-adv-x="495" d="M39 608q-1 -4 1 -10l4 -14q29 -112 70 -196.5t92 -137.5l-18 -46l-20 -54t-16.5 -55t-6.5 -51q0 -31 12.5 -49t41.5 -18q13 0 26.5 3t24 8t17.5 11t7 12t-7 10q-19 10 -19 47q0 19 6.5 50.5t20.5 70t37.5 81.5t58.5 86l38 48q19 23 37 48.5t34.5 54.5t30.5 67q4 11 4 27 q0 10 -1.5 21.5t-4.5 21t-7.5 16t-10.5 6.5q-5 0 -11 -6q-23 -21 -46.5 -51t-47.5 -65l-45 -71l-41 -69l-34 -58l-24 -41l-28 53q-16 30 -31 65.5t-25 76t-10 82.5v14q0 5 1 10q0 4 0.5 8.5t0.5 7.5q0 14 -14 21t-32 7q-23 0 -44 -10.5t-21 -31.5zM278 651q12 6 27 14.5 t30.5 18.5t30 21.5t25.5 22.5q4 5 4 17q0 11 -3.5 20.5t-9.5 9.5q-5 0 -8 -5q-10 -8 -24 -22l-30 -28l-31.5 -30.5t-28.5 -23.5q-4 -4 -4 -5q0 -4 4.5 -9t7.5 -5q5 0 10 4z" />
<glyph unicode="&#xde;" horiz-adv-x="402" d="M85 461q0 -2 -3 -9q-7 -18 -13 -56.5t-11.5 -85t-9 -94t-5.5 -83.5q-5 -2 -10 -6t-5 -18q0 -8 5 -11.5t10 -5.5q-1 -11 -2 -20.5t-0.5 -20t2 -24t6.5 -32.5q1 -3 10 -5t22 -2q18 0 35.5 5t17.5 13q0 2 -1 8l-2 12q-2 15 -6.5 37t-2.5 44q81 8 134 20.5t84.5 33t44 49 t12.5 67.5q0 41 -18 80.5t-48.5 73.5t-70.5 59.5t-84 38.5l23 55q12 28 12 55q0 16 -9.5 26.5t-27.5 10.5q-12 0 -24.5 -21t-23 -46t-18 -46t-8.5 -21q-20 0 -37.5 -13.5t-17.5 -31.5q0 -7 0.5 -11.5t3 -7.5t9 -5.5t18.5 -5.5q6 -2 7.5 -3t1.5 -3zM293 252q0 -30 -11.5 -48 t-33.5 -28.5t-53.5 -15.5t-71.5 -10q1 39 4 79.5t7 78.5t9.5 70.5t12.5 53.5q24 -5 48 -22.5t44 -43t32.5 -55.5t12.5 -59z" />
<glyph unicode="&#xdf;" horiz-adv-x="506" d="M278 524q0 -15 -7.5 -42.5t-19.5 -58t-26.5 -59t-28.5 -44.5v2q0 39 8.5 77t20.5 69t24.5 50t20.5 19t8 -13zM55 -183q0 17 8.5 41t20.5 48.5t26 45.5t26 31q0 -27 -6.5 -60t-16 -61.5t-20.5 -48t-20 -19.5q-18 0 -18 23zM408 338q-5 0 -5 -2q-4 -21 -27.5 -56.5 t-56 -74.5t-68 -75t-63.5 -57v30v45l2 46v38l18 21q13 15 29 37t34 50t32.5 60t24 67.5t9.5 71.5q0 39 -15 80q-4 11 -17.5 18t-28.5 7q-16 0 -26 -9q-26 -24 -46.5 -64t-35 -88t-22.5 -99.5t-8 -98.5q0 -8 0.5 -14.5t0.5 -13.5l-75 -69q-34 -30 -64 -61q-8 -8 -11 -14.5 t-3 -11.5q0 -8 4.5 -12t10.5 -4q5 0 10.5 3t11.5 11q10 12 24 25l29 26q16 14 32 26l29 23q-1 -36 -2.5 -72t-2.5 -83q-18 -18 -42.5 -46.5t-46.5 -63.5t-37 -72.5t-15 -73.5q0 -12 2.5 -25.5t8.5 -25.5t16.5 -20t27.5 -8q15 0 26 4t18 10q55 50 76.5 121.5t21.5 172.5v9 q30 23 60 49l57 51l50 48l38 36q3 -20 3 -44q0 -29 -4 -56t-12 -41q-4 -7 -10.5 -8.5t-14.5 -1.5q-5 0 -9.5 0.5t-8.5 0.5q-10 0 -12.5 -6.5t-2.5 -16.5t3 -22.5t10.5 -23t19 -17.5t29.5 -7q16 0 26.5 11t16.5 28q7 2 19 12l26 22q14 12 24 24l18 17q15 15 15 29q0 8 -5 13 t-11 5q-5 0 -10 -5q-6 -7 -15 -15l-18 -18l-16 -14q-8 -6 -11 -9q11 29 23 74t12 93q0 23 -3.5 44.5t-13.5 41.5q-1 3 -7.5 6t-15 5.5t-17 4.5t-13.5 2z" />
<glyph unicode="&#xe0;" horiz-adv-x="474" d="M366 419q-16 11 -34 27l-37 34l-34 34l-26 24q-5 4 -8 4q-6 0 -10.5 -11t-4.5 -22q0 -13 6 -19q12 -12 28 -24t34 -24l34 -22l32 -18q2 -1 3.5 -2t3.5 -1q5 0 10 5.5t5 10.5q0 2 -2 4zM-1 80q5 0 10 4t9 8l10 10q-8 -17 -14 -34.5t-6 -39.5q0 -17 6 -27.5t16 -16t22.5 -7 t25.5 -1.5q39 0 71.5 15.5t58.5 37.5t45 45l31 37q-5 -12 -7.5 -25.5t-2.5 -29.5q0 -33 22.5 -48.5t46.5 -15.5q20 0 40.5 9.5t38.5 23.5t33 29.5t26 28.5q14 17 14 30q0 8 -4.5 12t-9.5 4q-6 0 -10 -4l-22 -23q-13 -14 -27 -26t-27.5 -21t-23.5 -9q-18 0 -18 31q0 14 3 32 t7 37.5t9 38.5l9 35q3 10 3 16q0 8 -10.5 14t-24.5 6q-10 0 -19 -3.5t-14 -11.5l-38 -53q-24 -32 -51.5 -61.5t-57.5 -51t-58 -21.5q-12 0 -18 7t-6 18q0 29 26 64q38 49 104.5 93t156.5 80q5 2 5 5t-5.5 7t-14 7t-17.5 5t-15 2h-7q-51 -9 -99.5 -36t-90.5 -59.5t-74 -64.5 l-53 -52q-17 -17 -17 -33q0 -17 13 -17z" />
<glyph unicode="&#xe1;" horiz-adv-x="474" d="M316 404q14 6 30 16l34 21q18 11 33.5 24t27.5 25q5 5 5 19q0 11 -4 22t-11 11q-4 0 -9 -5q-11 -9 -26 -24l-32 -33l-36 -33q-18 -16 -32 -26q-5 -4 -5 -6q0 -4 5 -9.5t9 -5.5t11 4zM-1 80q5 0 10 4t9 8l10 10q-8 -17 -14 -34.5t-6 -39.5q0 -17 6 -27.5t16 -16t22.5 -7 t25.5 -1.5q39 0 71.5 15.5t58.5 37.5t45 45l31 37q-5 -12 -7.5 -25.5t-2.5 -29.5q0 -33 22.5 -48.5t46.5 -15.5q20 0 40.5 9.5t38.5 23.5t33 29.5t26 28.5q14 17 14 30q0 8 -4.5 12t-9.5 4q-6 0 -10 -4l-22 -23q-13 -14 -27 -26t-27.5 -21t-23.5 -9q-18 0 -18 31q0 14 3 32 t7 37.5t9 38.5l9 35q3 10 3 16q0 8 -10.5 14t-24.5 6q-10 0 -19 -3.5t-14 -11.5l-38 -53q-24 -32 -51.5 -61.5t-57.5 -51t-58 -21.5q-12 0 -18 7t-6 18q0 29 26 64q38 49 104.5 93t156.5 80q5 2 5 5t-5.5 7t-14 7t-17.5 5t-15 2h-7q-51 -9 -99.5 -36t-90.5 -59.5t-74 -64.5 l-53 -52q-17 -17 -17 -33q0 -17 13 -17z" />
<glyph unicode="&#xe2;" horiz-adv-x="474" d="M352 490q3 0 9 -6q17 -20 34.5 -45t35.5 -48q3 -4 5 -4.5t3 -0.5q4 0 4 7q0 11 -9.5 37t-23 52.5t-28 47t-24.5 20.5q-9 0 -26.5 -12t-38.5 -30t-43 -40l-38 -40l-24 -27q-10 -11 -9 -13q0 -2 3 -2t5 2q14 8 33 22l39 28l39 26q20 12 35 20q12 6 19 6zM-1 80q5 0 10 4 t9 8l10 10q-8 -17 -14 -34.5t-6 -39.5q0 -17 6 -27.5t16 -16t22.5 -7t25.5 -1.5q39 0 71.5 15.5t58.5 37.5t45 45l31 37q-5 -12 -7.5 -25.5t-2.5 -29.5q0 -33 22.5 -48.5t46.5 -15.5q20 0 40.5 9.5t38.5 23.5t33 29.5t26 28.5q14 17 14 30q0 8 -4.5 12t-9.5 4q-6 0 -10 -4 l-22 -23q-13 -14 -27 -26t-27.5 -21t-23.5 -9q-18 0 -18 31q0 14 3 32t7 37.5t9 38.5l9 35q3 10 3 16q0 8 -10.5 14t-24.5 6q-10 0 -19 -3.5t-14 -11.5l-38 -53q-24 -32 -51.5 -61.5t-57.5 -51t-58 -21.5q-12 0 -18 7t-6 18q0 29 26 64q38 49 104.5 93t156.5 80q5 2 5 5 t-5.5 7t-14 7t-17.5 5t-15 2h-7q-51 -9 -99.5 -36t-90.5 -59.5t-74 -64.5l-53 -52q-17 -17 -17 -33q0 -17 13 -17z" />
<glyph unicode="&#xe3;" horiz-adv-x="474" d="M154 476q-21 -11 -21 -22t20 -11q7 0 13 2t13 5l23 12q12 6 28 7q17 0 30 -5.5t26 -12.5q23 -13 38.5 -18t33.5 -5q33 0 62.5 11t49.5 25q24 18 24 28q0 9 -13 9q-14 0 -39 -14l-20 -10q-10 -5 -27 -5q-18 0 -29.5 4t-27.5 14q-14 9 -31 14t-42 5q-33 0 -60.5 -10 t-50.5 -23zM-1 80q5 0 10 4t9 8l10 10q-8 -17 -14 -34.5t-6 -39.5q0 -17 6 -27.5t16 -16t22.5 -7t25.5 -1.5q39 0 71.5 15.5t58.5 37.5t45 45l31 37q-5 -12 -7.5 -25.5t-2.5 -29.5q0 -33 22.5 -48.5t46.5 -15.5q20 0 40.5 9.5t38.5 23.5t33 29.5t26 28.5q14 17 14 30 q0 8 -4.5 12t-9.5 4q-6 0 -10 -4l-22 -23q-13 -14 -27 -26t-27.5 -21t-23.5 -9q-18 0 -18 31q0 14 3 32t7 37.5t9 38.5l9 35q3 10 3 16q0 8 -10.5 14t-24.5 6q-10 0 -19 -3.5t-14 -11.5l-38 -53q-24 -32 -51.5 -61.5t-57.5 -51t-58 -21.5q-12 0 -18 7t-6 18q0 29 26 64 q38 49 104.5 93t156.5 80q5 2 5 5t-5.5 7t-14 7t-17.5 5t-15 2h-7q-51 -9 -99.5 -36t-90.5 -59.5t-74 -64.5l-53 -52q-17 -17 -17 -33q0 -17 13 -17z" />
<glyph unicode="&#xe4;" horiz-adv-x="474" d="M282 524q0 15 -7.5 26t-19.5 11q-14 0 -29 -8t-27 -20t-20 -24.5t-8 -21.5q0 -11 9.5 -17t32.5 -6q38 0 53.5 19.5t15.5 40.5zM475 533q0 16 -8.5 27.5t-22.5 11.5q-12 0 -26.5 -8t-26.5 -19t-20 -24t-8 -23q0 -22 34 -22q43 0 60.5 18.5t17.5 38.5zM-1 80q5 0 10 4t9 8 l10 10q-8 -17 -14 -34.5t-6 -39.5q0 -17 6 -27.5t16 -16t22.5 -7t25.5 -1.5q39 0 71.5 15.5t58.5 37.5t45 45l31 37q-5 -12 -7.5 -25.5t-2.5 -29.5q0 -33 22.5 -48.5t46.5 -15.5q20 0 40.5 9.5t38.5 23.5t33 29.5t26 28.5q14 17 14 30q0 8 -4.5 12t-9.5 4q-6 0 -10 -4 l-22 -23q-13 -14 -27 -26t-27.5 -21t-23.5 -9q-18 0 -18 31q0 14 3 32t7 37.5t9 38.5l9 35q3 10 3 16q0 8 -10.5 14t-24.5 6q-10 0 -19 -3.5t-14 -11.5l-38 -53q-24 -32 -51.5 -61.5t-57.5 -51t-58 -21.5q-12 0 -18 7t-6 18q0 29 26 64q38 49 104.5 93t156.5 80q5 2 5 5 t-5.5 7t-14 7t-17.5 5t-15 2h-7q-51 -9 -99.5 -36t-90.5 -59.5t-74 -64.5l-53 -52q-17 -17 -17 -33q0 -17 13 -17z" />
<glyph unicode="&#xe5;" horiz-adv-x="474" d="M362 580q-34 -2 -59.5 -16.5t-41 -35.5t-20.5 -45t1.5 -44t25 -32.5t49.5 -11.5q41 1 67.5 16t40 36t14.5 45t-7 44t-26 32.5t-44 11.5zM323 432q-38 -2 -48.5 13.5t-1.5 35.5t32 37.5t52 19.5q27 1 38.5 -14.5t7.5 -35t-24 -37t-56 -19.5zM-1 80q5 0 10 4t9 8l10 10 q-8 -17 -14 -34.5t-6 -39.5q0 -17 6 -27.5t16 -16t22.5 -7t25.5 -1.5q39 0 71.5 15.5t58.5 37.5t45 45l31 37q-5 -12 -7.5 -25.5t-2.5 -29.5q0 -33 22.5 -48.5t46.5 -15.5q20 0 40.5 9.5t38.5 23.5t33 29.5t26 28.5q14 17 14 30q0 8 -4.5 12t-9.5 4q-6 0 -10 -4l-22 -23 q-13 -14 -27 -26t-27.5 -21t-23.5 -9q-18 0 -18 31q0 14 3 32t7 37.5t9 38.5l9 35q3 10 3 16q0 8 -10.5 14t-24.5 6q-10 0 -19 -3.5t-14 -11.5l-38 -53q-24 -32 -51.5 -61.5t-57.5 -51t-58 -21.5q-12 0 -18 7t-6 18q0 29 26 64q38 49 104.5 93t156.5 80q5 2 5 5t-5.5 7 t-14 7t-17.5 5t-15 2h-7q-51 -9 -99.5 -36t-90.5 -59.5t-74 -64.5l-53 -52q-17 -17 -17 -33q0 -17 13 -17z" />
<glyph unicode="&#xe6;" horiz-adv-x="559" d="M356 163q5 10 18.5 24.5t30 30t34.5 28.5t33 21.5t24.5 9t9.5 -10.5q0 -19 -15.5 -35.5t-38 -30t-48.5 -23.5t-48 -14zM558 297q0 10 -6 17.5t-15.5 12t-21 5.5t-21.5 -2q-55 -14 -99 -38.5t-76 -53.5q-15 -23 -39 -54.5t-52 -60t-58.5 -49t-58.5 -20.5q-18 0 -22.5 14 t0.5 25q17 36 42.5 66.5t60.5 57.5t80 51t102 48q8 3 3.5 8t-14.5 9.5t-22.5 7t-20.5 1.5q-36 -6 -79 -28.5t-87 -54t-86 -68.5t-76 -71q-6 -6 -8 -16.5t-0.5 -18.5t7 -11t14.5 5q7 6 14 14.5t10 10.5q-8 -14 -12.5 -24.5t-6.5 -29.5q-2 -23 7.5 -45.5t32.5 -26.5 q42 -7 77 4t63.5 32t51.5 47t42 50q-5 -15 -9 -38t3.5 -44t31.5 -36t75 -15q27 0 53 9.5t49 24t43 33t34 36.5q12 15 13 25.5t-3.5 16t-11 6t-10.5 -4.5l-30 -35q-16 -18 -36 -31.5t-43.5 -19.5t-52.5 1q-31 7 -42 30.5t-6 49.5q9 3 24 7t34.5 10.5t41.5 17t44 26.5 q38 27 55 57.5t17 59.5z" />
<glyph unicode="&#xe7;" horiz-adv-x="368" d="M4 84q6 0 12 6q6 4 12 11l13 13l11 11t7 5q1 0 1 -2v-1q0 -1 -1 -3q-5 -18 -5 -30q0 -38 19 -61t59 -28q11 -19 11 -38q0 -23 -17 -44t-56 -31q-15 -4 -15 -10q0 -5 4.5 -8.5t12.5 -3.5q6 0 11 0.5t15 2.5q33 8 52 22.5t28.5 32.5t12 36.5t2.5 35.5q5 -1 11 -1h11 q55 0 96.5 24.5t68.5 66.5q9 13 9 25q0 10 -5.5 14t-11.5 4t-9.5 -3.5t-9.5 -10.5q-26 -32 -50.5 -45.5t-53.5 -13.5q-54 0 -77.5 23.5t-23.5 63.5q0 15 5 27.5t17 19.5q38 24 74.5 44.5t64.5 38t45 32t17 26.5q0 19 -14 28.5t-36 9.5q-26 0 -55.5 -14t-61 -36.5 t-62.5 -50.5q-30 -26 -58 -54l-51 -52l-37 -40q-9 -9 -9 -22q0 -9 5 -14.5t12 -5.5z" />
<glyph unicode="&#xe8;" horiz-adv-x="336" d="M312 419q-16 11 -34 27l-37 34l-34 34l-26 24q-5 4 -8 4q-6 0 -10.5 -11t-4.5 -22q0 -13 6 -19q12 -12 28 -24t34 -24l34 -22l32 -18q2 -1 3.5 -2t3.5 -1q5 0 10 5.5t5 10.5q0 2 -2 4zM2 79q3 0 6 3q7 6 19.5 20t23.5 25q-9 -17 -9 -41q0 -18 6.5 -37.5t21.5 -35 t38.5 -25.5t58.5 -10q26 0 50 8.5t45.5 23t42 33t38.5 39.5q15 16 15 29q0 8 -4.5 11.5t-10.5 3.5q-3 0 -6.5 -1t-9.5 -6q-12 -10 -25.5 -24.5t-29.5 -27.5t-35.5 -22t-42.5 -9q-22 0 -36 7t-22.5 17.5t-11.5 22.5t-3 23v6q0 4 1 7q51 12 91 30.5t68 42t42.5 50.5t14.5 55 q0 17 -13.5 26t-33.5 9q-32 0 -70.5 -20.5t-78.5 -51.5q-40 -32 -78 -69l-70 -70q-8 -8 -8 -19q0 -9 5 -16t11 -7zM277 277q9 0 9 -8q0 -22 -13.5 -39t-35 -30t-48.5 -22t-54 -15q-2 0 -2 1q0 4 18 22t42 38.5t48 36.5t36 16z" />
<glyph unicode="&#xe9;" horiz-adv-x="336" d="M258 404q14 6 30 16l34 21q18 11 33.5 24t27.5 25q5 5 5 19q0 11 -4 22t-11 11q-4 0 -9 -5q-11 -9 -26 -24l-32 -33l-36 -33q-18 -16 -32 -26q-5 -4 -5 -6q0 -4 5 -9.5t9 -5.5t11 4zM2 79q3 0 6 3q7 6 19.5 20t23.5 25q-9 -17 -9 -41q0 -18 6.5 -37.5t21.5 -35 t38.5 -25.5t58.5 -10q26 0 50 8.5t45.5 23t42 33t38.5 39.5q15 16 15 29q0 8 -4.5 11.5t-10.5 3.5q-3 0 -6.5 -1t-9.5 -6q-12 -10 -25.5 -24.5t-29.5 -27.5t-35.5 -22t-42.5 -9q-22 0 -36 7t-22.5 17.5t-11.5 22.5t-3 23v6q0 4 1 7q51 12 91 30.5t68 42t42.5 50.5t14.5 55 q0 17 -13.5 26t-33.5 9q-32 0 -70.5 -20.5t-78.5 -51.5q-40 -32 -78 -69l-70 -70q-8 -8 -8 -19q0 -9 5 -16t11 -7zM277 277q9 0 9 -8q0 -22 -13.5 -39t-35 -30t-48.5 -22t-54 -15q-2 0 -2 1q0 4 18 22t42 38.5t48 36.5t36 16z" />
<glyph unicode="&#xea;" horiz-adv-x="336" d="M331 490q3 0 9 -6q17 -20 34.5 -45t35.5 -48q3 -4 5 -4.5t3 -0.5q4 0 4 7q0 11 -9.5 37t-23 52.5t-28 47t-24.5 20.5q-9 0 -26.5 -12t-38.5 -30q-20 -18 -42 -40l-39 -40l-23 -27q-10 -11 -10 -13t3 -2t5 2q14 8 33 22l39 28l40 26l34 20q12 6 19 6zM2 79q3 0 6 3 q7 6 19.5 20t23.5 25q-9 -17 -9 -41q0 -18 6.5 -37.5t21.5 -35t38.5 -25.5t58.5 -10q26 0 50 8.5t45.5 23t42 33t38.5 39.5q15 16 15 29q0 8 -4.5 11.5t-10.5 3.5q-3 0 -6.5 -1t-9.5 -6q-12 -10 -25.5 -24.5t-29.5 -27.5t-35.5 -22t-42.5 -9q-22 0 -36 7t-22.5 17.5 t-11.5 22.5t-3 23v6q0 4 1 7q51 12 91 30.5t68 42t42.5 50.5t14.5 55q0 17 -13.5 26t-33.5 9q-32 0 -70.5 -20.5t-78.5 -51.5q-40 -32 -78 -69l-70 -70q-8 -8 -8 -19q0 -9 5 -16t11 -7zM277 277q9 0 9 -8q0 -22 -13.5 -39t-35 -30t-48.5 -22t-54 -15q-2 0 -2 1q0 4 18 22 t42 38.5t48 36.5t36 16z" />
<glyph unicode="&#xeb;" horiz-adv-x="336" d="M264 524q0 15 -7.5 26t-19.5 11q-14 0 -29 -8t-27 -20t-20 -24.5t-8 -21.5q0 -11 9.5 -17t32.5 -6q38 0 53.5 19.5t15.5 40.5zM457 533q0 16 -8.5 27.5t-22.5 11.5q-12 0 -26.5 -8t-26.5 -19t-20 -24t-8 -23q0 -22 34 -22q43 0 60.5 18.5t17.5 38.5zM2 79q3 0 6 3 q7 6 19.5 20t23.5 25q-9 -17 -9 -41q0 -18 6.5 -37.5t21.5 -35t38.5 -25.5t58.5 -10q26 0 50 8.5t45.5 23t42 33t38.5 39.5q15 16 15 29q0 8 -4.5 11.5t-10.5 3.5q-3 0 -6.5 -1t-9.5 -6q-12 -10 -25.5 -24.5t-29.5 -27.5t-35.5 -22t-42.5 -9q-22 0 -36 7t-22.5 17.5 t-11.5 22.5t-3 23v6q0 4 1 7q51 12 91 30.5t68 42t42.5 50.5t14.5 55q0 17 -13.5 26t-33.5 9q-32 0 -70.5 -20.5t-78.5 -51.5q-40 -32 -78 -69l-70 -70q-8 -8 -8 -19q0 -9 5 -16t11 -7zM277 277q9 0 9 -8q0 -22 -13.5 -39t-35 -30t-48.5 -22t-54 -15q-2 0 -2 1q0 4 18 22 t42 38.5t48 36.5t36 16z" />
<glyph unicode="&#xec;" horiz-adv-x="430" d="M228 260q0 3 -9 9t-21 11t-25 6t-21 -6l-34 -30l-42 -38q-22 -20 -43 -43.5t-39 -48.5q-3 -5 -4 -14.5t0.5 -17.5t5 -12.5t8.5 0.5l36 34l36 36l27 27l11 11q12 -44 25.5 -85t28.5 -72.5t32 -49.5t38 -15q57 8 110 39t86 79q11 16 14 28t0.5 19t-9 6.5t-13.5 -9.5 l-24 -30q-12 -14 -25 -25t-28 -18t-35 -7q-34 -1 -50.5 19.5t-23.5 52.5t-8 70.5t-4 73.5zM219 409q-17 11 -35 27l-36 34l-34 34l-26 24q-5 4 -8 4q-6 0 -10.5 -11t-4.5 -22q0 -13 6 -19q12 -12 28 -24q15 -12 33 -24l36 -22q18 -10 31 -18q2 -1 3.5 -2t3.5 -1q5 0 10 5.5 t5 10.5q0 2 -2 4z" />
<glyph unicode="&#xed;" horiz-adv-x="430" d="M231 260q0 3 -9.5 9t-22 11t-26 6t-21.5 -6l-34 -30l-42 -38q-22 -20 -43 -43.5t-39 -48.5q-3 -5 -4 -14.5t0.5 -17.5t5 -12.5t8.5 0.5l36 34l36 36l27 27l11 11q12 -44 25.5 -85t28.5 -72.5t32 -49.5t38 -15q57 8 110 39t86 79q11 16 14 28t0.5 19t-9 6.5t-13.5 -9.5 l-24 -30q-12 -14 -25 -25t-28 -18t-35 -7q-34 -1 -50 19.5t-22.5 52.5t-7 70.5t-3.5 73.5zM244 404q14 6 30 16l34 21q18 11 33.5 24t27.5 25q5 5 5 19q0 11 -4 22t-11 11q-4 0 -9 -5q-11 -9 -26 -24l-32 -33l-36 -33q-18 -16 -32 -26q-5 -4 -5 -6q0 -4 5 -9.5t9 -5.5t11 4z " />
<glyph unicode="&#xee;" horiz-adv-x="430" d="M228 260q0 3 -9 9t-21 11t-25 6t-21 -6l-34 -30l-42 -38q-22 -20 -43 -43.5t-39 -48.5q-3 -5 -4 -14.5t0.5 -17.5t5 -12.5t8.5 0.5l36 34l36 36l27 27l11 11q12 -44 25.5 -85t28.5 -72.5t32 -49.5t38 -15q57 8 110 39t86 79q11 16 14 28t0.5 19t-9 6.5t-13.5 -9.5 l-24 -30q-12 -14 -25 -25t-28 -18t-35 -7q-34 -1 -50.5 19.5t-23.5 52.5t-8 70.5t-4 73.5zM257 490q3 0 9 -6q17 -20 34.5 -45t35.5 -48q3 -4 5 -4.5t3 -0.5q4 0 4 7q0 11 -9.5 37t-23 52.5t-28 47t-24.5 20.5q-9 0 -26.5 -12t-38.5 -30q-20 -18 -42 -40l-39 -40l-23 -27 q-10 -11 -10 -13t3 -2t5 2q14 8 33 22l39 28l40 26l34 20q12 6 19 6z" />
<glyph unicode="&#xef;" horiz-adv-x="430" d="M228 260q0 3 -9 9t-21 11t-25 6t-21 -6l-34 -30l-42 -38q-22 -20 -43 -43.5t-39 -48.5q-3 -5 -4 -14.5t0.5 -17.5t5 -12.5t8.5 0.5l36 34l36 36l27 27l11 11q12 -44 25.5 -85t28.5 -72.5t32 -49.5t38 -15q57 8 110 39t86 79q11 16 14 28t0.5 19t-9 6.5t-13.5 -9.5 l-24 -30q-12 -14 -25 -25t-28 -18t-35 -7q-34 -1 -50.5 19.5t-23.5 52.5t-8 70.5t-4 73.5zM202 524q0 15 -7.5 26t-19.5 11q-14 0 -29 -8t-27 -20t-20 -24.5t-8 -21.5q0 -11 9.5 -17t32.5 -6q38 0 53.5 19.5t15.5 40.5zM395 533q0 16 -8.5 27.5t-22.5 11.5q-12 0 -26.5 -8 t-26.5 -19t-20 -24t-8 -23q0 -22 34 -22q43 0 60.5 18.5t17.5 38.5z" />
<glyph unicode="&#xf0;" d="M366 193q0 -35 -14.5 -63t-36 -47.5t-48 -30.5t-50.5 -11q-23 0 -34.5 9t-17 21.5t-6 26t-0.5 22.5q0 19 3 39t7 35.5t9 25.5t9 10q10 0 13 3.5t10 12.5q5 7 11.5 15t16.5 15t23.5 11.5t32.5 4.5q23 0 37 -10.5t22 -25.5t10.5 -32t2.5 -31zM260 561l-40 -29 q-16 -12 -24.5 -21t-12 -17.5t-3.5 -18.5q0 -18 26 -7t85 55q47 -63 66 -160q-9 2 -18.5 3.5t-20.5 1.5q-27 0 -61 -9q1 4 2 9.5t1 10.5q0 8 -3 13.5t-13 5.5q-3 0 -11 -2q-29 -9 -51.5 -25t-39 -33.5t-26 -34.5t-11.5 -27q-4 -18 -10.5 -34t-19.5 -34t-33 -39t-50 -49 q-10 -10 -10 -21q0 -8 5.5 -14.5t11.5 -6.5q5 0 8 3q15 14 25 26t19 20q-3 -17 -3 -30q0 -32 11.5 -52.5t31 -33t46.5 -17.5t58 -5q35 0 75 17.5t74.5 51.5t57 82.5t22.5 111.5v10q0 6 -1 11q-2 86 -24 158t-64 126q40 32 56 53t16 42q0 18 -24 1l-81 -60q-56 53 -137 71 l-6 2q-3 1 -5 1q-17 0 -17 -16v-6q0 -3 4 -5q71 -29 119 -79z" />
<glyph unicode="&#xf1;" horiz-adv-x="644" d="M230 473q-21 -11 -21 -22t20 -11q7 0 13 2t13 5l23 13q12 6 28 6q17 0 30 -5.5t26 -12.5q23 -13 38.5 -18t33.5 -5q33 0 62.5 11t49.5 25q24 18 24 28q0 9 -13 9q-14 0 -39 -14l-20 -10q-10 -5 -27 -5q-18 0 -29.5 4t-27.5 14q-14 9 -31 14t-42 5q-33 0 -60.5 -10 t-50.5 -23zM-5 77q8 0 13 5q32 34 71.5 71t84.5 60q5 2 8.5 4t5.5 2q5 0 5 -16q0 -17 -5 -46l-12 -61l-12 -62q-6 -30 -10 -46q-2 -6 -3 -13.5t-1 -11.5q0 -10 9 -14.5t21 -4.5q14 0 27.5 5.5t18.5 15.5q12 21 25 51t30 57.5t41 47t58 19.5q16 0 27 -7t19.5 -18t15 -25 t12.5 -29q15 -33 28.5 -52t42.5 -19q22 0 40.5 8.5t34.5 21.5t31 29l29 31q15 16 15 30q0 8 -5 12.5t-11 4.5t-11 -5q-30 -34 -57.5 -57.5t-45.5 -23.5q-11 0 -17.5 27t-15.5 72q-5 23 -12 44t-17 36.5t-23.5 25t-31.5 9.5q-21 0 -43 -12.5t-44 -31.5q-23 -19 -43 -42 l-38 -44l14 41q8 26 16 55t13.5 58t5.5 51q0 18 -5 29t-16 11q-9 0 -18 -5q-17 -9 -39.5 -26.5t-47.5 -40t-51 -48.5l-50 -50l-44 -45l-35 -35q-15 -15 -15 -27q0 -8 5 -12t12 -4z" />
<glyph unicode="&#xf2;" d="M335 419q-17 11 -35 27l-36 34l-34 34l-26 24q-5 4 -8 4q-6 0 -10.5 -11t-4.5 -22q0 -13 6 -19q12 -12 28 -24q15 -12 33 -24l36 -22q18 -10 31 -18q2 -1 3.5 -2t3.5 -1q5 0 10 5.5t5 10.5q0 2 -2 4zM48 97q0 -32 11.5 -52.5t31 -33t46.5 -17.5t58 -5q35 0 75 17.5 t74.5 51.5t57 82.5t22.5 111.5q0 23 -5.5 44t-18 37t-32.5 25.5t-50 9.5q-27 0 -61 -9q1 4 2 9.5t1 10.5q0 8 -3 13.5t-13 5.5q-3 0 -11 -2q-29 -9 -51.5 -25t-39 -33.5t-26 -34.5t-11.5 -27q-4 -18 -10.5 -34t-19.5 -34t-33 -39t-50 -49q-10 -10 -10 -21q0 -8 5.5 -14.5 t11.5 -6.5q5 0 8 3q15 14 25 26t19 20q-3 -17 -3 -30zM210 246q5 7 11.5 15t16.5 15t23.5 11.5t32.5 4.5q23 0 37 -10.5t22 -25.5t10.5 -32t2.5 -31q0 -35 -14.5 -63t-36 -47.5t-48 -30.5t-50.5 -11q-23 0 -34.5 9t-17 21.5t-6 26t-0.5 22.5q0 19 3 39t7 35.5t9 25.5t9 10 q10 0 13 3.5t10 12.5z" />
<glyph unicode="&#xf3;" d="M340 404q14 6 30 16l34 21q18 11 33.5 24t27.5 25q5 5 5 19q0 11 -4 22t-11 11q-4 0 -9 -5q-11 -9 -26 -24l-32 -33l-36 -33q-18 -16 -32 -26q-5 -4 -5 -6q0 -4 5 -9.5t9 -5.5t11 4zM48 97q0 -32 11.5 -52.5t31 -33t46.5 -17.5t58 -5q35 0 75 17.5t74.5 51.5t57 82.5 t22.5 111.5q0 23 -5.5 44t-18 37t-32.5 25.5t-50 9.5q-27 0 -61 -9q1 4 2 9.5t1 10.5q0 8 -3 13.5t-13 5.5q-3 0 -11 -2q-29 -9 -51.5 -25t-39 -33.5t-26 -34.5t-11.5 -27q-4 -18 -10.5 -34t-19.5 -34t-33 -39t-50 -49q-10 -10 -10 -21q0 -8 5.5 -14.5t11.5 -6.5q5 0 8 3 q15 14 25 26t19 20q-3 -17 -3 -30zM210 246q5 7 11.5 15t16.5 15t23.5 11.5t32.5 4.5q23 0 37 -10.5t22 -25.5t10.5 -32t2.5 -31q0 -35 -14.5 -63t-36 -47.5t-48 -30.5t-50.5 -11q-23 0 -34.5 9t-17 21.5t-6 26t-0.5 22.5q0 19 3 39t7 35.5t9 25.5t9 10q10 0 13 3.5t10 12.5 z" />
<glyph unicode="&#xf4;" d="M329 507q3 0 9 -6q17 -20 34.5 -45t35.5 -48q3 -4 5 -4.5t3 -0.5q4 0 4 7q0 11 -9.5 37t-23 52.5t-28 47t-24.5 20.5q-9 0 -26.5 -12t-38.5 -31q-20 -18 -42 -40l-39 -39l-23 -27q-10 -11 -10 -13t3 -2t5 2q14 9 33 23l39 27l40 27q20 12 34 19q12 6 19 6zM48 97 q0 -32 11.5 -52.5t31 -33t46.5 -17.5t58 -5q35 0 75 17.5t74.5 51.5t57 82.5t22.5 111.5q0 23 -5.5 44t-18 37t-32.5 25.5t-50 9.5q-27 0 -61 -9q1 4 2 9.5t1 10.5q0 8 -3 13.5t-13 5.5q-3 0 -11 -2q-29 -9 -51.5 -25t-39 -33.5t-26 -34.5t-11.5 -27q-4 -18 -10.5 -34 t-19.5 -34t-33 -39t-50 -49q-10 -10 -10 -21q0 -8 5.5 -14.5t11.5 -6.5q5 0 8 3q15 14 25 26t19 20q-3 -17 -3 -30zM210 246q5 7 11.5 15t16.5 15t23.5 11.5t32.5 4.5q23 0 37 -10.5t22 -25.5t10.5 -32t2.5 -31q0 -35 -14.5 -63t-36 -47.5t-48 -30.5t-50.5 -11 q-23 0 -34.5 9t-17 21.5t-6 26t-0.5 22.5q0 19 3 39t7 35.5t9 25.5t9 10q10 0 13 3.5t10 12.5z" />
<glyph unicode="&#xf5;" d="M139 506q-21 -11 -21 -22t20 -11q7 0 13 2t13 5l24 12q12 6 27 7q17 0 30 -5.5t26 -12.5q23 -13 38.5 -18t33.5 -5q33 0 62.5 11t49.5 25q24 18 24 28q0 9 -13 9q-14 0 -39 -14l-20 -10q-10 -5 -27 -5q-18 0 -29.5 4t-27.5 14q-14 9 -31 14t-42 5q-33 0 -60.5 -10 t-50.5 -23zM48 97q0 -32 11.5 -52.5t31 -33t46.5 -17.5t58 -5q35 0 75 17.5t74.5 51.5t57 82.5t22.5 111.5q0 23 -5.5 44t-18 37t-32.5 25.5t-50 9.5q-27 0 -61 -9q1 4 2 9.5t1 10.5q0 8 -3 13.5t-13 5.5q-3 0 -11 -2q-29 -9 -51.5 -25t-39 -33.5t-26 -34.5t-11.5 -27 q-4 -18 -10.5 -34t-19.5 -34t-33 -39t-50 -49q-10 -10 -10 -21q0 -8 5.5 -14.5t11.5 -6.5q5 0 8 3q15 14 25 26t19 20q-3 -17 -3 -30zM210 246q5 7 11.5 15t16.5 15t23.5 11.5t32.5 4.5q23 0 37 -10.5t22 -25.5t10.5 -32t2.5 -31q0 -35 -14.5 -63t-36 -47.5t-48 -30.5 t-50.5 -11q-23 0 -34.5 9t-17 21.5t-6 26t-0.5 22.5q0 19 3 39t7 35.5t9 25.5t9 10q10 0 13 3.5t10 12.5z" />
<glyph unicode="&#xf6;" d="M264 524q0 15 -7.5 26t-19.5 11q-14 0 -29 -8t-27 -20t-20 -24.5t-8 -21.5q0 -11 9.5 -17t32.5 -6q38 0 53.5 19.5t15.5 40.5zM457 533q0 16 -8.5 27.5t-22.5 11.5q-12 0 -26.5 -8t-26.5 -19t-20 -24t-8 -23q0 -22 34 -22q43 0 60.5 18.5t17.5 38.5zM48 97 q0 -32 11.5 -52.5t31 -33t46.5 -17.5t58 -5q35 0 75 17.5t74.5 51.5t57 82.5t22.5 111.5q0 23 -5.5 44t-18 37t-32.5 25.5t-50 9.5q-27 0 -61 -9q1 4 2 9.5t1 10.5q0 8 -3 13.5t-13 5.5q-3 0 -11 -2q-29 -9 -51.5 -25t-39 -33.5t-26 -34.5t-11.5 -27q-4 -18 -10.5 -34 t-19.5 -34t-33 -39t-50 -49q-10 -10 -10 -21q0 -8 5.5 -14.5t11.5 -6.5q5 0 8 3q15 14 25 26t19 20q-3 -17 -3 -30zM210 246q5 7 11.5 15t16.5 15t23.5 11.5t32.5 4.5q23 0 37 -10.5t22 -25.5t10.5 -32t2.5 -31q0 -35 -14.5 -63t-36 -47.5t-48 -30.5t-50.5 -11 q-23 0 -34.5 9t-17 21.5t-6 26t-0.5 22.5q0 19 3 39t7 35.5t9 25.5t9 10q10 0 13 3.5t10 12.5z" />
<glyph unicode="&#xf7;" horiz-adv-x="460" d="M382 242q0 9 -3.5 17.5t-11.5 10.5q-28 6 -57.5 8.5t-59.5 2.5q-53 0 -101.5 -8t-83.5 -23q-4 -2 -5.5 -7.5t-1.5 -12.5q0 -8 2 -14t4 -6t4 0.5t3 0.5q51 8 96.5 12t86.5 4q32 0 59.5 -2t53.5 -5h2q7 0 10 7t3 15zM283 111q0 24 -11 43.5t-26 19.5q-12 0 -27.5 -11 t-30 -27.5t-24.5 -35.5t-10 -35q0 -17 13 -21.5t32 -4.5q24 0 40 6.5t25.5 16.5t14 23t4.5 26zM298 411q0 24 -11 43.5t-26 19.5q-12 0 -27.5 -11t-30 -27.5t-24.5 -35.5t-10 -35q0 -17 13 -21.5t32 -4.5q24 0 40 6.5t25.5 16.5t14 23t4.5 26z" />
<glyph unicode="&#xf8;" d="M430 248q0 35 -10.5 62.5t-32.5 40.5q6 13 13 25l16 28q1 1 1 3q0 5 -7.5 8.5t-14.5 3.5t-10 -4l-15 -26q-6 -12 -14 -25q-17 3 -34 3q-12 0 -26 -1.5t-32 -6.5q4 10 4 21q0 7 -3.5 12.5t-12.5 5.5q-7 0 -12 -2q-29 -9 -51.5 -25t-39 -33.5t-26 -34.5t-11.5 -27 q-4 -18 -11.5 -33t-21 -32t-33.5 -37l-49 -49q-11 -11 -11 -23q0 -8 4 -13t11 -5q6 0 11 4q17 11 28 22.5t20 18.5q-6 -18 -6 -36q0 -35 21.5 -61t58.5 -34q-8 -11 -16 -25l-18 -28q-4 -8 -4 -10q0 -6 5 -9.5t13 -3.5q6 0 12 2.5t11 9.5q12 17 20.5 32t16.5 25q6 -2 12 -2 h13q30 0 70 15t76 47t60.5 80.5t24.5 116.5zM224 41q-5 0 -9.5 0.5t-9.5 1.5l31 53l40 70l40 67l28 45q13 -11 21.5 -34t8.5 -50q0 -38 -15.5 -66.5t-38.5 -48t-49 -29t-47 -9.5zM301 292h11l-136 -225q-5 11 -7.5 25.5t-2.5 30.5q0 19 2.5 38t6.5 34.5t9 25t9 9.5h1h3 q9 0 16 10.5t19 23.5q10 11 26 19.5t43 8.5z" />
<glyph unicode="&#xf9;" horiz-adv-x="416" d="M261 395q-17 11 -35 27l-36 34l-34 34l-26 24q-5 4 -8 4q-6 0 -10.5 -11t-4.5 -22q0 -13 6 -19q12 -12 28 -24q15 -12 33 -24l36 -22q18 -10 31 -18q2 -1 3.5 -2t3.5 -1q5 0 10 5.5t5 10.5q0 2 -2 4zM95 321q-14 0 -14 -3q-11 -74 -34 -122.5t-52 -73.5q-13 -12 -13 -23 q0 -8 5.5 -13.5t11.5 -5.5q7 0 11 4q11 10 23 24l20 22q1 -14 2 -36.5t5.5 -44t14.5 -37t28 -15.5t40.5 10.5t44 26t39 33t23.5 30.5q2 -15 7.5 -30t13.5 -27.5t19.5 -20t25.5 -7.5q20 0 37.5 9t32 21t24.5 23.5t14 16.5q9 12 9 23q0 19 -14 19q-6 0 -12 -6l-14 -14l-19 -18 l-18.5 -16t-12.5 -7q-9 0 -14.5 16.5t-7.5 40t-2.5 50t-0.5 47.5q0 3 -12 8t-23 5q-13 0 -14 -8q-6 -22 -18.5 -47t-28.5 -46.5t-34.5 -36t-36.5 -14.5q-11 0 -16.5 16.5t-5.5 42.5q0 19 2.5 41.5t8 45.5t13 45t16.5 40q0 1 -8 3.5t-19.5 4t-24.5 3t-22 1.5z" />
<glyph unicode="&#xfa;" horiz-adv-x="416" d="M260 380q14 6 30 16l34 21q18 11 33.5 24t27.5 25q5 5 5 19q0 11 -4 22t-11 11q-4 0 -9 -5q-11 -9 -26 -24l-32 -33l-36 -33q-18 -16 -32 -26q-5 -4 -5 -6q0 -4 5 -9.5t9 -5.5t11 4zM95 321q-14 0 -14 -3q-11 -74 -34 -122.5t-52 -73.5q-13 -12 -13 -23q0 -8 5.5 -13.5 t11.5 -5.5q7 0 11 4q11 10 23 24l20 22q1 -14 2 -36.5t5.5 -44t14.5 -37t28 -15.5t40.5 10.5t44 26t39 33t23.5 30.5q2 -15 7.5 -30t13.5 -27.5t19.5 -20t25.5 -7.5q20 0 37.5 9t32 21t24.5 23.5t14 16.5q9 12 9 23q0 19 -14 19q-6 0 -12 -6l-14 -14l-19 -18l-18.5 -16 t-12.5 -7q-9 0 -14.5 16.5t-7.5 40t-2.5 50t-0.5 47.5q0 3 -12 8t-23 5q-13 0 -14 -8q-6 -22 -18.5 -47t-28.5 -46.5t-34.5 -36t-36.5 -14.5q-11 0 -16.5 16.5t-5.5 42.5q0 19 2.5 41.5t8 45.5t13 45t16.5 40q0 1 -8 3.5t-19.5 4t-24.5 3t-22 1.5z" />
<glyph unicode="&#xfb;" horiz-adv-x="416" d="M283 489q3 0 9 -6q17 -20 34.5 -45t35.5 -48q3 -4 5 -4.5t3 -0.5q4 0 4 7q0 11 -9.5 37t-23 52.5t-28 47t-24.5 20.5q-9 0 -26.5 -12t-38.5 -31q-20 -18 -42 -40l-39 -39l-23 -27q-10 -11 -10 -13t3 -2t5 2q14 9 33 23l39 27l40 27q20 12 34 19q12 6 19 6zM95 321 q-14 0 -14 -3q-11 -74 -34 -122.5t-52 -73.5q-13 -12 -13 -23q0 -8 5.5 -13.5t11.5 -5.5q7 0 11 4q11 10 23 24l20 22q1 -14 2 -36.5t5.5 -44t14.5 -37t28 -15.5t40.5 10.5t44 26t39 33t23.5 30.5q2 -15 7.5 -30t13.5 -27.5t19.5 -20t25.5 -7.5q20 0 37.5 9t32 21t24.5 23.5 t14 16.5q9 12 9 23q0 19 -14 19q-6 0 -12 -6l-14 -14l-19 -18l-18.5 -16t-12.5 -7q-9 0 -14.5 16.5t-7.5 40t-2.5 50t-0.5 47.5q0 3 -12 8t-23 5q-13 0 -14 -8q-6 -22 -18.5 -47t-28.5 -46.5t-34.5 -36t-36.5 -14.5q-11 0 -16.5 16.5t-5.5 42.5q0 19 2.5 41.5t8 45.5t13 45 t16.5 40q0 1 -8 3.5t-19.5 4t-24.5 3t-22 1.5z" />
<glyph unicode="&#xfc;" horiz-adv-x="416" d="M220 524q0 15 -7.5 26t-19.5 11q-14 0 -29 -8t-27 -20t-20 -24.5t-8 -21.5q0 -11 9.5 -17t32.5 -6q38 0 53.5 19.5t15.5 40.5zM413 533q0 16 -8.5 27.5t-22.5 11.5q-12 0 -26.5 -8t-26.5 -19t-20 -24t-8 -23q0 -22 34 -22q43 0 60.5 18.5t17.5 38.5zM95 321q-14 0 -14 -3 q-11 -74 -34 -122.5t-52 -73.5q-13 -12 -13 -23q0 -8 5.5 -13.5t11.5 -5.5q7 0 11 4q11 10 23 24l20 22q1 -14 2 -36.5t5.5 -44t14.5 -37t28 -15.5t40.5 10.5t44 26t39 33t23.5 30.5q2 -15 7.5 -30t13.5 -27.5t19.5 -20t25.5 -7.5q20 0 37.5 9t32 21t24.5 23.5t14 16.5 q9 12 9 23q0 19 -14 19q-6 0 -12 -6l-14 -14l-19 -18l-18.5 -16t-12.5 -7q-9 0 -14.5 16.5t-7.5 40t-2.5 50t-0.5 47.5q0 3 -12 8t-23 5q-13 0 -14 -8q-6 -22 -18.5 -47t-28.5 -46.5t-34.5 -36t-36.5 -14.5q-11 0 -16.5 16.5t-5.5 42.5q0 19 2.5 41.5t8 45.5t13 45t16.5 40 q0 1 -8 3.5t-19.5 4t-24.5 3t-22 1.5z" />
<glyph unicode="&#xfd;" horiz-adv-x="417" d="M109 295q-15 0 -16 -4q-17 -59 -40 -97.5t-58 -71.5q-12 -11 -12 -23q0 -8 6 -14t12 -6q4 0 7 3l26 28l20 20v-13q0 -16 1.5 -37t7 -39.5t15 -31t25.5 -12.5q18 0 43 16.5t49.5 38.5t44 44.5t25.5 33.5l-7 -36q-4 -22 -10 -44l-10 -43q-5 -21 -9 -35l-31 -48 q-20 -30 -39.5 -64.5t-33.5 -67.5t-14 -54q0 -11 4 -17t9 -9t11 -4t9 -1q41 0 79.5 65t68.5 199q14 7 32.5 20t36.5 28.5t35 32t28 30.5q12 15 12 29q0 15 -13 15q-8 0 -14 -6l-21 -22l-27 -28l-30 -29q-15 -14 -28 -21q6 24 17 64t21 82t17.5 80t7.5 59q0 2 -13 5.5 t-24 3.5t-12 -4q-5 -24 -21.5 -63.5t-39.5 -77t-50.5 -64.5t-54.5 -27q-11 0 -16.5 13.5t-5.5 36.5q0 33 10.5 76.5t27.5 80.5q0 1 -6 3t-15 3.5t-19 2.5t-18 1zM233 404q13 6 29 16l34 21q18 11 34 24t28 25q5 5 5 19q0 11 -4 22t-11 11q-4 0 -9 -5q-11 -9 -26 -24l-33 -33 l-34 -33q-18 -16 -33 -26q-5 -4 -5 -6q0 -4 5 -9.5t9 -5.5t11 4z" />
<glyph unicode="&#xfe;" horiz-adv-x="530" d="M5 79q16 15 25.5 26t15.5 17q-8 -73 -15.5 -148.5t-7.5 -147.5q0 -29 1.5 -57t5.5 -54q2 -10 10.5 -14t20.5 -4q14 0 27 6t17 17l29 84q14 42 24 77l18 62l10 37q53 -10 102 -10q44 0 80.5 8t66.5 23t55 35.5t47 45.5q15 16 15 29q0 8 -5 11t-11 3q-8 0 -12 -4l-36 -35 q-18 -18 -41.5 -34.5t-53 -28.5t-68.5 -16q28 11 56 30.5t50 46.5t35.5 60.5t13.5 71.5q0 24 -12 45t-31 36.5t-43.5 24t-49.5 8.5q-22 0 -39.5 -6.5t-31 -16.5t-24 -22t-18.5 -23q-12 -15 -25 -46.5t-26.5 -73.5l-27.5 -90l-27 -98l-25 -94l-20 -80q13 134 32 244.5 t43.5 209t53.5 189.5t64 187q3 7 3 12q0 7 -4.5 15t-11 15t-13.5 11.5t-13 4.5t-9 -7q-9 -23 -21 -59l-26 -76l-27 -84l-27 -80l-22 -67q-10 -29 -16 -42q-17 -39 -37.5 -70t-55.5 -62q-13 -12 -13 -24q0 -9 6 -15t12 -6q4 0 7 3zM203 25q6 23 17.5 61t27 74t33.5 62.5 t37 26.5q15 0 25.5 -9.5t17.5 -22.5t10.5 -27.5t3.5 -23.5q0 -29 -18 -54.5t-43 -45.5t-52.5 -31.5t-45.5 -11.5q-5 0 -13 2z" />
<glyph unicode="&#xff;" horiz-adv-x="415" d="M220 524q0 15 -7.5 26t-19.5 11q-14 0 -29 -8t-27 -20t-20 -24.5t-8 -21.5q0 -11 9.5 -17t32.5 -6q38 0 53.5 19.5t15.5 40.5zM413 533q0 16 -8.5 27.5t-22.5 11.5q-12 0 -26.5 -8t-26.5 -19t-20 -24t-8 -23q0 -22 34 -22q43 0 60.5 18.5t17.5 38.5zM109 295 q-15 0 -16 -4q-17 -59 -40 -97.5t-58 -71.5q-12 -11 -12 -23q0 -8 6 -14t12 -6q4 0 7 3l26 28l20 20v-13q0 -16 1.5 -37t7 -39.5t15 -31t25.5 -12.5q18 0 43 16.5t49.5 38.5t44 44.5t25.5 33.5l-7 -36q-4 -22 -10 -44l-10 -43q-5 -21 -9 -35l-31 -48q-20 -30 -39.5 -64.5 t-33.5 -67.5t-14 -54q0 -11 4 -17t9 -9t11 -4t9 -1q41 0 79.5 65t68.5 199q14 7 32.5 20t36.5 28.5t35 32t28 30.5q12 15 12 29q0 15 -13 15q-8 0 -14 -6l-21 -22l-27 -28l-30 -29q-15 -14 -28 -21q6 24 17 64t21 82t17.5 80t7.5 59q0 2 -13 5.5t-24 3.5t-12 -4 q-5 -24 -21.5 -63.5t-39.5 -77t-50.5 -64.5t-54.5 -27q-11 0 -16.5 13.5t-5.5 36.5q0 33 10.5 76.5t27.5 80.5q0 1 -6 3t-15 3.5t-19 2.5t-18 1z" />
<glyph unicode="&#x152;" horiz-adv-x="880" d="M305 577q44 0 72.5 -19t45.5 -49t23.5 -67.5t6.5 -74.5q0 -64 -15 -122t-42 -101.5t-64 -69.5t-80 -26q-41 0 -67.5 14.5t-43 39t-23 57.5t-6.5 70q0 40 6 82t14.5 81t18 73.5t17.5 59.5q1 4 12 12.5t29 17.5t42.5 15.5t53.5 6.5zM520 607l-10 -17l-6 -13q-5 5 -14 15 t-23.5 19.5t-35 16.5t-46.5 7h-54q-25 0 -49.5 -3.5t-49.5 -12t-53 -25.5l2 22q1 12 5 23v1l1 1q0 6 -11 6q-7 0 -14.5 -2.5t-10.5 -7.5q-22 -35 -31 -75.5t-25 -89.5l-27 -41q-10 -15 -20 -34q-2 -5 -3.5 -7.5t-1.5 -6.5q0 -5 5 -9t10 -4q6 0 12 5l14 12q-9 -18 -19 -43 t-18.5 -53.5t-14 -58.5t-5.5 -60q0 -34 9.5 -65t32 -55t61 -38t97.5 -14q66 0 123 29t92 74q0 -6 1 -16t1.5 -20t1.5 -19.5t1 -13.5q0 -5 8 -5t8 -12q1 -6 4 -11.5t17 -5.5h36q36 0 79.5 2t89 10t89.5 24t82 45q10 8 13.5 14.5t3.5 12.5q0 10 -7 16t-13 6q-3 0 -6.5 -1.5 t-10.5 -7.5q-14 -12 -42.5 -21t-64 -15t-74.5 -9t-74 -3q-26 0 -47 1.5t-37 3.5q5 47 14.5 108t19.5 114q37 6 80 9t85 3q28 0 50.5 -1t34.5 -3q5 -1 8.5 -1.5t7.5 -0.5q3 0 5 14t2 30q0 13 -1.5 23t-5.5 11q-14 2 -27 3t-26 1q-50 0 -99.5 -11t-103.5 -25l8 44l11 56 q6 29 11 56l10 44q39 11 91 11q35 0 66.5 -4.5t46.5 -9.5l18 -7q7 -2 11 -2q6 0 9 14t3 31t-3 31t-10 16q-18 5 -41 7t-48 2q-35 0 -71 -3.5t-65.5 -8.5t-49 -11t-22.5 -11z" />
<glyph unicode="&#x153;" horiz-adv-x="695" d="M229 260q10 12 26.5 22t45.5 10t50.5 -22.5t21.5 -76.5q0 -35 -14 -63t-35.5 -48t-47 -31t-48.5 -11q-36 0 -52.5 21.5t-16.5 58.5q0 19 4 39t9.5 35.5t11.5 25.5t10 10h6q6 0 12 9.5t17 20.5zM636 275q10 0 10 -9q0 -19 -16.5 -35.5t-41 -30t-52 -23.5t-48.5 -16 q7 15 27 35t43.5 37.5t45 29.5t32.5 12zM58 118q-1 -5 -2 -12.5t-1 -15.5q0 -31 15 -51t38 -31t50 -15.5t51 -4.5q38 0 69.5 13t56.5 32t43.5 40.5t30.5 39.5q-2 -8 -4.5 -20t-2.5 -25q0 -16 5 -32t18.5 -29t37 -21t61.5 -8q28 0 54.5 10t49.5 25.5t42.5 34t33.5 35.5t14 30 q0 9 -5.5 14t-11.5 5q-5 0 -8.5 -3t-8.5 -10l-24 -27q-12 -14 -27.5 -27t-34.5 -21t-41 -8q-24 0 -39 7.5t-23.5 18t-11 23t-2.5 21.5v6q0 4 1 7q112 28 164 75.5t52 96.5q0 21 -13.5 31t-31.5 10t-44.5 -10t-56 -26t-59.5 -37.5t-56 -43.5q5 18 5 44q0 18 -4.5 37.5 t-16.5 35.5t-33 26.5t-54 10.5q-31 0 -70 -10q1 5 2 11t1 11q0 7 -3 12t-12 5q-18 0 -40 -12t-43 -30t-37 -39.5t-20 -40.5q-4 -18 -11.5 -33t-20.5 -32q-14 -17 -34 -37l-49 -49q-11 -11 -11 -24q0 -8 4.5 -14t10.5 -6t10 4q14 13 27.5 29.5t18.5 16.5q2 0 2 -4v-4 q0 -2 -1 -5z" />
<glyph unicode="&#x178;" horiz-adv-x="515" d="M276 723q0 14 -6.5 24t-17.5 10q-12 0 -25.5 -7.5t-25 -18t-18.5 -22t-7 -19.5q0 -21 38 -21q34 0 48 17.5t14 36.5zM450 732q0 14 -8 24.5t-20 10.5q-11 0 -24 -7t-24 -17.5t-18 -22t-7 -20.5q0 -20 31 -20q38 0 54 16.5t16 35.5zM39 608q-1 -4 1 -10l4 -14 q29 -112 70 -196.5t92 -137.5l-18 -46l-20 -54t-16.5 -55t-6.5 -51q0 -31 12.5 -49t41.5 -18q13 0 26.5 3t24 8t17.5 11t7 12t-7 10q-19 10 -19 47q0 19 6.5 50.5t20.5 70t37.5 81.5t58.5 86l38 48q19 23 37 48.5t34.5 54.5t30.5 67q4 11 4 27q0 10 -1.5 21.5t-4.5 21 t-7.5 16t-10.5 6.5q-5 0 -11 -6q-23 -21 -46.5 -51t-47.5 -65l-45 -71l-41 -69l-34 -58l-24 -41l-28 53q-16 30 -31 65.5t-25 76t-10 82.5v14q0 5 1 10q0 4 0.5 8.5t0.5 7.5q0 14 -14 21t-32 7q-23 0 -44 -10.5t-21 -31.5z" />
<glyph unicode="&#x2c6;" horiz-adv-x="351" d="M215 490q3 0 9 -6q17 -20 34.5 -45t35.5 -48q3 -4 5 -4.5t3 -0.5q4 0 4 7q0 11 -9.5 37t-23 52.5t-28 47t-24.5 20.5q-9 0 -26.5 -12t-38.5 -30q-20 -18 -42 -40l-39 -40l-23 -27q-10 -11 -10 -13t3 -2t5 2q14 8 33 22l39 28l40 26l34 20q12 6 19 6z" />
<glyph unicode="&#x2dc;" horiz-adv-x="435" d="M78 476q-21 -11 -21 -22t20 -11q7 0 13 2t13 5l23 12q12 6 28 7q17 0 30 -5.5t26 -12.5q23 -13 38.5 -18t33.5 -5q33 0 62.5 11t49.5 25q24 18 24 28q0 9 -13 9q-14 0 -39 -14l-20 -10q-10 -5 -27 -5q-18 0 -29.5 4t-27.5 14q-14 9 -31 14t-42 5q-33 0 -60.5 -10 t-50.5 -23z" />
<glyph unicode="&#x2000;" horiz-adv-x="431" />
<glyph unicode="&#x2001;" horiz-adv-x="862" />
<glyph unicode="&#x2002;" horiz-adv-x="431" />
<glyph unicode="&#x2003;" horiz-adv-x="862" />
<glyph unicode="&#x2004;" horiz-adv-x="287" />
<glyph unicode="&#x2005;" horiz-adv-x="215" />
<glyph unicode="&#x2006;" horiz-adv-x="143" />
<glyph unicode="&#x2007;" horiz-adv-x="143" />
<glyph unicode="&#x2008;" horiz-adv-x="107" />
<glyph unicode="&#x2009;" horiz-adv-x="172" />
<glyph unicode="&#x200a;" horiz-adv-x="47" />
<glyph unicode="&#x2010;" horiz-adv-x="429" d="M382 242q0 9 -3.5 17.5t-11.5 10.5q-28 6 -57.5 8.5t-59.5 2.5q-53 0 -101.5 -8t-83.5 -23q-4 -2 -5.5 -7.5t-1.5 -12.5q0 -8 2 -14t4 -6t4 0.5t3 0.5q51 8 96.5 12t86.5 4q32 0 59.5 -2t53.5 -5h2q7 0 10 7t3 15z" />
<glyph unicode="&#x2011;" horiz-adv-x="429" d="M382 242q0 9 -3.5 17.5t-11.5 10.5q-28 6 -57.5 8.5t-59.5 2.5q-53 0 -101.5 -8t-83.5 -23q-4 -2 -5.5 -7.5t-1.5 -12.5q0 -8 2 -14t4 -6t4 0.5t3 0.5q51 8 96.5 12t86.5 4q32 0 59.5 -2t53.5 -5h2q7 0 10 7t3 15z" />
<glyph unicode="&#x2013;" horiz-adv-x="580" d="M524 247q0 13 -4.5 24.5t-12.5 13.5q-20 4 -47 6t-59 2q-45 0 -96 -3.5t-97.5 -9.5t-84.5 -13.5t-58 -16.5q-4 -2 -5.5 -7.5t-1.5 -12.5q0 -8 2 -14t4 -6q3 0 7 0.5t9 1.5q22 4 52 6.5t64 4.5t70.5 3t71.5 1q53 -1 97 -3l61 -3q5 -1 8 -1h5q8 0 11.5 8t3.5 19z" />
<glyph unicode="&#x2014;" horiz-adv-x="702" d="M661 250q0 12 -4.5 22.5t-14.5 12.5q-32 6 -80 9t-104 3q-59 0 -121 -3t-116 -8t-96 -11.5t-60 -14.5q-8 -4 -11.5 -12t-3.5 -16t3.5 -15t8.5 -7t15 2q24 4 62 6.5t83.5 4.5t96 3t99.5 1q38 0 72.5 -0.5t62 -1.5t46 -1.5t23.5 -1.5q8 -1 15 -1.5t9 -0.5q7 0 11 9.5 t4 20.5z" />
<glyph unicode="&#x2018;" horiz-adv-x="155" d="M42 617q0 -21 6 -46t14 -47.5t16.5 -37.5t14.5 -15q5 0 6.5 10.5t1.5 22.5q0 21 -3.5 46t-3.5 45q0 5 0.5 11t0.5 12q0 17 -9.5 30.5t-21.5 13.5q-7 0 -14.5 -9t-7.5 -36z" />
<glyph unicode="&#x2019;" horiz-adv-x="180" d="M120 659q-11 0 -22 -13t-11 -31q0 -12 -2 -27.5t-5 -31.5q-4 -20 -7 -37t-3 -26q0 -13 1 -16.5t5 -3.5q8 0 19 17.5t21 42t17 49.5t7 40q0 20 -6 28.5t-14 8.5z" />
<glyph unicode="&#x201a;" horiz-adv-x="180" d="M88 117v-5q0 -3 -3 -20t-6 -37t-6 -38t-3 -24q0 -11 1.5 -15t5.5 -4q9 0 20 17.5t21 41.5t17 49.5t7 40.5q0 20 -6.5 28.5t-14.5 8.5q-15 0 -24 -12.5t-9 -30.5z" />
<glyph unicode="&#x201c;" horiz-adv-x="225" d="M133 598q0 -21 2 -43t5 -41t7.5 -31t10.5 -12q8 0 12 14.5t4 35.5q0 14 1.5 29.5t9.5 32.5q7 13 7 27q0 19 -11.5 31.5t-23.5 12.5q-24 0 -24 -56zM40 605q0 -21 6 -46t14.5 -47t17.5 -37t15 -15q5 0 6 11t1 18q0 21 -4 47t-4 50q0 4 0.5 10.5t0.5 11.5q0 17 -10 29.5 t-21 12.5q-13 0 -17.5 -13.5t-4.5 -31.5z" />
<glyph unicode="&#x201d;" horiz-adv-x="225" d="M51 612q0 -12 4 -23q7 -20 7 -40q0 -11 -1 -21.5t-1 -19.5q0 -17 4.5 -25.5t9.5 -8.5q6 0 12.5 15.5t11.5 38.5t8.5 49t3.5 46q0 18 -7.5 26t-18.5 8q-14 0 -23.5 -12.5t-9.5 -32.5zM148 601v-5q0 -3 -3 -20t-6 -37t-6 -38t-3 -24q0 -11 1.5 -15t5.5 -4q9 0 20 17.5 t21 41.5t17 49.5t7 40.5q0 20 -6.5 28.5t-14.5 8.5q-15 0 -24 -12.5t-9 -30.5z" />
<glyph unicode="&#x201e;" horiz-adv-x="225" d="M51 122q0 -12 4 -23q7 -20 7 -40q0 -11 -1 -21.5t-1 -19.5q0 -17 4.5 -25.5t9.5 -8.5q6 0 12.5 15.5t11.5 38.5t8.5 49t3.5 46q0 18 -7.5 26t-18.5 8q-14 0 -23.5 -12.5t-9.5 -32.5zM148 111v-5q0 -3 -3 -20t-6 -37t-6 -38t-3 -24q0 -11 1.5 -15t5.5 -4q9 0 20 17.5 t21 41.5t17 49.5t7 40.5q0 20 -6.5 28.5t-14.5 8.5q-15 0 -24 -12.5t-9 -30.5z" />
<glyph unicode="&#x2022;" horiz-adv-x="505" d="M75 221q0 -27 9.5 -53t27.5 -46t44 -32t59 -12q27 0 64 9t71 28.5t58 50t24 73.5q0 35 -13.5 63.5t-34.5 48.5t-46.5 31t-49.5 11q-56 0 -96 -15t-66 -39.5t-38.5 -55.5t-12.5 -62z" />
<glyph unicode="&#x2026;" horiz-adv-x="885" d="M232 61q0 24 -11 43.5t-26 19.5q-12 0 -27.5 -11t-30 -27.5t-24.5 -35.5t-10 -35q0 -17 13 -21.5t32 -4.5q24 0 40 6.5t25.5 16.5t14 23t4.5 26zM509 61q0 24 -11 43.5t-26 19.5q-12 0 -27.5 -11t-30 -27.5t-24.5 -35.5t-10 -35q0 -17 13 -21.5t32 -4.5q24 0 40 6.5 t25.5 16.5t14 23t4.5 26zM789 61q0 24 -11 43.5t-26 19.5q-12 0 -27.5 -11t-30 -27.5t-24.5 -35.5t-10 -35q0 -17 13 -21.5t32 -4.5q24 0 40 6.5t25.5 16.5t14 23t4.5 26z" />
<glyph unicode="&#x202f;" horiz-adv-x="172" />
<glyph unicode="&#x2039;" horiz-adv-x="330" d="M217 165l-32 35q-17 18 -31.5 36t-24 34t-9.5 28q0 16 14.5 33.5t35.5 35t45 34.5l44 32q17 12 27 22.5t10 18.5q0 5 -7 5t-19 -4t-27 -10q-28 -12 -63.5 -31t-66.5 -40.5t-52 -42.5t-21 -37q0 -15 14.5 -38t37 -48t49.5 -49.5t51 -43.5q20 -16 35.5 -25t23.5 -9q5 0 5 5 q0 10 -11 25t-28 34z" />
<glyph unicode="&#x203a;" horiz-adv-x="358" d="M139 415l32 -35q17 -18 31.5 -36t24 -34t9.5 -28q0 -16 -14.5 -33.5t-35.5 -35t-45.5 -34.5t-43.5 -32q-17 -12 -27 -22.5t-10 -18.5q0 -5 7 -5t19 4t27 10q28 12 63.5 31t66.5 40.5t52 42.5t21 37q0 15 -15 38t-37.5 48t-49 49.5t-50.5 43.5q-20 16 -35.5 25t-23.5 9 q-5 0 -5 -5q0 -10 11 -25t28 -34z" />
<glyph unicode="&#x205f;" horiz-adv-x="215" />
<glyph unicode="&#x2122;" horiz-adv-x="380" d="M51 602q0 -2 1 -2q17 2 30 4l23 5q-2 -17 -5 -38l-6 -43q-3 -22 -5.5 -43t-2.5 -38v-12q0 -7 1 -9q2 -2 4 -2q3 0 6.5 2.5t4.5 5.5q5 32 12.5 75t17.5 91v1q0 4 -6 6.5t-9 4.5q7 1 14 1h15h11q7 0 13 -1q1 0 1 8q0 5 -0.5 10.5t-1.5 5.5q-33 3 -62 3q-28 0 -44 -3 q-2 -1 -7 -13.5t-5 -18.5zM216 638q-4 0 -15 -5t-12 -7t-4 -28l-7 -59q-4 -33 -6 -65t-2 -45q0 -2 2 -2q4 0 12 2.5t8 4.5q3 18 5 32l4 29l4 29q2 14 6 32q4 -11 12 -25t19 -14t21.5 7.5t20 17.5t17 21t12.5 19l-10 -79l-9 -72q0 -2 2 -2q4 0 12.5 3.5t9.5 7.5q2 18 8 42 l12 48q6 25 10.5 50t5.5 46q0 3 -3 3q-4 0 -8.5 -2t-7.5 -3q-7 -3 -15 -12l-16 -20q-9 -12 -19 -23t-22 -17l-5 -2q-1 0 -3 -1q-8 0 -14 13q-5 9 -8.5 21t-6.5 23.5t-5 20.5t-4 11h-1z" />
</font>
</defs>
</svg>
