<?xml version="1.0" standalone="no"?>
<!DOCTYPE svg PUBLIC "-//W3C//DTD SVG 1.1//EN" "http://www.w3.org/Graphics/SVG/1.1/DTD/svg11.dtd">
<svg xmlns:xlink="http://www.w3.org/1999/xlink" xmlns="http://www.w3.org/2000/svg" version="1.1" height="100%" width="100%" id="svg_image" xml:space="preserve">
  

  

  <path stroke="black" fill="none" id="svg_1" d="M207 137 L206 136 L205 135 L205 134 L205 133 L205 132 L206 131 L208 130 L209 129 L211 128 L215 125 L218 123 L248 103 L252 102 L257 100 L258 100 L262 100 L264 100 L267 101 L269 103 L271 106 L272 108 L274 112 L274 114 L275 119 L275 124 L275 131 L274 137 L269 177 L259 207 L249 252 L248 258 L247 264 L246 266 L246 268 L246 269 L247 269 L248 269 L249 269 L252 268 L253 267 L256 266 L257 265 L259 264 L259 263 " />
  <path stroke="black" fill="none" id="svg_2" d="M376 139 L391 114 L394 112 L398 109 L400 109 L402 109 L403 109 L404 109 L405 109 L406 109 L407 110 L408 112 L409 114 L409 118 L410 123 L405 173 L395 218 L380 263 L379 267 L364 292 L363 295 L361 299 L360 302 L359 304 L359 305 L361 306 L363 306 L366 307 L368 308 L370 308 L371 309 L372 309 L373 309 L373 310 L373 311 L372 313 L371 314 L371 315 L371 316 L372 316 L374 315 L378 313 L380 312 L382 310 L383 309 L382 309 L379 311 L376 312 L373 314 L372 315 L371 316 L370 316 L370 317 L369 317 L368 318 L366 319 L364 320 L361 321 L358 321 L355 321 L353 321 L350 321 L348 321 L345 320 L342 320 L340 319 L338 319 L336 319 L335 318 L334 318 L333 318 L333 317 L333 316 " />
  <ellipse stroke="black" fill="none" id="svg_3" ry="120" rx="92.5" cy="207" cx="630.5" />
  <ellipse stroke="black" fill="#e28383" id="svg_6" ry="100" rx="93" cy="252" cx="465" />
</svg>
