<?xml version="1.0"?>
<svg width="393" height="627" xmlns="http://www.w3.org/2000/svg" xmlns:svg="http://www.w3.org/2000/svg">
 <metadata id="metadata7">image/svg+xml</metadata>
 <defs>
  <marker id="se_arrow_fw" markerHeight="5" markerUnits="strokeWidth" markerWidth="5" orient="auto" refX="8" refY="5" viewBox="0 0 10 10">
   <path d="m0,0l10,5l-10,5l5,-5l-5,-5z" fill="#000000"/>
  </marker>
 </defs>
 <g class="layer" display="inline">
  <title>Layer 2</title>
  <g id="layer1">
   <rect fill="#8c8" fill-rule="evenodd" height="627.1365" id="rect1872" stroke-miterlimit="4" stroke-width="10" width="393.03702" x="0" y="0"/>
   <g id="g3772">
    <path d="m237.75994,514.22062l1.16561,0c-9.41615,-13.98474 -24.9095,-23.11087 -42.4094,-23.11086l0,-0.00001c-17.49972,0.00001 -32.97568,9.12638 -42.39185,23.11087l1.14887,0" fill="none" fill-rule="evenodd" id="path3770" stroke="white" stroke-miterlimit="4" stroke-width="3"/>
    <path d="m85.87116,609.38144l-1.38617,0l0,-95.17326l0,0l224.06703,0l0,95.17326l-1.42126,0" fill="none" fill-rule="evenodd" id="path3747" stroke="white" stroke-miterlimit="4" stroke-width="3"/>
    <path d="m199.32592,545.87329a2.80741,2.95819 0 1 1 -5.61482,0a2.80741,2.95819 0 1 1 5.61482,0z" fill="white" fill-rule="evenodd" id="path10770" stroke-miterlimit="4" stroke-width="3"/>
    <path d="m199.88739,313.56823a3.36889,3.54983 0 1 1 -6.73778,0a3.36889,3.54983 0 1 1 6.73778,0z" fill="white" fill-rule="evenodd" id="path11672" stroke-miterlimit="4" stroke-width="3"/>
    <path d="m199.32592,81.4373a2.80741,2.95819 0 1 1 -5.61482,0a2.80741,2.95819 0 1 1 5.61482,0z" fill="white" fill-rule="evenodd" id="path11674" stroke-miterlimit="4" stroke-width="3"/>
    <path d="m17.16398,601.09211c3.90812,-0.10502 7.15882,3.2352 7.25602,7.45577c0.00153,0.06668 0.00218,0.12312 0.00219,0.18986" fill="none" fill-rule="evenodd" id="path1911" stroke="white" stroke-miterlimit="4" stroke-width="3"/>
    <path d="m147.358,609.38735l-1.40358,0l0,-30.71167l0,0l101.12818,0l0,30.71167l-1.40359,0" fill="none" fill-rule="evenodd" id="path3742" stroke="white" stroke-miterlimit="4" stroke-width="3"/>
    <path d="m248.4761,313.56827c0,30.221 -23.277,54.7482 -51.95759,54.7482c-28.68059,0 -51.95758,-24.5272 -51.95758,-54.7482c0,-30.221 23.27699,-54.7482 51.95758,-54.7482c28.68059,0 51.95759,24.5272 51.95759,54.7482z" fill="none" fill-rule="evenodd" id="path1905" stroke="white" stroke-miterlimit="4" stroke-width="3"/>
    <path d="m17.04153,313.56824c358.95396,0 358.95396,0 358.95396,0" fill="none" fill-rule="evenodd" id="path1903" stroke="white" stroke-miterlimit="4" stroke-width="3"/>
    <path d="m245.69657,17.75532l1.38603,0l0,30.71168l-101.12818,0l0,-30.71168l0,0l1.42113,0" fill="none" fill-rule="evenodd" id="path2803" stroke="white" stroke-miterlimit="4" stroke-width="3"/>
    <path d="m16.84444,17.74914l359.34814,0l0,591.63821l-359.34814,0l0,-591.63821z" fill="none" fill-rule="evenodd" id="path1899" stroke="white" stroke-miterlimit="4" stroke-width="3"/>
    <path d="m307.13076,17.7533l1.42126,0l0,95.17328l-224.06703,0l0,-95.17328l0,0l1.40371,0" fill="none" fill-rule="evenodd" id="path2817" stroke="white" stroke-miterlimit="4" stroke-width="3"/>
    <path d="m155.12992,112.95613l-1.14599,0.00684l0,0c9.40172,14.10639 24.94258,23.33273 42.53222,23.33273c17.59055,0 33.1482,-9.22511 42.54977,-23.33273l-1.14455,0" fill="none" fill-rule="evenodd" id="path2832" stroke="white" stroke-miterlimit="4" stroke-width="3"/>
    <path d="m375.38645,25.90834c-3.90812,0.10497 -7.15882,-3.23522 -7.25602,-7.45579c-0.00153,-0.0667 -0.00218,-0.12312 -0.00219,-0.18984" fill="none" fill-rule="evenodd" id="path1893" stroke="white" stroke-miterlimit="4" stroke-width="3"/>
    <path d="m24.87208,18.335c0.09962,4.11803 -3.07032,7.54332 -7.07576,7.64575c-0.0633,0.00162 -0.11685,0.0023 -0.18017,0.00231" fill="none" fill-rule="evenodd" id="path1891" stroke="white" stroke-miterlimit="4" stroke-width="3"/>
    <path d="m367.93653,608.4996c-0.09962,-4.11804 3.07032,-7.54333 7.07576,-7.64574c0.0633,-0.00166 0.11685,-0.00231 0.18017,-0.00231" fill="none" fill-rule="evenodd" id="path13489" stroke="white" stroke-miterlimit="4" stroke-width="3"/>
   </g>
  </g>
 </g>
 <g class="layer" display="inline">
  <title>Layer 1</title>
 </g>
</svg>