<svg viewBox="0 0 478 472" xmlns:xlink="http://www.w3.org/1999/xlink" xmlns="http://www.w3.org/2000/svg">
 <defs>
  <linearGradient id="svg_5" x1="0" y1="0" x2="1" y2="1">
   <stop offset="0" stop-color="#ffffe0" stop-opacity="1"/>
   <stop offset="1" stop-color="#edc39c" stop-opacity="1"/>
  </linearGradient>
  <linearGradient id="svg_10" x1="0.57031" y1="0.78125" x2="0.28906" y2="0.41406">
   <stop offset="0" stop-color="#ff7f00" stop-opacity="1"/>
   <stop offset="1" stop-color="#ffff00"/>
  </linearGradient>
  <linearGradient id="svg_18" x1="0.37891" y1="0.35938" x2="1" y2="1">
   <stop offset="0" stop-color="#e0e0e0" stop-opacity="1"/>
   <stop offset="1" stop-color="#666666" stop-opacity="1"/>
  </linearGradient>
 </defs>
 <g>
  <title>Layer 1</title>
  <path d="m68.82031,270.04688l-22,-33l17,-35l34,2l25,15l7,-35l28,-16l25,12l100,102l21,23l-15,35l-36,9l20,49l-31,24l-49,-17l-1,31l-33,21l-31,-19l-13,-35l-30,21l-30,-9l-5,-35l16,-31l-32,-6l-15,-19l3,-36l47,-18z" id="svg_19" fill="#ffffff"/>
  <path fill="#1a171a" fill-rule="nonzero" id="path2902" d="m158.96452,155.03685c-25.02071,0 -45.37077,20.35121 -45.37077,45.3775c0,0.72217 0.01794,1.4399 0.0471,2.15645c-0.49339,-0.53604 -0.99355,-1.06085 -1.50603,-1.58452c-8.56077,-8.55519 -19.95982,-13.28413 -32.07432,-13.28413c-12.12122,0 -23.52027,4.72334 -32.08778,13.29646c-17.69347,17.69464 -17.69347,46.4619 0,64.17445c0.51809,0.51697 1.0485,1.0126 1.59015,1.50601c-0.72891,-0.03586 -1.45782,-0.04822 -2.19234,-0.04822c-25.02071,0 -45.37189,20.35117 -45.37189,45.37747c0,25.01398 20.35119,45.36517 45.37189,45.36517c0.72891,0 1.45221,-0.01236 2.1744,-0.04828c-0.5293,0.48221 -1.05412,0.98801 -1.56547,1.49368c-17.70021,17.68906 -17.70021,46.48654 -0.00628,64.18677c8.57872,8.56747 19.96655,13.2785 32.08778,13.2785c12.1145,0 23.5012,-4.71103 32.07433,-13.2785c0.51247,-0.51694 1.01823,-1.04849 1.50603,-1.57895c-0.02915,0.71213 -0.04709,1.44669 -0.04709,2.15759c0,25.01511 20.35007,45.37747 45.37077,45.37747c25.01398,0 45.37079,-20.3624 45.37079,-45.37747c0,-0.7222 -0.01689,-1.44553 -0.05266,-2.18112c0.48105,0.52933 0.97562,1.04849 1.48697,1.56662c8.57982,8.57977 19.97775,13.2908 32.1057,13.2908c12.11003,0 23.51358,-4.71103 32.0687,-13.2785c17.68906,-17.70013 17.68906,-46.48538 0,-64.17441c-0.50577,-0.4946 -1.01141,-1.00034 -1.54306,-1.48248c0.69983,0.03592 1.42316,0.04828 2.16992,0.04828c25.01514,0 45.35284,-20.35123 45.35284,-45.36517c0,-25.02631 -20.33774,-45.37747 -45.35284,-45.37747c-0.74683,0 -1.47009,0.01236 -2.19345,0.04822c0.53152,-0.49341 1.06082,-0.98904 1.59128,-1.50601c8.55521,-8.55521 13.2785,-19.94186 13.2785,-32.07545c0,-12.12793 -4.72336,-23.52028 -13.30319,-32.0934c-8.55515,-8.56076 -19.95866,-13.2841 -32.0687,-13.2841c-12.12122,0 -23.52025,4.72334 -32.08777,13.2841c-0.51137,0.5181 -1.01822,1.04851 -1.5049,1.57895c0.03586,-0.72331 0.05266,-1.43991 0.05266,-2.16881c0,-25.02629 -20.35681,-45.3775 -45.37079,-45.3775m0,20.71901c13.61607,0 24.65851,11.03122 24.65851,24.65849c0,6.62749 -2.651,12.62137 -6.9101,17.04979l0,51.67419l36.53975,-36.53523c0.12001,-6.14418 2.48277,-12.24686 7.18146,-16.94667c4.81305,-4.81305 11.12094,-7.22409 17.44116,-7.22409c6.30228,0 12.61577,2.41104 17.43552,7.22409c9.62166,9.63287 9.62166,25.24948 0,34.87669c-4.69977,4.68634 -10.80803,7.04915 -16.95334,7.18147l-36.5341,36.53305l51.66742,0c4.42841,-4.25351 10.42905,-6.90451 17.08008,-6.90451c13.59137,0 24.62933,11.03799 24.62933,24.66525c0,13.61606 -11.03796,24.66519 -24.62933,24.66519c-6.65106,0 -12.65167,-2.66333 -17.08008,-6.91681l-51.64836,0l36.50273,36.50946c6.16995,0.14465 12.26587,2.50522 16.96568,7.20618c9.6216,9.61487 9.6216,25.23151 0,34.85757c-4.80856,4.81979 -11.13327,7.22974 -17.43556,7.22974c-6.32019,0 -12.63371,-2.40991 -17.44786,-7.22974c-4.68074,-4.68744 -7.04802,-10.79572 -7.17473,-16.94098l-36.53975,-36.53415l0,51.66742c4.25908,4.44635 6.9101,10.43466 6.9101,17.0621c0,13.62729 -11.04243,24.66415 -24.65851,24.66415c-13.62166,0 -24.65848,-11.0369 -24.65848,-24.66415c0,-6.62744 2.64539,-12.61575 6.90335,-17.0621l0,-51.66742l-36.53864,36.54648c-0.12672,6.14413 -2.48838,12.26477 -7.18147,16.94098c-4.81416,4.81873 -11.12206,7.22974 -17.42882,7.22974c-6.31461,0 -12.6225,-2.41101 -17.43555,-7.22974c-9.63284,-9.62833 -9.63284,-25.24277 0,-34.8699c4.68073,-4.67627 10.79012,-7.05026 16.94101,-7.18262l36.533,-36.53302l-51.66632,0c-4.44075,4.25348 -10.42902,6.91681 -17.06211,6.91681c-13.61606,0 -24.65288,-11.04913 -24.65288,-24.66519c0,-13.62726 11.03682,-24.66525 24.65288,-24.66525c6.63309,0 12.62136,2.651 17.06211,6.90451l51.68537,0l-36.55208,-36.54538c-6.14527,-0.12 -12.25354,-2.49403 -16.94775,-7.19377c-9.62611,-9.61493 -9.62611,-25.23715 0,-34.86441c4.81419,-4.81305 11.12769,-7.22406 17.44228,-7.22406c6.30676,0 12.61465,2.41101 17.42883,7.22406c4.69978,4.69307 7.06034,10.80246 7.18144,16.94777l36.5386,36.53299l0,-51.66074c-4.25795,-4.42841 -6.90334,-10.42229 -6.90334,-17.04979c0,-13.62726 11.03682,-24.65848 24.65848,-24.65848"/>
  <path d="m188.82031,210.04688l16,-47l155,-148l107,100l-158,156.99999l-44,12l-76,-74z" id="svg_6" fill="url(#svg_10)" stroke="#ffffff" stroke-width="0"/>
  <path d="m335.57031,40.29688c-11.5,39.75 55.5,115.25 109.25,98.75l21,-20.99999l-103,-101l-27.25,23.25z" id="svg_11" fill="url(#svg_18)" stroke="#ffffff" stroke-width="0"/>
  <rect x="272.80404" y="20.76382" width="42.35197" height="232.66835" id="svg_13" fill="#ffffff" stroke="#ffffff" stroke-width="0" transform="rotate(45.9094, 293.98, 137.1)" opacity="0.4"/>
  <rect x="282.80404" y="22.76382" width="14" height="232.66835" fill="#ffffff" stroke="#ffffff" stroke-width="0" transform="rotate(45.9094, 289.805, 139.1)" opacity="0.4" id="svg_14"/>
  <ellipse cx="415.13312" cy="64.38066" id="svg_12" fill="#ea7598" stroke="#ffffff" stroke-width="0" rx="67.79251" ry="34.82026" transform="rotate(39.4735, 415.133, 64.379)"/>
  <path d="m212.07031,166.04688c-8.5,47 36.25,103.75 99.25,96.75l-152.5,53.25l53.25,-150z" id="svg_4" fill="url(#svg_5)" stroke="#ffffff" stroke-width="0"/>
  <path d="m181.32031,242.54688c0.5,20.5 26.75,45 46.75,48.5l-66.25,20l19.5,-68.5z" id="svg_3" fill="#27382f" stroke="#ffffff" stroke-width="0"/>
 </g>
 <g>
  <title>Layer 2</title>
  <path d="m152.82031,317.04688l51,-152l157,-153c40,-12.00001 118,48 105,105l-157,152.99999l-156,47z" id="svg_1" fill="none" stroke="#800000" stroke-width="17"/>
 </g>
</svg>
