<?xml version="1.0" encoding="UTF-8" standalone="no"?>
<svg viewBox="0 0 600 600" xmlns="http://www.w3.org/2000/svg" xmlns:cc="http://creativecommons.org/ns#" xmlns:dc="http://purl.org/dc/elements/1.1/" xmlns:rdf="http://www.w3.org/1999/02/22-rdf-syntax-ns#" xmlns:xlink="http://www.w3.org/1999/xlink">
  <defs id="defs14280">
    <linearGradient gradientUnits="userSpaceOnUse" id="XMLID_16_" x1="67.8452" x2="144.5898" y1="115.5361" y2="115.5361">
      <stop id="stop780" offset="0" stop-color="#7D7D99"/>
      <stop id="stop781" offset="0.1798" stop-color="#B1B1C5"/>
      <stop id="stop782" offset="0.3727" stop-color="#BCBCC8"/>
      <stop id="stop783" offset="0.6825" stop-color="#C8C8CB"/>
      <stop id="stop784" offset="1" stop-color="#CCC"/>
    </linearGradient>
    <linearGradient gradientTransform="matrix(-0.999,4.35e-2,4.35e-2,0.999,-1277.01,-496.517)" gradientUnits="userSpaceOnUse" id="XMLID_15_" x1="-1401.459" x2="-1354.6851" y1="595.63092" y2="699.47632">
      <stop id="stop770" offset="0" stop-color="#FFA700"/>
      <stop id="stop771" offset="0.7753" stop-color="#FFD700"/>
      <stop id="stop772" offset="1" stop-color="#FF9200"/>
    </linearGradient>
    <linearGradient gradientTransform="matrix(-0.999,4.35e-2,4.35e-2,0.999,-1277.01,-496.517)" gradientUnits="userSpaceOnUse" id="XMLID_14_" x1="-1336.4497" x2="-1325.3219" y1="635.79492" y2="622.53333">
      <stop id="stop763" offset="0" stop-color="#FFC957"/>
      <stop id="stop764" offset="1" stop-color="#FF6D00"/>
    </linearGradient>
    <linearGradient gradientUnits="userSpaceOnUse" id="XMLID_13_" x1="65.094704" x2="137.6021" y1="-0.79540002" y2="160.1823">
      <stop id="stop750" offset="0" stop-color="#FFA700"/>
      <stop id="stop751" offset="0.7753" stop-color="#FFD700"/>
      <stop id="stop752" offset="1" stop-color="#FF794B"/>
    </linearGradient>
    <linearGradient gradientTransform="matrix(-0.999,4.35e-2,4.35e-2,0.999,-1277.01,-496.517)" gradientUnits="userSpaceOnUse" id="XMLID_12_" x1="-1375.9844" x2="-1355.0455" y1="685.38092" y2="706.32172">
      <stop id="stop743" offset="0" stop-color="#F8F1DC"/>
      <stop id="stop744" offset="1" stop-color="#D6A84A"/>
    </linearGradient>
    <linearGradient gradientTransform="matrix(0.1991,0.98,-0.98,0.1991,91.6944,573.565)" gradientUnits="userSpaceOnUse" id="XMLID_11_" x1="-481.70071" x2="-360.24561" y1="-94.419403" y2="-164.22141">
      <stop id="stop736" offset="0" stop-color="#900"/>
      <stop id="stop737" offset="1" stop-color="#7C0000"/>
    </linearGradient>
    <clipPath clipPathUnits="userSpaceOnUse" id="clipPath4418">
      <rect fill="none" height="79.958374" id="rect4420" stroke="#000" stroke-miterlimit="4" stroke-width="0.14421287" style="stroke-dasharray:none;" transform="scale(-1,1)" width="73.952118" x="-196.68831" y="126.58712"/>
    </clipPath>
  </defs>
  <metadata>
    <rdf:RDF>
      <cc:Work rdf:about="">
        <dc:format>image/svg+xml</dc:format>
        <dc:type rdf:resource="http://purl.org/dc/dcmitype/StillImage"/>
      </cc:Work>
    </rdf:RDF>
  </metadata>
  <a xlink:href="http://svg-edit.googlecode.com/" xlink:title="SVG-edit, an in-browser vector graphics editor" target="_blank">
    <path d="M257.74,558.2c24.94-7.02,41.7-25.17,45.56-49.34l1.3-8.12,5.49,3.91c32.51,23.15,75.86,12.04,91.83-23.54,8.82-19.67,4.96-51.37-7.53-61.73-4.87-4.04-3.66-5.35,6.15-6.67,63.27-8.51,65.48-104.18,2.72-117.72-13.73-2.97-13.19-2.25-7.45-9.82,39.41-52.03-27.83-121.53-82.22-84.99l-8.5,5.71-2.95-12.03c-15.47-63.09-108.77-60.34-117.52,3.47-1.4,10.22-1.08,10.09-9.17,3.92-29.91-22.81-79.426-7.73-91.221,27.79-6.608,19.89-2.39,47.48,8.807,57.62,5.357,4.84,4.664,5.97-4.54,7.4-66.03,10.23-66.493,109.67-0.553,118.71l8.629,1.18-5.385,7.99c-27.709,41.08,0.153,94.95,49.063,94.85,14.69-0.03,30.72-5.41,37.08-12.43,4.66-5.14,6.62-4.62,6.62,1.77,0,32.42,40.95,61.32,73.79,52.07zm-32.77-32.12c-13.84-9.85-17.94-31.87-8.34-44.84,3.86-5.23,4.15-7.92,4.15-39.1v-33.48l-24.23,24.17c-18.68,18.64-24.23,25.33-24.23,29.24,0,19.85-32.96,34.46-49.64,22-22.942-17.13-17.18-51.92,9.72-58.77,6.4-1.63,12.47-6.56,31.17-25.35l23.23-23.33-31.95,0.01c-30.22,0.01-32.47,0.27-41.49,4.84-36.551,18.55-67.269-29.82-34.708-54.66,9.535-7.27,27.368-7.79,36.798-1.07,5.75,4.11,8,4.36,38.73,4.36h32.62l-23.01-23.06c-16.39-16.43-24.74-23.42-29.01-24.27-28.64-5.73-36.095-42.37-12.22-60.06,16.84-12.48,49.88,2.08,49.72,21.92-0.03,3.94,5.16,10.04,23.74,27.91l23.79,22.87,0.53-32.09c0.5-30.31,0.3-32.41-3.67-37.77-14.37-19.44-0.44-48.03,24.42-50.09,26.09-2.17,43.22,23.68,31.2,47.08-4.75,9.25-4.98,11.14-4.99,41.64l-0.01,31.95,23.07-23.01c16.03-15.98,23.43-24.79,24.23-28.82,5.96-29.77,46.54-36.03,60.61-9.35,10.42,19.75,0.51,41.32-21.52,46.87-6.79,1.71-12.35,6.18-31.3,25.18l-23.05,23.1h33.59c30.28,0,34.12-0.37,38.94-3.8,12.83-9.14,30.26-6.74,41.53,5.73,25.04,27.73-11.22,69.98-41.53,48.4-4.82-3.43-8.66-3.81-38.94-3.81h-33.59l23.05,23.1c18.95,19.01,24.51,23.48,31.3,25.19,36.61,9.22,33.19,60.64-4.24,63.74-16.99,1.41-35.63-13.68-35.63-28.85,0-1.54-10.47-13.24-23.26-26l-23.26-23.2,0.01,31.95c0.01,30.22,0.27,32.47,4.85,41.48,15.51,30.58-19.49,61.77-47.18,42.05z" fill="#000"/>
    <g clip-path="url(#clipPath4418)" transform="matrix(-4.6717475,0,0,4.6717475,1143.4575,-562.74962)">
      <path d="M191.92,195.98c-11.61-36.12-13.71-42.67-14.86-44.06,0.12,0.08,0.29,0.18,0.29,0.18l-78.546-87.457c-4.195-4.65-14.005,0.356-21.355,6.976-7.283,6.542-13.32,15.773-9.37,20.564l78.941,87.547,0.54,0.09,37.76,17.6,7.69,2.37-1.09-3.81z" opacity="0.2"/>
      <path d="M193.56,193.52c-11.61-36.13-13.72-42.67-14.86-44.07,0.12,0.07,0.29,0.18,0.29,0.18l-78.55-87.455c-4.195-4.651-14.011,0.355-21.357,6.975-7.281,6.545-13.32,15.773-9.368,20.566l78.945,87.544,0.53,0.1,37.77,17.59,7.68,2.37-1.08-3.8z" opacity="0.2"/>
      <path d="M186.77,191.05c-11.61-36.13-13.71-42.67-14.86-44.07,0.12,0.08,0.29,0.18,0.29,0.18l-78.547-87.456c-4.192-4.65-14.009,0.359-21.354,6.978-7.283,6.542-13.321,15.771-9.369,20.565l78.94,87.543,0.54,0.09,37.77,17.6,7.68,2.37-1.09-3.8z" opacity="0.2"/>
      <path d="M186.43,189.36c-11.61-36.13-13.71-42.67-14.86-44.07,0.12,0.08,0.29,0.18,0.29,0.18l-78.546-87.454c-4.199-4.651-14.015,0.357-21.359,6.977-7.283,6.543-13.322,15.774-9.37,20.566l78.945,87.541,0.53,0.1,37.77,17.6,7.69,2.36-1.09-3.8z" fill="#FFF"/>
      <path d="M186.43,189.36c-11.61-36.13-13.71-42.67-14.86-44.07,0.12,0.08,0.29,0.18,0.29,0.18l-78.546-87.454c-4.199-4.651-14.015,0.357-21.359,6.977-7.283,6.543-13.322,15.774-9.37,20.566l78.945,87.541,0.53,0.1,37.77,17.6,7.69,2.36-1.09-3.8z" fill="url(#XMLID_11_)"/>
      <path d="M166.97,147.76l13.72,38.13-36.37-17.9,0.17-0.15c-0.25-0.08-0.5-0.18-0.7-0.32l-0.13,0.12-75.3-83.568,0.123-0.104c-2.246-2.49,1.032-9.094,7.308-14.752,6.28-5.652,13.18-8.219,15.425-5.733l75.294,83.567,0.46,0.71z" fill="url(#XMLID_12_)"/>
      <path d="M148.65,170.12c2.08-0.37,4.64-1.48,7.25-3.14,1.62-1.02,3.28-2.28,4.9-3.74,1.46-1.3,2.74-2.67,3.84-4.01,2.08-2.53,3.32-5.21,3.78-7.43l-1.45-4.04-0.47-0.71-74.793-83.022c0.608,2.24-0.962,5.938-4.063,9.74-1.134,1.389-2.441,2.789-3.945,4.141-1.574,1.419-3.195,2.652-4.767,3.654-4.493,2.871-8.628,3.928-10.548,2.486l-0.025,0.021,75.301,83.57,0.13-0.12c0.2,0.14,0.45,0.24,0.7,0.32l-0.17,0.15,4.33,2.13z" fill="url(#XMLID_13_)"/>
      <path d="M68.083,83.41c1.732,1.772,5.994,0.776,10.643-2.194,1.541-0.982,3.132-2.193,4.677-3.586,1.476-1.325,2.759-2.701,3.872-4.063,3.578-4.388,5.091-8.642,3.477-10.584l0.023-0.024,75.815,84.121c0.64,2.26-0.59,6.5-3.75,10.36-1.08,1.31-2.34,2.65-3.77,3.93-1.59,1.43-3.22,2.67-4.81,3.67-4.74,3.01-9.3,4.2-11.02,2.31-0.39-0.44-2.09-2.34-2.14-2.41l-73.255-81.314,0.238-0.216z" fill="#FFF"/>
      <path d="M75.79,69.215c6.28-5.652,13.18-8.219,15.425-5.733l16.965,18.828,1.15,26.49-17.975,0.78-22.996-25.509,0.123-0.104c-2.246-2.49,1.032-9.093,7.308-14.752z" fill="#FFF"/>
      <path d="M68.083,83.41c1.732,1.772,5.994,0.776,10.643-2.194,1.541-0.982,3.132-2.193,4.677-3.586,1.476-1.325,2.759-2.701,3.872-4.063,3.578-4.388,5.091-8.642,3.477-10.584l0.023-0.024,75.815,84.121c0.64,2.26-0.59,6.5-3.75,10.36-1.08,1.31-2.34,2.65-3.77,3.93-1.59,1.43-3.22,2.67-4.81,3.67-4.74,3.01-9.3,4.2-11.02,2.31-0.39-0.44-2.09-2.34-2.14-2.41l-73.255-81.314,0.238-0.216z" fill="#FFF"/>
      <path d="M75.79,69.215c6.28-5.652,13.18-8.219,15.425-5.733l16.965,18.828,1.15,26.49-17.975,0.78-22.996-25.509,0.123-0.104c-2.246-2.49,1.032-9.093,7.308-14.752z" fill="url(#XMLID_14_)"/>
      <path d="M68.083,83.41c1.732,1.772,5.994,0.776,10.643-2.194,1.541-0.982,3.132-2.193,4.677-3.586,1.476-1.325,2.759-2.701,3.872-4.063,3.578-4.388,5.091-8.642,3.477-10.584l0.023-0.024,75.815,84.121c0.64,2.26-0.59,6.5-3.75,10.36-1.08,1.31-2.34,2.65-3.77,3.93-1.59,1.43-3.22,2.67-4.81,3.67-4.74,3.01-9.3,4.2-11.02,2.31-0.39-0.44-2.09-2.34-2.14-2.41l-73.255-81.314,0.238-0.216z" fill="url(#XMLID_15_)"/>
      <path d="M74.357,90.713c0,0,6.036-0.212,10.685-3.182,1.542-0.983,3.132-2.193,4.677-3.586,1.477-1.326,2.76-2.701,3.873-4.064,2.928-3.589,4.469-7.088,4.049-9.307l-6.865-7.617-0.023,0.024c1.614,1.942,0.102,6.196-3.477,10.584-1.113,1.362-2.396,2.738-3.872,4.063-1.545,1.393-3.136,2.604-4.677,3.586-4.648,2.971-8.91,3.967-10.643,2.194l-0.238,0.217,73.254,81.315c0.05,0.07,1.75,1.96,2.15,2.4,0.34,0.38,0.8,0.63,1.34,0.77l-70.233-77.397z" fill="url(#XMLID_16_)"/>
      <path d="M172.04,175.35c-1.64,1.48-3.31,2.77-4.95,3.84l13.6,6.7-5.09-14.15c-1.06,1.21-2.25,2.44-3.56,3.61z" fill="#033"/>
      <path d="M163.12,157.05l-76.152-83.12c0.1-0.12,0.213-0.242,0.307-0.364,1.428-1.752,2.52-3.49,3.225-5.058l75.77,82.712c-0.55,1.82-1.6,3.86-3.15,5.83z" fill="#FFF" opacity="0.5"/>
      <path d="M87.275,73.566c0.634-0.774,1.189-1.548,1.694-2.3l76.011,82.974c-0.57,1.06-1.28,2.15-2.14,3.19-0.75,0.9-1.57,1.81-2.47,2.7l-76.218-83.198c1.164-1.108,2.209-2.24,3.123-3.366z" fill="#FFF" opacity="0.5"/>
    </g>
  </a>
</svg>