<?xml version="1.0" encoding="UTF-8"?>
<svg width="900" height="675" viewBox="0 0 900 675" version="1.1" xmlns="http://www.w3.org/2000/svg" xmlns:xlink="http://www.w3.org/1999/xlink">
 <defs>
  <marker id="se_arrow_fw" markerHeight="5" markerUnits="strokeWidth" markerWidth="5" orient="auto" refX="8" refY="5" viewBox="0 0 10 10">
   <path d="m0,0l10,5l-10,5l5,-5l-5,-5z" fill="#000000"/>
  </marker>
   <style xmlns="http://www.w3.org/2000/svg" type="text/css">
     @media print {
     .background{
     fill: #FFFFFF !important;
     }
     .outline {
     stroke: #000000 !important;
     }
     }
   </style>
 </defs>
 <g class="layer">
  <title>Field</title>
    <g stroke="none">
        <path fill="#7FC784" d="M0 0h900v675H0z" class="background"/>
        <path fill="#87D888" d="M860 663H40V20h820z" class="background"/>
        <path fill="#7FC784" d="M860 447H40V339h820zM860 231H40V122h820zM860 663H40V555h820z" class="background"/>
    </g>
</g>
 <g class="layer">
  <title>Lines</title>
    <g stroke="#FFF" stroke-width="2" fill="none" class="outline">
      <circle cx="450" cy="337.5" r="110"/>
      <path d="M40 337.5h820"/>
      <path d="M40 655h820M40 20h820" stroke-dasharray="4,8"/>
      <path d="M40 20v635M860 20v635"/>
    </g>
</g>

<g class="layer">
  <title>Drill</title>
    <g>
        <circle cx="20" cy="600" fill="#000" r="15" stroke-width="0"/>
        <text fill="#fff" font-family="Cursive" font-size="24" text-anchor="middle" x="17" y="608.5">C</text>
    </g>
    <g position="1" shape="bluetriangle">
    <polygon fill="#ff9900" points="20,25 5,55 35,55 20,25 " stroke-width="0"/>
    <text fill="#ffffff" font-family="Sans-serif" font-size="24" text-anchor="middle" x="20" y="54">1</text>
    </g>
    <g position="2" shape="bluetriangle">
    <polygon fill="#364fc7" points="20,75 5,105 35,105 20,75 " stroke-width="0"/>
    <text fill="#ffffff" font-family="Sans-serif" font-size="24" text-anchor="middle" x="20" y="104">2</text>
    </g>
    <g position="3" shape="bluetriangle">
    <polygon fill="#364fc7" points="20,125 5,155 35,155 20,125 " stroke-width="0"/>
    <text fill="#ffffff" font-family="Sans-serif" font-size="24" text-anchor="middle" x="20" y="154">3</text>
    </g>
    <g position="4" shape="bluetriangle">
    <polygon fill="#364fc7" points="20,175 5,205 35,205 20,175 " stroke-width="0"/>
    <text fill="#ffffff" font-family="Sans-serif" font-size="24" text-anchor="middle" x="20" y="204">4</text>
    </g>
    <g position="5" shape="bluetriangle">
    <polygon fill="#364fc7" points="20,225 5,255 35,255 20,225 " stroke-width="0"/>
    <text fill="#ffffff" font-family="Sans-serif" font-size="24" text-anchor="middle" x="20" y="254">5</text>
    </g>
    <g position="6" shape="bluetriangle">
    <polygon fill="#364fc7" points="20,275 5,305 35,305 20,275 " stroke-width="0"/>
    <text fill="#ffffff" font-family="Sans-serif" font-size="24" text-anchor="middle" x="20" y="304">6</text>
    </g>
    <g position="7" shape="bluetriangle">
    <polygon fill="#364fc7" points="20,325 5,355 35,355 20,325 " stroke-width="0"/>
    <text fill="#ffffff" font-family="Sans-serif" font-size="24" text-anchor="middle" x="20" y="354">7</text>
    </g>
    <g position="8" shape="bluetriangle">
    <polygon fill="#364fc7" points="20,375 5,405 35,405 20,375 " stroke-width="0"/>
    <text fill="#ffffff" font-family="Sans-serif" font-size="24" text-anchor="middle" x="20" y="404">8</text>
    </g>
    <g position="9" shape="bluetriangle">
    <polygon fill="#364fc7" points="20,425 5,455 35,455 20,425 " stroke-width="0"/>
    <text fill="#ffffff" font-family="Sans-serif" font-size="24" text-anchor="middle" x="20" y="454">9</text>
    </g>
    <g position="10" shape="bluetriangle">
    <polygon fill="#364fc7" points="20,475 5,505 35,505 20,475 " stroke-width="0"/>
    <text fill="#ffffff" font-family="Sans-serif" font-size="24" text-anchor="middle" x="20" y="504">10</text>
    </g>
    <g position="11" shape="bluetriangle">
    <polygon fill="#364fc7" points="20,525 5,555 35,555 20,525 " stroke-width="0"/>
    <text fill="#ffffff" font-family="Sans-serif" font-size="24" text-anchor="middle" x="20" y="554">11</text>
    </g>
    <g position="1" shape="redcircle">
    <circle cx="880" cy="40" fill="#ff9900" r="15" stroke-width="0"/>
    <text fill="#ffffff" font-family="Sans-serif" font-size="24" text-anchor="middle" x="880" y="49">1</text>
    </g>
    <g position="2" shape="redcircle">
    <circle cx="880" cy="90" fill="#eb244c" r="15" stroke-width="0"/>
    <text fill="#ffffff" font-family="Sans-serif" font-size="24" text-anchor="middle" x="880" y="99">2</text>
    </g>
    <g position="3" shape="redcircle">
    <circle cx="880" cy="140" fill="#eb244c" r="15" stroke-width="0"/>
    <text fill="#ffffff" font-family="Sans-serif" font-size="24" text-anchor="middle" x="880" y="149">3</text>
    </g>
    <g position="4" shape="redcircle">
    <circle cx="880" cy="190" fill="#eb244c" r="15" stroke-width="0"/>
    <text fill="#ffffff" font-family="Sans-serif" font-size="24" text-anchor="middle" x="880" y="199">4</text>
    </g>
    <g position="5" shape="redcircle">
    <circle cx="880" cy="240" fill="#eb244c" r="15" stroke-width="0"/>
    <text fill="#ffffff" font-family="Sans-serif" font-size="24" text-anchor="middle" x="880" y="249">5</text>
    </g>
    <g position="6" shape="redcircle">
    <circle cx="880" cy="290" fill="#eb244c" r="15" stroke-width="0"/>
    <text fill="#ffffff" font-family="Sans-serif" font-size="24" text-anchor="middle" x="880" y="299">6</text>
    </g>
    <g position="7" shape="redcircle">
    <circle cx="880" cy="340" fill="#eb244c" r="15" stroke-width="0"/>
    <text fill="#ffffff" font-family="Sans-serif" font-size="24" text-anchor="middle" x="880" y="349">7</text>
    </g>
    <g position="8" shape="redcircle">
    <circle cx="880" cy="390" fill="#eb244c" r="15" stroke-width="0"/>
    <text fill="#ffffff" font-family="Sans-serif" font-size="24" text-anchor="middle" x="880" y="399">8</text>
    </g>
    <g position="9" shape="redcircle">
    <circle cx="880" cy="440" fill="#eb244c" r="15" stroke-width="0"/>
    <text fill="#ffffff" font-family="Sans-serif" font-size="24" text-anchor="middle" x="880" y="449">9</text>
    </g>
    <g position="10" shape="redcircle">
    <circle cx="880" cy="490" fill="#eb244c" r="15" stroke-width="0"/>
    <text fill="#ffffff" font-family="Sans-serif" font-size="24" text-anchor="middle" x="880" y="499">10</text>
    </g>
    <g position="11" shape="redcircle">
    <circle cx="880" cy="540" fill="#eb244c" r="15" stroke-width="0"/>
    <text fill="#ffffff" font-family="Sans-serif" font-size="24" text-anchor="middle" x="880" y="549">11</text>
    </g>


</g>
</svg>
