<svg width="975px" height="719px" viewBox="0 0 975 719" version="1.1" xmlns="http://www.w3.org/2000/svg" xmlns:xlink="http://www.w3.org/1999/xlink">
    <g class="layer">
        <title>Field</title>
        <g class="layer" fill="none" fill-rule="evenodd">
            <title>Lines</title>
            <g id="Group-15" transform="translate(36.000000, 42.000000)" stroke-width="3">
                <rect id="Rectangle" stroke="#ADB5BD" fill="#F8F9FA" x="1.5" y="1.5" width="887" height="607" rx="10"></rect>
                <path d="M25,150.5 C52.2000239,150.5 76.8250239,161.524988 94.6500179,179.349982 C112.475012,197.174976 123.5,221.799976 123.5,249 L123.5,249 L123.5,354 C123.5,381.200024 112.475012,405.825024 94.6500179,423.650018 C76.8250239,441.475012 52.2000239,452.5 25,452.5 L25,452.5 L1.5,452.5 L1.5,150.5 Z" id="Rectangle" stroke="#B7BFC6"></path>
                <path d="M790,150.5 C817.200024,150.5 841.825024,161.524988 859.650018,179.349982 C877.475012,197.174976 888.5,221.799976 888.5,249 L888.5,249 L888.5,354 C888.5,381.200024 877.475012,405.825024 859.650018,423.650018 C841.825024,441.475012 817.200024,452.5 790,452.5 L790,452.5 L766.5,452.5 L766.5,150.5 L790,150.5 Z" id="Rectangle" stroke="#B7BFC6" transform="translate(827.500000, 301.500000) scale(-1, 1) translate(-827.500000, -301.500000) "></path>
                <circle id="Oval" stroke="#B7BFC6" cx="441.5" cy="303.5" r="85"></circle>
                <line x1="441.5" y1="2.47131148" x2="441.5" y2="606.5" id="Line-17" stroke="#B7BFC6" stroke-linecap="square"></line>
            </g>
            <path d="M915,43.5 C917.34721,43.5 919.47221,44.4513949 921.010408,45.9895924 C922.548605,47.5277898 923.5,49.6527898 923.5,52 L923.5,52 L923.5,80.5 L915,80.5 C907.129942,80.5 900.004942,77.3100288 894.847457,72.1525433 C889.689971,66.9950577 886.5,59.8700577 886.5,52 L886.5,52 L886.5,43.5 Z" id="Rectangle" stroke="#ADB5BD" stroke-width="3"></path>
            <path d="M66,43.5 C68.3472102,43.5 70.4722102,44.4513949 72.0104076,45.9895924 C73.5486051,47.5277898 74.5,49.6527898 74.5,52 L74.5,52 L74.5,80.5 L66,80.5 C58.1299423,80.5 51.0049423,77.3100288 45.8474567,72.1525433 C40.6899712,66.9950577 37.5,59.8700577 37.5,52 L37.5,52 L37.5,43.5 Z" id="Rectangle" stroke="#ADB5BD" stroke-width="3" transform="translate(56.000000, 62.000000) scale(-1, 1) translate(-56.000000, -62.000000) "></path>
            <path d="M66,613.5 C68.3472102,613.5 70.4722102,614.451395 72.0104076,615.989592 C73.5486051,617.52779 74.5,619.65279 74.5,622 L74.5,622 L74.5,650.5 L66,650.5 C58.1299423,650.5 51.0049423,647.310029 45.8474567,642.152543 C40.6899712,636.995058 37.5,629.870058 37.5,622 L37.5,622 L37.5,613.5 Z" id="Rectangle" stroke="#ADB5BD" stroke-width="3" transform="translate(56.000000, 632.000000) scale(-1, -1) translate(-56.000000, -632.000000) "></path>
            <path d="M915,613.5 C917.34721,613.5 919.47221,614.451395 921.010408,615.989592 C922.548605,617.52779 923.5,619.65279 923.5,622 L923.5,622 L923.5,650.5 L915,650.5 C907.129942,650.5 900.004942,647.310029 894.847457,642.152543 C889.689971,636.995058 886.5,629.870058 886.5,622 L886.5,622 L886.5,613.5 Z" id="Rectangle" stroke="#ADB5BD" stroke-width="3" transform="translate(905.000000, 632.000000) scale(1, -1) translate(-905.000000, -632.000000) "></path>
        </g>
    </g>

    <g class="layer">
        <title>Drill</title>

    </g>
</svg>
