<svg xmlns="http://www.w3.org/2000/svg" viewBox="0 0 51.04 49.47"><defs><style>.cls-1,.cls-2{fill:#f9ba00;}.cls-2{opacity:0.2;}.cls-3{fill:none;}</style></defs><g id="Calque_2" data-name="Calque 2"><g id="Calque_1-2" data-name="Calque 1"><path class="cls-1" d="M24.78,39.73a15.16,15.16,0,0,1-15.32-15,15.16,15.16,0,0,1,15.32-15"/><path class="cls-2" d="M24.88,7.58A17.34,17.34,0,0,1,42.4,24.74,17.34,17.34,0,0,1,24.88,41.89"/><path class="cls-2" d="M24.88,9.74A15.25,15.25,0,0,1,40.29,24.82,15.25,15.25,0,0,1,24.88,39.9"/><path class="cls-2" d="M24.88,11.77A13.19,13.19,0,0,1,38.21,24.82a13.19,13.19,0,0,1-13.33,13"/><path class="cls-2" d="M24.88,13.81a11,11,0,1,1,0,22"/><path class="cls-2" d="M24.88,15.85a9,9,0,1,1,0,17.94"/><path class="cls-2" d="M24.78,17.88a6.94,6.94,0,1,1,0,13.88"/><path class="cls-2" d="M24.78,19.92a4.91,4.91,0,1,1,0,9.81"/><path class="cls-2" d="M24.78,21.64a3.1,3.1,0,1,1,0,6.2"/><polyline class="cls-3" points="6.8 0 51.04 0 51.04 49.47 0 49.47 0 0 6.8 0"/></g></g></svg>