<svg xmlns="http://www.w3.org/2000/svg" viewBox="0 0 51.04 49.47"><defs><style>.cls-1,.cls-2,.cls-4{fill:none;}.cls-2,.cls-4{stroke:#fff;stroke-width:2px;}.cls-2{stroke-linecap:round;stroke-linejoin:round;}.cls-3{fill:#fff;}.cls-4{stroke-miterlimit:10;}.cls-5{fill:#f9ba00;}</style></defs><g id="Calque_2" data-name="Calque 2"><g id="Calque_1-2" data-name="Calque 1"><polyline class="cls-1" points="6.8 0 51.04 0 51.04 49.47 0 49.47 0 0 6.8 0"/><line class="cls-2" x1="26.12" y1="13.74" x2="12.11" y2="31"/><line class="cls-2" x1="29.45" y1="18.86" x2="34.43" y2="12.69"/><polyline class="cls-2" points="25.36 5.39 8.01 26.93 5.95 38.81 16.9 34.44 18.7 32.2"/><path class="cls-3" d="M6.8,33.94a3.51,3.51,0,0,1,2.62.51,3.18,3.18,0,0,1,1.42,2.41L6,38.81Z"/><path class="cls-4" d="M8.73,26.63A14.26,14.26,0,0,0,12.11,31a16.56,16.56,0,0,0,5.12,2.63"/><path class="cls-4" d="M22.29,8.36A15,15,0,0,0,25.91,13a18.2,18.2,0,0,0,5.49,2.78"/><path class="cls-2" d="M34.62,12.39A16.56,16.56,0,0,1,29.5,9.76a29.86,29.86,0,0,1-4.14-4.37S29.26,6.45,31,7.8A22.22,22.22,0,0,1,34.62,12.39Z"/><path class="cls-5" d="M36.67,44.08a1.84,1.84,0,0,1-1.35-.56c-.44-.48-1.85-1.73-3-1.73s-2.57,1.25-3,1.69a1.82,1.82,0,0,1-2,.42h0L23.8,42l0,0a1.65,1.65,0,0,1-.56-2,4.18,4.18,0,0,0,.32-1.4,3.69,3.69,0,0,0-3.7-3.66h-.14c-.59,0-1.06-.51-1.22-1.3a18.42,18.42,0,0,1-.29-2.76,18.23,18.23,0,0,1,.29-2.76c.16-.8.64-1.32,1.24-1.31h.12a3.68,3.68,0,0,0,3.7-3.65,4.1,4.1,0,0,0-.32-1.4,1.64,1.64,0,0,1,.57-2l0,0,3.69-2,0,0a1.88,1.88,0,0,1,2,.42,5.3,5.3,0,0,0,2.93,1.62,5.24,5.24,0,0,0,2.91-1.59,1.89,1.89,0,0,1,2-.4l0,0L41,19.66l0,0a1.64,1.64,0,0,1,.57,2,4.1,4.1,0,0,0-.32,1.4A3.68,3.68,0,0,0,45,26.74h.12c.59,0,1.08.51,1.23,1.31a16.47,16.47,0,0,1,.3,2.76,18.42,18.42,0,0,1-.29,2.76c-.16.8-.64,1.32-1.24,1.3H45a3.68,3.68,0,0,0-3.7,3.66,4.18,4.18,0,0,0,.32,1.4,1.64,1.64,0,0,1-.56,2l0,0-3.62,2,0,0A1.54,1.54,0,0,1,36.67,44.08Zm-.18-1.92a.2.2,0,0,0,.11,0h0l3.33-1.81a5.5,5.5,0,0,1-.45-2,5.24,5.24,0,0,1,5-5.19,15.57,15.57,0,0,0,.26-2.37,14.35,14.35,0,0,0-.26-2.37,5.25,5.25,0,0,1-5-5.2,5.43,5.43,0,0,1,.45-2l-3.27-1.79h0a.27.27,0,0,0-.12,0,9.59,9.59,0,0,1-1.21,1,5.07,5.07,0,0,1-2.84,1.05,5.07,5.07,0,0,1-2.85-1.07,9.29,9.29,0,0,1-1.22-1,.28.28,0,0,0-.13,0h0l-3.39,1.83a5.55,5.55,0,0,1,.45,2,5.25,5.25,0,0,1-5,5.2,15.57,15.57,0,0,0-.26,2.37,15.23,15.23,0,0,0,.26,2.36,5.25,5.25,0,0,1,5,5.2,5.44,5.44,0,0,1-.45,2l3.21,1.77h0a.17.17,0,0,0,.1,0,10.82,10.82,0,0,1,1.23-1.06,5.11,5.11,0,0,1,2.91-1.12,5,5,0,0,1,2.92,1.14A9.75,9.75,0,0,1,36.49,42.16ZM32.4,35.54a4.74,4.74,0,1,1,4.75-4.74A4.75,4.75,0,0,1,32.4,35.54Zm0-7.58a2.85,2.85,0,1,0,2.77,2.77A2.85,2.85,0,0,0,32.4,28Z"/></g></g></svg>