<svg xmlns="http://www.w3.org/2000/svg" viewBox="0 0 51.04 49.47"><defs><style>.cls-1,.cls-2,.cls-3{fill:none;}.cls-2{stroke:#fff;}.cls-2,.cls-3{stroke-linecap:round;stroke-miterlimit:10;stroke-width:3px;}.cls-3{stroke:#f9ba00;}</style></defs><g id="Calque_2" data-name="Calque 2"><g id="Calque_1-2" data-name="Calque 1"><polyline class="cls-1" points="6.8 0 51.04 0 51.04 49.47 0 49.47 0 0 6.8 0"/><path class="cls-2" d="M27.7,20.76l.53.53a6.77,6.77,0,0,1,0,9.57h0a6.77,6.77,0,0,1-9.57,0L9.77,22a6.75,6.75,0,0,1,0-9.57h0a6.76,6.76,0,0,1,9.56,0l2.18,2.18"/><path class="cls-3" d="M23.56,28.08a6.77,6.77,0,0,1,0-9.57h0a6.77,6.77,0,0,1,9.57,0l8.9,8.9A6.77,6.77,0,0,1,42,37h0a6.77,6.77,0,0,1-9.57,0l-2.24-2.25"/></g></g></svg>