<?xml version="1.0" encoding="utf-8"?><!-- Modified from: SVG Repo, www.svgrepo.com, Generator: SVG Repo Mixer Tools -->
<svg width="800px" height="800px" viewBox="0 0 24 24" fill="none" xmlns="http://www.w3.org/2000/svg">
<path d="M4.97883 9.68508C2.99294 8.89073 2 8.49355 2 8C2 7.50645 2.99294 7.10927 4.97883 6.31492L7.7873 5.19153C9.77318 4.39718 10.7661 4 12 4C13.2339 4 14.2268 4.39718 16.2127 5.19153L19.0212 6.31492C21.0071 7.10927 22 7.50645 22 8C22 8.49355 21.0071 8.89073 19.0212 9.68508L16.2127 10.8085C14.2268 11.6028 13.2339 12 12 12C10.7661 12 9.77318 11.6028 7.7873 10.8085L4.97883 9.68508Z" stroke="#f9ba00" stroke-width="1.5"/>
<path d="M22 12C22 12 21.0071 12.8907 19.0212 13.6851L16.2127 14.8085C14.2268 15.6028 13.2339 16 12 16C10.7661 16 9.77318 15.6028 7.7873 14.8085L4.97883 13.6851C2.99294 12.8907 2 12 2 12" stroke="#ffffff" stroke-width="1.5" stroke-linecap="round"/>
<path d="M22 16C22 16 21.0071 16.8907 19.0212 17.6851L16.2127 18.8085C14.2268 19.6028 13.2339 20 12 20C10.7661 20 9.77318 19.6028 7.7873 18.8085L4.97883 17.6851C2.99294 16.8907 2 16 2 16" stroke="#ffffff" stroke-width="1.5" stroke-linecap="round"/>
</svg>