<svg xmlns="http://www.w3.org/2000/svg" viewBox="0 0 51.04 50.52"><defs><style>.cls-1,.cls-3,.cls-5{fill:none;}.cls-2{fill:#f9ba00;}.cls-3,.cls-5{stroke:#fff;stroke-width:2px;}.cls-3{stroke-linecap:round;stroke-linejoin:round;}.cls-4{fill:#fff;}.cls-5{stroke-miterlimit:10;}</style></defs><g id="Calque_2" data-name="Calque 2"><g id="Calque_1-2" data-name="Calque 1"><rect class="cls-1" y="1" width="51.04" height="49.47"/><circle class="cls-2" cx="4.93" cy="36.72" r="2.53"/><circle class="cls-2" cx="8.24" cy="28.61" r="2.53"/><circle class="cls-2" cx="16.24" cy="25.3" r="2.53"/><circle class="cls-2" cx="27.58" cy="36.64" r="2.53"/><circle class="cls-2" cx="24.3" cy="44.67" r="2.53"/><circle class="cls-2" cx="16.24" cy="47.99" r="2.53"/><circle class="cls-2" cx="8.24" cy="44.67" r="2.53"/><rect class="cls-2" x="6.34" y="38.33" width="13" height="3.49" transform="translate(-24.58 20.82) rotate(-45.01)"/><rect class="cls-2" x="14.5" y="25.3" width="3.49" height="22.68"/><rect class="cls-2" x="14.52" y="25.29" width="3.49" height="22.71" transform="translate(-21.14 22.23) rotate(-44.99)"/><rect class="cls-2" x="4.93" y="34.95" width="22.45" height="3.49" transform="translate(-0.08 0.03) rotate(-0.12)"/><line class="cls-3" x1="38.49" y1="10.3" x2="22.88" y2="29.54"/><polyline class="cls-3" points="37.65 1 18.31 25 16.01 38.25 28.21 33.38 47.74 9.13"/><path class="cls-4" d="M17,32.82a3.88,3.88,0,0,1,2.93.57,3.54,3.54,0,0,1,1.58,2.68L16,38.25Z"/><path class="cls-5" d="M19.11,24.67a15.65,15.65,0,0,0,3.77,4.87,18.57,18.57,0,0,0,5.7,2.94"/><path class="cls-5" d="M34.22,4.32a16.7,16.7,0,0,0,4,5.15,19.8,19.8,0,0,0,6.11,3.09"/><path class="cls-3" d="M48,8.8a18.54,18.54,0,0,1-5.7-2.93A33.51,33.51,0,0,1,37.64,1S42,2.18,43.87,3.68A24.51,24.51,0,0,1,48,8.8Z"/></g></g></svg>