<svg xmlns="http://www.w3.org/2000/svg" viewBox="0 0 51.04 49.47"><defs><style>.cls-1{fill:none;}.cls-2{fill:#fff;}</style></defs><g id="Calque_2" data-name="Calque 2"><g id="Calque_1-2" data-name="Calque 1"><polyline class="cls-1" points="6.8 0 51.04 0 51.04 49.47 0 49.47 0 0 6.8 0"/><path class="cls-2" d="M21.72,41.87a7.19,7.19,0,0,0-1.81-4.11c-2.8-2.95-6.68-7.1-7.49-8.27-1.29-1.88-3.16-4.88.28-3.72,2.25.76,7,5.31,7.57,4.16,1-1.86-2.86-12.53-3.6-14.67-.82-2.41-.19-3.43-.19-3.43s1.39-1,2.74,1.72c2.09,4.15,4.45,9.33,4.45,9.33s.41-12,.51-13.62.05-2.75,1.61-2.75,1.53,1.24,1.53,3.3,1.16,13.81,1.16,13.81L31.21,11s.64-1.87,2-1.61,1.12,2.23,1.12,2.23L32.64,24.84l4.1-7.15s1.17-1.71,2.13-1.2,0,2.72,0,2.72-3.83,8.57-3.7,9.67,0,2.88.24,5.53c.24,2.82-1.8,5.47-2.08,7.61,0,0-.95,1-4,.94A47.65,47.65,0,0,1,21.72,41.87Z"/></g></g></svg>