<svg viewBox="0 0 24 24" xmlns="http://www.w3.org/2000/svg" width="24" height="24" xmlns:xlink="http://www.w3.org/1999/xlink" class="svg_icon"><svg xmlns="http://www.w3.org/2000/svg" viewBox="0 0 24 24">
    <path d="M19.6354 4c.207 0 .375.168.375.375v6.2604a.375.375 0 0 1-.375.375H13.375a.375.375 0 0 1-.375-.375V9.1538a.375.375 0 0 1 .393-.3746l3.1726.152C15.5783 7.4645 13.9028 6.5 12 6.5c-3.0401 0-5.5 2.4604-5.5 5.5 0 3.0401 2.4604 5.5 5.5 5.5a5.4795 5.4795 0 0 0 3.6346-1.3705.3743.3743 0 0 1 .512.017l1.0615 1.0616c.1523.1523.1447.4005-.015.5448C15.8187 18.9942 13.9976 19.75 12 19.75c-4.2783 0-7.7469-3.4666-7.75-7.7442C4.2469 7.7352 7.7294 4.25 12 4.25c2.3647 0 4.4817 1.0594 5.9032 2.7292l-.124-2.5862A.375.375 0 0 1 18.1538 4h1.4816z" fill="#000" fill-rule="nonzero"/>
  </svg></svg>