<svg viewBox="0 0 24 24" xmlns="http://www.w3.org/2000/svg" width="24" height="24" xmlns:xlink="http://www.w3.org/1999/xlink" class="svg_icon"><svg xmlns="http://www.w3.org/2000/svg" viewBox="0 0 66 66">
 <defs>
  <radialGradient id="svg_8" spreadMethod="pad" cx="0.5" cy="0.32513">
   <stop stop-color="#7791ef" stop-opacity="0.99219" offset="0"/>
   <stop stop-color="#3c3cfc" offset="1"/>
  </radialGradient>
  <linearGradient id="svg_10" x1="0" y1="0" x2="1" y2="0">
   <stop offset="0" stop-color="#333333" stop-opacity="0.99609"/>
   <stop offset="1" stop-opacity="0.99609" stop-color="#fddb8c"/>
  </linearGradient>
 </defs>
 <g>
  <g opacity="0.8" id="svg_5">
   <circle id="svg_1" r="27.90625" cy="33" cx="33" stroke-width="0" stroke="#AAAAAA" fill="url(#svg_8)"/>
   <g id="svg_7">
    <path d="m38.2478,36.06121c-0.43732,0 -0.87463,0 -1.31195,0c-0.43731,0 -0.87463,0 -2.6239,0c-0.87463,0 -1.74926,0 -2.18658,0c-0.43732,0 -2.19828,0.33684 -2.6239,0.43732c-0.95172,0.22467 -1.27098,0.48253 -1.74927,0.87463c-1.21939,0.99965 -1.44004,1.00272 -1.74926,1.31195c-0.30923,0.30923 -0.21265,0.79756 -0.43732,1.74926c-0.10048,0.42562 0.16736,0.90792 0,1.31195c-0.23668,0.57138 -0.43732,0.87463 -0.43732,1.74926c0,0.43732 0.12809,0.56541 0.43732,0.87463c0.30923,0.30923 0.12809,0.56541 0.43732,0.87463c0.30923,0.30923 1.32364,0.77415 1.74926,0.87463c0.95171,0.22467 0.69349,0.69349 1.31195,1.31195c0.30923,0.30923 0.90791,-0.16736 1.31195,0c0.57138,0.23668 0.56541,0.56541 0.87463,0.87463c0.30923,0.30923 0.56541,0.12809 0.87463,0.43732c0.61846,0.61846 -0.10048,1.32365 0,1.74926c0.22467,0.95171 0.43732,1.31195 0.43732,2.6239c0,0.87463 0,2.18658 0,3.06121c0,0.43732 0,1.31195 0,2.6239c0,0.43732 0.12809,1.00272 0.43732,1.31195c0.30922,0.30923 1.31195,0 1.74926,0c0.87463,0 1.31195,0 1.74927,0c0.43731,0 0.6065,-0.40129 1.74926,-0.87464c0.40403,-0.16736 0.74057,-0.20064 1.31195,-0.43732c0.40403,-0.16736 0.63795,-0.74057 0.87463,-1.31195c0.16736,-0.40403 0.15712,-2.20917 0.43732,-3.93585c0.22151,-1.36505 0.43732,-2.18658 0.43732,-2.6239c0,-0.43732 -0.12928,-0.88101 0,-2.18658c0.21973,-2.21904 0.43732,-3.49853 0.43732,-3.93585c0,-0.43732 0,-0.87463 0,-1.74927c0,-1.31195 0.16736,-1.78254 0,-2.18658c-0.23668,-0.57138 -1.00272,-0.56541 -1.31195,-0.87463c-0.30923,-0.30922 -0.43732,-0.43731 -1.74926,-1.74926l0,-0.87463l-0.43732,0l0,-0.43732" id="svg_2" stroke="#007f00" fill="#44b544" stroke-width="0"/>
    <path d="m5.66773,37.0452c1.12973,-0.3645 0.87463,-0.2187 1.74927,-0.656c0.87463,-0.4373 1.34081,-0.8211 2.18658,-1.3119c1.36372,-0.7915 1.44002,-1.4401 1.74922,-1.7493c0.3093,-0.3092 0.1281,-0.5654 0.4374,-0.8746c0.6184,-0.6185 0.8746,-0.4374 1.7492,-1.312c0.8747,-0.8746 1.0027,-1.0027 1.312,-1.3119c0.6184,-0.6185 0.1281,-1.0028 0.4373,-1.312c0.3092,-0.3092 0,-0.8746 0,-1.3119c0,-0.4374 0,-1.312 0,-1.7493c0,-0.4373 0.2009,-1.7727 0,-2.6239c-0.2247,-0.9517 -0.1281,-1.4401 -0.4373,-1.7493c-0.3093,-0.3092 -0.7073,-1.3452 -0.8746,-1.7492c-0.2367,-0.5714 -0.8747,-0.8747 -0.8747,-1.312c0,-0.4373 -0.4373,-0.4373 -0.4373,-0.8746l0,-0.4374l-1.2026,-0.8746c-3.7901,5.8674 -6.81486,11.6253 -5.79446,21.2099l-0.00001,0z" id="svg_3" stroke="#007f00" fill="#44b544" stroke-width="0"/>
    <path d="m52.2419,13.1021c-0.4373,0.4373 -1.3495,0.8398 -2.1866,1.0933c-3.0182,0.9138 -3.2212,2.2857 -3.4985,2.6239c-1.4137,1.7245 -2.4979,1.3039 -4.8105,1.7493c-0.4294,0.0827 -0.4373,0.4373 -0.8746,0.4373c-0.4373,0 -0.8746,0 -1.312,0c-0.4373,0 -1.3119,0 -1.7492,0c-0.4373,0 -1.3453,-0.27 -1.7493,-0.4373c-0.5714,-0.2367 -0.5654,-0.5654 -0.8746,-0.8747c-0.3092,-0.3092 -0.5654,-0.1281 -0.8746,-0.4373c-0.3093,-0.3092 -0.8747,0 -1.312,0c-0.4373,0 -0.9079,-0.1673 -1.3119,0c-0.5714,0.2367 -0.3033,1.0753 -0.8747,1.312c-0.404,0.1673 -0.1281,0.5654 -0.4373,0.8746c-0.3092,0.3092 -0.4373,0.4373 -0.4373,0.8746c0,0.4373 0,0.8747 0,1.312c0,0.4373 0.0333,0.7073 0.4373,0.8746c0.5714,0.2367 0.638,0.7406 0.8746,1.312c0.1674,0.404 0.4374,0.4373 0.4374,0.8746c0,0.4373 0,0.8746 0,1.3119c0,0.4374 -0.4374,0.4374 -0.8747,0.8747c-1.3119,1.3119 -1.9499,1.1779 -2.1865,1.7492c-0.1674,0.4041 -1.0753,0.3033 -1.312,0.8747c-0.1674,0.404 0,0.8746 0.4373,0.8746c0.4373,0 0.8746,0.4373 1.312,0.4373c0.4373,0 0.8746,-0.4373 1.3119,-0.4373c0.4373,0 0.5654,-0.1281 0.8746,-0.4373c0.6185,-0.6185 1.312,0 1.7493,0c0.4373,0 0.397,-0.6543 2.1866,-0.8747c0.434,-0.0534 2.8801,-0.2561 3.4985,-0.8746c0.3093,-0.3092 0.8343,-0.6543 2.6239,-0.8746c0.4341,-0.0535 0.8747,0 1.312,0c0.4373,0 0.8746,0.4373 0.8746,0.8746c0,0.4373 0.4373,0.4373 0.4373,0.8746c0,0.4374 0.5654,2.3147 0.8746,2.6239c0.3093,0.3093 0.1281,1.0028 0.4374,1.312c0.3092,0.3092 2.1095,2.8366 3.0612,3.0612c0.4256,0.1005 0.8215,0.2158 2.1866,0.4373c0.4316,0.0701 1.3119,0 1.7492,0c0.4373,0 0.8864,0.1005 1.312,0c0.9517,-0.2246 1.44,-0.5654 1.7492,-0.8746c0.3093,-0.3092 0.8747,-0.4373 1.312,-0.4373c0.4373,0 0.5654,-0.5654 0.8746,-0.8746c0.3092,-0.3093 0.8746,0 1.312,0l1.0933,-0.656c1.1661,-7.7259 -2.4782,-14.1399 -7.6531,-20.5539l0,0z" id="svg_4" stroke="#007f00" fill="#44b544" stroke-width="0"/>
    <path id="svg_6" d="m10.0409,48.3061c2.1137,-0.2187 4.6647,-0.2187 6.3411,1.9679c1.1662,1.5306 1.239,3.7172 0.2186,4.5918c-2.4052,-0.8746 -5.0291,-2.6239 -6.5597,-6.5597l0,0z" stroke="#007f00" fill="#44b544" stroke-width="0"/>
   </g>
  </g>
  <rect transform="rotate(45, 16.9336, 16.9375)" ry="9" rx="9" id="svg_9" height="19.32339" width="29.34293" y="7.27574" x="2.26257" stroke-width="5" stroke="url(#svg_10)" fill="none" stroke-linecap="round"/>
  <rect id="svg_11" transform="rotate(45, 49.0664, 49.0625)" ry="9" rx="9" height="19.32339" width="29.34293" y="39.40074" x="34.39538" stroke-width="5" stroke="url(#svg_10)" fill="none" stroke-linecap="round"/>
  <line id="svg_12" y2="45.75" x2="45.75" y1="20.25" x1="20.25" stroke-linecap="round" stroke-width="5" stroke="url(#svg_10)" fill="none"/>
 </g>
</svg></svg>