<svg xmlns="http://www.w3.org/2000/svg">
<!-- All images created with SVG-edit - https://github.com/SVG-Edit/svgedit -->

<g id="add_subpath">
<svg xmlns="http://www.w3.org/2000/svg" viewBox="0 0 124 124" xmlns:xlink="http://www.w3.org/1999/xlink">
 <defs>
  <linearGradient id="svg_4" x1="0.33594" y1="0.28125" x2="1" y2="1">
   <stop offset="0" stop-color="#ffffff" stop-opacity="1"/>
   <stop offset="1" stop-color="#33a533" stop-opacity="1"/>
  </linearGradient>
 </defs>
 <g>
  <path d="m6,103l55,-87c85,33.64 -26,37.12 55,87l-110,0z" id="svg_1" fill="url(#svg_4)" stroke="#000000" stroke-width="4" stroke-dasharray="null"/>
  <g id="svg_7">
   <circle stroke-dasharray="null" stroke-width="5" stroke="#000000" fill="#ffffff" id="svg_6" r="22.63281" cy="88.5" cx="45.5"/>
   <line stroke-dasharray="null" stroke-width="7" stroke="#000000" id="svg_2" y2="104.03768" x2="45.5" y1="72.96232" x1="45.5"/>
   <line stroke-dasharray="null" stroke-width="7" stroke="#000000" id="svg_3" y2="88.5" x2="61.03768" y1="88.5" x1="29.96232"/>
  </g>
 </g>
 </svg>
</g>

<g id="close_path">
<svg viewBox="0 0 300 300" xmlns="http://www.w3.org/2000/svg" xmlns:xlink="http://www.w3.org/1999/xlink">
 <g>
  <path stroke="#000" stroke-width="15" fill="#ffc8c8" d="m121.5,40l-84,106l27,115l166,2l29,-111"/>
  <line x1="240" y1="136" x2="169.5" y2="74" stroke="#A00" stroke-width="25" fill="none"/>
  <path stroke="none" fill ="#A00" d="m158,65l31,74l-3,-50l51,-3z"/>
  <g stroke-width="15" stroke="#00f" fill="#0ff">
  <circle r="30" cy="41" cx="123"/>
  <circle r="30" cy="146" cx="40"/>
  <circle r="30" cy="260" cx="69"/>
  <circle r="30" cy="260" cx="228"/>
  <circle r="30" cy="148" cx="260"/>
  </g>
 </g>
</svg>
</g>

<g id="open_path">
<svg viewBox="0 0 300 300" xmlns="http://www.w3.org/2000/svg" xmlns:xlink="http://www.w3.org/1999/xlink">
 <g>
  <path stroke="#000" stroke-width="15" fill="#ffc8c8" d="m123.5,38l-84,106l27,115l166,2l29,-111"/>
  <line x1="276.5" y1="153" x2="108.5" y2="24" stroke="#000" stroke-width="10" fill="none"/>
  <g stroke-width="15" stroke="#00f" fill="#0ff">
   <circle r="30" cy="41" cx="123"/>
   <circle r="30" cy="146" cx="40"/>
   <circle r="30" cy="260" cx="69"/>
   <circle r="30" cy="260" cx="228"/>
   <circle r="30" cy="148" cx="260"/>
  </g>
  <g  stroke="#A00" stroke-width="15" fill="none">
   <line x1="168" y1="24" x2="210" y2="150"/>
   <line x1="210" y1="24" x2="168" y2="150"/>
  </g>
 </g>
</svg>
</g>

<g id="arrow_right">
  <svg xmlns:xlink="http://www.w3.org/1999/xlink" xmlns="http://www.w3.org/2000/svg" viewBox="0 0 25 50">
    <path stroke="#000000" fill="#000000" d="m0,0l0,50l25,-25l-25,-25z"/>
  </svg>
</g>

<g id="arrow_right_big">
  <svg xmlns:xlink="http://www.w3.org/1999/xlink" xmlns="http://www.w3.org/2000/svg" viewBox="0 0 40 50">
    <path stroke="#000000" fill="#000000" d="m0,0l0,50l25,-25l-25,-25z"/>
  </svg>
</g>

<g id="arrow_down">
  <svg viewBox="0 0 50 40" xmlns="http://www.w3.org/2000/svg" xmlns:xlink="http://www.w3.org/1999/xlink">
    <path transform="rotate(90, 26, 13)" d="m14,-12l0,50l25,-25l-25,-25z" fill="#000000" stroke="#000000"/>
  </svg>
</g>

<g id="stroke">
<svg width="50" height="50" xmlns="http://www.w3.org/2000/svg">
  <rect fill="none" stroke="#707070" stroke-width="10" x="8.625" y="8.625" width="32.75" height="32.75" id="svg_1"/>
</svg>
</g>

<g id="opacity">
<svg width="50" height="50" xmlns="http://www.w3.org/2000/svg">
 <defs>
  <linearGradient y2="0.1" x2="0.9" y1="0.9" x1="0.1" id="svg_7">
   <stop stop-color="#000000" offset="0"/>
   <stop stop-opacity="0" stop-color="#000000" offset="1"/>
  </linearGradient>
 </defs>
  <rect id="svg_4" height="50" width="50" y="0" x="0" fill="#ffffff"/>
  <rect id="svg_1" height="25" width="25" y="0" x="0" fill="#a0a0a0"/>
  <rect id="svg_2" height="25" width="25" y="25" x="25" fill="#a0a0a0"/>
  <rect id="svg_3" height="50" width="50" y="0" x="0" stroke-width="2" stroke="url(#svg_7)" fill="url(#svg_7)"/>
 </svg>
</g>

<g id="save">
  <svg xmlns:xlink="http://www.w3.org/1999/xlink" xmlns="http://www.w3.org/2000/svg" viewBox="0 0 24 24">
   <defs>
    <linearGradient y2="0" x2="1" y1="0" x1="0" id="svg_41">
     <stop stop-opacity="1" stop-color="#727272" offset="0"/>
     <stop stop-opacity="1" stop-color="#d6d6d6" offset="1"/>
    </linearGradient>
    <linearGradient y2="0.875" x2="0.21484" y1="0.00391" x1="0.04297" id="svg_46">
     <stop stop-opacity="1" stop-color="#81bbf4" offset="0"/>
     <stop stop-opacity="1" stop-color="#376eb7" offset="1"/>
    </linearGradient>
   </defs>
     <path stroke="#202020" fill="#e0e0e0" id="svg_21" d="m1.51669,22.3458l21.13245,-0.10111l0,-6.06673l-2.62892,-9.80789l-16.27907,0.10111l-2.32558,9.20121l0.10111,6.67341z"/>
     <rect stroke="#efefef" fill="url(#svg_41)" id="svg_32" height="4.75108" width="19.21031" y="16.58227" x="2.42667"/>
     <path stroke="#ffffff" fill="#c0c0c0" id="svg_42" d="m4.55005,11.12235l0.70779,-2.83114l13.04348,0l0.70779,3.13448c-0.70779,2.52781 -4.04479,3.84227 -7.17897,3.84227c-2.72977,0 -6.37007,-1.41557 -7.28008,-4.1456z"/>
    <path stroke="#285582" fill="url(#svg_46)" id="svg_45" d="m7.14286,9.74903l5.21236,5.79151l5.50193,-5.88803l-2.50965,-0.09653l0,-2.79923c0,-2.3166 -2.3166,-5.59846 -6.56371,-5.59846c-4.05405,0 -6.27413,3.37838 -6.56371,6.75676c0.48263,-1.5444 2.7027,-4.53668 4.44015,-4.44015c2.12355,-0.09653 2.79923,1.64093 2.79923,3.37838l0.09653,2.79923l-2.41313,0.09653z"/>
  </svg>
</g>

<g id="export">
  <svg width="24" height="24" xmlns="http://www.w3.org/2000/svg">
   <defs>
    <linearGradient id="svg_5" x1="0.77734" y1="0.51172" x2="0.09375" y2="0.53516">
     <stop offset="0" stop-color="#81bbf4"/>
     <stop offset="1" stop-color="#376eb7"/>
    </linearGradient>
   </defs>
   <g>
    <rect x="7.22599" y="1.3603" width="15.76465" height="21.51735" id="svg_55" fill="#eaeaea" stroke="#606060"/>
    <circle fill="#31abed" stroke-width="0.5" cx="17.4206" cy="11.1278" r="4.69727" id="svg_3"/>
    <path fill="#ffcc00" stroke-width="0.5" d="m9.67673,20.24302l7.38701,-6.80778l2.91746,6.71323" id="svg_4"/>
    <rect fill="#ff5555" stroke-width="0.5" x="9.5385" y="2.94914" width="5.74652" height="5.74652" id="svg_2"/>
    <path d="m6.13727,17.94236l5.77328,-4.91041l-5.86949,-5.1832l-0.09622,2.36426l-4.64805,-0.06751l-0.04665,5.54694l4.79093,-0.02342l0.09623,2.27334z" id="svg_45" fill="url(#svg_5)" stroke="#285582"/>
   </g>
  </svg>
</g>

<g id="open">
<svg viewBox="0 0 22 22" xmlns="http://www.w3.org/2000/svg" xmlns:xlink="http://www.w3.org/1999/xlink">
 <defs>
  <linearGradient y2="0.91406" x2="0.65234" y1="0.14063" x1="0.42578" id="svg_76">
   <stop stop-opacity="1" stop-color="#81bbf4" offset="0"/>
   <stop stop-opacity="1" stop-color="#376eb7" offset="1"/>
  </linearGradient>
 </defs>
  <rect x="1.65" y="3.75" width="9.8" height="16.72712" id="svg_98" fill="#c0c0c0" stroke="#606060"/>
  <rect stroke="none" fill="#a0a0a0" id="svg_88" height="14.17459" width="6.39585" y="4.9758" x="2.89542"/>
  <path d="m18.62576,4.54365l0,6.91443l-9.9395,0l-0.08643,-10.11236l6.828,0l3.19792,3.19793z" id="svg_99" fill="#e0e0e0" stroke="#404040"/>
  <path d="m2.95,20.53644l1.65,-12.03644l16.2,0l-1.5,12l-16.35,0.03643z" id="svg_97" fill="url(#svg_76)" stroke="#285582"/>
  <line fill="none" stroke="#606060" id="svg_89" y2="4.28436" x2="13.95851" y1="4.28436" x1="10.32844"/>
  <line fill="none" stroke="#606060" id="svg_91" y2="6.53155" x2="14.82282" y1="6.53155" x1="10.32844"/>
  <path stroke="none" fill="#ffffff" id="svg_100" d="m15.25895,1.95069l-0.00401,2.85225l2.89558,0.00004l-2.89157,-2.85229z"/>
</svg>
</g>

<g id="import">
<svg viewBox="0 0 24 24" xmlns="http://www.w3.org/2000/svg" xmlns:xlink="http://www.w3.org/1999/xlink">
 <defs>
  <linearGradient y2="0.875" x2="0.21484" y1="0.00391" x1="0.04297" id="svg_46_import">
   <stop stop-opacity="1" stop-color="#81f4bb" offset="0"/>
   <stop stop-opacity="1" stop-color="#37b76e" offset="1"/>
  </linearGradient>
 </defs>
 <rect x="2.42792" y="1.6692" width="18" height="21" id="svg_55" fill="#eaeaea" stroke="#606060"/>
    <path stroke="#285582" fill="url(#svg_46_import)" id="svg_45" d="m7.14286,12.74903l5.21236,5.79151l5.50193,-5.88803l-2.50965,-0.09653l0,-2.79923c0,-2.3166 -2.3166,-5.59846 -6.56371,-5.59846c-4.05405,0 -6.27413,3.37838 -6.56371,6.75676c0.48263,-1.5444 2.7027,-4.53668 4.44015,-4.44015c2.12355,-0.09653 2.79923,1.64093 2.79923,3.37838l0.09653,2.79923l-2.41313,0.09653z"/>
</svg>
</g>

<g id="docprops">
  <svg xmlns:xlink="http://www.w3.org/1999/xlink" xmlns="http://www.w3.org/2000/svg" viewBox="0 0 24 24">
   <defs>
    <linearGradient y2="1" x2="1" y1="0.5" x1="1" id="svg_53">
     <stop stop-opacity="1" stop-color="#606060" offset="0"/>
     <stop stop-opacity="0" stop-color="#5e5e5e" offset="1"/>
    </linearGradient>
   </defs>
    <rect stroke="#606060" fill="#eaeaea" id="svg_55" height="21" width="18" y="1.6692" x="2.42792"/>
    <line fill="none" stroke="#a0a0a0" id="svg_56" y2="4.37757" x2="14.89023" y1="4.37757" x1="6.696"/>
    <line fill="none" stroke="#a0a0a0" id="svg_57" y2="7.10804" x2="12.92026" y1="7.10804" x1="6.6948"/>
    <line fill="none" stroke="#a0a0a0" id="svg_58" y2="9.84241" x2="15.64716" y1="9.84241" x1="6.6942"/>
    <line fill="none" stroke="#a0a0a0" id="svg_59" y2="12.36585" x2="13.21805" y1="12.36585" x1="6.69691"/>
    <line fill="none" stroke="#a0a0a0" id="svg_60" y2="15.06507" x2="14.43591" y1="15.06507" x1="6.69691"/>
    <line fill="none" stroke="#a0a0a0" id="svg_61" y2="17.84241" x2="13.36979" y1="17.84241" x1="6.69691"/>
    <g id="svg_54">
     <path transform="rotate(-45, 12.5448, 11.7085)" stroke="none" fill="#606060" id="svg_31" d="m11.24329,8.73944l0,2.79974l2.53499,0.07777l0,-2.95528c1.78134,0.07777 2.26093,1.39987 2.12391,2.95528c-0.06851,1.63318 -1.30175,3.49967 -3.49418,3.26636c-2.19242,-0.31108 -2.87755,-1.39987 -3.15161,-2.72197c-0.27406,-1.39987 0.41108,-3.34413 1.98689,-3.4219z"/>
     <rect opacity="0.95" transform="rotate(-45, 16.2485, 15.1732)" stroke="none" fill="url(#svg_53)" id="svg_50" height="4.85445" width="2.57974" y="12.746" x="15.04047"/>
    </g>
  </svg>
</g>

<g id="link_controls">
<svg viewBox="0 0 24 24" xmlns:xlink="http://www.w3.org/1999/xlink" xmlns="http://www.w3.org/2000/svg">
  <path stroke-width="2" id="svg_102" d="m9.875,23c-2,-4.25 -1.6875,-7.375 1.6875,-10.5c3.375,-3.125 7.5625,-2.75 11.0625,2" stroke="#8dd35f" fill="none"/>
  <line fill="none" stroke="#606060" id="svg_109" y2="4" x2="19" y1="19" x1="4"/>
  <circle stroke="#0000ff" fill="#00ffff" id="svg_111" r="2.17578" cy="11.5" cx="11.5"/>
  <circle stroke-width="0.5" id="svg_121" stroke="#0000ff" fill="#00ffff" r="2.26172" cy="4" cx="19"/>
  <circle id="svg_123" stroke-width="0.5" stroke="#0000ff" fill="#00ffff" r="2.26172" cy="19" cx="4"/>
</svg>
</g>
<g id="ungroup">
<svg viewBox="0 0 16 16" xmlns="http://www.w3.org/2000/svg" xmlns:xlink="http://www.w3.org/1999/xlink">
 <defs>
  <linearGradient id="svg_90" x1="0" y1="0" x2="1" y2="1">
   <stop offset="0" stop-color="#ccddff" stop-opacity="1"/>
   <stop offset="1" stop-color="#789fed" stop-opacity="1"/>
  </linearGradient>
  <linearGradient id="svg_92" x1="0" y1="0" x2="1" y2="1">
   <stop offset="0" stop-color="#70a1e5" stop-opacity="1"/>
   <stop offset="1" stop-color="#4b6baf" stop-opacity="1"/>
  </linearGradient>
 </defs>
  <rect x="2.5" y="2.5" width="8" height="7" fill="url(#svg_90)" stroke="url(#svg_92)" id="svg_87"/>
  <rect x="5.5" y="6.5" width="8" height="7" id="svg_84" fill="#7399d6" stroke="url(#svg_92)"/>
  <rect x="9.5" y="1.5" width="2" height="2" fill="#a0a0a0" stroke="#555555" id="svg_79"/>
  <rect x="1.5" y="8.5" width="2" height="2" fill="#a0a0a0" stroke="#555555" id="svg_83"/>
  <rect x="1.5" y="1.5" width="2" height="2" id="svg_78" fill="#a0a0a0" stroke="#555555"/>
  <rect id="svg_93" x="12.5" y="5.5" width="2" height="2" fill="#a0a0a0" stroke="#555555"/>
  <rect id="svg_94" x="12.5" y="12.5" width="2" height="2" fill="#a0a0a0" stroke="#555555"/>
  <rect id="svg_95" x="4.5" y="12.5" width="2" height="2" fill="#a0a0a0" stroke="#555555"/>
  <rect id="svg_96" x="4.5" y="5.5" width="2" height="2" fill="#a0a0a0" stroke="#555555"/>
</svg>
</g>

<g id="unlink_use">
<svg width="222" height="222" xmlns="http://www.w3.org/2000/svg">
  <path id="svg_1" d="m93.75,118.44922c-4.5,13.58447 -14.66553,11.5 -28.25,11.5l-34,0c-13.58447,0 -24.5,-7.16553 -24.5,-21.5c0,-14.33447 10.91553,-20.5 24.5,-20.5l34,0c13.58447,0 19.75,-2.33447 26.5,10.75" stroke-width="13" stroke="#3f3f3f" fill="none"/>
  <g id="svg_11">
   <line id="svg_4" y2="65.94563" x2="83.07683" y1="28.27895" x1="45.41017" stroke-linecap="round" stroke-width="8" stroke="#007fff" fill="none"/>
   <line id="svg_5" y2="15.01293" x2="109.41467" y1="65.94638" x1="109.41467" stroke-linecap="round" stroke-width="8" stroke="#007fff" fill="none"/>
   <line id="svg_6" y2="29.31928" x2="177.58937" y1="65.94638" x1="140.96227" stroke-linecap="round" stroke-width="8" stroke="#007fff" fill="none"/>
  </g>
  <g id="svg_12" transform="rotate(-180, 108, 172.111)">
   <line y2="190.94563" x2="79.57683" y1="153.27895" x1="41.91017" stroke-linecap="round" stroke-width="8" stroke="#007fff" fill="none" id="svg_13"/>
   <line y2="140.01293" x2="105.91467" y1="190.94638" x1="105.91467" stroke-linecap="round" stroke-width="8" stroke="#007fff" fill="none" id="svg_14"/>
   <line y2="154.31928" x2="174.08937" y1="190.94638" x1="137.46227" stroke-linecap="round" stroke-width="8" stroke="#007fff" fill="none" id="svg_15"/>
  </g>
  <path transform="rotate(-180, 172.125, 108.926)" id="svg_2" d="m215.5,118.44901c-4.5,13.58499 -14.6655,11.5 -28.25,11.5l-34,0c-13.5845,0 -24.5,-7.16501 -24.5,-21.5c0,-14.3343 10.9155,-20.4998 24.5,-20.4998l34,0c13.5845,0 19.75,-2.3345 26.5,10.75" stroke-width="13" stroke="#3f3f3f" fill="none"/>
</svg>
</g>

<g id="width">
  <svg width="100" height="100" xmlns="http://www.w3.org/2000/svg">
    <path id="svg_6" d="m19,42.5l-7.5,7.5l7.5,7.5l0,-15zm0,7.5l62,0l0,-7.5l7.5,7.5l-7.5,7.5l0,-7.5" stroke-width="8" stroke="#000000" fill="#000000"/>
  </svg>
</g>

<g id="height">
  <svg width="100" height="100" xmlns="http://www.w3.org/2000/svg">
    <path transform="rotate(90, 50, 50)" fill="#000000" stroke="#000000" stroke-width="8" d="m19,42.5l-7.5,7.5l7.5,7.5l0,-15zm0,7.5l62,0l0,-7.5l7.5,7.5l-7.5,7.5l0,-7.5" id="svg_6"/>
  </svg>
</g>

<g id="c_radius">
<svg width="20" height="20" xmlns="http://www.w3.org/2000/svg">
  <rect stroke="#404040" fill="none" stroke-width="0.5" x="2.37501" y="2.4375" width="43.9375" height="43.9375" id="svg_1" rx="13" ry="13"/>
  <path fill="none" stroke="#000000" d="m2.43674,15.88952l13.73722,0l0.08978,-13.46483m0.08978,14.08493" id="svg_3"/>
  <line fill="none" stroke="#000000" x1="16.35107" y1="15.88934" x2="5.20504" y2="5.20504" id="svg_4" stroke-dasharray="2,2"/>
</svg>
</g>

<g id="fontsize">
<svg width="50" height="50" xmlns="http://www.w3.org/2000/svg">
  <text fill="#606060" stroke="none" x="14.451" y="41.4587" id="svg_2" font-size="26" font-family="serif" text-anchor="middle">T</text>
  <text fill="#000000" stroke="none" x="28.853" y="41.8685" font-size="52" font-family="serif" text-anchor="middle" xml:space="preserve" id="svg_3">T</text>
</svg>
</g>

<g id="eye">
<svg xmlns:xlink="http://www.w3.org/1999/xlink" xmlns="http://www.w3.org/2000/svg" viewBox="0 0 17 17">
 <defs>
  <linearGradient y2="0.79688" x2="0.5625" y1="0.19141" x1="0.42969" id="svg_91">
   <stop stop-opacity="1" stop-color="#d3a16b" offset="0"/>
   <stop stop-opacity="1" stop-color="#a37c53" offset="1"/>
  </linearGradient>
 </defs>
  <path stroke="none" fill="url(#svg_91)" id="svg_9" d="m0.12852,8.18338c3.59931,-7.71208 13.19749,-7.36932 16.75236,0.08569c-3.02165,7.5407 -13.59741,7.66924 -16.75236,-0.08569z"/>
  <path id="svg_76" stroke="none" fill="#ffffff" d="m0.33033,8.2557c3.5173,-4.97159 12.89675,-4.75063 16.37062,0.05524c-2.95279,4.86111 -13.28756,4.94397 -16.37062,-0.05524z"/>
  <circle stroke="none" fill="#4f92c1" id="svg_88" r="3.08008" cy="7.71116" cx="8.45861"/>
  <circle stroke="none" fill="#000000" id="svg_89" r="1.27539" cy="7.6539" cx="8.43159"/>
 </svg>
</g>

<g id="no_color">
  <svg xmlns:xlink="http://www.w3.org/1999/xlink" xmlns="http://www.w3.org/2000/svg" viewBox="0 0 24 24">
    <line fill="none" stroke="#d40000" id="svg_90" y2="24" x2="24" y1="0" x1="0"/>
    <line id="svg_92" fill="none" stroke="#d40000" y2="24" x2="0" y1="0" x1="24"/>
  </svg>
</g>

<g id="ok">
  <svg xmlns:xlink="http://www.w3.org/1999/xlink" xmlns="http://www.w3.org/2000/svg" viewBox="0 0 24 24">
   <defs>
    <linearGradient y2="0.65625" x2="0.94141" y1="0.43359" x1="0.42969" id="svg_106">
     <stop stop-opacity="1" stop-color="#38ff45" offset="0"/>
     <stop stop-opacity="1" stop-color="#127c0c" offset="1"/>
    </linearGradient>
   </defs>
    <path transform="rotate(45, 12, 10)" stroke="#005500" fill="url(#svg_106)" id="svg_101" d="m7.9,15.9l4.9,-0.05l0,-13.75l3.8,0l0,17.6l-8.7,0l0,-3.8z"/>
  </svg>
</g>

<g id="cancel">
<svg xmlns:xlink="http://www.w3.org/1999/xlink" xmlns="http://www.w3.org/2000/svg" viewBox="0 0 24 24">
 <defs>
  <linearGradient y2="0.65625" x2="0.94141" y1="0.43359" x1="0.42969" id="svg_9">
   <stop stop-opacity="1" stop-color="#ff3838" offset="0"/>
   <stop stop-opacity="1" stop-color="#7a0c0c" offset="1"/>
  </linearGradient>
 </defs>
  <path stroke="#550000" fill="url(#svg_9)" id="svg_101" d="m2.10526,10.52632l7.36842,0l0,-7.36842l3.68421,0l0,7.36842l7.36842,0l0,3.68421l-7.36842,0l0,7.36842l-3.68421,0l0,-7.36842l-7.36842,0l0,-3.68421z" transform="rotate(45, 11.3, 12.3)"/>
 </svg>
</g>

<g id="warning">
<svg xmlns:xlink="http://www.w3.org/1999/xlink" xmlns="http://www.w3.org/2000/svg" viewBox="0 0 24 24">
 <defs>
  <linearGradient y2="0.98047" x2="0.57813" y1="0.44922" x1="0.56641" id="svg_110">
   <stop stop-opacity="1" stop-color="#ffff00" offset="0"/>
   <stop stop-opacity="1" stop-color="#9e9e00" offset="1"/>
  </linearGradient>
 </defs>
  <path d="m1.42857,21.55559l10.71429,-19.36489l10.71429,19.20352l-21.42857,0.16137z" id="svg_44" fill="url(#svg_110)" stroke="#916d1f" stroke-width="2"/>
  <path stroke="none" fill="#000000" id="svg_103" d="m11.98371,14.68571c-0.57143,-3.82857 -1.82857,-6.4 0.11429,-6.4c2.11429,0 0.74286,2.57143 0.11429,6.4l-0.22857,0z"/>
  <circle stroke="none" fill="#000000" id="svg_104" r="1.17578" cy="17.37143" cx="12.14308"/>
 </svg>
</g>

<g id="node_delete">
<svg width="24" height="24" xmlns="http://www.w3.org/2000/svg">
  <path stroke-width="2" id="svg_102" d="m4.1953,19.42128c15.49391,-15.53349 -0.21065,0.1581 15.61084,-15.57944" stroke="#8dd35f" fill="none"/>
  <circle stroke-width="0.5" id="svg_121" stroke="#0000ff" fill="#00ffff" r="2.26172" cy="4" cx="19.75"/>
  <circle id="svg_123" stroke-width="0.5" stroke="#0000ff" fill="#00ffff" r="2.26172" cy="19.40299" cx="4.0653"/>
  <circle id="svg_7" stroke-width="0.5" stroke="#0000ff" fill="#00ffff" r="2.26172" cy="11.625" cx="11.9375"/>
  <g transform="rotate(-45.291072845458984 9.81157112121582,9.244086265563965) " id="svg_6">
   <line stroke-linecap="round" id="svg_4" y2="9.45264" x2="15.14996" y1="9.3943" x1="4.47318" stroke-dasharray="null" stroke-width="2" stroke="#ff0000" fill="none"/>
   <line stroke-linecap="round" id="svg_5" y2="14.46579" x2="9.66571" y1="4.02238" x1="9.7824" stroke-dasharray="null" stroke-width="2" stroke="#ff0000" fill="none"/>
  </g>
</svg>
</g>

<g id="node_clone">
<svg width="24" height="24" xmlns="http://www.w3.org/2000/svg">
  <path stroke-width="2" id="svg_102" d="m4.1953,19.42128c15.49391,-15.53349 -0.21065,0.1581 15.61084,-15.57944" stroke="#8dd35f" fill="none"/>
  <circle stroke-width="0.5" id="svg_121" stroke="#0000ff" fill="#00ffff" r="2.26172" cy="4" cx="19.75"/>
  <circle id="svg_123" stroke-width="0.5" stroke="#0000ff" fill="#00ffff" r="2.26172" cy="19.40299" cx="4.0653"/>
  <circle id="svg_7" stroke-width="0.5" stroke="#0000ff" fill="#00ffff" r="2.26172" cy="11.625" cx="11.9375"/>
  <line stroke-linecap="round" id="svg_5" y2="14.46579" x2="9.66571" y1="4.02238" x1="9.7824" stroke-dasharray="null" stroke-width="2" stroke="#0000ff" fill="#0000ff"/>
  <line stroke-linecap="round" id="svg_4" y2="9.45264" x2="15.14996" y1="9.3943" x1="4.47318" stroke-dasharray="null" stroke-width="2" stroke="#0000ff" fill="#0000ff"/>
</svg>
</g>

<g id="globe_link">
<svg width="66" height="66" xmlns="http://www.w3.org/2000/svg">
 <defs>
  <radialGradient id="svg_8" spreadMethod="pad" cx="0.5" cy="0.32513">
   <stop stop-color="#7791ef" stop-opacity="0.99219" offset="0"/>
   <stop stop-color="#3c3cfc" offset="1"/>
  </radialGradient>
  <linearGradient id="svg_10" x1="0" y1="0" x2="1" y2="0">
   <stop offset="0" stop-color="#333333" stop-opacity="0.99609"/>
   <stop offset="1" stop-opacity="0.99609" stop-color="#666666"/>
  </linearGradient>
 </defs>
 <g>
  <g opacity="0.8" id="svg_5">
   <circle id="svg_1" r="27.90625" cy="33" cx="33" stroke-width="0" stroke="#AAAAAA" fill="url(#svg_8)"/>
   <g id="svg_7">
    <path d="m38.2478,36.06121c-0.43732,0 -0.87463,0 -1.31195,0c-0.43731,0 -0.87463,0 -2.6239,0c-0.87463,0 -1.74926,0 -2.18658,0c-0.43732,0 -2.19828,0.33684 -2.6239,0.43732c-0.95172,0.22467 -1.27098,0.48253 -1.74927,0.87463c-1.21939,0.99965 -1.44004,1.00272 -1.74926,1.31195c-0.30923,0.30923 -0.21265,0.79756 -0.43732,1.74926c-0.10048,0.42562 0.16736,0.90792 0,1.31195c-0.23668,0.57138 -0.43732,0.87463 -0.43732,1.74926c0,0.43732 0.12809,0.56541 0.43732,0.87463c0.30923,0.30923 0.12809,0.56541 0.43732,0.87463c0.30923,0.30923 1.32364,0.77415 1.74926,0.87463c0.95171,0.22467 0.69349,0.69349 1.31195,1.31195c0.30923,0.30923 0.90791,-0.16736 1.31195,0c0.57138,0.23668 0.56541,0.56541 0.87463,0.87463c0.30923,0.30923 0.56541,0.12809 0.87463,0.43732c0.61846,0.61846 -0.10048,1.32365 0,1.74926c0.22467,0.95171 0.43732,1.31195 0.43732,2.6239c0,0.87463 0,2.18658 0,3.06121c0,0.43732 0,1.31195 0,2.6239c0,0.43732 0.12809,1.00272 0.43732,1.31195c0.30922,0.30923 1.31195,0 1.74926,0c0.87463,0 1.31195,0 1.74927,0c0.43731,0 0.6065,-0.40129 1.74926,-0.87464c0.40403,-0.16736 0.74057,-0.20064 1.31195,-0.43732c0.40403,-0.16736 0.63795,-0.74057 0.87463,-1.31195c0.16736,-0.40403 0.15712,-2.20917 0.43732,-3.93585c0.22151,-1.36505 0.43732,-2.18658 0.43732,-2.6239c0,-0.43732 -0.12928,-0.88101 0,-2.18658c0.21973,-2.21904 0.43732,-3.49853 0.43732,-3.93585c0,-0.43732 0,-0.87463 0,-1.74927c0,-1.31195 0.16736,-1.78254 0,-2.18658c-0.23668,-0.57138 -1.00272,-0.56541 -1.31195,-0.87463c-0.30923,-0.30922 -0.43732,-0.43731 -1.74926,-1.74926l0,-0.87463l-0.43732,0l0,-0.43732" id="svg_2" stroke="#007f00" fill="#44b544" stroke-width="0"/>
    <path d="m5.66773,37.0452c1.12973,-0.3645 0.87463,-0.2187 1.74927,-0.656c0.87463,-0.4373 1.34081,-0.8211 2.18658,-1.3119c1.36372,-0.7915 1.44002,-1.4401 1.74922,-1.7493c0.3093,-0.3092 0.1281,-0.5654 0.4374,-0.8746c0.6184,-0.6185 0.8746,-0.4374 1.7492,-1.312c0.8747,-0.8746 1.0027,-1.0027 1.312,-1.3119c0.6184,-0.6185 0.1281,-1.0028 0.4373,-1.312c0.3092,-0.3092 0,-0.8746 0,-1.3119c0,-0.4374 0,-1.312 0,-1.7493c0,-0.4373 0.2009,-1.7727 0,-2.6239c-0.2247,-0.9517 -0.1281,-1.4401 -0.4373,-1.7493c-0.3093,-0.3092 -0.7073,-1.3452 -0.8746,-1.7492c-0.2367,-0.5714 -0.8747,-0.8747 -0.8747,-1.312c0,-0.4373 -0.4373,-0.4373 -0.4373,-0.8746l0,-0.4374l-1.2026,-0.8746c-3.7901,5.8674 -6.81486,11.6253 -5.79446,21.2099l-0.00001,0z" id="svg_3" stroke="#007f00" fill="#44b544" stroke-width="0"/>
    <path d="m52.2419,13.1021c-0.4373,0.4373 -1.3495,0.8398 -2.1866,1.0933c-3.0182,0.9138 -3.2212,2.2857 -3.4985,2.6239c-1.4137,1.7245 -2.4979,1.3039 -4.8105,1.7493c-0.4294,0.0827 -0.4373,0.4373 -0.8746,0.4373c-0.4373,0 -0.8746,0 -1.312,0c-0.4373,0 -1.3119,0 -1.7492,0c-0.4373,0 -1.3453,-0.27 -1.7493,-0.4373c-0.5714,-0.2367 -0.5654,-0.5654 -0.8746,-0.8747c-0.3092,-0.3092 -0.5654,-0.1281 -0.8746,-0.4373c-0.3093,-0.3092 -0.8747,0 -1.312,0c-0.4373,0 -0.9079,-0.1673 -1.3119,0c-0.5714,0.2367 -0.3033,1.0753 -0.8747,1.312c-0.404,0.1673 -0.1281,0.5654 -0.4373,0.8746c-0.3092,0.3092 -0.4373,0.4373 -0.4373,0.8746c0,0.4373 0,0.8747 0,1.312c0,0.4373 0.0333,0.7073 0.4373,0.8746c0.5714,0.2367 0.638,0.7406 0.8746,1.312c0.1674,0.404 0.4374,0.4373 0.4374,0.8746c0,0.4373 0,0.8746 0,1.3119c0,0.4374 -0.4374,0.4374 -0.8747,0.8747c-1.3119,1.3119 -1.9499,1.1779 -2.1865,1.7492c-0.1674,0.4041 -1.0753,0.3033 -1.312,0.8747c-0.1674,0.404 0,0.8746 0.4373,0.8746c0.4373,0 0.8746,0.4373 1.312,0.4373c0.4373,0 0.8746,-0.4373 1.3119,-0.4373c0.4373,0 0.5654,-0.1281 0.8746,-0.4373c0.6185,-0.6185 1.312,0 1.7493,0c0.4373,0 0.397,-0.6543 2.1866,-0.8747c0.434,-0.0534 2.8801,-0.2561 3.4985,-0.8746c0.3093,-0.3092 0.8343,-0.6543 2.6239,-0.8746c0.4341,-0.0535 0.8747,0 1.312,0c0.4373,0 0.8746,0.4373 0.8746,0.8746c0,0.4373 0.4373,0.4373 0.4373,0.8746c0,0.4374 0.5654,2.3147 0.8746,2.6239c0.3093,0.3093 0.1281,1.0028 0.4374,1.312c0.3092,0.3092 2.1095,2.8366 3.0612,3.0612c0.4256,0.1005 0.8215,0.2158 2.1866,0.4373c0.4316,0.0701 1.3119,0 1.7492,0c0.4373,0 0.8864,0.1005 1.312,0c0.9517,-0.2246 1.44,-0.5654 1.7492,-0.8746c0.3093,-0.3092 0.8747,-0.4373 1.312,-0.4373c0.4373,0 0.5654,-0.5654 0.8746,-0.8746c0.3092,-0.3093 0.8746,0 1.312,0l1.0933,-0.656c1.1661,-7.7259 -2.4782,-14.1399 -7.6531,-20.5539l0,0z" id="svg_4" stroke="#007f00" fill="#44b544" stroke-width="0"/>
    <path id="svg_6" d="m10.0409,48.3061c2.1137,-0.2187 4.6647,-0.2187 6.3411,1.9679c1.1662,1.5306 1.239,3.7172 0.2186,4.5918c-2.4052,-0.8746 -5.0291,-2.6239 -6.5597,-6.5597l0,0z" stroke="#007f00" fill="#44b544" stroke-width="0"/>
   </g>
  </g>
  <rect transform="rotate(45, 16.9336, 16.9375)" ry="9" rx="9" id="svg_9" height="19.32339" width="29.34293" y="7.27574" x="2.26257" stroke-width="5" stroke="url(#svg_10)" fill="none" stroke-linecap="round"/>
  <rect id="svg_11" transform="rotate(45, 49.0664, 49.0625)" ry="9" rx="9" height="19.32339" width="29.34293" y="39.40074" x="34.39538" stroke-width="5" stroke="url(#svg_10)" fill="none" stroke-linecap="round"/>
  <line id="svg_12" y2="45.75" x2="45.75" y1="20.25" x1="20.25" stroke-linecap="round" stroke-width="5" stroke="url(#svg_10)" fill="none"/>
 </g>
</svg>
</g>

<g id="config">
<svg width="64" height="64" viewBox="0 0 1024 1024" version="1.1" xmlns="http://www.w3.org/2000/svg"><path d="M655.872 960a61.952 61.952 0 0 1-45.376-19.136c-14.912-16.192-62.272-58.24-100.992-58.24-38.464 0-86.528 42.304-100.352 57.216a62.144 62.144 0 0 1-68.224 14.144l-1.28-0.576-117.76-65.088-1.088-0.832a55.552 55.552 0 0 1-18.944-67.52c0.064-0.192 10.816-24.768 10.816-47.168 0-67.968-56-123.392-124.8-123.392h-4.16l-0.768 0.064c-19.712 0-35.776-17.344-40.896-44.096C41.6 603.264 32 552.448 32 512.384c0-40 9.6-90.88 10.048-92.992 5.184-27.136 21.568-44.48 41.664-44.096h4.16c68.8 0 124.8-55.296 124.8-123.328 0-22.4-10.752-46.976-10.88-47.232a55.424 55.424 0 0 1 19.136-67.456l1.216-0.832 124.224-67.456 1.344-0.576a63.36 63.36 0 0 1 67.968 13.952c14.656 15.232 61.184 54.784 98.816 54.784 37.312 0 83.52-38.784 98.112-53.76a63.616 63.616 0 0 1 68.032-13.376l1.28 0.576 120 65.92 1.216 0.832a55.424 55.424 0 0 1 19.072 67.456c-0.128 0.192-10.88 24.768-10.88 47.168 0 67.968 56 123.328 124.8 123.328h4.16c19.968-0.384 36.416 17.024 41.6 44.096 0.512 2.112 10.112 52.992 10.112 92.992 0 40.064-9.6 90.88-10.048 92.992-5.184 27.136-21.632 44.48-41.6 44.032h-4.16c-68.8 0-124.8 55.36-124.8 123.392 0 22.464 10.752 46.976 10.88 47.232a55.36 55.36 0 0 1-19.072 67.392l-1.28 0.896-122.048 66.688-1.344 0.512a56.32 56.32 0 0 1-22.656 4.48z m-6.016-64.832a8.192 8.192 0 0 0 3.648 0.96h0.192l112.128-61.056c-2.688-6.208-15.04-36.16-15.04-67.584 0-93.76 75.008-170.56 169.024-175.296 1.344-7.36 8.704-48.832 8.704-79.808s-7.296-72.384-8.704-79.744c-94.016-4.864-169.024-81.664-169.024-175.36 0-31.424 12.416-61.44 15.104-67.648l-110.4-60.352h-0.448a8.448 8.448 0 0 0-4.16 1.088 309.12 309.12 0 0 1-40.832 33.728c-33.984 23.552-66.176 35.456-95.552 35.456-29.76 0-62.144-12.16-96.384-36.16a312.064 312.064 0 0 1-41.024-34.432 9.088 9.088 0 0 0-4.224-1.024H372.48l-114.304 61.76c2.752 6.272 15.104 36.288 15.104 67.584 0 93.696-75.008 170.496-169.024 175.36-1.408 7.36-8.704 48.704-8.704 79.744s7.36 72.384 8.704 79.744c94.016 4.8 169.024 81.6 169.024 175.36 0 31.424-12.48 61.632-15.104 67.712l108.16 59.52h0.256a8 8 0 0 0 3.584-0.896c2.048-2.112 18.176-19.008 41.408-35.776 34.688-25.088 67.648-37.76 97.92-37.76 30.656 0 63.872 12.928 98.752 38.464 23.36 17.152 39.616 34.24 41.6 36.416z m-137.984-223.104c-88.32 0-160.192-71.68-160.192-159.808s71.872-159.744 160.192-159.744c88.384 0 160.256 71.616 160.256 159.744s-71.872 159.808-160.256 159.808z m0-255.744a96 96 0 0 0 0 191.808 95.936 95.936 0 0 0 0-191.808z"></path></svg>
</g>

<g id="svg_eof"/>

</svg>
