<svg viewBox="0 0 24 24" xmlns="http://www.w3.org/2000/svg" width="24" height="24" xmlns:xlink="http://www.w3.org/1999/xlink" class="svg_icon"><svg xmlns="http://www.w3.org/2000/svg" viewBox="0 0 24 24">
    <path d="M20.3906 19.248c.2836 0 .5156.2321.5156.5157v1.0957c0 .2835-.232.5156-.5156.5156h-5.1563c-.2835 0-.5156-.232-.5156-.5156v-1.0957c0-.2836.232-.5157.5156-.5157h1.2848l-1.4996-4.2796H8.2047L6.705 19.248h1.3105c.2836 0 .5156.2321.5156.5157v1.0957c0 .2835-.232.5156-.5156.5156H2.8594c-.2836 0-.5157-.232-.5157-.5156v-1.0957c0-.2836.2321-.5157.5157-.5157h1.0914L9.962 2.4688a.5142.5142 0 0 1 .4855-.3438h2.3547a.5142.5142 0 0 1 .4856.3438l6.0113 16.7792h1.0914zM11.625 4.6301c-.0007.0036-.1253.6853-.3695 1.4738l-2.372 6.6816h5.4571L11.9945 6.104c-.2743-.7885-.369-1.4703-.3695-1.4738z" fill="#000" fill-rule="nonzero"/>
  </svg></svg>