<svg xmlns="http://www.w3.org/2000/svg" viewBox="0 0 51.04 49.47"><defs><style>.cls-1,.cls-3{fill:none;}.cls-2{fill:#f9ba00;}.cls-3{stroke:#fff;stroke-linecap:round;stroke-miterlimit:10;stroke-width:2px;}</style></defs><g id="Calque_2" data-name="Calque 2"><g id="Calque_1-2" data-name="Calque 1"><polyline class="cls-1" points="6.8 0 51.04 0 51.04 49.47 0 49.47 0 0 6.8 0"/><path class="cls-2" d="M28.27,17.05H23.91V32.58h3.5a3,3,0,0,1,2,.54,2.27,2.27,0,0,1,.6,1.75,2.28,2.28,0,0,1-.6,1.77,2.92,2.92,0,0,1-2,.55H15a2.89,2.89,0,0,1-2-.55,2.28,2.28,0,0,1-.6-1.77,2.29,2.29,0,0,1,.59-1.76,3,3,0,0,1,2-.53h3.5V17.05H14.19l-.13,4.23v.52a2.14,2.14,0,0,1-.55,1.56,2.07,2.07,0,0,1-1.53.56,2.27,2.27,0,0,1-1.72-.59,2.72,2.72,0,0,1-.55-1.89v-.16l.23-6.23c0-1.24.21-2,.51-2.23a3.06,3.06,0,0,1,1.82-.37H30.18a3,3,0,0,1,1.82.37c.3.25.48,1,.53,2.23l.21,6.23v.16a2.8,2.8,0,0,1-.52,1.9,2.16,2.16,0,0,1-1.69.58,2,2,0,0,1-1.61-.57,3.4,3.4,0,0,1-.53-2.07Z"/><polyline class="cls-3" points="37.21 9.9 39.86 14.56 39.86 34.47 37.21 39.57"/><polyline class="cls-3" points="42.51 9.9 39.86 14.56 39.86 34.47 42.51 39.57"/></g></g></svg>