<svg viewBox="0 0 24 24" xmlns="http://www.w3.org/2000/svg" width="24" height="24" xmlns:xlink="http://www.w3.org/1999/xlink" class="svg_icon"><svg xmlns="http://www.w3.org/2000/svg" viewBox="0 0 24 24">
    <path d="M19 17h.625c.207 0 .375.168.375.375v1.25a.375.375 0 0 1-.375.375h-1.25a.375.375 0 0 1-.375-.375V18H6v.625a.375.375 0 0 1-.375.375h-1.25A.375.375 0 0 1 4 18.625v-1.25c0-.207.168-.375.375-.375H5V7h-.625A.375.375 0 0 1 4 6.625v-1.25C4 5.168 4.168 5 4.375 5h1.25c.207 0 .375.168.375.375V6h12v-.625c0-.207.1679-.375.375-.375h1.25c.207 0 .375.168.375.375v1.25a.375.375 0 0 1-.375.375H19v10zM7 12.625c0 .2071.1679.375.375.375h5.25a.375.375 0 0 0 .375-.375v-4.25A.375.375 0 0 0 12.625 8h-5.25A.375.375 0 0 0 7 8.375v4.25zm10 3v-4.25a.375.375 0 0 0-.375-.375H14v2.25a.75.75 0 0 1-.75.75H11v1.625c0 .2071.1679.375.375.375h5.25a.375.375 0 0 0 .375-.375z" fill="#000" fill-rule="nonzero"/>
  </svg></svg>