<svg width="900" height="700" viewBox="0 0 900 700" version="1.1" xmlns="http://www.w3.org/2000/svg" xmlns:xlink="http://www.w3.org/1999/xlink">
 <defs>
  <marker id="se_arrow_fw" markerHeight="5" markerUnits="strokeWidth" markerWidth="5" orient="auto" refX="8" refY="5" viewBox="0 0 10 10">
   <path d="m0,0l10,5l-10,5l5,-5l-5,-5z" fill="#000000"/>
  </marker>
   <style xmlns="http://www.w3.org/2000/svg" type="text/css">
     @media print {
     .background{
     fill: #FFFFFF !important;
     }
     .outline {
     stroke: #000000 !important;
     }
     }
   </style>
 </defs>
 <g class="layer">
  <title>Field</title>
    <g stroke="none" stroke-width="1">
      <path fill="#7FC784" d="M0 0h900v700H0z" class="background"/>
      <path fill="#87D888" d="M40 13h820v650H40z" class="background"/>
      <path fill="#7FC784" d="M40 229h820v108H40zM40 445h820v109H40zM40 13h820v108H40z" class="background"/>
    </g>
</g>
<g class="layer">
  <title>Lines</title>
    <g stroke="#FFFFFF" fill="none" stroke-width="1" class="outline">
      <path d="M836.4315 663c-.0026-6.2294 2.4427-12.2046 6.7976-16.6104 4.3549-4.4058 10.2624-6.8811 16.4225-6.8811M40 638.5085c6.16 0 12.0676 2.4753 16.4225 6.881 4.3549 4.4059 6.8001 10.381 6.7975 16.6105M678 662.5085H222.2329V471.0324H678z"/>
      <path d="M860 662.5084H40v-650h820z"/>
      <path d="M559 662.5084H340.5554v-67.4212H559zM546 472.5085c-18.731-33.9362-54.8662-56.9222-96.3702-56.9222-41.1747 0-77.0656 22.6227-95.9211 56.1165M340 12.5085c0 60.7513 49.2487 110 110 110s110-49.2487 110-110"/>
    </g>
</g>
<g class="layer">
  <title>Drill</title>
    <g>
        <circle cx="20" cy="600" fill="#000" r="15" stroke-width="0"/>
        <text fill="#fff" font-family="Cursive" font-size="24" text-anchor="middle" x="17" y="608.5">C</text>
    </g>
    <g fill="none" shape="soccernet" stroke="#fff" stroke-linecap="round" stroke-width="2" transform="rotate(-180 453.657 680.127)" class="outline">
      <polyline points="398.51717615127563,697.4199829101562 394.72704553604126,685.6292114257812 512.4679207801819,685.6292114257812 508.67794275283813,697.4199829101562 " stroke-linejoin="round"></polyline>
      <rect height="22.79537" width="117.74109" x="394.7271" y="662.83389"></rect>
      <rect height="22.79537" width="7.35881" x="402.08591" y="662.83389"></rect>
      <rect height="22.79537" width="7.35881" x="416.80354" y="662.83389"></rect>
      <rect height="22.79537" width="7.35881" x="431.52117" y="662.83389"></rect>
      <rect height="22.79537" width="7.35881" x="446.23881" y="662.83389"></rect>
      <rect height="22.79537" width="7.35881" x="460.95644" y="662.83389"></rect>
      <rect height="22.79537" width="7.35881" x="475.67409" y="662.83389"></rect>
      <rect height="22.79537" width="7.35881" x="490.39172" y="662.83389"></rect>
      <rect height="22.79537" width="7.35881" x="505.10935" y="662.83389"></rect>
      <rect height="7.86048" width="117.74103" x="394.84543" y="670.30134"></rect>
    </g>

</g>
</svg>
