<?xml version="1.0" encoding="UTF-8"?>
<svg width="900" height="675" viewBox="0 0 900 675" version="1.1" xmlns="http://www.w3.org/2000/svg" xmlns:xlink="http://www.w3.org/1999/xlink">
 <defs>
  <marker id="se_arrow_fw" markerHeight="5" markerUnits="strokeWidth" markerWidth="5" orient="auto" refX="8" refY="5" viewBox="0 0 10 10">
   <path d="m0,0l10,5l-10,5l5,-5l-5,-5z" fill="#000000"/>
  </marker>
 </defs>
 <g class="layer">
  <title>Field</title>
    <g stroke="none">
        <path fill="#7FC784" d="M0 0h900v675H0z"/>
        <path fill="#87D888" d="M860 663H40V20h820z"/>
        <path fill="#7FC784" d="M860 447H40V339h820zM860 231H40V122h820zM860 663H40V555h820z"/>
    </g>
</g>
 <g class="layer">
  <title>Lines</title>
    <g stroke="#FFF" stroke-width="2" fill="none">
      <circle cx="450" cy="337.5" r="110"/>
      <path d="M40 337.5h820"/>
      <path d="M40 655h820M40 20h820" stroke-dasharray="4,8"/>
      <path d="M40 20v635M860 20v635"/>
    </g>
</g>

<g class="layer">
  <title>Drill</title>
    <g>
        <circle cx="20" cy="600" fill="#000" r="15" stroke-width="0"/>
        <text fill="#fff" font-family="Cursive" font-size="24" text-anchor="middle" x="17" y="608.5">C</text>
    </g>


</g>
</svg>
