<svg width="870" height="650" xmlns="http://www.w3.org/2000/svg" xmlns:svg="http://www.w3.org/2000/svg">
<defs>
  <marker id="se_arrow_fw" markerHeight="5" markerUnits="strokeWidth" markerWidth="5" orient="auto" refX="8" refY="5" viewBox="0 0 10 10">
   <path d="m0,0l10,5l-10,5l5,-5l-5,-5z" fill="#000000"/>
  </marker>
</defs>
<g class="layer">
  <title>Field</title>
  <g>
      <path fill="#7FC784" d="M0 0h870v650H0z"/>
      <path fill="#87D888" d="M630 628.8851H240v-610h390z"/>
      <path fill="#7FC784" d="M630 323.8851H240v-101h390zM630 120.8851H240v-103h390zM630 527.8851H240v-102h390z"/>
  </g>
 </g>
 <g class="layer">
  <title>Lines</title>
  <g fill="none" stroke="#FFFFFF" stroke-width="2">
      <path d="M240 605.885c6.367 0 12.473 2.4236 16.9741 6.7372 4.5012 4.3136 7.0286 10.1638 7.0259 16.2629M418 630V452h212M528.3587 629v-63h102M630.2568 400.82c-38.4276 0-71.9239 21.064-89.5214 52.2498"/>
      <path d="M629 629H240V20"/>
      <path d="M240 21h390v609" stroke-dasharray="4,8"/>
      <path d="M529 20c0 56.333 45.667 102 102 102"/>
  </g>
 </g>
 <g class="layer">
  <title>Drill</title>
    <g>
        <circle cx="25" cy="600" fill="#000" r="15" stroke-width="0"/>
        <text fill="#fff" font-family="Cursive" font-size="24" text-anchor="middle" x="23" y="608.5">C</text>
    </g>
 </g>
</svg>
