<svg viewBox="0 0 24 24" xmlns="http://www.w3.org/2000/svg" width="24" height="24" xmlns:xlink="http://www.w3.org/1999/xlink" class="svg_icon"><svg xmlns="http://www.w3.org/2000/svg" viewBox="0 0 24 24">
    <path d="M10.6354 11.0104H4.375a.375.375 0 0 1-.375-.375V4.375C4 4.168 4.168 4 4.375 4h1.5c.207 0 .375.168.375.375v2.441c1.4304-1.5885 3.5081-2.5825 5.818-2.5658 4.2783.0311 7.7014 3.4883 7.6923 7.7667-.009 4.2724-3.4753 7.7331-7.75 7.7331-2.0027 0-3.828-.7598-5.2033-2.0067-.1594-.1445-.1667-.3923-.0146-.5444l1.0614-1.0614a.3743.3743 0 0 1 .5126-.0165 5.4793 5.4793 0 0 0 3.644 1.379c3.0396 0 5.5-2.4599 5.5-5.5 0-3.0396-2.4599-5.5-5.5-5.5-1.828 0-3.4463.8899-4.446 2.2604h3.071c.207 0 .375.168.375.375v1.5a.375.375 0 0 1-.375.375z" fill="#000" fill-rule="nonzero"/>
  </svg></svg>