<svg height="1120" viewBox="0 0 720 1120" width="720" xmlns="http://www.w3.org/2000/svg" xmlns:xlink="http://www.w3.org/1999/xlink"><defs><path id="a" d="m0 433h600v198h-600z"/><mask id="b" height="202" width="604" x="-2" y="-2"><path d="m-2 431h604v202h-604z" fill="#fff"/><use xlink:href="#a"/></mask><path id="c" d="m60 132h480v800h-480z"/><mask id="d" height="804" width="484" x="-2" y="-2"><path d="m58 130h484v804h-484z" fill="#fff"/><use xlink:href="#c"/></mask></defs><g fill="none" fill-rule="evenodd"><path d="m0 0h720v1120h-720z" fill="#7fc784" fill-rule="nonzero"/><g stroke="#fff" transform="translate(60 28)"><path d="m-1 51h602v962h-602z" stroke-width="2"/><g stroke-linecap="round" stroke-linejoin="round" transform="translate(260)"><path d="m6.575227 130-6.575227-130" stroke-width="4"/><path d="m80.575227 130-6.575227-130" stroke-width="4" transform="matrix(-1 0 0 1 154.575226 0)"/><path d="m75 78h-70" stroke-width="6"/></g><g stroke-linecap="round" stroke-linejoin="round" transform="matrix(-1 0 0 -1 341 1064)"><path d="m6.575227 130-6.575227-130" stroke-width="4"/><path d="m80.575227 130-6.575227-130" stroke-width="4" transform="matrix(-1 0 0 1 154.575226 0)"/><path d="m75 78h-70" stroke-width="6"/></g><path d="m-1 131h602v802h-602z" stroke-width="2"/><path d="m-1 309h602v446h-602z" stroke-width="2"/><use mask="url(#b)" stroke-dasharray="10" stroke-width="4" xlink:href="#a"/><use mask="url(#d)" stroke-dasharray="10" stroke-width="4" xlink:href="#c"/><path d="m0 531.5h600" stroke-width="2"/></g></g></svg>