<?xml version="1.0" encoding="UTF-8"?>
<svg viewBox="0 0 720 619" version="1.1" xmlns="http://www.w3.org/2000/svg"
    xmlns:xlink="http://www.w3.org/1999/xlink">
    <defs>
        <style xmlns="http://www.w3.org/2000/svg" type="text/css">
            @media print {
                .background {
                    fill: #FFFFFF !important;
                }
                .outline {
                    stroke: #000000 !important;
                }
            }
        </style>
        <marker id="se_arrow_fw" markerHeight="5" markerUnits="strokeWidth" markerWidth="5" orient="auto" refX="8"
            refY="5" viewBox="0 0 10 10">
            <path d="m0,0l10,5l-10,5l5,-5l-5,-5z" fill="#000000" />
        </marker>
    </defs>
    <g class="layer">
        <title>Field</title>
        <rect width="720" height="619" fill="#E6BB89" class="background" />
        <rect x="24" y="24" width="672" height="571" stroke="#665647" fill="#E6BB89" stroke-width="2" class="background"/>
    </g>
    
    <g class="layer">
        <title>Lines</title>
        <path d="M450 595C450 545.294 409.706 505 360 505C310.294 505 270 545.294 270 595" stroke="#665647"
            fill="#E6BB89" stroke-width="2" />
        <path d="M392 595C392 577.327 377.673 563 360 563C342.327 563 328 577.327 328 595" stroke="#665647"
            fill="#E6BB89" stroke-width="2" />
        <path d="M88 107C88 257.221 209.779 379 360 379V379C510.221 379 632 257.221 632 107V24H88V107Z" stroke="#665647"
            fill="#E6BB89" stroke-width="2" />
        <path d="M270 289H450V24H270V289Z" fill="#FDDBB3" stroke="#665647" stroke-width="2" />
        <path
            d="M322 74C322 74.5523 322.448 75 323 75H397C397.552 75 398 74.5523 398 74C398 73.4477 397.552 73 397 73H323C322.448 73 322 73.4477 322 74Z"
            fill="#665647" />
        <path
            d="M263 126C263 126.552 263.448 127 264 127H269C269.552 127 270 126.552 270 126V124C270 123.448 269.552 123 269 123H264C263.448 123 263 123.448 263 124V126Z"
            fill="#665647" />
        <path
            d="M450 126C450 126.552 450.448 127 451 127H456C456.552 127 457 126.552 457 126V124C457 123.448 456.552 123 456 123H451C450.448 123 450 123.448 450 124V126Z"
            fill="#665647" />
        <path
            d="M263 178C263 178.552 263.448 179 264 179H269C269.552 179 270 178.552 270 178V176C270 175.448 269.552 175 269 175H264C263.448 175 263 175.448 263 176V178Z"
            fill="#665647" />
        <path
            d="M450 178C450 178.552 450.448 179 451 179H456C456.552 179 457 178.552 457 178V176C457 175.448 456.552 175 456 175H451C450.448 175 450 175.448 450 176V178Z"
            fill="#665647" />
        <path
            d="M263 230C263 230.552 263.448 231 264 231H269C269.552 231 270 230.552 270 230V228C270 227.448 269.552 227 269 227H264C263.448 227 263 227.448 263 228V230Z"
            fill="#665647" />
        <path
            d="M263 282C263 282.552 263.448 283 264 283H269C269.552 283 270 282.552 270 282V280C270 279.448 269.552 279 269 279H264C263.448 279 263 279.448 263 280V282Z"
            fill="#665647" />
        <path
            d="M450 230C450 230.552 450.448 231 451 231H456C456.552 231 457 230.552 457 230V228C457 227.448 456.552 227 456 227H451C450.448 227 450 227.448 450 228V230Z"
            fill="#665647" />
        <path
            d="M450 282C450 282.552 450.448 283 451 283H456C456.552 283 457 282.552 457 282V280C457 279.448 456.552 279 456 279H451C450.448 279 450 279.448 450 280V282Z"
            fill="#665647" />
        <path d="M356 80H364V73H356V80Z" fill="#665647" />
        <path d="M270 289C270 338.706 310.294 379 360 379V379C409.706 379 450 338.706 450 289V289H270V289Z"
            fill="#E6BB89" stroke="#665647" stroke-width="2" />
        <circle r="12" transform="matrix(1 0 0 -1 360 91)" stroke="#665647" fill="#E6BB89" stroke-width="2" />

    </g>
    <g class="layer">
        <title>Drill</title>
    </g>
</svg>