<svg xmlns="http://www.w3.org/2000/svg" viewBox="0 0 18 18">
  <g data-cs-shape="soccerball">
    <path d="m6.621088,11.912862l-1.0324,-3.1772l-2.5276,-0.636l-1.8964,1.5844c0.0038,0.0448 0.0024,0.0896 0.0068,0.1342c0.16,1.561 0.784,3.0272 1.8038,4.239c0.033,0.0392 0.0692,0.0752 0.1028,0.1138l2.0856,-0.0806l1.4574,-2.1776l0,0.00001l0,-0.00001z" fill="#fff"/>
    <path d="m10.745288,12.399652l-3.5286,0l-1.4164,2.1166l0.7162,1.9454c0.0478,0.0158 0.0942,0.035 0.1424,0.05c1.4994,0.4648 3.1418,0.466 4.6442,-0.0004c0.0482,-0.015 0.0946,-0.034 0.1424,-0.0498l0.716,-1.9448l-1.4162,-2.117l-0.00001,0l0.00001,0z" fill="#fff"/>
    <path d="m9.364088,5.901062l2.8644,2.0812l2.4858,-0.6254l0.968,-2.4104c-0.0246,-0.0402 -0.046,-0.082 -0.0714,-0.122c-0.8988,-1.4172 -2.2526,-2.53 -3.8134,-3.1328c-0.0398,-0.0154 -0.0806,-0.0258 -0.1206,-0.0404l-2.313,1.6804l0,2.5694l0.0002,0l-0.00001,0l0.00001,0z" fill="#fff"/>
    <path d="m12.373488,8.735462l-1.0324,3.1774l1.457,2.1776l2.0858,0.0806c0.0338,-0.0386 0.0698,-0.0746 0.1028,-0.1138c1.0202,-1.2122 1.6442,-2.6778 1.8042,-4.239c0.0046,-0.0446 0.003,-0.0892 0.0068,-0.1338l-1.8966,-1.5848l-2.5276,0.6358l-0.00001,0l0.00001,0z" fill="#fff"/>
    <path d="m5.733688,7.982262l2.8644,-2.0812l0,-2.5694l-2.313,-1.6806c-0.04,0.0148 -0.081,0.0252 -0.121,0.0406c-1.5604,0.6028 -2.9144,1.7156 -3.8128,3.1328c-0.0254,0.04 -0.047,0.0818 -0.0716,0.122l0.968,2.4104l2.486,0.6254l-0.00001,-0.00001l0.00001,0.00001z" fill="#fff"/>
    <path d="m16.495488,4.065862c-1.0656,-1.6138 -2.648,-2.8634 -4.4554,-3.5188c-1.9632,-0.7116 -4.1556,-0.711 -6.1182,0.0002c-1.8074,0.655 -3.3896,1.9048 -4.4554,3.5186c-0.9718,1.472 -1.4854,3.1822 -1.4854,4.9454c0,0.4028 0.0294,0.819 0.0872,1.2372c0.203,1.4702 0.7766,2.882 1.6588,4.0822c1.2632,1.7182 3.094,2.9366 5.1548,3.4312c0.6902,0.1656 1.3966,0.2494 2.099,0.2494c0.7024,0 1.4084,-0.0838 2.099,-0.2494c2.0612,-0.4944 3.8918,-1.713 5.1552,-3.4312c0.8818,-1.1998 1.4556,-2.6116 1.6588,-4.0822c0.058,-0.4196 0.0872,-0.836 0.0872,-1.2372c0,-1.763 -0.5136,-3.473 -1.4856,-4.9454l-0.00001,-0.00001l0.00001,0.00001zm-4.8184,-2.4148c0.04,0.0148 0.0808,0.025 0.1206,0.0404c1.5608,0.6028 2.9146,1.7156 3.8134,3.1328c0.0252,0.04 0.0468,0.0816 0.0714,0.122l-0.968,2.4104l-2.4858,0.6254l-2.8646,-2.081l0,-2.5694l2.313,-1.6806zm-3.079,1.6806l0,2.5694l-2.8644,2.0812l-2.4858,-0.6254l-0.968,-2.4104c0.0246,-0.0404 0.0462,-0.0822 0.0716,-0.122c0.8984,-1.4172 2.2524,-2.53 3.8128,-3.1328c0.04,-0.0154 0.0808,-0.0258 0.121,-0.0406l2.3128,1.6806l0.00001,0.00001l-0.00001,-0.00001zm-5.537,4.768l2.5276,0.6358l1.0324,3.1774l-1.4572,2.1776l-2.0856,0.0806c-0.0338,-0.0386 -0.0698,-0.0746 -0.1028,-0.1138c-1.02,-1.2118 -1.6438,-2.6778 -1.8038,-4.239c-0.0046,-0.0446 -0.003,-0.0894 -0.0068,-0.1342l1.8962,-1.5844l0.00001,0l-0.00001,0zm2.7392,6.4166l1.4164,-2.1166l3.5286,0l1.4164,2.1168l-0.716,1.9448c-0.0478,0.0158 -0.0942,0.035 -0.1424,0.0498c-1.5024,0.4664 -3.1448,0.4652 -4.6442,0.0004c-0.0482,-0.015 -0.0946,-0.034 -0.1424,-0.05l-0.7164,-1.9452l0.00002,0l-0.00002,0zm6.9978,-0.4258l-1.457,-2.1776l1.0324,-3.1774l2.5276,-0.6358l1.8966,1.5848c-0.0038,0.0448 -0.0022,0.0892 -0.0068,0.1338c-0.16,1.561 -0.784,3.0268 -1.8042,4.239c-0.033,0.0392 -0.0692,0.0752 -0.1028,0.1138l-2.0858,-0.0806l0.00001,0l-0.00001,0z" fill="#000" marker-end="none"/>
  </g>
</svg>
