<svg xmlns:xlink="http://www.w3.org/1999/xlink" xmlns="http://www.w3.org/2000/svg" viewBox="0 -20 60 40">
  <g id="tool_soccernet">
    <rect fill="none" height="18.83525" stroke="#000" stroke-miterlimit="10" stroke-width="2px" width="99.96114" x="0.125" y="0.375"/>
    <polyline fill="none" fill-rule="evenodd" points="69.33166261011502,19.210252175425012 69.33166261011502,11.675124991583289 61.64607400394743,7.925537563811304 53.94836522099649,11.675124991583289 53.94836522099649,19.210252175425012 " stroke="#000" stroke-miterlimit="10" stroke-width="2px"/>
    <polyline fill="none" fill-rule="evenodd" points="46.26277661482891,0.375 46.26277661482891,7.904992186600111 53.94836522099649,11.675124991583289 61.64607400394743,7.904992186600111 61.64607400394743,0.375 " stroke="#000" stroke-miterlimit="10" stroke-width="2px"/>
    <polyline fill="none" fill-rule="evenodd" points="84.71495537497685,19.210252175425012 84.71495537497685,11.675124991583289 77.02209743729327,7.925537563811304 69.33166261011502,11.675124991583289 " stroke="#000" stroke-miterlimit="10" stroke-width="2px"/>
    <line fill="none" stroke="#000" stroke-miterlimit="10" stroke-width="2px" x1="77.01725" x2="77.01725" y1="7.90499" y2="0.375"/>
    <polyline fill="none" fill-rule="evenodd" points="100.08613258731202,11.675124991583289 92.40055322965782,7.925537563811304 84.71495537497685,11.675124991583289 " stroke="#000" stroke-miterlimit="10" stroke-width="2px"/>
    <line fill="none" stroke="#000" stroke-miterlimit="10" stroke-width="2px" x1="92.39934" x2="92.39934" y1="7.90499" y2="0.375"/>
    <polyline fill="none" fill-rule="evenodd" points="53.94836522099649,19.210252175425012 53.94836522099649,11.675124991583289 46.26277661482891,7.925537563811304 38.56506320762128,11.675124991583289 38.56506320762128,19.210252175425012 " stroke="#000" stroke-miterlimit="10" stroke-width="2px"/>
    <polyline fill="none" fill-rule="evenodd" points="30.87947691358204,0.375 30.87947691358204,7.904992186600111 38.56506320762128,11.675124991583289 46.26277661482891,7.904992186600111 46.26277661482891,0.375 " stroke="#000" stroke-miterlimit="10" stroke-width="2px"/>
    <polyline fill="none" fill-rule="evenodd" points="15.50223845679102,0.375 15.50223845679102,7.904992186600111 23.193888307414454,11.675124991583289 30.87947691358204,7.904992186600111 30.87947691358204,0.375 " stroke="#000" stroke-miterlimit="10" stroke-width="2px"/>
    <polyline fill="none" fill-rule="evenodd" points="23.193888307414454,19.210252175425012 23.193888307414454,11.675124991583289 15.50223845679102,7.925537563811304 7.810588606167585,11.675124991583289 7.810588606167585,19.210252175425012 " stroke="#000" stroke-miterlimit="10" stroke-width="2px"/>
    <polyline fill="none" fill-rule="evenodd" points="0.125,7.904992186600111 7.810588606167585,11.675124991583289 15.50223845679102,7.904992186600111 15.50223845679102,0.375 " stroke="#000" stroke-miterlimit="10" stroke-width="2px"/>
  </g>
</svg>
