<svg xmlns="http://www.w3.org/2000/svg" viewBox="0 0 51.04 49.47"><defs><style>.cls-1,.cls-4{fill:none;}.cls-2{fill:#fff;}.cls-3{fill:#f9ba00;}.cls-4{stroke:#fff;stroke-miterlimit:10;stroke-width:2px;}</style></defs><g id="Calque_2" data-name="Calque 2"><g id="Calque_1-2" data-name="Calque 1"><polyline class="cls-1" points="6.8 0 51.04 0 51.04 49.47 0 49.47 0 0 6.8 0"/><path class="cls-2" d="M40.3,17.49,38,15.66l4.6-5.88A2.72,2.72,0,0,0,41.82,6l-1.2-.94a2.74,2.74,0,0,0-3.84.17l-4.6,5.88L29.84,9.3a.55.55,0,0,0-.77,0l-2.8,3.58a.55.55,0,0,0,.15.75l10.47,8.19a.53.53,0,0,0,.76,0l2.8-3.57A.55.55,0,0,0,40.3,17.49Z"/><polygon class="cls-3" points="15.05 31.59 25.81 31.59 18.73 40.38 14.36 42.43 13.65 44.51 11.43 45.52 9.08 44.34 9.08 40.84 11.19 39.65 15.05 31.59"/><path class="cls-4" d="M30.62,12.26,12.84,34.33l-1.65,5.33a2.94,2.94,0,1,0,3.18,2.92s0-.1,0-.15l4.37-2L36.51,18.31"/></g></g></svg>