
    <svg xmlns:xlink="http://www.w3.org/1999/xlink" xmlns="http://www.w3.org/2000/svg" viewBox="0 0 300 300">
     <linearGradient y2="1" x2="1" y1="0.10156" x1="0.36328" id="svg_2">
      <stop stop-opacity="1" stop-color="#ffffff" offset="0"/>
      <stop stop-opacity="1" stop-color="#fddb8c" offset="1"/>
    </linearGradient>
        <path d="m8.00038,150.84583l51.60005,-51.78485l0,25.89205l26.28711,0l35.45559,-0.20444l-0.72941,-24.34613l0.93304,-37.61812l-25.79949,0l51.5997,-51.78508l51.60047,51.78508l-25.80024,0l0,33.87256l1.13677,26.21891l21.45996,2.07722l39.3497,0l0,-25.89205l51.60043,51.78485l-51.60043,51.78563l0,-25.89281l-38.41666,-0.93639l-20.52692,0.20445l-3.00285,42.13754l0,20.76308l25.80024,0l-51.60047,51.78561l-51.5997,-51.78561l25.79949,0l0,-20.76308l0.72941,-41.20115l-41.98688,-0.20445l-20.68886,0l0,25.89281l-51.60005,-51.78563z" fill="url(#svg_2)" id="svg_1" stroke="#000000" stroke-width="10"/>
    </svg>
