<svg height="1120" viewBox="0 0 720 1120" width="720" xmlns="http://www.w3.org/2000/svg">

    <defs>
        <marker id="se_arrow_fw" markerHeight="5" markerUnits="strokeWidth" markerWidth="5" orient="auto" refX="8"
            refY="5" viewBox="0 0 10 10">
            <path d="m0,0l10,5l-10,5l5,-5l-5,-5z" fill="#000000" />
        </marker>
        <style xmlns="http://www.w3.org/2000/svg" type="text/css">
            @media print {
                .background {
                    fill: #FFFFFF !important;
                }

                .outline {
                    stroke: #000000 !important;
                }
            }
        </style>
    </defs>

    <g class="layer">
        <title>Rink</title>
        <path d="m0 0h720v1120h-720z" fill="#c5e8f6" fill-rule="nonzero" />
    </g>
    <g class="layer" fill="none" fill-rule="evenodd">
        <title>Lines</title>
        <path
            d="m491 33c41.697499 0 79.447499 16.9012507 106.773124 44.226876 27.325625 27.325625 44.226876 65.075625 44.226876 106.773124v740c0 41.697499-16.901251 79.4475-44.226876 106.77312-27.325625 27.32563-65.075625 44.22688-106.773124 44.22688h-259.730528c-41.697498 0-79.447498-16.90125-106.773124-44.22688-27.3256249-27.32562-44.2268756-65.075621-44.226874-106.774915l1.3284467-740.26923c.0747466-41.644521 17.0023921-79.326764 44.3224973-106.5978779 27.320106-27.2711136 65.032672-44.1310971 106.67726-44.1310971z"
            fill="#fff" fill-opacity=".9" stroke="#0e1535" stroke-width="2" />
        <path d="m102 106h518" stroke="#ff3860" stroke-width="2" />
        <path d="m394 138c0-17.673112-14.326888-32-32-32s-32 14.326888-32 32" stroke="#ff3860" stroke-width="2"
            transform="matrix(-1 0 0 -1 724 244)" />
        <path d="m394 138c0-17.673112-14.326888-32-32-32s-32 14.326888-32 32" stroke="#ff3860" stroke-width="2"
            transform="matrix(-1 0 0 -1 724 244)" />
        <path d="m81 560h560" stroke="#ff3860" stroke-width="2" />
        <circle cx="361" cy="560" r="80" stroke="#ff3860" stroke-width="2" />
        <path d="m665 584c0-26.509668-21.490332-48-48-48s-48 21.490332-48 48" stroke="#ff3860" stroke-width="2"
            transform="matrix(0 -1 1 0 57 1177)" />
        <path d="m81 400h560" opacity=".5" stroke="#364fc7" stroke-width="4" />
        <path d="m81 720h560" opacity=".5" stroke="#364fc7" stroke-width="4" />
        <path d="m103 1002h517" stroke="#ff3860" stroke-width="2" />
        <path d="m393 1002c0-17.673112-14.326888-32-32-32s-32 14.326888-32 32" stroke="#ff3860" stroke-width="2" />
        <circle cx="489" cy="890" r="80" stroke="#ff3860" stroke-width="2" />
        <circle cx="233" cy="890" r="80" stroke="#ff3860" stroke-width="2" />
        <circle cx="233" cy="890" fill="#ff3860" r="4" transform="matrix(1 0 0 -1 0 1780)" />
        <circle cx="489" cy="890" fill="#ff3860" r="4" transform="matrix(1 0 0 -1 0 1780)" />
        <circle cx="233" cy="684" fill="#ff3860" r="4" transform="matrix(1 0 0 -1 0 1368)" />
        <circle cx="489" cy="684" fill="#ff3860" r="4" transform="matrix(1 0 0 -1 0 1368)" />
        <g stroke-width="2">
            <path d="m312 905.5h13" stroke="#ff3860" />
            <path d="m312 873.5h13" stroke="#ff3860" />
            <path d="m141 905.5h13" stroke="#ff3860" />
            <path d="m141 873.5h13" stroke="#ff3860" />
            <path d="m568 905.5h13" stroke="#ff3860" />
            <path d="m568 873.5h13" stroke="#ff3860" />
            <path d="m397 905.5h13" stroke="#ff3860" />
            <path d="m397 873.5h13" stroke="#ff3860" />
            <circle cx="489" cy="218" r="80" stroke="#ff3860" />
            <circle cx="233" cy="218" r="80" stroke="#ff3860" />
        </g>
        <circle cx="489" cy="218" fill="#ff3860" r="4" transform="matrix(1 0 0 -1 0 436)" />
        <circle cx="489" cy="218" fill="#ff3860" r="4" transform="matrix(1 0 0 -1 0 436)" />
        <circle cx="233" cy="218" fill="#ff3860" r="4" transform="matrix(1 0 0 -1 0 436)" />
        <circle cx="489" cy="436" fill="#ff3860" r="4" transform="matrix(1 0 0 -1 0 872)" />
        <circle cx="233" cy="436" fill="#ff3860" r="4" transform="matrix(1 0 0 -1 0 872)" />
        <path d="m568 233.5h13" stroke="#ff3860" stroke-width="2" />
        <path d="m568 201.5h13" stroke="#ff3860" stroke-width="2" />
        <path d="m397 233.5h13" stroke="#ff3860" stroke-width="2" />
        <path d="m397 201.5h13" stroke="#ff3860" stroke-width="2" />
        <path d="m312 233.5h13" stroke="#ff3860" stroke-width="2" />
        <path d="m312 201.5h13" stroke="#ff3860" stroke-width="2" />
        <path d="m141 233.5h13" stroke="#ff3860" stroke-width="2" />
        <path d="m141 201.5h13" stroke="#ff3860" stroke-width="2" />
        <circle cx="489" cy="218" r="80" stroke="#ff3860" stroke-width="2" />
    </g>

    <g class="layer">
        <title>Drill</title>
    </g>
</svg>