<svg xmlns="http://www.w3.org/2000/svg">
<g id="tool_closepath">
<svg viewBox="0 0 300 300" xmlns="http://www.w3.org/2000/svg" xmlns:xlink="http://www.w3.org/1999/xlink">
 <defs>
  <marker viewBox="0 0 10 10" id="close_arrow_fw256" refY="5" markerUnits="strokeWidth" markerWidth="5" markerHeight="5" orient="auto" refX="8">
   <path d="m0,0l10,5l-10,5l5,-5l-5,-5z" fill="#f00"/>
  </marker>
 </defs>
 <g>
  <title>Layer 1</title>
  <path stroke="#000" stroke-width="15" fill="#ffc8c8" d="m121.5,40l-84,106l27,115l166,2l29,-111"/>
  <line x1="240" y1="136" x2="169.5" y2="74" stroke="#f00" stroke-width="15" fill="none" marker-end="url(#close_arrow_fw256)"/>
  <g stroke-width="15" stroke="#00f" fill="#00ffff">
  <circle r="30" cy="41" cx="123"/>
  <circle r="30" cy="146" cx="40"/>
  <circle r="30" cy="260" cx="69"/>
  <circle r="30" cy="260" cx="228"/>
  <circle r="30" cy="148" cx="260"/>
  </g>
 </g>
</svg>
</g>
<g id="tool_openpath">
<svg viewBox="0 0 300 300" xmlns="http://www.w3.org/2000/svg" xmlns:xlink="http://www.w3.org/1999/xlink">
 <g>
  <title>Layer 1</title>
  <path stroke="#000" stroke-width="15" fill="#ffc8c8" d="m123.5,38l-84,106l27,115l166,2l29,-111"/>
  <line x1="276.5" y1="153" x2="108.5" y2="24" stroke="#000" stroke-width="10" fill="none"/>
  <g stroke-width="15" stroke="#00f" fill="#0ff">
   <circle r="30" cy="41" cx="123"/>
   <circle r="30" cy="146" cx="40"/>
   <circle r="30" cy="260" cx="69"/>
   <circle r="30" cy="260" cx="228"/>
   <circle r="30" cy="148" cx="260"/>
  </g>
  <g  stroke="#f00" stroke-width="20" fill="none">
   <line x1="168" y1="24.00001" x2="210" y2="150"/>
   <line x1="210" y1="24.00001" x2="168" y2="150"/>
  </g>
 </g>
</svg>
</g>

<g id="svg_eof"/>
</svg>