<svg version="1.0" id="Layer_1" xmlns="http://www.w3.org/2000/svg" xmlns:xlink="http://www.w3.org/1999/xlink" x="0px" y="0px"
	 width="33.6px" height="97.6px" viewBox="0 0 33.6 97.6" style="enable-background:new 0 0 33.6 97.6;" xml:space="preserve">
<g data-cs-player="blue_player">
	<path style="fill:#BF685C;" d="M32.4,27.8c0.5,1,1,4,1.1,5.5c0.2,1.5-0.3,1.9-1.1,2.8c-0.9,0.9-2.6,3.2-3.9,4.5
		c-1.4,1.4-3.7,2.5-3.7,2.6c0,0-1.6-2.9-0.3-4.6c1.3-1.7,2-2.7,2.4-3.3c0.3-0.5,1.8-1.4,1.6-2.1s-1.1-2.6-1.1-3.6c0-1,3.9-1.9,4.1-2
		C31.7,27.3,32.4,27.8,32.4,27.8z"/>
	<path style="fill:#D37363;" d="M29.2,30.8c-0.2,0.4-0.3,0.9,0.2,1.6c0.5,0.7,0,1.5-0.9,2.4c-0.9,0.9-1,1.5-1.2,2.5
		c-0.2,0.9-0.8,2.4,0,2.5c0.8,0.1,2.2-1.2,2.8-2.2s0-0.9-0.7-0.2c-0.7,0.7-1.6,0.8-1-0.2c0.7-1.1,1.5-1.7,2.1-2.3
		c0.6-0.6,0.5,0.4,1.6-0.1c1.1-0.5,1-1.4,0.6-3.1c-0.3-1.7-0.6-2-1.3-1.8C30.7,30.1,29.4,30.4,29.2,30.8z"/>
	<path style="fill:#BF685C;" d="M6.2,31.1c0,0.8-0.5,1.6-0.7,2.1c-0.2,0.5-0.3,0.8,0.1,1.2s2,1.7,2.5,2.8c0.5,1.1,0.9,5.1-0.2,5.3
		s-4.2-3-4.9-4c-0.7-1-2.4-2.5-2.6-3.9c-0.2-1.4,0.1-4.4,0.3-5C1,29,4.1,27.8,4.9,28.4C5.6,29,6.2,31.1,6.2,31.1z"/>
	<path style="fill:#D37363;" d="M1.6,30.9c-0.6,0.8,0,2.9,1,4.1c1,1.2,1.2,2,2,2.7c0.7,0.7,1.7,0.8,1.1-0.3
		c-0.6-1.1-1.7-2.2-1.7-3.5c0.1-1.3,0.3-2.1-0.2-2.6C3.2,30.8,2,30.3,1.6,30.9z"/>
	<path style="fill:#BF685C;" d="M26.9,86.3c-0.1,1.1-0.1,1.6,0,2c0.1,0.5,0.3,0.8,0.4,1.6c0,0-0.2,1.4-1.1,2
		c-0.2,0.1-0.3,0.2-0.5,0.3c-0.3,0.1-0.6,0.1-0.8,0.2c-0.9,0-1.5-0.5-1.6-1.4c-0.1-1-0.1-1.9,0-2.7c0-0.2,0-0.4,0.1-0.6
		c0.1-1-0.1-3.7-0.9-6.6c-0.7-2.9-1.5-5.1-1.2-7c0,0,0-0.1,0-0.1c0.2-1.8,0.1-3.7-0.3-4.6c-0.4-1-1.1-2.6-1.3-4.1
		c-0.2-1.6,0.7-10,1-9.6c0.3,0.3,6,7.5,6.1,8.1c0.1,0.6,0.2,4.1,0.4,5.2c0.2,0.8,0.9,2.5,1.1,4.7c0.1,0.7,0.1,1.4,0.1,2.2
		C28.2,79.3,27.2,84.1,26.9,86.3z"/>
	<path style="fill:#D37363;" d="M26.2,68.6c0.4,1,1.6,3.5,1.6,7.7s-1.8,9.1-1.9,10.5c-0.1,1.3-1.4,0.6-1.4-0.6s0-5.9-0.9-9
		c-1-3.1,0.3-4.8,0.6-6.8C24.5,68.4,25.3,66.4,26.2,68.6z"/>
	<path style="fill:#BF685C;" d="M13.5,67.8c-0.4,1.3-1.4,2-1.1,5.3c0,0.2,0,0.4,0,0.6c0.2,2.9-0.1,4.1-0.9,6.1
		c-0.8,2.1-1.6,5.2-1.8,6.9c0,0.4,0,0.7,0,1c0,1.2,0,2,0,2.4c0,0.5-0.6,1.9-1.2,1.9s-3.5-0.6-3-2.3c0.3-1,0.5-1.6,0.6-2.4
		c0.1-0.5,0-1.1-0.1-1.9c-0.3-2-1.1-7.6-0.7-11.3c0-0.2,0.1-0.5,0.1-0.7c0.5-3.2,1.2-4.7,1.2-6.2c0-1.6-0.4-3.7,0.1-4.5
		c0.6-0.8,6.9,1.1,6.9,1.1C13.9,66.2,13.9,66.5,13.5,67.8z"/>
	<path style="fill:#D37363;" d="M7.3,70.6c-0.7,1.6-1.7,5.1-1.2,8.6c0.4,3.5,0.5,6.8,0.9,7.4c0.4,0.6,1.7,0.4,2.1,0
		c0.4-0.4-0.3-3.2,0.5-6.2c0.8-3,1.1-3.9,0.9-6.6c-0.2-2.7,0.8-3.1,0.3-4.3C10.3,68.6,8,69.1,7.3,70.6z"/>
	<path style="fill:#28778B;" d="M11.5,79.8c-0.8,2.1-1.6,5.2-1.8,6.9c0,0.4,0,0.7,0,1c0,1.2,0,2,0,2.4c0,0.5-0.6,1.9-1.2,1.9
		s-3.5-0.6-3-2.3c0.3-1,0.5-1.6,0.6-2.4c0.1-0.5,0-1.1-0.1-1.9c-0.3-2-1.1-7.6-0.7-11.3c0-0.2,0.1-0.5,0.1-0.7
		c0.1,0.3,0.3,0.6,0.8,0.7c0.1,0,0.3,0.1,0.5,0.1c1.3,0,2.6-0.1,3.7-0.1c0.8-0.1,1.5-0.2,2-0.4C12.6,76.6,12.3,77.9,11.5,79.8z"/>
	<path style="fill:#28778B;" d="M26.9,86.3c-0.1,1.1-0.1,1.6,0,2c0.1,0.5,0.3,0.8,0.4,1.6c0,0-0.2,1.4-1.1,2
		c-0.4,0.1-0.9,0.3-1.4,0.4c-0.9,0-1.5-0.5-1.6-1.4c-0.1-1-0.1-1.9,0-2.7c0-0.2,0-0.4,0.1-0.6c0.1-1-0.1-3.7-0.9-6.6
		c-0.7-2.9-1.5-5.1-1.2-7c0,0,0-0.1,0-0.1c0.5,0.2,1.3,0.4,2.2,0.5c0.7,0.1,1.5,0.2,2.1,0.1c0.9-0.1,1.7-0.3,2.3-0.6
		c0.3-0.2,0.4-0.3,0.5-0.4c0.1,0.7,0.1,1.4,0.1,2.2C28.2,79.3,27.2,84.1,26.9,86.3z"/>
	<path style="fill:#28778B;" d="M29.4,61.2c0.5,1.3,1.1,1.9,0.3,2.7c-0.8,0.8-3.9,1.5-6.9,1.9s-4.4,0-4.6-0.9C18,64,16.4,56,16.4,56
		s-0.7,3.2-0.7,4.9c0,1.7-0.8,3.9-0.8,4.3c0,0.3-4.6,0.6-7.4,0.3c-2.9-0.3-4.8-1.6-5-2.1c-0.2-0.5,0.7-4.7,1.2-6.3
		c0.5-1.6,1.3-8.1,1.9-9c0.6-0.9,4.2-1.5,9.5-1.9c5.4-0.4,11.3-1.3,12.2,1.5c1,2.8,0.4,4.1,0.9,6.3C28.9,56,28.8,59.5,29.4,61.2z"/>
	<path style="fill:#28889E;" d="M7.8,50.8c-2.1,2.1-1.9,5.9-2.6,8.5s-0.6,4.7,1.6,5.2c2.1,0.5,6.4,0.3,6.5-0.6
		c0.2-0.9-0.7-2.4-1.1-4.8c-0.4-2.3-0.9-3.3,0.6-2.6c1.5,0.7-0.7-3.4,0.6-3.4s-1.1-0.2,1.2-1.6c2.3-1.4,5.4-1,4-0.1
		c-1.4,1-2.6,0.4-0.8,2c1.8,1.6-0.2,0.6,0.2,3.7c0.4,3.1,1,6.3,2.4,7c1.4,0.8,6.7,0.6,7.6-0.3c0.9-0.9,0.3-1.8-0.2-4.1
		c-0.5-2.3-0.7-5.2-0.8-7.3c-0.1-2.2-1.4-3.7-4-3.6s-3.6,0.8-6,0.5c-2.4-0.4-4-0.2-4.4,0.9c-0.4,1.2,0,2-1.8,1.2S8.4,50.3,7.8,50.8z
		"/>
	<path style="fill:#C5D2D3;" d="M33,28.8c-0.2,0.2-0.9-0.3-1.7,0.3c-0.8,0.5-3,1.4-3.8,1.5c-0.7,0.1-0.7-1.6-0.7-1.8v0
		c0,0-0.7,4.5-1.2,6.9c-0.5,2.1-0.5,4.1-0.1,5.8c0.4,1.7,0.9,3.2,1.5,4c0.6,0.9,0.8,1.8,0.8,2.2c0,0.4-0.9,0.4-2.9,0.4
		c-2,0-4.3,0.4-6.9,0.4c-2.5,0-2.6-0.3-4.9,0.2C11,49.4,7.4,49,6.2,49.3c-1.2,0.3-1-0.7-0.6-1.9c0.4-1.2,0.7-2.6,1.4-5
		c0.7-2.4,0.3-3.6,0.1-5.9c-0.2-2.3,0-4.7,0-5.5C7,30.2,6.5,30,6.5,30s0,0,0,0c0,0,0,0,0,0c0,0.3,0.1,1.2-0.5,1.5
		c-0.7,0.3-1.6-0.7-2.6-1c-1-0.4-2.1-0.7-2.5-0.6c-0.3,0.1-0.6,0-0.8-0.2c-0.2-0.2,0.1-0.5,0.4-1.4c0.3-1,1.1-3.9,1.3-5.5
		c0.2-1.3,1.3-3.1,3-4.5C5.1,18,5.6,17.7,6,17.5c2.4-1.4,4.6-1.7,5.3-2.1c0.7-0.5,1.1-0.8,1.3-0.9c0.2-0.1,7.4-1.3,8.4-0.2
		c0.9,0.9,4.5,0.9,7.3,3.1c0.4,0.3,0.7,0.7,1.1,1.1c2.8,3.3,2.7,6.8,3.1,7.9C32.9,27.5,33.2,28.6,33,28.8z"/>
	<path style="fill:#DDEBED;" d="M22.4,15.5c1.8,0,3.6,0.7,5.3,2.4c1.7,1.7,2.8,3.9,3.5,6c0.8,2.1,0.5,3.2,0.1,4.1
		c-0.4,0.9-1.9,0.3-2.6,0.5c-0.7,0.2-0.5-3.1-1.2-2.4c-0.7,0.7,0.7-4.9,0-3.3c-0.7,1.6-0.9-3.2-1.2-0.9c-0.3,2.3,0.3,2.9-0.6,3.5
		c-0.9,0.6-3.5,1.2-5.1,1.4c-1.6,0.2-2.8,1-2,2.1c0.7,1,2.3,1,3,3.1c0.8,2.1-1.9,1.7-0.2,4.5s-1.9-0.3,0.3,3.2
		c2.1,3.5,0.3,1.2,1.1,3.7c0.8,2.5,0.8,0.1-2.8,1.9s-10.7,1.7-6.8,0.3c3.9-1.3,6.5-4.3,3.1-2.8c-3.4,1.5-6.3,1.9-4.9-0.3
		c1.3-2.2,4.6-8.7,2.9-6.9c-1.7,1.7,1.9-3.4-0.7-2.2c-2.6,1.2-3.2,2-2.3-0.7c0.9-2.7,3.3-3.3,3.3-4.5c0-1.2-2-1.8-4.3-1.8
		c-2.3,0-3-1.1-3.1-3.2c-0.1-2-1.5-2.7-1.9-1.1c-0.4,1.6-1.1-0.4-0.7,1.7c0.5,2.1-1,0.1,0,1.8c1,1.7-0.4-1,0,1.5
		c0.4,2.5-0.4,0.1-1,1.4c-0.6,1.2-1.8,0.7-2,0c-0.2-0.7,0.2-0.8,0.7-3.1c0.5-2.3,0.9-4.4,2.8-6.3c1.9-1.9,4.7-2.6,6.1-2.8
		c1.3-0.2,3.2,2.4,4.8,2.4c1.5,0,3-1.5,4.2-2.2C21.2,15.8,21.4,15.5,22.4,15.5z"/>
	<path style="fill:#BF685C;" d="M21.6,7.4c0.1,0.3,0.2,0.8,0.1,1.3c-0.1,0.7-0.1,1.5-0.3,1.7c-0.3,0.1-0.7,0.1-0.7,0.1
		s-0.1,0.6-0.3,1.1c-0.2,0.6,0,2.1,0,2.6c0,0.5-1.3,1-2,1.9c-0.7,0.9-1.8,1-2.9,1c-1.1,0-1.4-0.9-1.9-1.3c-0.5-0.3-1.2-0.4-1.1-1
		c0.2-0.6,0.5-1.3,0.3-2.3c-0.2-1-0.6-1.9-0.6-1.9s-0.5-0.1-0.4-0.6c0.1-0.5-0.1-1.6-0.1-1.9c0-0.3,0.3-0.7,0.4-0.9c0,0,0-0.1,0-0.1
		s0-1.5,0-2.1C12,4.5,12.2,3,12.8,2c0.6-1,2.3-1.8,4.2-2c2-0.2,2.5,1,2.6,1.5c0.1,0.6,0,0.5,0.6,0.5c0.6,0,1.9,1.3,1.9,2.3
		c0,1.1-0.6,2.8-0.6,2.8S21.5,7.3,21.6,7.4z"/>
	<path style="fill:#2C201B;" d="M21.5,7.2c0,0,0,0.1,0.1,0.2c-0.9,0.1-0.8,0.8-0.8,0.3c0-0.5-0.1-1-0.3-1.6c-0.2-0.6-0.2-1.3-0.4-2
		C20,3.4,19.1,2.8,18,2.6c-1.1-0.2-1.1,0.7-2.3,0.1c-1.2-0.5-2.3,0.7-2.4,1.4c-0.1,0.7-0.6,1.1-0.6,1.6c-0.1,0.4-0.3,1.2-0.3,2.2
		c0,0.8-0.1,0.2-0.3-0.4c0-0.1,0-0.1,0-0.2c0,0,0-0.1,0-0.1s-0.5-2.4-0.5-3c0-0.6,0.1-1.8,0.9-2.5C13.3,0.8,15.1,0.2,17,0
		c2-0.2,2.5,1,2.6,1.5c0.1,0.6,0,0.5,0.6,0.5c0.6,0,1.9,1.3,1.9,2.3C22.1,5.5,21.5,7.2,21.5,7.2z"/>
	<path style="fill:#D37363;" d="M14.6,4c-0.4,1-1.5,2.8-1.2,4.7c0.3,1.8,1.2,2.9,3.2,2.8c2-0.1,3.4-1.7,3.6-3.4
		c0.1-1.7,0.1-4.3-1.7-4.6C16.6,3.2,14.9,3.3,14.6,4z"/>
	<path style="fill:#1B1715;" d="M25,88.6c1-0.1,2,0.3,2.5,1.4C28,91,28,92,28.3,92.6c0.3,0.6,1.4,1.4,1.2,2.7
		c-0.1,1.4,0.1,1.9-1.3,2.1c-1.3,0.2-4.1,0.3-4.5-0.1c-0.4-0.4-0.2-0.7-0.2-1.4c0-0.7-0.8-0.8-0.8-1.6c0-0.8,0.4-0.8,0-1.8
		c-0.4-1-0.2-1.9,0.1-2.1c0.3-0.3,0.5,0.5,0.6-0.2C23.7,89.5,23.5,88.8,25,88.6z"/>
	<path style="fill:#352F2F;" d="M24.9,89.5c-0.2,0.6-0.3,2.4,0,3.6c0.3,1.2,0.6,2,2,2.2c1.4,0.2,1.9-0.6,1.2-1.8
		c-0.7-1.2-0.5-2.5-1.2-3.4C26.1,89.2,25.1,88.8,24.9,89.5z"/>
	<path style="fill:#1B1715;" d="M9.6,89.1c0-0.3,0.6,0.5,0.4,1.4c-0.2,1-0.2,1.6-0.1,2.6c0.1,0.9,0.1,1.3-0.3,1.7
		c-0.4,0.4-1.5,0.2-1.5,1.2s-1,1.3-2.4,1.3s-3.5,0.1-3.8-0.5C1.6,96.3,2,96.2,2,95.6S2,94.4,2.9,93.5s1.4-2,1.6-2.9
		c0.2-0.9-0.2-1.5,1.2-2.1c1.4-0.5,2.5-0.5,2.7,0.1c0.3,0.6-0.1,1,0.2,1.3c0.3,0.3,0.7,0.9,0.8,0.3C9.6,89.8,9.6,89.1,9.6,89.1z"/>
	<path style="fill:#352F2F;" d="M6.8,88.9c-1.2,0-1.5,0-1.8,1.2c-0.2,1.2-0.7,2.7-1.3,3.4c-0.6,0.7-1,1.4,0.2,1.7
		c1.2,0.3,3-0.5,2.8-1.8c-0.2-1.4,0.9-2.5,0.9-3.4C7.5,88.9,7.2,88.9,6.8,88.9z"/>
	<path style="fill:#D37363;" d="M16,13.9c-0.4,0.7-1,1.3-0.8,2c0.3,0.7,1.5,0.8,2,0.3c0.5-0.5,1.9-0.5,0.8-1.2
		C17,14.5,16.5,13.1,16,13.9z"/>
	<path style="fill:#28889E;" d="M27.8,76.3c0,4.2-1.8,9.1-1.9,10.5c-0.1,1.3-1.4,0.6-1.4-0.6c0-1.2,0-5.9-0.9-9
		c-0.3-1-0.4-1.8-0.3-2.6c0.7,0.1,1.5,0.2,2.1,0.1c0.9-0.1,1.7-0.3,2.3-0.6C27.8,74.7,27.8,75.5,27.8,76.3z"/>
	<path style="fill:#28889E;" d="M9.5,80.6c-0.8,3-0.1,5.8-0.5,6.2c-0.4,0.4-1.6,0.6-2.1,0c-0.4-0.6-0.5-3.9-0.9-7.4
		c-0.2-1.8-0.1-3.6,0.2-5.1c0.1,0,0.3,0.1,0.5,0.1c1.3,0,2.6-0.1,3.7-0.1C10.6,76.7,10.3,77.6,9.5,80.6z"/>
	<path style="fill:#28778B;" d="M33,28.8c-0.2,0.2-0.9-0.3-1.7,0.3c-0.8,0.5-3,1.4-3.8,1.5c-0.7,0.1-0.7-1.6-0.7-1.8v0
		c0,0,0.4-1.8,0-3c-0.3-1.1-0.9-2.8-0.2-4.2c0.1-0.2,0.1-0.3,0.2-0.4c0.7-1,1.4-1.6,1.6-2.5c0.1-0.4,0.1-0.8-0.1-1.3
		c0.4,0.3,0.7,0.7,1.1,1.1c2.8,3.3,2.7,6.8,3.1,7.9C32.9,27.5,33.2,28.6,33,28.8z"/>
	<path style="fill:#28778B;" d="M6.5,30c0,0.3,0.1,1.2-0.5,1.5c-0.7,0.3-1.6-0.7-2.6-1c-1-0.4-2.1-0.7-2.5-0.6
		c-0.3,0.1-0.6,0-0.8-0.2c-0.2-0.2,0.1-0.5,0.4-1.4c0.3-1,1.1-3.9,1.3-5.5c0.2-1.3,1.3-3.1,3-4.5c0,0.3,0.1,0.6,0.2,0.9
		c0.1,0.2,0.2,0.4,0.3,0.6c0.2,0.4,0.4,0.9,0.6,1.5C6.1,22.5,7,23.2,7,24.2c0,1.4-0.3,2-0.3,3.5C6.6,29.3,6.5,30,6.5,30
		C6.5,30,6.5,30,6.5,30C6.5,30,6.5,30,6.5,30z"/>
	<path style="fill:#28889E;" d="M5.2,19.8c0.2,0.4,0.4,0.9,0.6,1.5c-0.2,0.1-0.4,0.4-0.6,0.8c-0.4,1.6-1.1-0.4-0.7,1.7
		c0.4,2.1-1,0.1,0,1.8c0.2,0.4,0.4,0.6,0.4,0.6c0-0.1-0.6-0.9-0.4,0.9c0.4,2.5-0.4,0.1-1,1.4c-0.6,1.2-1.8,0.7-2,0
		c-0.2-0.7,0.2-0.8,0.7-3.1c0.5-2.3,0.9-4.3,2.7-6.2C5,19.5,5.1,19.7,5.2,19.8z"/>
	<path style="fill:#28889E;" d="M31.4,28c-0.4,0.9-1.9,0.3-2.6,0.5c-0.7,0.2-0.5-3.1-1.2-2.4c-0.7,0.7,0.7-4.8,0-3.3
		c-0.4,1-0.7-0.6-0.9-1.2c0.1-0.2,0.1-0.3,0.2-0.4c0.7-1,1.4-1.6,1.6-2.5c1.3,1.6,2.2,3.5,2.9,5.3C32.1,26,31.8,27.2,31.4,28z"/>
</g>
</svg>
