<svg version="1.0" id="Layer_1" xmlns="http://www.w3.org/2000/svg" xmlns:xlink="http://www.w3.org/1999/xlink" x="0px" y="0px"
	 width="57.6px" height="93.4px" viewBox="0 0 57.6 93.4" style="enable-background:new 0 0 57.6 93.4;" xml:space="preserve">
<g data-cs-player="red_player_dribble">
	<path style="fill:#BF685C;" d="M13.1,25.8c-0.8,0.6-2.6,2-3.1,3.3c-0.5,1.3-1.5,3.1-2.3,4c-0.8,0.9-2.2,2.7-1.9,3.2
		c0.2,0.4,1.7,1,1.7,1.5s0.7,2.4,0.6,2.9c-0.2,0.5-0.5,0.6-1.2,0C6,39.9,6.7,39.3,6.1,39c-0.6-0.3-1.4-0.3-1.4,0.5
		c0,0.8,0.5,1.7,1.1,2.1c0.6,0.4,0.9,0.7,0.8,1c-0.1,0.3-1.4,0.3-1.4,0.3s0.2,0.5-0.1,0.6c-0.3,0.2-1.8-0.2-2.6-0.5
		c-0.8-0.3-1.2-0.5-1.2-1c0-0.5,0.1-1.8,0.2-2.4C1.5,39,2,37.8,2.2,37.1c0.3-0.6,0.2-1.7,0.4-2.3c0.3-0.6,0.8-2.3,1-3.8
		c0.2-1.4,1.6-4.1,2.3-5c0.7-0.9,1.4-1.7,1.9-2.2c0.5-0.5,0.7-0.9,1.2-1C9.4,22.8,13.1,25.8,13.1,25.8z"/>
	<path style="fill:#D37363;" d="M8.3,25c-1.4,0.8-2.6,1.7-3.4,5.7c-0.8,4-0.5,4.5-1,5.5s-1.7,1.6-1.8,2.3c-0.2,0.7,0,0.7,0.7,0.2
		c0.7-0.4,1,0.1,1.5-0.3c0.5-0.4,0.4-1,1.3-0.8c0.9,0.3,1.4,0.5,1.1-0.1c-0.3-0.7-1-0.6-1.2-1.2c-0.1-0.6,0-0.8,0.3-1.5
		c0.3-0.7,2.7-3.3,3.1-5C9.2,28,9,27.9,9.2,26.6C9.4,25.4,9.1,24.5,8.3,25z"/>
	<path style="fill:#BF685C;" d="M37.8,26.9c0.4,0.5,2.1,2,2.6,2.6c0.4,0.5,2,0.9,3.4,0.9s3.9-1,5.4-1.9c1.5-0.9,2.6-2.2,3.2-2.2
		c0.6-0.1,1.1-0.1,2-0.3c0.9-0.2,1.4-0.8,1.4-0.8s0.6,0,1.2-0.2c0.6-0.2,0.6-0.7,0.5-0.9c-0.1-0.2-0.9-0.3-0.9-0.3
		c0,0,0.7-0.5,0.7-0.9c0-0.5-0.2-0.7-0.4-0.7c-0.2,0-0.1,0-0.1-0.3c0-0.2,0.1-0.5-0.4-0.7c-0.5-0.2-0.6-0.1-0.6-0.1s0.3-0.6-0.1-0.8
		c-0.4-0.3-0.5-0.4-1.2-0.1c-0.7,0.3-1.5,0.7-1.9,1c-0.4,0.3-1.2,0.6-1.3,0.6c-0.1,0-0.9-0.1-1.3,0.1c-0.4,0.2-0.6,0.4-0.5,0.8
		c0.1,0.4,0.3,1,0.3,1c0,0-1.7,0.8-2.9,1c-1.2,0.2-3.4-0.3-4.2,0.1C42.1,25.1,37.8,26.9,37.8,26.9z"/>
	<path style="fill:#D37363;" d="M42.6,27.2c-0.4,0.7,0.9,1.7,2.1,1c1.2-0.8,3.9-2.1,4.5-2.7c0.6-0.6,0.9-0.8,0.9-1
		c0-0.3-0.2-0.5-0.5-0.3c-0.3,0.2-1.8,0.9-2.8,0.9c-1,0-2.6-0.1-3.1,0.1C43.3,25.4,43,26.5,42.6,27.2z"/>
	<path style="fill:#D37363;" d="M50.1,22.6c0.6,0.4,0.5,0,0.9-0.2c0.4-0.2,0.3-0.3,0.4-0.3c0.2,0,0.3-0.1,0.2,0.3
		c-0.1,0.4,0,0.9,0.6,0.4c0.6-0.6,0.3-0.5,1.3-1.3c1-0.8,1.2-1.1,1.5-0.9c0.2,0.2,0.6,0.6,0.7,0.4c0.1-0.2,0.2-0.4,0-0.5
		c-0.2-0.2-0.7-0.3-1.1,0c-0.5,0.3-1.6,1-2,1.3c-0.4,0.3-0.5,0.2-0.9,0.2c-0.4,0-0.9,0-1.2,0.2C50,22.3,49.9,22.4,50.1,22.6z"/>
	<path style="fill:#D37363;" d="M56.1,21.5c0,0.6-0.8,1-0.7,1.3c0.1,0.2,0.3,0.4,0.5,0.4s0.4,0,0,0.3c-0.4,0.3,0,0.6,0.3,0.5
		c0.3-0.1,0.9-0.1,0.6,0.1c-0.3,0.2-0.9-0.1-0.8,0.2c0.1,0.4,0.3,0.6,0.7,0.4c0.5-0.1,1-0.2,0.9-0.4c-0.1-0.2-0.3-0.4-0.7-0.5
		c-0.3-0.1-0.5-0.2-0.3-0.4c0.2-0.2,0.7-0.6,0.5-0.8c-0.1-0.3-0.5-0.1-0.5-0.3c0-0.3,0.3-0.5,0-0.8C56.4,21.3,56.1,21.3,56.1,21.5z"
		/>
	<path style="fill:#BF685C;" d="M40.2,76.9c0.8,1.4,0.6,2.5-0.7,3.1c-1.3,0.7-2.2,1.5-3.5,0.6c-1.3-0.9-1.7-0.6-2.1-1.6
		c-0.3-1,0.1-2.5,0.1-2.5c0.3-2.4,0.1-5.7-1-8.7c-0.8-2.3-1-4.2-0.7-5.9c0.1-0.6,0.2-1.2,0.3-1.8c0.5-2.2,1.5-2.8,0.6-3.7
		c-0.9-0.9-2.1-1-2.1-1s2.8-1.9,3.4-2.6c0.6-0.8,2.6-2.9,3.1-2.9c0.4,0,1.9,0.7,2.3,1.9c0.3,1.2,1.2,1.4,1.3,3
		c0.1,1.6,0.2,2.5-0.4,4.1C40.2,60,40,61.1,40,62.2c0,0.6-0.1,1.2-0.1,1.8c0,1.7-0.9,5.4-1.1,7.3C38.6,73.2,39.4,75.5,40.2,76.9z"/>
	<path style="fill:#73121B;" d="M39.5,80.1c-1.3,0.7-2.2,1.5-3.5,0.6c-1.3-0.9-1.7-0.6-2.1-1.6c-0.3-1,0.1-2.5,0.1-2.5
		c0.3-2.4,0.1-5.7-1-8.7c-0.8-2.3-1-4.2-0.7-5.9c0.5,0.5,1.2,0.9,3.1,0.4c1.9-0.6,3.6-0.2,4.7-0.1c0,0.6-0.1,1.2-0.1,1.8
		c0,1.7-0.9,5.4-1.1,7.3c-0.2,1.9,0.6,4.3,1.4,5.6C40.9,78.3,40.8,79.4,39.5,80.1z"/>
	<path style="fill:#73121B;" d="M27.3,40.7c0.7,0,3.2,3,3.5,3.5c0.3,0.5,3.3,2.6,4.4,3.5c1.1,0.9,2.8,2.1,2.9,2.4
		c0.1,0.3-2.4,3-3.6,3.7c-1.2,0.7-3.6,2.3-3.9,2.5c-0.4,0.2-1.7-1.6-1.7-1.6s-0.4,2.6-0.4,3.8s-0.4,2-0.5,2.1
		c-0.1,0.1-0.8,0.1-0.8,0.1s-1.7-1.4-2.5-1.2c-0.8,0.2-4.5,1.4-5,1.4c-0.5,0-1,0.5-1-0.1c-0.1-0.6-0.8-4.5-0.8-6.4
		c0.1-1.9,0.6-4.1,0.1-4.9c-0.5-0.8-3.7-4.3-2.7-7.3c1-2.9,7.9-3.2,9.9-3C27.3,39.6,27.3,40.7,27.3,40.7z"/>
	<path style="fill:#AB1B28;" d="M23.5,41.6c1.7-0.2,3.3-0.8,4.4,0.2c1,1,1.3,2.3,2.8,3.4c1.5,1.1,5.5,3.7,5.9,4.5
		c0.3,0.8-0.6,2-1.5,2.6c-0.8,0.6-2.6,0.9-4.4,0.2c-1.7-0.7,3.3-1.5-1-2.1s1.2-1.1-3.4-2c-4.6-0.9,0.5-1.6-2.5-2.6s2.1-0.7-0.2-1.7
		C21.4,43,21.3,41.8,23.5,41.6z"/>
	<path style="fill:#C5D2D3;" d="M43.3,24.9c-0.1,0.8-1.2,1.7-2.8,2c-1.6,0.3-3.6,0.1-4,0.1c-0.4,0-1.1-2.1-1.1-2.1s-0.4,1.4-1.4,2.4
		c-1,1-1.7,2.4-2.5,4.5c-0.8,2.1-1.9,3.2-1.9,4.7s-0.2,1.3-0.4,2.3c-0.2,0.9-0.6,2.5-0.6,2.5c0.2,0.3,0.5,0.7,0.1,0.6
		c-0.4-0.1-0.3-1.1-2.8-1.1c-2.6,0-4.1,0.3-5.9,1.1c-1.8,0.8-4.3,0.8-4.7,1.1s-0.7,0.2-0.7-0.5c0.1-0.7-0.5-1.7,0.7-3.3
		c1.2-1.6,1.1-4.1,1.4-5c0.4-0.9-0.2-2.9,0-3.9c0.2-1-0.4-2.9-0.5-3.8c-0.1-0.8-0.5-1.9-0.5-1.9c0,0,0,0,0,0
		c-0.1,0.1-0.9,1.4-1.4,1.6c-0.5,0.2-1.8,0-3.5-1.1c-1.8-1.1-2.4-1.4-2.3-2.2c0.1-0.8,2.3-3.1,2.3-3.1s1.8-4.2,4.2-5.7
		c1.4-0.9,1.8-1,2.1-1.1c0.2-0.1,0.4-0.2,0.8-0.4c1.2-0.8,3.5-1.2,4.4-1.6s1.4-0.6,2.7-0.4c1.3,0.2,5.7,0.5,7.4,1.6
		c1.7,1.1,3.2,2.1,3.4,2.5c0.2,0.3,1,0.5,2.1,1.5c0.4,0.4,0.9,1,1.4,1.8c1.6,2.7,0.9,2.8,1.9,4.3C42.4,23.8,43.4,24,43.3,24.9z"/>
	<path style="fill:#DDEBED;" d="M10.3,22.7c0.4-1.8,1.1-1.1,2.4-3.1c1.3-2,1.8-3.2,3.8-4.8s5-2.8,6.3-0.9c1.3,1.9,3.8,5.5,6.6,4.9
		c2.8-0.7,1.8-1.7,3.4-3c1.7-1.3,2.5-0.2,4,1c1.5,1.2,1.2,1.8,2.7,4.3c1.5,2.5,2.5,3.3,1.8,4c-0.7,0.7-1.8,1-3,0.5
		c-1.1-0.5-1.8,0-1.2-1.9c0.6-1.8,0.8-3.4,0.5-2.6c-0.3,0.8,0.1-2.3-1.3,0.1c-1.4,2.4-1.2,2.9-2.2,3.7c-1,0.8-2.5,0.7-4.1,0.3
		c-1.6-0.3-0.6,1.4,0.3,2.3c0.9,0.9,0,0.3-0.4,2.3c-0.4,2.1-0.8,1.1-0.9,2.7c-0.1,1.6-0.7,1.2-0.4,2c0.3,0.8-1.6,1.8-0.8,3.2
		c0.8,1.4-1.4,0.1-1.1,1c0.3,0.8-3.4-0.7-3.4-0.3c0,0.4,0.1,0.3,1.2,1.1c1.1,0.8,2.5,0-1,0.5c-3.5,0.4-4.9,1.6-5.7,0.8
		c-0.8-0.8,0.1-2.2,1.2-2.2c1.1,0-2.8-4.7-0.3-3.5c2.5,1.2,4.6,5.2,2.2,0.4c-2.4-4.9-5.4-8.1-1.4-4.5c4,3.7,4.1,4.5,2.7,1.3
		c-1.4-3.2-3.1-3.8-0.6-2.8c2.5,1,3.5,1.4,2-0.7c-1.5-2-5.2-3.3-0.9-2.4c4.3,0.9,5.3,1.2,4.3,0.4c-1-0.7-5.9-1.1-6.7-3.9
		c-0.9-2.8-1.6-1.6-2.4-2.4c-0.8-0.8-1-1-1.3,0.5c-0.3,1.5-1.1,0.6-2.3,2.1c-1.2,1.6-2,0.8-2.6,0.7C11.2,23.7,10.1,23.6,10.3,22.7z"
		/>
	<path style="fill:#73121B;" d="M18.7,15.6c-0.2,0.8-0.6,3.5-0.6,4.9c0,0,0,0.1,0,0.1c0,1.3,0.8,2.3,0.3,2.6c-0.5,0.3-1.3,0-2,0.6
		c-0.7,0.6-0.4,0.6-0.5,1c0,0,0,0,0,0c-0.1,0.1-0.9,1.4-1.4,1.6c-0.5,0.2-1.8,0-3.5-1.1c-1.8-1.1-2.4-1.4-2.3-2.2
		c0.1-0.8,2.3-3.1,2.3-3.1s1.8-4.2,4.2-5.7c1.4-0.9,1.8-1,2.1-1.1c0.3,0.2,0.5,0.5,0.7,0.8C18.5,14.5,18.8,15.2,18.7,15.6z"/>
	<path style="fill:#73121B;" d="M43.3,24.9c-0.1,0.8-1.2,1.7-2.8,2c-1.6,0.3-3.6,0.1-4,0.1c-0.4,0-1.1-2.1-1.1-2.1s0.4-0.9,1-1.7
		c0.3-0.5,0.8-1.3,1.2-2.2c0.3-0.8,0.6-1.8,0.6-2.7v0c0-0.9-0.1-1.6-0.2-2.1c0.4,0.4,0.9,1,1.4,1.8c1.6,2.7,0.9,2.8,1.9,4.3
		C42.4,23.8,43.4,24,43.3,24.9z"/>
	<path style="fill:#BF685C;" d="M37.2,4.1c0,1.1-0.8,2.8-0.8,3c0,0,0,0,0,0c-0.1,2.8-3.6,8.6-5.1,9c-1.5,0.4-2.9-1-2.9-1
		c0,0-0.8,0.4-1.6-0.5c-0.8-0.9-1.5-2.1-1.9-2.5c-0.4-0.4-0.7-1.2-0.7-1.2s1.3-0.5,1.5-1c0.2-0.5-0.2-0.7-0.2-1.8
		c0.1-1,0.1-1.4,0.3-1.6c0,0,0.1-0.1,0.1-0.2c0.1-0.6-0.1-2.5,1.1-4.1C28.3,0.4,29.7,0,31,0c1.3,0,1,0.7,2.1,0.6
		c1.1-0.1,2.2,0.3,2.9,1.2C36.8,2.8,37.2,3,37.2,4.1z"/>
	<path style="fill:#2C201B;" d="M37.2,4.1c0,1.1-0.8,2.8-0.8,3c-0.1-0.2-0.1-0.3-0.1-0.5c-0.1-0.5-0.2-0.3-0.7,0.2
		c-0.5,0.5-0.8,0.4-1.9,0.5c-1,0.1-2.2-0.9-3.3-1.5c-1.1-0.6-0.4,0.3-0.6,1c-0.2,0.7-0.6,0.9-1.5,1.2c-0.9,0.4-0.1,0.8-0.6,1.3
		c-0.5,0.5-0.8-0.1-0.8-0.8c0-0.7,0-1.4-0.8-2c-0.1-0.1-0.2-0.2-0.3-0.2c0.1-0.6-0.1-2.5,1.1-4.1C28.3,0.4,29.7,0,31,0
		c1.3,0,1,0.7,2.1,0.6c1.1-0.1,2.2,0.3,2.9,1.2C36.8,2.8,37.2,3,37.2,4.1z"/>
	<path style="fill:#D37363;" d="M35.7,8.3c0,0.9-2.6,5.9-3.4,6.8c-0.8,0.8-1.9,0.8-2.7,0.2c-0.9-0.6-1.3-2-0.6-3.2
		c0.8-1.2,2.3-2.1,3.6-3C33.8,8.2,35.7,7.6,35.7,8.3z"/>
	<path style="fill:#D37363;" d="M34.9,54.3c0.7,0.6,2.6,0.9,2.4,2c-0.1,1.1-1.3,1.5-0.8,2.9c0.5,1.4,1,1,2.7-0.2
		c1.6-1.2,1.7-2.2,1.6-3.4c-0.1-1.2-0.6-1.4-1.1-2.5c-0.5-1.1-1-2.2-1.3-2.2c-0.4,0-0.7,0.9-1.6,1.7C35.9,53.4,34.9,54.3,34.9,54.3z
		"/>
	<path style="fill:#AB1B28;" d="M18,13.9c0.5,0.7,0.8,1.3,0.7,1.7c-0.2,0.8-0.6,3.5-0.6,4.9c0,0,0,0.1,0,0.1l0,0
		c-0.8-0.8-1-1-1.3,0.5c-0.3,1.5-1.1,0.6-2.3,2.1c-1.2,1.6-1.9,0.8-2.6,0.7c-0.7-0.1-1.8-0.2-1.6-1.1c0.4-1.8,1.1-1.1,2.4-3.1
		c1.3-2,1.8-3.2,3.8-4.8C17,14.5,17.5,14.1,18,13.9z"/>
	<path style="fill:#AB1B28;" d="M41.5,25c-0.7,0.7-1.8,1-3,0.5c-1.1-0.5-1.8,0-1.2-1.9c0.6-1.8,0.8-3.4,0.5-2.6
		c-0.1,0.3-0.1,0.1-0.2-0.1c0.3-0.8,0.6-1.8,0.6-2.7c0.3,0.6,0.6,1.4,1.4,2.8C41.2,23.5,42.2,24.3,41.5,25z"/>
	<path style="fill:#1B1715;" d="M39.8,77.1c0.5-0.5,0.3-1.1,0.7-0.9c0.4,0.2,0.5,1.2,1,1.9c0.6,0.7,2,2.3,3.7,2.9
		c1.7,0.7,2.7,1.5,2.8,2.4c0.1,1-1.2,2.7-3.7,2.6c-2.5-0.1-4.8-0.9-5.8-1.5c-1-0.6-2.3-1-3.7-1.5c-1.4-0.5-2.3-1.4-2.6-2.5
		c-0.3-1,0.3-1.6,0.6-2.3c0.3-0.7,0.7-1.6,1.2-2.4c0.4-0.8,0.9,1.1,1.2,2.3c0.3,1.2,2.1,2,2.6,1.8s0.1-0.7,0.4-1.2
		C38.4,78.3,38.9,78,39.8,77.1z"/>
	<path style="fill:#352F2F;" d="M39,78.9c-0.1,0.8,1.8,2.6,3.3,3.4c1.5,0.9,2.8,1.6,3.9,1.2c1.1-0.4,0.3-1.4-0.3-1.9
		c-0.6-0.5-2.2-0.8-3.1-1.5c-1-0.8-1.6-2.2-2.3-2.5C39.9,77.5,39.1,78.3,39,78.9z"/>
	<path style="fill:#BF685C;" d="M27.4,59.9c0,0.2-1,3.7-1.4,4.9c-0.4,1.2-2.1,2.1-3.8,3.4c-1.1,0.8-1.3,1.2-2,1.9
		c-0.4,0.4-1,1-2,1.8c-2.7,2.2-5.2,4-7,5.3c-1.8,1.3-1.5,1.3-2.7,3.1l0.2,1.1L6,81.7c0,0-1.8-0.5-2.5-0.9c-0.7-0.4-0.4-3.3-0.4-3.3
		s1.2-0.4,2.6-1.7c1.4-1.3,3.5-3.2,5.3-6.6c0.4-0.7,0.9-1.4,1.4-2c1.9-2.2,4.3-3.5,5.2-4.2c1.1-0.9,1.1-2,1.1-2.1c0,0,2-0.6,2.8-0.8
		c0.8-0.2,2.3-1.1,3.3-1.2C25.8,58.8,27.4,59.6,27.4,59.9z"/>
	<path style="fill:#D37363;" d="M6.7,76.2c2-1.8,3.7-2.4,4-3.3c0.3-0.9-0.2-2.4,1.5-2.5c1.6-0.2,2.6,0,4.3-1.7
		c1.7-1.7,2.8-3.5,3.3-5c0.4-1.5,0.4-1.9,0.1-2.1c-0.3-0.3-0.6-0.3-0.8,0.6c-0.2,0.9-2,2-3.5,3.1c-1.6,1-2.8,2.2-3.8,3.7
		c-1,1.5-2,3.6-2.8,4.3c-0.7,0.7-2.5,2.4-3.1,3C5.3,76.8,5.6,77.2,6.7,76.2z"/>
	<path style="fill:#73121B;" d="M20.2,70c-0.4,0.4-1,1-2,1.8c-2.7,2.2-5.2,4-7,5.3c-1.8,1.3-1.5,1.3-2.7,3.1l0.2,1.1L6,81.7
		c0,0-1.8-0.5-2.5-0.9c-0.7-0.4-0.4-3.3-0.4-3.3s1.2-0.4,2.6-1.7c1.4-1.3,3.5-3.2,5.3-6.6c0.4-0.7,0.9-1.4,1.4-2
		c0,0.2,0.1,0.3,0.2,0.5c0.3,0.3,0.9,0.6,2,0.6c0.6,0,1.3,0.1,1.8,0.3C18,69,19.3,69.8,20.2,70z"/>
	<path style="fill:#1B1715;" d="M10.8,85.1c0.3,0.3,2.4,0.8,2.4,1.8c0,1-0.3,1.5-2.1,1.6c-1.8,0.1-3.2,0.1-4.4-0.9
		c-1.1-1-1.2-2.3-2.2-2.9C3.4,84,1.8,83.1,0.8,82c-1-1.1-1.1-1.8-0.4-2.4c0.8-0.6,0.9-1.1,2-2c1.1-0.9,1.8-1.4,2-1.2
		c0.2,0.3-0.5,0.7-0.1,2.1c0.4,1.5,1.3,1.9,2.1,1.9c0.8,0,1.3,0.2,1.3,0.2s0.5-0.9,0.9-1.3c0.3-0.4,1-0.4,1,0.4S9.2,81,9.3,82
		C9.5,83.1,9.9,84.3,10.8,85.1z"/>
	<path style="fill:#352F2F;" d="M8.6,80.8c-0.7,0.7-1.5,0.9-1.6,2.3c-0.2,1.4,1.1,3,2.4,3.5c1.3,0.5,3,0.9,3.2,0.6
		c0.2-0.3-0.5-1.5-1.4-1.6c-0.9-0.1-1.4,0.6-1.3-0.1c0.1-0.7,0.2-0.6-0.3-1.3c-0.5-0.7-0.7-1.6-0.7-2.5C8.9,80.8,8.9,80.5,8.6,80.8z
		"/>
	<path style="fill:#AB1B28;" d="M16.5,68.6C16.5,68.6,16.5,68.6,16.5,68.6c-1.8,1.8-2.8,1.6-4.4,1.8c-1.6,0.2-1.2,1.6-1.5,2.5
		c-0.3,0.9-1.9,1.5-4,3.3c-1.1,0.9-1.4,0.5-0.8,0c0.5-0.5,2.3-2.2,3.1-3c0.7-0.7,1.8-2.8,2.8-4.3c0.3-0.4,0.6-0.9,0.9-1.2
		c0.3,0.3,0.9,0.6,2,0.6C15.3,68.3,15.9,68.4,16.5,68.6z"/>
	<g>
		<path style="fill:#D2D2D2;" d="M44.9,86.8c0,0.1,0,0.2,0,0.2c0,0,0,0,0,0c0,0,0,0.1,0,0.1c0,0,0,0.1,0,0.1c0,0,0,0.1,0,0.1
			c0,0,0,0.1,0,0.1c0,0,0,0.1,0,0.1c0,0,0,0.1,0,0.1c0,0,0,0,0,0.1c0,0,0,0.1,0,0.1c0,0,0,0,0,0c0,0,0,0.1,0,0.1c0,0,0,0.1,0,0.1
			c0,0,0,0,0,0.1c0,0,0,0.1,0,0.1c0,0,0,0.1,0,0.1c0,0,0,0.1,0,0.1c0,0,0,0,0,0.1c0,0,0,0,0,0c0,0,0,0,0,0.1c0,0,0,0.1,0,0.1
			c0,0,0,0,0,0.1c0,0,0,0,0,0.1c0,0,0,0.1,0,0.1c0,0,0,0.1,0,0.1c0,0,0,0,0,0.1c0,0,0,0,0,0.1c0,0,0,0.1,0,0.1
			c-0.1,0.3-0.2,0.5-0.4,0.8c0,0,0,0.1-0.1,0.1c0,0,0,0.1-0.1,0.1c0,0,0,0,0,0c0,0,0,0.1-0.1,0.1c0,0,0,0.1-0.1,0.1c0,0,0,0,0,0.1
			c-0.2,0.2-0.4,0.5-0.6,0.7c0,0,0,0-0.1,0.1c-0.1,0.1-0.3,0.3-0.4,0.4c0,0-0.1,0.1-0.1,0.1c-0.2,0.2-0.5,0.4-0.7,0.5c0,0,0,0-0.1,0
			c0,0,0,0-0.1,0c-0.1,0-0.1,0.1-0.2,0.1c0,0,0,0-0.1,0c0,0-0.1,0-0.1,0c0,0-0.1,0-0.1,0c-0.1,0-0.1,0.1-0.2,0.1c0,0,0,0-0.1,0
			c0,0,0,0-0.1,0c0,0,0,0-0.1,0c0,0-0.1,0-0.1,0c0,0,0,0-0.1,0c0,0-0.1,0-0.1,0.1c0,0-0.1,0-0.1,0c0,0-0.1,0-0.1,0c0,0-0.1,0-0.1,0
			c0,0-0.1,0-0.1,0c0,0-0.1,0-0.1,0c0,0,0,0-0.1,0c0,0-0.1,0-0.1,0c0,0-0.1,0-0.1,0c-0.1,0-0.1,0-0.2,0c-0.1,0-0.3,0.1-0.4,0.1
			c-0.1,0-0.1,0-0.2,0c-0.1,0-0.1,0-0.2,0h0c0,0-0.1,0-0.1,0c-0.2,0-0.4,0-0.5,0c-1,0-2-0.2-2.9-0.7c0,0-0.1,0-0.1-0.1c0,0,0,0,0,0
			c-0.1,0-0.2-0.1-0.2-0.1c0,0,0,0-0.1,0c0,0,0,0-0.1,0c-0.1,0-0.2-0.1-0.2-0.1c0,0-0.1,0-0.1-0.1c-0.1,0-0.1-0.1-0.1-0.1
			c0,0-0.1,0-0.1-0.1c0,0,0,0,0,0c0,0-0.1,0-0.1-0.1c0,0,0,0,0,0c0,0,0,0-0.1-0.1c0,0,0,0,0,0c0,0-0.1,0-0.1-0.1c0,0,0,0,0,0
			c0,0,0,0-0.1-0.1c0,0,0,0,0,0c0,0,0,0-0.1-0.1c0,0,0,0,0,0c0,0,0,0,0,0c0,0,0,0-0.1-0.1c0,0,0,0,0,0c0,0,0,0-0.1-0.1c0,0,0,0,0,0
			c0,0,0,0-0.1-0.1c0,0,0,0-0.1-0.1c0,0-0.1-0.1-0.1-0.1c0,0,0,0,0-0.1c0,0,0,0-0.1-0.1c0,0,0,0,0,0c0,0,0-0.1-0.1-0.1
			c0,0-0.1-0.1-0.1-0.1c0,0,0,0,0-0.1c0,0,0,0,0-0.1c0,0,0,0,0,0c0,0,0,0,0-0.1c0,0,0,0,0,0c0,0,0-0.1-0.1-0.1c0,0,0,0,0,0
			c0,0,0,0,0-0.1c0,0,0,0,0,0c0,0,0-0.1-0.1-0.1c0,0,0-0.1-0.1-0.1c0,0,0,0,0-0.1c0,0,0,0,0-0.1c0,0,0-0.1-0.1-0.1
			c0,0,0-0.1-0.1-0.1c0,0,0-0.1,0-0.1c0-0.1-0.1-0.1-0.1-0.2c0,0,0-0.1-0.1-0.1c0,0,0-0.1,0-0.1c0,0,0-0.1-0.1-0.1
			c0-0.1-0.1-0.2-0.1-0.3c0,0,0-0.1,0-0.1c0,0,0,0,0,0c0,0,0-0.1,0-0.1c0,0,0-0.1,0-0.1c0,0,0,0,0,0c0,0,0-0.1,0-0.1c0,0,0,0,0,0
			c0,0,0,0,0-0.1c0,0,0-0.1,0-0.1c0,0,0-0.1,0-0.1c0,0,0-0.1,0-0.1c0,0,0,0,0-0.1c0,0,0-0.1,0-0.1c0,0,0-0.1,0-0.1c0,0,0-0.1,0-0.1
			c0,0,0-0.1,0-0.1s0-0.1,0-0.1c0,0,0-0.1,0-0.1c0-0.1,0-0.2,0-0.3c0,0,0-0.1,0-0.1c0,0,0-0.1,0-0.1c0,0,0,0,0,0c0,0,0,0,0-0.1
			c0,0,0-0.1,0-0.1c0,0,0,0,0,0c0,0,0-0.1,0-0.1c0,0,0-0.1,0-0.1c0-0.1,0-0.2,0-0.2c0,0,0-0.1,0-0.1c0,0,0-0.1,0-0.1c0,0,0,0,0,0
			c0,0,0-0.1,0-0.1c0-0.1,0-0.1,0-0.2c0,0,0-0.1,0-0.1c0,0,0-0.1,0-0.1c0,0,0,0,0,0c0,0,0-0.1,0-0.1c0,0,0-0.1,0-0.1
			c0,0,0-0.1,0-0.1c0,0,0,0,0,0c0,0,0-0.1,0-0.1c0,0,0-0.1,0-0.1c0-0.1,0.1-0.2,0.1-0.2c0,0,0-0.1,0.1-0.1c0.4-1,1.1-1.8,1.9-2.5
			c0,0,0.1-0.1,0.1-0.1c0.1-0.1,0.1-0.1,0.2-0.1c0,0,0.1,0,0.1-0.1c0.1-0.1,0.2-0.1,0.3-0.2c0.1,0,0.1-0.1,0.2-0.1s0.1-0.1,0.2-0.1
			c0,0,0.1,0,0.1-0.1c0,0,0.1,0,0.1-0.1c0,0,0,0,0,0c0,0,0.1,0,0.1,0c0,0,0,0,0,0c0,0,0.1,0,0.1,0c0,0,0,0,0,0c0,0,0.1,0,0.1,0
			c0,0,0.1,0,0.1,0c0,0,0,0,0.1,0c0,0,0,0,0.1,0c0,0,0,0,0.1,0c0,0,0,0,0.1,0c0,0,0,0,0,0c0,0,0.1,0,0.1,0c0,0,0,0,0,0
			c0,0,0.1,0,0.1,0c0,0,0.1,0,0.1,0c0,0,0,0,0,0c0,0,0.1,0,0.1,0c0,0,0.1,0,0.1,0c0,0,0,0,0,0c0,0,0.1,0,0.1,0c0,0,0,0,0.1,0
			c0,0,0.1,0,0.1,0c0,0,0.1,0,0.1,0c0,0,0,0,0.1,0c0,0,0.1,0,0.1,0c0,0,0.1,0,0.1,0c0,0,0,0,0,0c0,0,0.1,0,0.1,0c0,0,0.1,0,0.1,0
			c0,0,0.1,0,0.1,0c0,0,0.1,0,0.1,0c0,0,0.1,0,0.1,0c0,0,0,0,0,0c0,0,0.1,0,0.1,0c0,0,0.1,0,0.1,0c0,0,0,0,0.1,0
			c1.8,0,3.4,0.7,4.5,1.8c0,0,0.1,0.1,0.1,0.1c0.9,0.9,1.6,2.1,1.8,3.4c0,0.1,0,0.2,0,0.2C44.9,86.1,44.9,86.5,44.9,86.8z"/>
		<path style="fill:#A6A0AA;" d="M42.7,86.9l1.7-1.6l0.5,0.5c0-0.1,0-0.2,0-0.2l-0.4-0.4l-1.6-2.6l0.2-0.4c0,0-0.1-0.1-0.1-0.1
			l-0.2,0.4l-2.5-0.9l-0.1,0.1l-1.8-1l0-0.5c0,0-0.1,0-0.1,0c0,0-0.1,0-0.1,0l0,0.4L36,81.6l0-0.1l-1.6,0.4v-0.2
			c0,0-0.1,0.1-0.1,0.1V82l-1.6,2.4l-0.2-0.2c0,0,0,0.1-0.1,0.1l0.2,0.1l0,0l0.1,1.5l-0.7,0c0,0,0,0.1,0,0.1c0,0,0,0.1,0,0.1l0.8,0
			l0,0l0.1,0l0.1,2.4l-0.5,0.4c0,0,0,0.1,0,0.1c0,0,0,0.1,0.1,0.1l0.6-0.4l1.6,1.1l0,0.1l1.2,2l0,0c-0.1,0.1-0.2,0.3-0.3,0.5
			c0,0,0.1,0,0.1,0.1c0.1-0.2,0.2-0.4,0.3-0.5l2.8,0.4l0.3,0.7c0,0,0.1,0,0.1,0l-0.3-0.7l1.5-2.1l0-0.1l2.3-1v0l1.3,1.1
			c0,0,0-0.1,0.1-0.1c0,0,0-0.1,0.1-0.1l-1.3-1.1l0,0L42.7,86.9L42.7,86.9z M38.2,80.8l1.8,1L39,83.3l-2.6-0.1L36,81.7L38.2,80.8z
			 M36.4,83.3l2.5,0.1l1.3,2.7l0,0l-1.5,2.1l0,0l-2.9-0.1l-1.1-2.3l0,0L36.4,83.3L36.4,83.3z M32.9,86.1L32.9,86.1l-0.1-1.6l-0.1,0
			l1.6-2.3l1.7-0.4l0.3,1.4l0,0l-1.8,2.5l0,0L32.9,86.1L32.9,86.1z M32.9,88.9l-0.1-2.5l0,0l0,0l1.6-0.4l1.2,2.4L34.6,90L32.9,88.9z
			 M40,90.4l-1.4,2.1l-2.7-0.4l0,0l-1.2-2l0,0l1-1.7l2.9,0.1l0,0L40,90.4L40,90.4z M42.5,89.3l-2.4,1l-1.4-2l1.6-2.2l2.3,0.7
			L42.5,89.3z M42.6,86.7L42.6,86.7L40.4,86l0,0l-1.3-2.7l1.1-1.5l0,0l2.5,0.9l0,0l1.5,2.4L42.6,86.7z"/>
		<polygon style="fill:#151515;" points="38.6,88.3 40.3,86 42.7,86.7 42.7,89.4 40.1,90.5 		"/>
		<polygon style="fill:#151515;" points="35.8,88.3 34.6,90.2 32.8,88.9 32.7,86.2 34.5,85.7 		"/>
		<path style="fill:#151515;" d="M34.3,81.7V82l-1.8,2.6l-0.3-0.2C32.7,83.3,33.4,82.4,34.3,81.7z"/>
		<path style="fill:#151515;" d="M39.1,93.3c-0.2,0-0.4,0-0.7,0c-1.1,0-2.1-0.3-3-0.7l0.4-0.6l3,0.4L39.1,93.3z"/>
		<path style="fill:#151515;" d="M44.9,85.8l-0.5-0.6l-1.7-2.6l0.3-0.5C43.9,83,44.6,84.3,44.9,85.8z"/>
		<polygon style="fill:#151515;" points="36.2,83.3 39,83.4 40.3,81.8 38.2,80.6 35.9,81.6 		"/>
	</g>
</g>
</svg>
