<?xml version="1.0" encoding="UTF-8"?>
<svg viewBox="0 0 720 1190" version="1.1" xmlns="http://www.w3.org/2000/svg"
    xmlns:xlink="http://www.w3.org/1999/xlink">
    <defs>
        <marker id="se_arrow_fw" markerHeight="5" markerUnits="strokeWidth" markerWidth="5" orient="auto" refX="8"
            refY="5" viewBox="0 0 10 10">
            <path d="m0,0l10,5l-10,5l5,-5l-5,-5z" fill="#000000" />
        </marker>
        <style xmlns="http://www.w3.org/2000/svg" type="text/css">
            @media print {
                .background {
                    fill: #FFFFFF !important;
                }

                .outline {
                    stroke: #000000 !important;
                }
            }
        </style>
    </defs>
    <g class="layer" fill-rule="nonzero">
        <title>Court</title>
        <rect width="720" height="1190" fill="#E6BB89" />
        <rect x="24" y="24" width="672" height="1142" stroke="#665647" fill="#E6BB89" stroke-width="2" />
    </g>
    <g class="layer">
        <title>Lines</title>
        <path d="M24 595H696" stroke="#665647" stroke-width="2" />
        <circle cx="360" cy="595" r="90" stroke="#665647" fill="#E6BB89" stroke-width="2" />
        <circle cx="360" cy="595" r="32" stroke="#665647" fill="#E6BB89" stroke-width="2" />
        <path d="M88 107C88 257.221 209.779 379 360 379V379C510.221 379 632 257.221 632 107V24H88V107Z" fill="#E6BB89"
            stroke="#665647" stroke-width="2" />
        <path d="M270 289H450V24H270V289Z" fill="#FDDBB3" stroke="#665647" stroke-width="2" />
        <path
            d="M263 126C263 126.552 263.448 127 264 127H269C269.552 127 270 126.552 270 126V124C270 123.448 269.552 123 269 123H264C263.448 123 263 123.448 263 124V126Z"
            fill="#665647" />
        <path
            d="M450 126C450 126.552 450.448 127 451 127H456C456.552 127 457 126.552 457 126V124C457 123.448 456.552 123 456 123H451C450.448 123 450 123.448 450 124V126Z"
            fill="#665647" />
        <path
            d="M263 178C263 178.552 263.448 179 264 179H269C269.552 179 270 178.552 270 178V176C270 175.448 269.552 175 269 175H264C263.448 175 263 175.448 263 176V178Z"
            fill="#665647" />
        <path
            d="M450 178C450 178.552 450.448 179 451 179H456C456.552 179 457 178.552 457 178V176C457 175.448 456.552 175 456 175H451C450.448 175 450 175.448 450 176V178Z"
            fill="#665647" />
        <path
            d="M263 230C263 230.552 263.448 231 264 231H269C269.552 231 270 230.552 270 230V228C270 227.448 269.552 227 269 227H264C263.448 227 263 227.448 263 228V230Z"
            fill="#665647" />
        <path
            d="M263 282C263 282.552 263.448 283 264 283H269C269.552 283 270 282.552 270 282V280C270 279.448 269.552 279 269 279H264C263.448 279 263 279.448 263 280V282Z"
            fill="#665647" />
        <path
            d="M450 230C450 230.552 450.448 231 451 231H456C456.552 231 457 230.552 457 230V228C457 227.448 456.552 227 456 227H451C450.448 227 450 227.448 450 228V230Z"
            fill="#665647" />
        <path
            d="M450 282C450 282.552 450.448 283 451 283H456C456.552 283 457 282.552 457 282V280C457 279.448 456.552 279 456 279H451C450.448 279 450 279.448 450 280V282Z"
            fill="#665647" />
        <path d="M270 289C270 338.706 310.294 379 360 379V379C409.706 379 450 338.706 450 289V289H270V289Z"
            stroke="#665647" fill="#E6BB89" stroke-width="2" />
        <path
            d="M322 74C322 74.5523 322.448 75 323 75H397C397.552 75 398 74.5523 398 74C398 73.4477 397.552 73 397 73H323C322.448 73 322 73.4477 322 74Z"
            fill="#665647" />
        <path d="M356 80H364V73H356V80Z" fill="#665647" />
        <circle r="12" transform="matrix(1 0 0 -1 360 91)" stroke="#665647" fill="#E6BB89" stroke-width="2" />
        <path d="M88 1083C88 932.779 209.779 811 360 811V811C510.221 811 632 932.779 632 1083V1166H88V1083Z"
            stroke="#665647" fill="#E6BB89" stroke-width="2" />
        <path d="M270 901H450V1166H270V901Z" fill="#FDDBB3" stroke="#665647" stroke-width="2" />
        <path
            d="M322 1116C322 1115.45 322.448 1115 323 1115H397C397.552 1115 398 1115.45 398 1116C398 1116.55 397.552 1117 397 1117H323C322.448 1117 322 1116.55 322 1116Z"
            fill="#665647" />
        <path
            d="M263 1064C263 1063.45 263.448 1063 264 1063H269C269.552 1063 270 1063.45 270 1064V1066C270 1066.55 269.552 1067 269 1067H264C263.448 1067 263 1066.55 263 1066V1064Z"
            fill="#665647" />
        <path
            d="M450 1064C450 1063.45 450.448 1063 451 1063H456C456.552 1063 457 1063.45 457 1064V1066C457 1066.55 456.552 1067 456 1067H451C450.448 1067 450 1066.55 450 1066V1064Z"
            fill="#665647" />
        <path
            d="M263 1012C263 1011.45 263.448 1011 264 1011H269C269.552 1011 270 1011.45 270 1012V1014C270 1014.55 269.552 1015 269 1015H264C263.448 1015 263 1014.55 263 1014V1012Z"
            fill="#665647" />
        <path
            d="M450 1012C450 1011.45 450.448 1011 451 1011H456C456.552 1011 457 1011.45 457 1012V1014C457 1014.55 456.552 1015 456 1015H451C450.448 1015 450 1014.55 450 1014V1012Z"
            fill="#665647" />
        <path
            d="M263 960C263 959.448 263.448 959 264 959H269C269.552 959 270 959.448 270 960V962C270 962.552 269.552 963 269 963H264C263.448 963 263 962.552 263 962V960Z"
            fill="#665647" />
        <path
            d="M263 908C263 907.448 263.448 907 264 907H269C269.552 907 270 907.448 270 908V910C270 910.552 269.552 911 269 911H264C263.448 911 263 910.552 263 910V908Z"
            fill="#665647" />
        <path
            d="M450 960C450 959.448 450.448 959 451 959H456C456.552 959 457 959.448 457 960V962C457 962.552 456.552 963 456 963H451C450.448 963 450 962.552 450 962V960Z"
            fill="#665647" />
        <path
            d="M450 908C450 907.448 450.448 907 451 907H456C456.552 907 457 907.448 457 908V910C457 910.552 456.552 911 456 911H451C450.448 911 450 910.552 450 910V908Z"
            fill="#665647" />
        <path d="M356 1110H364V1117H356V1110Z" fill="#665647" />
        <path d="M270 901C270 851.294 310.294 811 360 811V811C409.706 811 450 851.294 450 901V901H270V901Z"
            stroke="#665647" fill="#E6BB89" stroke-width="2" />
        <circle cx="360" cy="1099" r="12" stroke="#665647" fill="#E6BB89" stroke-width="2" />
    </g>
    <g class="layer">
        <title>Drill</title>
    </g>
</svg>