<svg xmlns="http://www.w3.org/2000/svg" viewBox="0 0 51.04 49.47"><defs><style>.cls-1,.cls-2{fill:none;}.cls-2{stroke:#fff;stroke-linecap:round;stroke-linejoin:round;stroke-width:2px;}.cls-3{fill:#f9ba00;}</style></defs><g id="Calque_2" data-name="Calque 2"><g id="Calque_1-2" data-name="Calque 1"><polyline class="cls-1" points="6.8 0 51.04 0 51.04 49.47 0 49.47 0 0 6.8 0"/><polyline class="cls-2" points="37.26 21.1 37.26 14.03 27.02 3.91 7.31 3.91 7.31 40.98 23.79 40.98"/><polyline class="cls-2" points="27.02 3.91 27.02 14.03 37.26 14.03"/><path class="cls-3" d="M36.41,46.73a1.79,1.79,0,0,1-1.34-.57c-.45-.48-1.85-1.72-3-1.72s-2.57,1.25-3,1.69a1.83,1.83,0,0,1-2,.42h0l-3.49-1.93,0,0a1.64,1.64,0,0,1-.56-2,4.18,4.18,0,0,0,.32-1.4,3.69,3.69,0,0,0-3.7-3.66h-.15c-.58,0-1.06-.51-1.21-1.3a16.62,16.62,0,0,1-.3-2.76,16.47,16.47,0,0,1,.3-2.76c.15-.8.64-1.32,1.23-1.31h.13a3.68,3.68,0,0,0,3.7-3.65,3.77,3.77,0,0,0-.33-1.4,1.66,1.66,0,0,1,.57-2l0,0,3.68-2,0,0a1.89,1.89,0,0,1,2,.42,5.23,5.23,0,0,0,2.93,1.62,5.31,5.31,0,0,0,2.91-1.59,1.88,1.88,0,0,1,2-.4l0,0,3.56,1.95,0,0a1.64,1.64,0,0,1,.56,2,4.1,4.1,0,0,0-.32,1.4,3.68,3.68,0,0,0,3.7,3.65h.12c.6,0,1.08.51,1.24,1.31a17.7,17.7,0,0,1,.3,2.76,17.88,17.88,0,0,1-.3,2.76c-.15.8-.64,1.32-1.23,1.3h-.13A3.68,3.68,0,0,0,41,41.18a3.84,3.84,0,0,0,.33,1.4,1.64,1.64,0,0,1-.57,2l0,0-3.62,2,0,0A1.54,1.54,0,0,1,36.41,46.73Zm-.18-1.92a.23.23,0,0,0,.11,0h0L39.67,43a5.57,5.57,0,0,1-.44-2,5.24,5.24,0,0,1,5-5.19,15.57,15.57,0,0,0,.26-2.37,15.57,15.57,0,0,0-.26-2.37,5.25,5.25,0,0,1-5-5.2,5.49,5.49,0,0,1,.44-2L36.4,22.1h0a.28.28,0,0,0-.13,0,8.93,8.93,0,0,1-1.21,1,5.07,5.07,0,0,1-2.83,1.05,5.12,5.12,0,0,1-2.86-1.07,10.81,10.81,0,0,1-1.22-1,.27.27,0,0,0-.12,0h0l-3.39,1.83a5.61,5.61,0,0,1,.44,2,5.25,5.25,0,0,1-5,5.2,15.57,15.57,0,0,0-.26,2.37,15.4,15.4,0,0,0,.26,2.36,5.25,5.25,0,0,1,5,5.2,5.73,5.73,0,0,1-.44,2l3.2,1.77h0a.2.2,0,0,0,.11,0,9.88,9.88,0,0,1,1.23-1.06,5.09,5.09,0,0,1,2.9-1.12A5.07,5.07,0,0,1,35,43.73,10.1,10.1,0,0,1,36.23,44.81Zm-4.09-6.62a4.74,4.74,0,1,1,4.75-4.74A4.75,4.75,0,0,1,32.14,38.19Zm0-7.58a2.85,2.85,0,1,0,2.77,2.77A2.85,2.85,0,0,0,32.14,30.61Z"/></g></g></svg>