<svg width="24" height="24" xmlns="http://www.w3.org/2000/svg" xmlns:svg="http://www.w3.org/2000/svg">
 <!-- Created with SVG-edit - https://github.com/SVG-Edit/svgedit-->
  <path d="m5.14553,8.62025c0.00043,-0.18648 0.14769,-1.32981 0.32736,-2.54075c0.56023,-3.77594 0.56847,-3.7926 1.27977,-2.58913l0.42083,0.71203l1.23073,-0.70423c1.62786,-0.93147 3.57028,-1.27606 5.35582,-0.95011c0.75794,0.13837 1.56217,0.36326 1.78718,0.49976c0.44673,0.271 0.4181,0.50374 -0.29391,2.38869c-0.39024,1.03311 -0.42769,1.06255 -1.10178,0.86613c-1.14732,-0.3343 -3.01549,-0.229 -3.91744,0.2208l-0.84567,0.42175l0.5936,0.70232c0.32648,0.38629 0.51143,0.7599 0.411,0.83025c-0.10043,0.07036 -1.32236,0.20748 -2.71538,0.30472c-2.09001,0.14589 -2.53266,0.11754 -2.53209,-0.16224l0,0zm10.76191,10.41104l-0.90538,-1.35928l0.82435,-0.90358c0.84844,-0.92998 1.46035,-2.23566 1.72993,-3.69132l0.15384,-0.83069l-0.88731,0.16082c-0.48802,0.08846 -0.89031,0.07697 -0.89398,-0.02553c-0.01713,-0.47856 2.30315,-5.19611 2.52868,-5.14127c0.35462,0.08623 3.95243,3.61846 3.95243,3.88037c0,0.1169 -0.37812,0.28108 -0.84026,0.36485l-0.84026,0.1523l-0.08293,1.62419c-0.10637,2.08309 -1.07473,4.48726 -2.42295,6.01553c-0.53999,0.61211 -1.07833,1.11292 -1.19631,1.11292c-0.11798,0 -0.62192,-0.61169 -1.11988,-1.3593l0,0zm-8.17283,3.80997c0,-0.1503 0.14224,-0.58505 0.31609,-0.96613c0.31542,-0.69139 0.31359,-0.69475 -0.8623,-1.57976c-1.83976,-1.38465 -3.20726,-3.84233 -3.6374,-6.53717l-0.14102,-0.88349l1.00546,-0.15621c2.07263,-0.32202 2.09156,-0.31229 2.50666,1.28897c0.28011,1.08053 0.62461,1.72807 1.36724,2.56987c0.54603,0.61895 1.06907,1.0719 1.16232,1.00658c0.09325,-0.06532 0.22821,-0.45131 0.29992,-0.85776c0.07171,-0.40644 0.22125,-0.73899 0.3323,-0.73899c0.25497,0 2.65596,4.29128 2.69408,4.8151c0.02546,0.34985 -1.27246,0.9556 -4.65503,2.17254c-0.21569,0.0776 -0.38833,0.01823 -0.38833,-0.13356l0,0z" fill="#000000" id="svg_1" stroke="#000000"/>
</svg>