<svg xmlns="http://www.w3.org/2000/svg" viewBox="0 0 20 45">
  <g data-cs-shape="cone">
    <path
      d="m6.24273,5.13443c0,-2.42234 1.9621,-4.38443 4.38443,-4.38443c2.42234,0 4.38443,1.9621 4.38443,4.38443c0,2.42234 -1.96209,4.38443 -4.38443,4.38443c-2.42234,0 -4.38443,-1.9621 -4.38443,-4.38443zm14.74121,12.41075l0,-2.21426c0,-2.32973 -1.88756,-4.21864 -4.21864,-4.21864l-12.28985,0c-2.32973,0 -4.21864,1.88892 -4.21864,4.21864l0,2.21426c-0.00408,0.05026 -0.0068,0.10189 -0.0068,0.15418l0,12.75376c0,0.99098 0.80285,1.79382 1.79383,1.79382c0.98962,0 1.79451,-0.80284 1.79451,-1.79382l0,-12.56493l1.2029,0l0,14.36012l0.00883,0l0,20.2904c0,1.31904 1.07114,2.39086 2.39154,2.39086c1.32109,0 2.39154,-1.07045 2.39154,-2.39086l0,-20.2904l1.57784,0l0,20.2904c0,1.31904 1.0718,2.39086 2.39154,2.39086c1.32108,0 2.39154,-1.07045 2.39154,-2.39086l0,-20.2904l0.00747,0l0,-14.36012l1.2029,0l0,12.56425c0,0.99098 0.80487,1.79451 1.79451,1.79451c0.99099,0 1.79383,-0.80351 1.79383,-1.79451l0,-12.75375c-0.00067,-0.05298 -0.00475,-0.10325 -0.00883,-0.1535z"
      fill="#eee" marker-end="none" stroke="#000" stroke-width="2"/>
  </g>
</svg>
