<?xml version="1.0"?>
<svg width="670" height="670" xmlns="http://www.w3.org/2000/svg" xmlns:svg="http://www.w3.org/2000/svg">
 <!-- Created by NeiroNx neiron.nxn@gmail.com with SVG-edit - https://github.com/SVG-Edit/svgedit on 30th BirthDay of Chip&Dail -->
 <g class="layer">
  <rect fill="#efdfd0" height="0" id="svg_5" stroke="#28180f" stroke-dasharray="null" stroke-linecap="null" stroke-linejoin="null" stroke-width="18" width="2" x="-195" y="784"/>
  <g id="svg_75">
   <g id="svg_7">
    <rect fill="#efdfd0" height="164.99999" id="svg_3" stroke="#28180f" stroke-dasharray="null" stroke-linecap="null" stroke-linejoin="null" stroke-width="23" width="542" x="64" y="469"/>
    <circle cx="331.50001" cy="304.50001" fill="#efdfd0" id="svg_2" r="269.81604" stroke="#28180f" stroke-width="23"/>
    <rect fill="#efdfd0" height="161.99999" id="svg_4" stroke="#28180f" stroke-dasharray="null" stroke-linecap="null" stroke-linejoin="null" stroke-width="10" width="541.00003" x="64.99999" y="470"/>
    <text fill="#28180f" font-family="Fantasy" font-size="57" id="svg_8" stroke="#28180f" stroke-dasharray="null" stroke-linecap="null" stroke-linejoin="null" stroke-width="0" text-anchor="middle" transform="matrix(1.46799 0 0 0.934211 -455.529 32.6974)" x="536.811679" xml:space="preserve" y="547.295771">СЛАБОУМИЕ</text>
    <text fill="#28180f" font-family="Fantasy" font-size="57" id="svg_9" stroke="#28180f" stroke-dasharray="null" stroke-linecap="null" stroke-linejoin="null" stroke-width="0" text-anchor="middle" transform="matrix(1.60884 0 0 1 -570.012 4)" x="564.766539" xml:space="preserve" y="606">ОТВАГА</text>
    <text fill="#efdfd0" font-family="Fantasy" font-size="57" id="svg_6" stroke="#28180f" stroke-dasharray="null" stroke-width="2px" text-anchor="middle" transform="rotate(17.0018 346.08 554.684) matrix(1.59599 0 0 0.891889 340.873 281.038)" x="3.273108" xml:space="preserve" y="329.265367">И</text>
   </g>
   <g id="svg_72">
    <path d="m136.094393,281.652413c-0.244381,0 -5.620764,3.421334 -16.61791,6.842669c-10.997146,3.421334 -13.685337,2.932572 -13.929718,-0.977524c-0.244381,-3.910096 4.398858,-8.308955 7.820193,-11.241527c3.421334,-2.932572 6.842669,-5.376383 10.264003,-6.598288c3.421334,-1.221905 9.286479,-1.221905 9.286479,-1.221905c0,0 -2.688191,-12.219051 -1.221905,-28.836961c1.466286,-16.61791 4.643239,-27.126294 15.640386,-40.56725c10.997146,-13.440956 30.792009,-28.59258 46.921157,-32.502676c16.129148,-3.910096 51.075634,-6.598288 63.539067,-4.887621c12.463432,1.710667 25.415627,6.598288 32.747057,12.707813c7.331431,6.109526 11.730289,13.196575 15.884767,20.039244c4.154477,6.842669 6.109526,19.550482 4.643239,27.859437c-1.466286,8.308955 -0.977524,20.283625 -4.398858,25.660008c-1.710667,2.688191 -58.712541,56.574207 -92.589861,59.445684c-33.87732,2.871477 -77.865904,-25.721103 -77.988095,-25.721103z" fill="#845e47" id="svg_26" stroke="#180c18" stroke-dasharray="null" stroke-linecap="round" stroke-linejoin="round" stroke-width="4"/>
    <path d="m127.296676,357.899293c0,0 -2.44381,-4.154477 -0.977524,-10.997146c1.466286,-6.842669 1.955048,-9.286479 5.620764,-13.685337c3.665715,-4.398858 12.952194,-8.064574 12.952194,-8.064574c0,0 43.988585,23.94934 43.988585,23.94934c0,0 -58.407065,36.412773 -58.407065,36.412773c0,0 -15.396005,-25.415627 -15.396005,-25.415627c0,0 2.199429,-4.154477 6.109526,-5.620764c3.910096,-1.466286 6.109526,3.421334 6.109526,3.421334z" fill="#f5f4f2" id="svg_41" stroke="#180c18" stroke-dasharray="null" stroke-linecap="round" stroke-linejoin="round" stroke-width="4"/>
    <path d="m103.591716,418.017026c10.264003,0.244381 14.662862,3.910096 15.151624,10.997146c0.488762,7.08705 -5.132002,13.929718 -5.132002,16.373529c0,2.44381 -7.575812,-10.752766 -11.730289,-18.084196c-4.154477,-7.331431 1.710667,-9.286479 1.710667,-9.286479z" fill="#232524" id="svg_69" stroke="#180c18" stroke-dasharray="null" stroke-linecap="round" stroke-linejoin="round" stroke-width="4"/>
    <path d="m181.304882,349.83472c0,0 -18.572958,-3.421334 -33.4802,-11.730289c-14.907243,-8.308955 -31.280771,-19.06172 -33.724582,-23.704959c-2.44381,-4.643239 -3.910096,-12.463432 1.955048,-20.039244c5.865145,-7.575812 8.553336,-9.53086 16.129148,-11.241527c7.575812,-1.710667 23.216197,0.733143 30.792009,3.665715c7.575812,2.932572 27.126294,8.553336 27.126294,8.553336c0,0 31.525152,-21.50553 31.525152,-21.50553c0,0 20.283625,0.977524 20.283625,0.977524c0,0 23.460578,-14.174099 23.460578,-14.174099c0,0 17.351053,-14.174099 17.351053,-13.929718c0,0.244381 3.910096,-2.932572 15.396005,-1.955048c11.485908,0.977524 20.039244,1.466286 24.926865,8.308955c4.887621,6.842669 4.643239,10.997146 4.154477,18.817339c-0.488762,7.820193 -12.463432,34.457725 -14.418481,36.901535c-1.955048,2.44381 -87.732788,86.510883 -96.041743,93.109171c-8.308955,6.598288 -52.297539,26.881913 -57.918303,34.946487c-5.620764,8.064574 -25.171246,25.904389 -29.325723,27.859437c-4.154477,1.955048 -18.328577,-17.595434 -17.351053,-22.238673c0.977524,-4.643239 1.221905,-23.460578 3.421334,-28.103818c2.199429,-4.643239 0.244381,-26.14877 13.929718,-40.322869c13.685337,-14.174099 32.502676,-15.396005 32.502676,-15.396005c0,0 -17.839815,4.398858 -18.572958,0c-0.733143,-4.398858 5.620764,-4.643239 5.620764,-4.643239c0,0 8.064574,1.710667 12.219051,-0.488762c4.154477,-2.199429 6.842669,-4.643239 11.97467,-4.643239c5.132002,0 8.064574,0.977524 8.064574,0.977524z" fill="#f1be8a" id="svg_39" stroke="#180c18" stroke-dasharray="null" stroke-linecap="round" stroke-linejoin="round" stroke-width="4"/>
    <path d="m190.34698,278.47546c0,0 4.643239,-3.665715 12.952194,-4.887621c8.308955,-1.221905 13.440956,-1.466286 20.772387,-0.733143c7.331431,0.733143 17.595434,1.955048 18.572958,2.44381c0.977524,0.488762 6.598288,-6.109526 13.929718,-10.264003c7.331431,-4.154477 11.241527,-5.376383 15.884767,-5.376383c4.643239,0 8.308955,-10.019622 9.286479,-10.997146c0.977524,-0.977524 0.977524,-9.042098 -1.466286,-21.50553c-2.44381,-12.463432 -6.109526,-24.682484 -11.485908,-31.280771c-5.376383,-6.598288 -11.97467,-9.286479 -20.528006,-9.53086c-8.553336,-0.244381 -17.106672,3.421334 -22.971816,7.331431c-5.865145,3.910096 -13.685337,11.97467 -16.129148,18.572958c-2.44381,6.598288 -5.620764,19.306101 -6.109526,26.637532c-0.488762,7.331431 -0.733143,18.084196 0.977524,24.193722c1.710667,6.109526 2.688191,10.264003 2.688191,10.264003c0,0 -4.154477,0.244381 -7.820193,1.466286c-3.665715,1.221905 -8.553336,3.665715 -8.553336,3.665715z" fill="#f0bd8e" id="svg_27" stroke="#180c18" stroke-dasharray="null" stroke-linecap="round" stroke-linejoin="round" stroke-width="4"/>
    <path d="m230.425468,273.58784c0,0 -7.331431,-3.421334 -10.508384,-10.019622c-3.176953,-6.598288 -4.398858,-16.129148 -3.910096,-21.50553c0.488762,-5.376383 2.932572,-16.862291 5.376383,-20.283625c2.44381,-3.421334 10.752765,-7.820193 15.640386,-7.331431c4.887621,0.488762 11.730289,3.665715 19.06172,13.929718c7.331431,10.264003 8.308955,17.106672 8.797717,21.261149c0.488762,4.154477 0,11.485908 0,11.485908c0,0 -5.132002,3.176953 -10.019622,6.598288c-4.887621,3.421334 -11.97467,7.820193 -11.97467,7.820193c0,0 -12.463432,-1.955048 -12.463432,-1.955048z" fill="#fcfcfc" id="svg_32" stroke="#180c18" stroke-dasharray="null" stroke-linecap="round" stroke-linejoin="round" stroke-width="4"/>
    <circle cx="238.978804" cy="262.101931" fill="#180c18" id="svg_34" r="12.367225" stroke="#180c18" stroke-dasharray="null" stroke-linecap="round" stroke-linejoin="round" stroke-width="4"/>
    <path d="m136.583155,280.91927c-2.606731,-1.466286 -5.376383,-7.331431 -4.398858,-14.662862c0.977524,-7.331431 3.176953,-19.306101 7.575812,-25.660008c4.398858,-6.353907 8.308955,-10.752765 14.907243,-11.97467c6.598288,-1.221905 9.286479,1.221905 15.396005,9.042098c6.109526,7.820193 4.643239,21.261149 5.376383,27.615056c0.733143,6.353907 4.154477,11.241527 1.955048,14.418481c-2.199429,3.176953 -8.797717,6.842669 -12.952194,8.064574c-4.969081,-1.303365 -10.345463,-3.176953 -13.929718,-3.665715c-3.584255,-0.488762 -11.322987,-1.710667 -13.929718,-3.176953z" fill="#f0bd8e" id="svg_35" stroke="#180c18" stroke-dasharray="null" stroke-linecap="round" stroke-linejoin="round" stroke-width="4"/>
    <path d="m164.442592,287.273177c-1.955048,-0.488762 -6.598288,0.244381 -10.264003,-3.421334c-3.665715,-3.665715 -6.842669,-12.219051 -6.598288,-16.373529c0.244381,-4.154477 0.977524,-14.418481 5.376383,-18.817339c4.398858,-4.398858 8.553336,-4.643239 12.707813,-2.199429c4.154477,2.44381 6.598288,8.553336 7.820193,12.952194c1.221905,4.398858 2.44381,10.264003 3.910096,14.174099c1.466286,3.910096 0.977524,3.421334 -3.176953,9.042098c-4.154477,5.620764 -7.820193,5.132002 -9.775241,4.643239z" fill="#fcfcfc" id="svg_36" stroke="#180c18" stroke-dasharray="null" stroke-linecap="round" stroke-linejoin="round" stroke-width="4"/>
    <circle cx="166.642021" cy="274.809745" fill="#180c18" id="svg_38" r="10.763863" stroke="#180c18" stroke-dasharray="null" stroke-linecap="round" stroke-linejoin="round" stroke-width="4"/>
    <path d="m143.425823,308.778707c-9.53086,-0.244381 13.440956,0.488762 13.440956,0.488762c0,0 4.154477,-2.44381 6.109526,-9.286479c1.955048,-6.842669 16.373529,-20.772387 21.016768,-19.306101c4.643239,1.466286 21.50553,4.643239 21.749911,4.643239c0.244381,0 3.910096,-8.064574 6.598288,-9.286479c2.688191,-1.221905 7.820193,-1.221905 12.219051,0.244381c4.398858,1.466286 14.174099,5.620764 19.794863,10.508384c5.620764,4.887621 5.132002,6.353907 5.132002,6.353907c0,0 2.199429,-3.665715 9.53086,-5.132002c7.331431,-1.466286 32.258295,-5.132002 32.258295,-5.132002c0,0 -5.620764,0.977524 -9.042098,1.466286c-3.421334,0.488762 -2.44381,2.44381 -5.865145,8.064574c-3.421334,5.620764 -13.196575,19.06172 -22.971816,27.615056c-9.775241,8.553336 -19.06172,15.396005 -26.881913,19.550482c-7.820193,4.154477 -19.06172,4.398858 -26.14877,2.688191c-7.08705,-1.710667 -17.106672,-9.53086 -19.06172,-11.730289c0,0 1.466286,2.44381 -6.598288,0c-8.064574,-2.44381 -16.129148,-13.685337 -17.351053,-17.839815c-1.221905,-4.154477 -4.398858,-3.665715 -13.929718,-3.910096z" fill="#fcfcfc" id="svg_43" stroke="#180c18" stroke-dasharray="null" stroke-linecap="round" stroke-linejoin="round" stroke-width="4"/>
    <path d="m175.195357,330.773c0,0 6.598288,1.466286 13.196575,-2.932572c3.910096,2.199429 9.775241,3.665715 22.483054,2.44381c12.707813,-1.221905 23.460578,-7.08705 30.547628,-12.952194" fill="none" id="svg_44" stroke="#180c18" stroke-dasharray="null" stroke-linecap="round" stroke-linejoin="round" stroke-width="4"/>
    <path d="m180.571739,314.643852c7.331431,0.244381 17.106672,-3.665715 19.794863,-7.575812c2.688191,-3.910096 6.842669,-11.485908 4.398858,-19.06172c-2.44381,-7.575812 -8.064574,-10.264003 -19.06172,-10.264003c-10.997146,0 -22.971816,9.286479 -24.193722,14.662862c-1.221905,5.376383 -0.488762,9.775241 2.932572,14.662862c3.421334,4.887621 8.797717,7.331431 16.129148,7.575812z" fill="#242424" id="svg_45" stroke="#180c18" stroke-dasharray="null" stroke-linecap="round" stroke-linejoin="round" stroke-width="4"/>
    <g id="svg_47">
     <path d="m330.132927,108.630647c0,0 6.842669,2.44381 10.752765,9.042098c3.910096,6.598288 6.842669,21.749911 5.620764,35.190868c-1.221905,13.440956 -7.08705,32.013914 -14.418481,44.721728c-7.331431,12.707813 -21.016768,24.926865 -21.016768,24.926865c0,0 1.221905,-8.797717 -0.244381,-16.373529c-1.466286,-7.575812 -4.154477,-13.196575 -9.53086,-19.794863c-5.376383,-6.598288 -12.952194,-13.685337 -12.952194,-13.685337c0,0 10.019622,-13.685337 12.463432,-18.817339c2.44381,-5.132002 10.264003,-21.261149 15.151624,-27.859437c4.887621,-6.598288 14.174099,-17.351053 14.174099,-17.351053z" fill="#5e2c0b" id="svg_19" stroke="#180c18" stroke-dasharray="null" stroke-linecap="round" stroke-linejoin="round" stroke-width="4"/>
     <path d="m127.052295,206.87182c0,0 -21.994292,15.884767 -31.525152,26.393151c-9.53086,10.508384 -10.997146,15.151624 -8.797717,21.50553c2.199429,6.353907 13.929718,7.331431 19.794863,7.331431c5.865145,0 32.502676,1.221905 47.898681,-2.199429c15.396005,-3.421334 34.213344,-5.620764 50.342491,-13.929718c16.129148,-8.308955 43.255442,-28.836961 52.54192,-37.634678c9.286479,-8.797717 27.615056,-28.836961 36.657154,-42.766679c9.042098,-13.929718 17.595434,-35.67963 25.904389,-44.721728c8.308955,-9.042098 10.019622,-12.219051 10.019622,-12.219051c0,0 -7.08705,-1.466286 -28.103818,9.53086c-21.016768,10.997146 -34.946487,21.749911 -34.946487,21.749911c0,0 -11.241527,-20.528006 -15.640386,-28.59258c-4.398858,-8.064574 -14.418481,-24.926865 -24.438103,-27.370675c-10.019622,-2.44381 -11.97467,-3.421334 -23.704959,-0.244381c-11.730289,3.176953 -71.114878,32.747057 -78.935071,41.300393c-7.820193,8.553336 -6.109526,16.373529 -7.08705,26.881913c-0.977524,10.508384 10.019622,54.985731 10.019622,54.985731z" fill="#ae5a36" id="svg_10" stroke="#180c18" stroke-dasharray="null" stroke-linecap="null" stroke-linejoin="round" stroke-width="4"/>
     <path d="m142.69268,128.669892c0,0 20.528006,26.637532 44.232966,28.348199c23.704959,1.710667 40.811631,-21.994292 41.544774,-21.261149" fill="#000000" fill-opacity="0" id="svg_12" stroke="#180c18" stroke-dasharray="null" stroke-linecap="round" stroke-linejoin="round" stroke-width="4"/>
     <path d="m134.139344,145.287801c2.44381,10.508384 9.775241,37.634678 12.707813,49.120586" fill="#000000" fill-opacity="0" id="svg_13" stroke="#180c18" stroke-dasharray="null" stroke-linecap="round" stroke-linejoin="round" stroke-width="4"/>
     <path d="m124.364103,197.096579c0,0 5.620764,20.528006 10.019622,24.926865c4.398858,4.398858 43.988585,-3.910096 59.62897,-10.508384c15.640386,-6.598288 35.67963,-22.727435 45.699252,-36.412773c10.019622,-13.685337 27.126294,-36.168392 27.126294,-36.168392c0,0 -12.463432,-22.238673 -12.463432,-22.238673c0,0 -7.331431,14.662862 -21.016768,27.615056c-13.685337,12.952194 -32.991438,27.859437 -45.21049,34.213344c-12.219051,6.353907 -27.615056,12.463432 -41.300393,15.884767c-13.685337,3.421334 -22.483054,2.688191 -22.483054,2.688191z" fill="#a692b7" id="svg_14" stroke="#180c18" stroke-dasharray="null" stroke-linecap="round" stroke-linejoin="round" stroke-width="4"/>
     <path d="m283.456151,153.352375c0,0 -2.199429,-13.685337 -8.797717,-22.971816c-6.598288,-9.286479 -14.174099,-13.440956 -22.727435,-16.373529c-8.553336,-2.932572 -14.174099,0.488762 -14.174099,0.488762c0,0 -4.887621,9.775241 -2.199429,23.94934c2.688191,14.174099 13.440956,26.393151 13.440956,26.393151c0,0 10.508384,-2.199429 15.884767,-3.421334c5.376383,-1.221905 18.572958,-8.064574 18.572958,-8.064574z" fill="#835f48" id="svg_16" stroke="#180c18" stroke-dasharray="null" stroke-linecap="round" stroke-linejoin="round" stroke-width="4"/>
     <path d="m259.751191,162.394473c0,0 -6.842669,-6.842669 -10.019622,-16.129148c-3.176953,-9.286479 -4.887621,-22.238673 -4.887621,-22.238673c0,0 7.08705,1.955048 13.929718,13.196575c6.842669,11.241527 9.53086,21.50553 9.53086,21.50553c0,0 -8.553336,3.665715 -8.553336,3.665715z" fill="#f6db50" id="svg_17" stroke="#180c18" stroke-dasharray="null" stroke-linecap="round" stroke-linejoin="round" stroke-width="4"/>
    </g>
    <path d="m132.917439,466.64885c0,0 -2.199429,-4.643239 -0.244381,-13.685337c1.955048,-9.042098 3.176953,-12.952194 10.508384,-21.261149c7.331431,-8.308955 27.859437,-7.820193 27.859437,-7.820193c0,0 18.817339,-15.396005 27.615056,-17.839815c8.797717,-2.44381 107.28327,-45.21049 107.28327,-45.21049c0,0 0.244381,16.61791 0.244381,25.904389c0,9.286479 1.955048,25.904389 -1.221905,41.789155c-3.176953,15.884767 -5.865145,24.193722 -12.219051,37.634678c-6.353907,13.440956 -26.881913,33.724582 -32.502676,39.345345c-5.620764,5.620764 -12.952194,12.952194 -29.570104,16.373529c-16.61791,3.421334 -28.836961,-4.398858 -32.991438,-7.08705c-4.154477,-2.688191 -27.126294,-17.351053 -27.615056,-20.039244c-0.488762,-2.688191 1.955048,-11.97467 1.955048,-13.929718c0,-1.955048 -6.598288,-13.685337 -10.997146,-13.440956c-4.398858,0.244381 -12.219051,0.977524 -17.839815,0.977524c-5.620764,0 -10.264003,-1.710667 -10.264003,-1.710667z" fill="#232524" id="svg_54" stroke="#180c18" stroke-dasharray="null" stroke-linecap="round" stroke-linejoin="round" stroke-width="4"/>
    <path d="m281.501103,331.017381c0,0 -6.842669,1.466286 -6.842669,-2.688191c0,-4.154477 6.353907,-10.264003 10.752765,-11.97467c4.398858,-1.710667 12.219051,-7.08705 25.904389,-3.421334c13.685337,3.665715 16.61791,13.685337 18.817339,17.106672c2.199429,3.421334 4.643239,11.730289 1.955048,18.572958c-2.688191,6.842669 -14.418481,15.396005 -20.039244,17.595434c-5.620764,2.199429 -10.019622,5.865145 -13.196575,4.154477c-3.176953,-1.710667 9.042098,-13.196575 9.042098,-13.196575c0,0 -10.752765,12.463432 -20.528006,18.817339c-9.775241,6.353907 -19.306101,11.97467 -25.904389,13.196575c-6.598288,1.221905 -8.308955,0.977524 -9.53086,-0.244381c-1.221905,-1.221905 5.865145,-9.53086 5.865145,-9.53086c0,0 -8.308955,9.53086 -15.884767,15.151624c-7.575812,5.620764 -21.50553,11.97467 -29.325723,13.685337c-7.820193,1.710667 -11.730289,0.244381 -13.440956,-1.710667c-1.710667,-1.955048 -3.421334,-4.643239 1.710667,-12.707813c5.132002,-8.064574 10.752765,-15.640386 19.550482,-22.238673c8.797717,-6.598288 22.483054,-12.952194 22.483054,-12.952194c0,0 1.466286,-6.842669 5.620764,-12.707813c4.154477,-5.865145 14.662862,-14.174099 20.772387,-14.418481c6.109526,-0.244381 12.219051,-0.488762 12.219051,-0.488762z" fill="#f3f3f3" id="svg_48" stroke="#180c18" stroke-dasharray="null" stroke-linecap="round" stroke-linejoin="round" stroke-width="4"/>
    <path d="m157.844304,377.449775c0,0 -18.328577,15.884767 -21.50553,23.460578c-3.176953,7.575812 0.244381,10.997146 3.176953,10.997146c2.932572,0 5.865145,-4.398858 5.865145,-4.398858" fill="#000000" fill-opacity="0" id="svg_50" stroke="#180c18" stroke-dasharray="null" stroke-linecap="round" stroke-linejoin="round" stroke-width="4"/>
    <path d="m188.880694,400.421592c0,0 -10.264003,0.244381 -12.463432,-1.710667c-2.199429,-1.955048 -4.398858,-8.797717 -1.466286,-13.929718c2.932572,-5.132002 11.730289,-4.887621 17.351053,-1.955048c5.620764,2.932572 13.929718,11.97467 15.396005,18.084196c1.466286,6.109526 0.488762,18.817339 -2.932572,25.171246c-3.421334,6.353907 -8.308955,16.129148 -13.196575,21.261149c-4.887621,5.132002 -15.884767,16.129148 -18.572958,16.373529c-2.688191,0.244381 -12.219051,-2.199429 -13.440956,-4.887621c-1.221905,-2.688191 -3.665715,-8.064574 -1.955048,-13.440956c1.710667,-5.376383 7.575812,-13.929718 4.887621,-15.884767c-2.688191,-1.955048 -11.730289,0 -11.730289,-3.176953c0,-3.176953 2.688191,-10.264003 8.064574,-14.174099c5.376383,-3.910096 15.884767,1.221905 15.884767,1.221905c0,0 -8.553336,-3.910096 -5.620764,-10.264003c2.932572,-6.353907 19.794863,-2.688191 19.794863,-2.688191z" fill="#8c553f" id="svg_52" stroke="#180c18" stroke-dasharray="null" stroke-linecap="round" stroke-linejoin="round" stroke-width="4"/>
    <path d="m203.787937,436.345603c0,0 -6.598288,-2.932572 -8.797717,-0.488762c-2.199429,2.44381 -1.955048,7.08705 -1.955048,7.08705c0,0 -6.109526,0.977524 -9.042098,5.620764c-2.932572,4.643239 -2.199429,8.064574 -1.710667,8.553336c0.488762,0.488762 -4.154477,-1.710667 -7.331431,2.199429c-3.176953,3.910096 -3.176953,6.598288 -3.176953,6.598288c0,0 -7.331431,-9.042098 -9.775241,-6.598288c-2.44381,2.44381 -3.176953,8.308955 -1.710667,12.952194c1.466286,4.643239 5.865145,12.952194 9.286479,16.373529c3.421334,3.421334 7.331431,4.887621 12.707813,5.132002c5.376383,0.244381 14.418481,-4.643239 17.839815,-10.264003c3.421334,-5.620764 3.665715,-15.884767 3.665715,-24.926865c0,-9.042098 0,-22.238673 0,-22.238673z" fill="#232524" id="svg_56" stroke="#180c18" stroke-dasharray="null" stroke-linecap="round" stroke-linejoin="round" stroke-width="4"/>
    <path d="m203.543556,436.589984c3.665715,-3.910096 17.595434,0.733143 20.283625,1.955048c2.688191,1.221905 2.688191,-3.665715 12.219051,-1.710667c9.53086,1.955048 21.50553,11.485908 21.50553,11.485908" fill="#000000" fill-opacity="0" id="svg_57" stroke="#180c18" stroke-dasharray="null" stroke-linecap="round" stroke-linejoin="round" stroke-width="4"/>
    <path d="m252.664142,469.581422c-11.241527,-12.707813 -20.528006,-23.460578 -27.615056,-31.03639" fill="#000000" fill-opacity="0" id="svg_58" stroke="#180c18" stroke-dasharray="null" stroke-linecap="round" stroke-linejoin="round" stroke-width="4"/>
    <path d="m234.091184,436.345603c2.932572,-8.553336 11.97467,-4.398858 14.907243,-3.910096" fill="#000000" fill-opacity="0" id="svg_60" stroke="#180c18" stroke-dasharray="null" stroke-linecap="round" stroke-linejoin="round" stroke-width="4"/>
    <path d="m238.978804,430.96922c-1.710667,-3.665715 0.733143,-7.820193 6.598288,-8.308955" fill="#000000" fill-opacity="0" id="svg_63" stroke="#180c18" stroke-dasharray="null" stroke-linecap="round" stroke-linejoin="round" stroke-width="4"/>
    <path d="m242.400139,423.393408c-3.910096,-2.688191 -4.154477,-7.08705 -1.466286,-9.286479c2.688191,-2.199429 6.598288,-1.955048 10.264003,-2.199429" fill="#000000" fill-opacity="0" id="svg_64" stroke="#180c18" stroke-dasharray="null" stroke-linecap="round" stroke-linejoin="round" stroke-width="4"/>
    <path d="m203.787937,450.764083l-10.997146,-7.575812" fill="#000000" fill-opacity="0" id="svg_65" stroke="#180c18" stroke-dasharray="null" stroke-linecap="round" stroke-linejoin="round" stroke-width="4"/>
    <path d="m181.793644,456.629228c3.665715,0 8.064574,1.955048 12.707813,6.842669c4.643239,4.887621 8.308955,11.241527 8.308955,11.241527" fill="#000000" fill-opacity="0" id="svg_66" stroke="#180c18" stroke-dasharray="null" stroke-linecap="round" stroke-linejoin="round" stroke-width="4"/>
    <path d="m171.774022,465.426945c0.488762,3.421334 4.398858,8.797717 8.064574,13.685337c3.665715,4.887621 10.997146,11.730289 10.997146,11.730289" fill="#000000" fill-opacity="0" id="svg_67" stroke="#180c18" stroke-dasharray="null" stroke-linecap="round" stroke-linejoin="round" stroke-width="4"/>
    <path d="m106.524289,406.775498c2.199429,1.710667 7.820193,3.421334 7.331431,8.553336c-0.488762,5.132002 -1.710667,7.331431 -6.109526,7.331431c-4.398858,0 -12.463432,-3.176953 -14.662862,-7.820193c-2.199429,-4.643239 -8.553336,-14.662862 -6.598288,-21.994292c1.955048,-7.331431 5.620764,-15.151624 10.019622,-18.817339c4.398858,-3.665715 5.620764,-3.910096 5.620764,-3.910096c0,0 -3.421334,-9.042098 1.466286,-11.97467c4.887621,-2.932572 6.842669,-4.643239 11.485908,-2.44381c4.643239,2.199429 6.598288,3.421334 10.264003,10.264003c3.665715,6.842669 1.955048,14.174099 1.466286,17.595434c-0.488762,3.421334 -3.421334,5.132002 -4.398858,5.132002c-0.977524,0 -2.688191,-6.598288 -4.887621,-8.797717c-2.199429,-2.199429 -6.598288,-4.887621 -6.598288,-4.887621c0,0 4.887621,2.44381 8.064574,7.575812c3.176953,5.132002 3.665715,7.08705 2.199429,12.952194c-1.466286,5.865145 -7.575812,3.421334 -10.019622,0.977524c-2.44381,-2.44381 -5.620764,-4.643239 -5.620764,-4.643239c1.466286,2.790017 3.421334,2.40308 6.353907,5.193097c1.058984,2.952937 5.132002,4.195208 4.887621,8.614431c-0.244381,4.419223 -1.955048,7.372161 -8.308955,2.260524l-1.955048,-1.16081z" fill="#8c553f" id="svg_68" stroke="#180c18" stroke-dasharray="null" stroke-linecap="round" stroke-linejoin="round" stroke-width="4"/>
   </g>
   <g id="svg_88">
    <path d="m361.75,404c0,0 -9.75,6.75 -12.75,14c-3,7.25 -4.5,18.75 -1,19c3.5,0.25 -0.75,-6.25 8.75,-6c9.5,0.25 21.5,-1.25 33,8.5c63.75,15.25 129.75,28.5 129.75,28.5c0,0 11.5,0.5 14.75,-2c3.25,-2.5 18.75,-22.25 29,-41.5c10.25,-19.25 20.25,-51.5 22.25,-60.75c2,-9.25 -0.75,-22.75 -1.5,-39c-0.75,-16.25 -1,-47 0,-47.25c1,-0.25 3,-5.75 6,-14.75c3,-9 4.5,-15.75 3.75,-16.75c-0.75,-1 -7,-5.5 -17,-9.5c-10,-4 -31.75,-7 -53.25,-6.5c-21.5,0.5 -29,6 -29,6c0,0 -132.75,168 -132.75,168z" fill="#ea4940" id="svg_89" stroke="#180c18" stroke-dasharray="null" stroke-linecap="null" stroke-linejoin="round" stroke-width="4"/>
    <path d="m462.25,389.25c0,0 -1.25,11 0.25,20.25c3.25,8 5,10.5 6.75,9.5c3.5,-0.75 2.25,-14.75 2.75,-11c1,7 1.75,19.25 14.25,24.5c5.25,-1.75 3,-6.25 -4.5,-15c9,11.25 13.75,17.25 20.25,20.5c4,2 12.25,7.25 18.25,-1c2.75,5.5 10.25,8.75 17.25,9.25l10.25,1c12.5,-11 29,-50.75 31.5,-62.5c-2.75,-10.75 -5.5,-13 -10,-19.75c-6.75,-8.75 -22.75,-13 -22.75,-13c0,0 14,4.75 15.75,1.25c1.75,-3.5 -15.75,-15 -33.75,-11.25c5,-3 16,-5.25 17,-8.25c-5.5,-6 -21.75,2.5 -25.5,3.25c0.75,6.25 -1.25,14.75 -9,28.75c-6.5,11 -15.75,20.25 -26.5,22.5c-10.25,2.25 -22.25,1 -22.25,1z" fill="#f0be8d" id="svg_90" stroke="#180c18" stroke-dasharray="null" stroke-linecap="null" stroke-linejoin="round" stroke-width="4"/>
    <path d="m531,400.5c8,9 15.75,10.25 18.25,8.75c5,-2.5 -4.5,-8.25 -4.5,-8.25" fill="#000000" fill-opacity="0" id="svg_91" stroke="#180c18" stroke-dasharray="null" stroke-linecap="round" stroke-linejoin="round" stroke-width="4"/>
    <path d="m346.75,425.25c0,0 18.5,1.75 18.5,1.75c0,0 0.5,-13.25 0.5,-13.25c0,0 -13,-0.25 -13,-0.25c0,0 -6,11.75 -6,11.75z" fill="#f8e33a" id="svg_92" stroke="#180c18" stroke-dasharray="null" stroke-linecap="null" stroke-linejoin="round" stroke-width="4"/>
    <path d="m388.5,420c0,0 22,-8.5 22,-8.5c0,0 -10.75,19 -10.75,19c0,0 10.75,5 10.75,5c0,0 13.25,-24 13.25,-24c0,0 -1.25,-9.75 -1.25,-9.75c0,0 -33,2.5 -33,2.5c0,0 -1,15.75 -1,15.75z" fill="#f8e33a" id="svg_93" stroke="#180c18" stroke-dasharray="null" stroke-linecap="null" stroke-linejoin="round" stroke-width="4"/>
    <path d="m546,278.5c0,0 15.5,24.75 15.5,24.75c0,0 8.25,-8.5 8.25,-8.5c0,0 -16.25,-24.25 -16.25,-24.25c0,0 24.75,-3.25 24.75,-3.25c0,0 -1.25,-15 -1.25,-15c0,0 -21.75,9 -21.75,9c0,0 0,-25.25 0,-25.25c0,0 -11.25,-2.25 -11.25,-2.25c0,0 -1.75,23.75 -1.75,23.75c0,0 -14,-20.25 -14,-20.25c0,0 -11,10.75 -11,10.75c0,0 14.75,16.5 14.75,16.5c0,0 -16.75,26.25 -16.75,26.25c0,0 16.5,12.5 16.5,12.5c0,0 14.25,-24.75 14.25,-24.75z" fill="#f8e33a" id="svg_94" stroke="#180c18" stroke-dasharray="null" stroke-linecap="null" stroke-linejoin="round" stroke-width="4"/>
    <path d="m447.25,431.75c-7.25,-4.5 13.25,-18.75 8.75,-14.5c-4.5,4.25 -22.5,2.5 -26.5,-1.25c-4,-3.75 -5.75,-8 -5.75,-8c0,0 30.75,28.25 23.5,23.75z" fill="#000000" fill-opacity="0" id="svg_95" stroke="#180c18" stroke-dasharray="null" stroke-linecap="null" stroke-linejoin="round" stroke-width="4"/>
    <path d="m529.25,313.25c0,0 14.5,-3.75 23.5,2.75c9,6.5 10.5,41 8.75,36.75c-1.75,-4.25 11.25,-18.25 22.25,-23.5" fill="#000000" fill-opacity="0" id="svg_96" stroke="#180c18" stroke-dasharray="null" stroke-linecap="null" stroke-linejoin="round" stroke-width="4"/>
    <path d="m571.75,234.75c0,0 2,-7.25 -6,-31.5c-8,-24.25 -27,-41 -37.25,-48.25c-10.25,-7.25 -36.5,-20.5 -46,-25c-6.5,-3.5 -12.25,-4.5 -11,-5c0.25,-3.5 0,-6.25 -2.5,-13.75c-2.75,-5.75 -8,-8.5 -8,-8.5c0,0 1.6875,-10.4375 3.28125,-18.90625c3.84375,-8.71875 5.09375,-14.96875 2.71875,-17.09375c-6.25,-8.75 -18,12.5 -23.75,21.25c-2.25,-5.25 -5.25,-10 -4.25,-17.25c0.25,-10.75 4,-21.25 -2.5,-22.75c-5,-1.75 -10.75,2.25 -14.5,19c-3.75,16.75 -3.5,21.75 -4,28.75c-4,-7 -6.5,-12.75 -10.5,-18c-7.25,-11.5 -12,-13 -15.75,-13c-4.75,1 -0.75,22.25 3.75,33.25c6.5,13.5 20,27.5 20.75,27.5c0.75,0 8.25,-2.75 14.75,-2.5c-8,0.75 -25.25,3.25 -25,9.5c0.25,6.25 8.75,10 16.5,11.25c7.75,1.25 16,-0.75 19.25,-0.25c3.25,0.5 11.25,7 29.25,36.25c7.75,13 44,47.25 50,50.5c6,-0.75 11.5625,0.375 24.625,0.5c8.8125,0.375 26.125,4 26.125,4z" fill="#845e49" id="svg_97" stroke="#180c18" stroke-dasharray="null" stroke-linecap="null" stroke-linejoin="round" stroke-width="4"/>
    <path d="m349.5,433.75c0,0 2.75,1.5 0.5,6.25c-3.25,4.75 -6.25,12.25 -4,25c3.25,9.75 12.5,20.25 21.25,24c8.75,3.75 19.5,3.25 28,2.25c8.5,-1 26.75,-4.5 43.5,-13.5c16.75,-9 28.75,-18 31,-19.75c2.25,-1.75 -10.75,6.5 -5.75,8c5,1.5 21.25,-0.75 24,-1.5c2.75,-0.75 -1.25,2 0.5,3.25c1.75,1.25 26,1.75 26,1c0,-0.75 -1.25,-5 -8.25,-11.25c-7,-7.25 -17.75,-11.75 -21.25,-15c-3.5,-3.25 -9,-7 -27.75,-8.5c-18.75,-1.5 -38.5,2 -53,4.5c-15.25,3.25 -23.75,5 -33.25,7.5c9.5,-2.75 16.25,-5.25 16.25,-5.25c0,0 -3.25,-5.25 -14.25,-8.25c-14.25,-2 -16.75,-2.25 -23.5,1.25z" fill="#845e49" id="svg_98" stroke="#180c18" stroke-dasharray="null" stroke-linecap="null" stroke-linejoin="round" stroke-width="4"/>
    <path d="m382.25,403.25c-5.25,3.5 -11.5,6.75 -25,3.5c-13.5,-3.25 -12.75,-17.75 -12.75,-17.75c0,0 -0.5,9.25 -7,4c-6.5,-5.25 2.5,-21.25 2.5,-22c0,-0.75 -5,13.25 -9,6c-4,-7.25 7.25,-13.5 7.5,-13.5c0.25,0 -13.75,12.5 -8.5,1c5.25,-11.5 14.25,-10.75 14.5,-10.5c0.25,0.25 -10,-12.5625 -11.34375,-25.9375c-1.34375,-13.375 -12.53125,-31.3125 -15.40625,-44.0625c-2.875,-12.75 3.75,-24.25 5.25,-27.25c1.5,-3 -4,9.75 -4.5,9.75c-0.5,0 -14.5,-2 -23.5,-22.25c-9,-20.25 4.5,-42.5 7,-43.5c1.25,-0.5 12.6875,4.4375 18.25,10.59375c5.5625,6.15625 10.25,8.53125 11,7.90625c1.5,-1.25 -14.75,-25.25 -6.75,-32.5c8,-7.25 21.25,-5.25 31,-2.75c9.75,2.5 27.5,18.5 27.75,19.25c0.25,0.75 -30,17.25 -30,17.75c0,0.5 34.5,-28.75 69.25,-20.5c34.75,8.25 51.5,28 52.25,28.25c0.75,0.25 -1.75,-11.25 6,-16.5c7.75,-5.25 3.5,13.75 3,12.75c-0.5,-1 5.5,-14.25 12.5,-13.75c7,0.5 3.5,6.75 3.25,7.25c-0.25,0.5 11.25,-9.75 26.25,0.25c15,10 10.25,43.75 8.5,53c-1.75,9.25 -146.75,128 -152,131.5z" fill="#845e49" id="svg_99" stroke="#180c18" stroke-dasharray="null" stroke-linecap="null" stroke-linejoin="round" stroke-width="4"/>
    <path d="m358.75,353c0,0 -10.25,-8.75 -19.75,-20.25c-9.5,-11.5 -15,-29.25 -15,-43.75c0,-14.5 16,-20.75 24,-19.25c8,1.5 23.75,7.25 38.75,19.5c15,12.25 25,21.25 25,22c0,0.75 22.5,-20.25 22.5,-20.5c0,-0.25 -9,-7.5 -20.5,-22.5c-11.5,-15 -15.75,-32.5 -16.5,-40.25c-0.75,-7.75 -0.75,-13.75 7,-21c7.75,-7.25 30.5,-3 42.25,8.75c11.75,11.75 20.25,31 20.5,32.75c0.25,1.75 9.25,-11.75 22.75,-18c13.5,-6.25 27.75,-8.25 29,-1.5c1.25,6.75 -8.25,3.25 -8,3.5c0.25,0.25 8.25,2 12.25,7.5c4,5.5 8,11 10.5,21c2.5,10 0.75,28.75 -2.25,42.5c-3,13.75 -12.25,31.25 -12,36c0.25,4.75 -1.75,12 -5.75,20.5c-4,8.5 -15,23.25 -24.75,26.5c-9.75,3.25 -30.25,2.25 -31.75,2.25c-1.5,0 -12.5,10.25 -32.5,13.5c-20,3.25 -27,5.5 -42.75,3.25c-14,-1.75 -31,-19.25 -25,-28.75c-4.25,7.25 -4.5,9 -7.25,7c-2.25,-3 0,-8 0,-15.75c1,-5.75 1.75,-11.25 4.25,-12.25c2.5,-1 5,-2.75 5,-2.75z" fill="#f0be8d" id="svg_100" stroke="#180c18" stroke-dasharray="null" stroke-linecap="null" stroke-linejoin="round" stroke-width="4"/>
    <path d="m392,323.5c0,0 4,-9 -6.25,-21.5c-10.25,-12.5 -18.5,-14.25 -29,-14c-10.5,0.25 -13.5,4.25 -16,9.5c-2.5,5.25 -1.25,16.5 5.5,23.5c6.75,7 18,12.5 25.75,13l5.5,0.75l-8.5,11c7,-9.75 23,-22.25 23,-22.25z" fill="#fdfcfa" id="svg_101" stroke="#180c18" stroke-dasharray="null" stroke-linecap="null" stroke-linejoin="round" stroke-width="4"/>
    <path d="m348,223.25c-3,0.25 -20,-0.25 -23.75,0.5c-3.75,0.75 -5.75,3.75 -5.25,5.75c0.5,2 27.5,0.25 20.25,0.75c-7.25,0.5 -15.75,11.25 -16.25,13.5c-0.5,2.25 -2,6.75 1.75,8.75c3.75,2 10.75,-13.25 10.75,-13.5c0,-0.25 -0.25,11 1,15.5c1.25,4.5 4.25,6.5 7.5,5c3.25,-1.5 1.5,-15 1.5,-14.75c0,0.25 7.25,11 12.25,14c5,3 8,2.25 8.5,-1.5c0.5,-3.75 -4.75,-8.25 -6,-11c-1.25,-2.75 -3,-3.75 -1.75,-7.75" fill="none" id="svg_102" stroke="#180c18" stroke-dasharray="null" stroke-linecap="round" stroke-linejoin="null" stroke-width="4"/>
    <circle cx="378.625" cy="317.875" fill="#180c18" id="svg_103" r="13.867676" stroke="#180c18" stroke-dasharray="null" stroke-linecap="null" stroke-linejoin="null" stroke-width="4"/>
    <path d="m439.5,282.75c-4.75,-2.5 -15.5,-8.5 -22.5,-19c-7,-10.5 -9.25,-27 -3,-33.75c6.25,-6.75 15.25,-11 27.75,-4.75c12.5,6.25 15,39.5 15,39.5c0,0 9.25,-6 9.5,-6c0.25,0 -10.5,8.25 -18.75,15.5l-8,8.5z" fill="#fdfcfa" id="svg_104" stroke="#180c18" stroke-dasharray="null" stroke-linecap="null" stroke-linejoin="round" stroke-width="4"/>
    <path d="m491.25,258.25c0,0 -9.5,3.25 -14.75,8c-5.25,4.75 -9.75,11.5 -9.75,11.5c0,0 -4.25,-2.75 -12.75,1.5c-8.5,4.25 -19.5,10 -33.25,23.5c-13.75,13.5 -16.75,16.5 -22,28.5c-5.25,12 -6.5,13.25 -6.5,13.25c0,0 -4.75,2.75 -8.25,9.75c-3.5,7 -5.5,11 -5.5,11c0,0 4.75,-2.25 11.5,-1c6.75,1.25 23.5,4.75 36.25,9.5c12.75,4.75 29,8.25 41.25,8.25c12.25,0 20.25,-0.75 27.75,-8c7.5,-7.25 10.75,-18.75 10.25,-31.25c-0.5,-12.5 -2.25,-20.75 -5.75,-31.25c-3.5,-10.5 -8.5,-19.75 -10.5,-28c-2,-8.25 -3.5,-15.75 -2,-20.25c1.5,-4.5 4,-5 4,-5z" fill="#fef7f9" id="svg_105" stroke="#180c18" stroke-dasharray="null" stroke-linecap="null" stroke-linejoin="round" stroke-width="4"/>
    <circle cx="437.5" cy="264.75" fill="#180c18" id="svg_106" r="14.162009" stroke="#180c18" stroke-dasharray="null" stroke-linecap="null" stroke-linejoin="null" stroke-width="4"/>
    <path d="m317.5,250.75c-1.75,0.5 -12.75,-9 -16,-13.25c-3.25,-4.25 -8,-9.25 -5.75,-18c2.25,-8.75 3.25,-9 6,-10c2.75,-1 9.5,7.5 10.5,13c1,5.5 0.75,10.75 3.75,14.75c3,4 8.75,1.5 8.75,1.5c0,0 -2.75,1 -4.5,4c-1.75,3 -1,7.5 -2.75,8z" fill="#f1b991" id="svg_107" stroke="#180c18" stroke-dasharray="null" stroke-linecap="null" stroke-linejoin="null" stroke-width="4"/>
    <path d="m365.5,212c0,-0.25 -7.75,5.5 -7.25,5.25c0.5,-0.25 -12.5,-3.75 -19.5,-9c-7,-5.25 -16,-13.75 -12.75,-18.5c3.25,-4.75 12.5,0.5 19,5c6.5,4.5 20.5,17.5 20.5,17.25z" fill="#f1b991" id="svg_108" stroke="#180c18" stroke-dasharray="null" stroke-linecap="null" stroke-linejoin="null" stroke-width="4"/>
    <path d="m331.75,301c-1.5,-9.5 4,-16 10.75,-18.25" fill="none" id="svg_109" stroke="#180c18" stroke-dasharray="null" stroke-linecap="round" stroke-linejoin="null" stroke-width="4"/>
    <path d="m424,212c-5.66667,-0.33333 -12.25,1 -14.25,9" fill="none" id="svg_110" stroke="#180c18" stroke-dasharray="null" stroke-linecap="round" stroke-linejoin="null" stroke-width="4"/>
    <path d="m455.25,289.75c7,3.75 10.5,11.5 7.75,23.5c-2.75,12 -10.5,21.75 -23.75,24.75c-13.25,3 -23,2.5 -28.75,-3c-5.75,-5.5 -3.25,-20.25 -0.75,-25c2.5,-4.75 7.25,-14.75 20,-20c12.75,-5.25 18.5,-4 25.5,-0.25z" fill="#590000" id="svg_111" stroke="#590000" stroke-dasharray="null" stroke-linecap="null" stroke-linejoin="round" stroke-width="4"/>
    <path d="m443.5,353.5c1.25,6.75 4,12.75 4,12.75c0,0 7,4.5 18.75,4.75c11.75,0.25 16.5,-1.75 20.5,-6c4,-4.25 8.25,-14.75 5.75,-22.75c0,-7.25 -1.25,-17.75 -2.75,-19.25c-1,1.75 -4.75,3 -4.75,3c-4.25,0.5 -5.75,0 -9,-3.5c-2,6.75 -5.5,13 -11,18.25c-5.5,5.25 -13,10.5 -21.5,12.75z" fill="#a33b30" id="svg_112" stroke="#180c18" stroke-dasharray="null" stroke-linecap="null" stroke-linejoin="round" stroke-width="4"/>
    <path d="m386,351.75c7.25,5.75 15.25,5.25 24.5,6.5c12.5,0.5 30,-3 34.5,-5.5" fill="none" id="svg_113" stroke="#180c18" stroke-dasharray="null" stroke-linecap="null" stroke-linejoin="round" stroke-width="4"/>
    <path d="m475.5,267.25c0,0 2.25,11 3.5,19.5c1.75,10.75 -0.75,29 -3.25,35.25" fill="none" id="svg_114" stroke="#180c18" stroke-dasharray="null" stroke-linecap="null" stroke-linejoin="round" stroke-width="4"/>
    <path d="m471.25,370.25c0,0 1.25,-14.25 14,-13.5c-4,-6 1,-9.75 7.75,-8" fill="none" id="svg_115" stroke="#180c18" stroke-dasharray="null" stroke-linecap="null" stroke-linejoin="round" stroke-width="4"/>
    <path d="m420.75,358c0,0 3.5,8.5 8.25,12.5c4.75,4 17.75,-5.25 17.75,-5.25" fill="none" id="svg_116" stroke="#180c18" stroke-dasharray="null" stroke-linecap="null" stroke-linejoin="round" stroke-width="4"/>
    <path d="m479.75,301.5c0,0 12.5,8.5 13.5,9.75c1.25,3 0,9 -3.75,12.5" fill="none" id="svg_117" stroke="#180c18" stroke-dasharray="null" stroke-linecap="null" stroke-linejoin="round" stroke-width="4"/>
   </g>
   <line fill="none" id="svg_21" stroke="#28180f" stroke-dasharray="null" stroke-linecap="round" stroke-linejoin="round" stroke-width="8" x1="465" x2="559.5" y1="468.75" y2="468.75"/>
   <path d="m534.75,467.5c0,0 14.5,-10 34.75,-51.25c20.25,-41.25 23.75,-84 23.5,-86.5" fill="none" id="svg_24" stroke="#28180f" stroke-dasharray="null" stroke-linecap="round" stroke-linejoin="round" stroke-width="8"/>
   <line fill="none" id="svg_73" stroke="#28180f" stroke-dasharray="null" stroke-linecap="round" stroke-linejoin="round" stroke-width="8" x1="109.25" x2="153.749999" y1="468.25" y2="468.25"/>
   <path d="m80,380c3,11.75 14.25,36.75 23,51.75c8.75,15 18,30.5 29,37.75" fill="none" id="svg_74" stroke="#28180f" stroke-dasharray="null" stroke-linecap="round" stroke-linejoin="round" stroke-width="8"/>
  </g>
 </g>
</svg>
