<?xml version="1.0"?>
<svg width="600" height="800" xmlns="http://www.w3.org/2000/svg" xmlns:svg="http://www.w3.org/2000/svg">
 <!-- Created by NeiroNx neiron.nxn@gmail.com with SVG-edit - https://github.com/SVG-Edit/svgedit on 30th BirthDay of Chip&Dail -->
 <g class="layer">
  <title>Layer 1</title>
  <g id="svg_12">
   <g id="svg_10">
    <path d="m27.5,568.25c0,0 12.54,-7.98 21.89,-11.06c9.3512,-3.07 17.79,-7.07 36.94,-8.43c19.15,-1.36 29.07,5.24 41.51,10.83c12.43,5.58 18.58,7.75 24.17,9c5.58,1.25 20.86,2.05 26.57,0.22c5.7,-1.8 7.52,-4.56 7.52,-4.56c0,0 -5.47,22.9 -5.47,22.92c0,0 1.25,-0.22 -4.56,0.22c-5.81,0.45 -12.65,-0.45 -16.3,-1.02c-3.64,-0.57 -12.54,-2.5 -21.89,-6.95c-9.35,-4.44 -20.64,-9.57 -30.79,-13.68c-10.14,-4.1 -15.73,-5.93 -28.28,-6.27c-12.54,-0.34 -27.93,1.71 -35.8,3.87c-7.86,2.16 -15.5,4.9 -15.5,4.9l0,0l-0.01,0.01z" fill="#cf8a2d" id="svg_6" stroke="#131517" stroke-dasharray="null" stroke-linecap="round" stroke-linejoin="round" stroke-width="3"/>
    <path d="m293.89,434.53c-3.64,2.96 -27.53,17.38 -49.63,27.75c-22.1,10.37 -53.43,33.92 -55.03,33.35c-1.59,-0.5 -1.36,-0.5 -1.59,-0.68c-0.22,-0.11 3.64,0.34 4.21,5.13c1.59,15.73 -0.09,17.04 3.33,20.91c3.42,3.87 7.26,8.61 7.49,12.6c0.22,3.99 -2.16,8.09 -6.04,9.35c-3.87,1.25 -11.62,1.34 -22.32,-8.84c-10.7,-10.18 -13.49534,-12.65411 -18.49159,-11.45215c-4.99,1.2 -2.94,0.48 -33.64,8.78c-30.69,8.29 -18.87,-12.81 -13.08,-16.61c5.78,-3.79 18.44,-7.56 22.78,-8.7c4.33,-1.14 3.54,-1.76 -21.52,0.92c-25.07,2.68 -16.95,-11.94 -8.77,-14.89c8.17,-2.95 29.04,-4.84 31.32,-5.07c2.28,-0.22 -13.68,0.79 -15.62,0.57c-1.93,-0.22 -8.45,3.12 3.99,-4.21c12.44,-7.34 27.82,-14.48 38.31,-14.71c10.49,-0.22 1.25,0.45 1.59,-0.91c44.09,-54.72 66.37,-82.49 77.77,-93.74c4.9,-5.74 23.94,-19.15 39.57,-22c15.62,-2.85 20.07,1.82 24.06,4.67c3.99,2.85 16.07,23.14 16.53,24.4c0.45,1.25 -9.35,-23.94 -9.35,-23.94c92.38,-9.25 101.38,2.96 105.84,6.27c4.44,3.3 15.28,15.96 19.15,21.32c14.91,26.37 33.86,53.71 43.79,69.22c28.7,46.95 34.86,41.88 70.32,49.38c35.46,7.5 22.04,29.11 -13.65,10.36c16.05,5.75 26.03,16.71 22.99,19.79c-11.31,-2.69 1.99,0 -30.4,-8.38c27.35,7.36 41.64,9.56 35.34,22.5c-8.29,8.93 -61.12,-5.85 -61.91,-5.96c-8.78,7.98 -12.16,14.42 -20.19,20.95c-8.03,6.53 -21.27,-4.99 -17.8,-11.09c3.46,-6.09 12.51,-12.03 11.37,-21.08c-1.13,-9.05 0.61,-11.51 3.35,-15.85c-5.44,8.31 -2.95,6.08 -13.33,-1.21c-10.37,-7.29 -25.71,-18.11 -34.55,-26.34c-8.84,-8.22 -25.98,-29.09 -29.43,-22.65c-3.44,6.43 -23.02,120.5 -22.22,126.43c0.79,5.93 2.05,10.6 3.76,20.98c4.44,28.62 7.6,43.61 11.83,58.42c4.22,14.81 10.7,25.5 11.42,26.75c0.68,1.25 -9.35,-3.19 -7.98,-2.73c1.36,0.45 -7.28,-2.62 10.6,4.67c17.88,7.29 41.38,20.38 44.27,25.92c2.89,5.53 1.77,12.02 -2.04,14.82c-3.82,2.8 -18.5,2.46 -19.3,2.46c-0.29,-9.54 -5.07,-11.23 -9,-13.49c-3.93,-2.25 -29.54,-10.27 -18.41,-7.34c11.12,2.93 18.74,7.13 23.44,10.75c4.7,3.62 3.17,10.75 1.46,12.12c-1.71,1.36 -2.39,4.82 -26.8,4.25c-24.4,-0.56 -41.3,-9.25 -46.28,-14.05c-4.98,-4.8 -5.82,-18.02 -6.28,-22.58c-0.45,-4.56 -3.53,-9.57 -5.24,-11.86c-1.71,-2.28 -35.23,-33.67 -42.93,-39.46c-7.7,-5.79 -21.83,-12.42 -24.22,-13.56c-2.39,-1.14 15.39,-6.15 17.56,-6.84c2.16,-0.68 -20.64,6.84 -24.06,8.78c-72.41,49.72 -75.83,51.77 -77.43,54.28c-1.59,2.5 -4.9,6.72 -6.04,7.64c-1.14,0.91 5.13,-7.98 6.27,-4.78c1.14,3.19 5.78,7.68 -0.11,15.85c-5.89,8.17 -15.56,10.18 -42.81,22.06c-27.25,11.87 -51.65,8.45 -52.18,-3.87c-0.52,-12.33 45.12,-22.33 25.43,-16.36c-19.68,5.97 -18.31,5.67 -22.04,9.59c-3.73,3.92 -1.22,6.58 -5.62,7.5c-4.4,0.99 -14.69,-5.16 -14.43,-14.28c0.26,-9.11 10.64,-18.47 23.6,-25.02c12.96,-6.55 25.21,-8.31 39.26,-12.59c14.04,-4.28 10.35,-2.4 11.31,-3.89c0.95,-1.48 -5.15,8.99 -4.19,7.5c0.95,-1.48 16.5,-25.08 20.3,-43.33c3.79,-18.24 6.66,-57.1 7.51,-61.67c0.84,-4.56 3.51,-16.32 5.38,-22.25c1.86,-5.93 6.24,-17.68 7.77,-20.09c1.52,-2.4 9.09,-2.06 10.51,-7.66c1.41,-5.59 -2.23,-7.38 -0.66,-9.82c1.57,-2.44 17.76,-17.28 22.96,-21.98c5.19,-4.7 25.95,-23.05 30.24,-29.35c4.28,-6.29 8.1,-20.62 11.59,-24.39c3.48,-3.75 16.87,-9.53 19.49,-11.44l7.66,-6.06l0,0l-0.02,0.02l-0.08841,0.04215z" fill="#d1892d" id="svg_34" stroke="#131517" stroke-linecap="round" stroke-linejoin="round" stroke-width="3"/>
    <path d="m391.74,386.25c0,0 6.61,18.01 8.89,26.45c2.28,8.43 6.61,26 5.81,37.74c-0.79,11.74 -2.85,64.08 -4.78,79.25c-1.93,15.16 -12.08,46.52 -26.11,65c-14.02,18.47 -22.69,23.14 -39.68,31.2c-16.99,8.09 -31.81,8.89 -44.24,5.93c-12.43,-2.96 -24.4,-10.37 -30.33,-18.47c-5.93,-8.09 -12.65,-22.69 -10.71,-38.43c1.93,-15.73 10.14,-28.05 26.68,-53.14c16.53,-25.08 20.98,-35.92 28.05,-49.49c7.07,-13.57 20.29,-40.36 24.86,-48.23c4.56,-7.86 6.38,-13.45 10.6,-13.91c4.21,-0.45 6.04,3.07 8.32,6.84c2.28,3.76 7.86,15.73 11.4,21.55c3.53,5.81 7.75,6.95 13.79,-2.85c6.04,-9.8 10.83,-22.69 17.79,-24.63c6.95,-1.93 8.78,3.99 9,4.56c0.22,0.57 -9.35,-29.42 -9.35,-29.42l0,0l0.01,0.05z" fill="#f1e4b9" id="svg_2" stroke="#131517" stroke-linecap="round" stroke-linejoin="round" stroke-width="3"/>
   </g>
   <g id="svg_33">
    <path d="m328.67,116.89c0.45,-0.79 11.86,-24.86 11.86,-24.86c0,0 5.81,-15.5 10.6,-22.92c4.78,-7.41 9.35,-11.86 14.48,-11.86c5.13,0 17.2,3.53 23.49,11.28c6.27,7.75 12.43,14.02 16.64,26c4.21,11.97 5.35,15.16 6.27,22c0.91,6.84 2.28,14.71 1.36,20.52c-0.91,5.81 -1.82,4.21 -1.82,4.21c0,0 -7.86,-4.56 -16.76,-8.32c-8.89,-3.76 -20.18,-6.95 -31.47,-9.69c-11.28,-2.73 -35.12,-5.58 -34.66,-6.38l0,0l0.01,0.02z" fill="#d1892d" id="svg_5" stroke="#131517" stroke-linecap="round" stroke-linejoin="round" stroke-width="3"/>
    <path d="m236.76,312.58c0,0 -1.82,1.93 -9.69,1.93c-7.86,0 -15.96,-3.07 -20.75,-5.01c-4.74,-1.93 -13.34,-7.41 -19.61,-12.31c-6.27,-4.9 -14.93,-11.17 -20.75,-17.79c-5.81,-6.61 -12.43,-12.54 -16.99,-19.38c-4.56,-6.84 -7.64,-10.83 -14.36,-22.46c-6.73,-11.63 -11.94,-26.34 -15.62,-37.29c-3.64,-10.94 -6.38,-28.85 -6.38,-43.56c0,-14.71 0.11,-30.33 3.19,-39.57c3.07,-9.23 14.25,-24.54 32.84,-26.45c18.58,-1.93 39,5.13 58.15,26.91c19.15,21.78 23.03,42.19 25.2,63.86c2.16,21.66 4.78,131.14 4.78,131.14l0,0l-0.01,-0.02z" fill="#e9a8b3" id="svg_7" stroke="#131517" stroke-linecap="round" stroke-linejoin="round" stroke-width="3"/>
    <path d="m250.33,121.45c0,0 11.4,-1.59 22.35,-7.29c10.94,-5.7 24.4,-13.68 32.84,-19.84c8.43,-6.15 21.89,-18.93 25.08,-21.21c3.19,-2.28 -6.61,10.83 -15.96,20.98c-9.35,10.14 -26.57,20.41 -24.63,19.15c1.93,-1.25 19.15,-10.03 30.1,-11.86c10.94,-1.82 23.37,-4.1 38.43,-3.99c15.05,0.11 29.3,1.02 36.94,2.73c7.64,1.71 -26.11,0.34 -41.62,2.62c-15.5,2.28 -30.1,4.78 -39.22,7.52c-9.12,2.73 -31.7,10.26 -22.46,7.75c9.23,-2.5 34.89,-1.82 48.69,0.11c13.79,1.93 38.08,8.32 50.4,13.34c12.31,5.01 29.42,13.79 37.86,20.52c8.43,6.72 19.84,18.24 24.63,27.82c4.78,9.57 6.38,19.15 6.38,30.56c0,11.4 -3.99,25.2 -5.01,30.44c-1.02,5.24 -5.35,18.47 -4.33,26c1.02,7.52 8.09,12.2 14.36,14.71c6.27,2.5 11.51,7.07 12.31,15.5c0.79,8.43 -1.82,13.68 -5.47,20.98c-3.64,7.29 -14.14,16.64 -21.89,21.43c-7.75,4.78 -20.07,12.31 -29.19,15.96c-9.12,3.64 -25.54,10.26 -36.94,13.22c-11.4,2.96 -33.18,7.07 -53.37,4.1c-20.18,-2.96 -24.4,-7.52 -34.21,-12.43c-9.8,-4.9 -22.57,-12.88 -30.1,-18.13c-7.52,-5.24 -17.67,-13.68 -25.2,-23.72c-7.52,-10.03 -10.71,-14.48 -15.39,-26.68c-4.67,-12.2 -7.75,-27.36 -7.75,-35.8c0,-8.43 0.11,-13.45 2.62,-18.81c2.5,-5.35 7.86,-8.09 7.86,-8.09c0,0 -8.66,4.1 -15.96,3.3c-7.29,-0.79 -12.88,-3.19 -17.9,-8.21c-5.01,-5.01 -11.28,-19.72 -11.28,-19.72c0,0 6.61,11.74 14.14,14.48c7.52,2.73 14.82,1.71 19.38,0.34c4.56,-1.36 9.69,-6.95 11.51,-12.88c1.82,-5.93 3.19,-15.96 2.39,-21.55c-0.79,-5.58 -1.84,-16.42 -4.56,-25.08c-2.73,-8.66 -9.46,-26 -16.42,-35.12c-6.95,-9.12 -17.79,-18.58 -26,-23.26c-8.21,-4.67 -15.96,-9.46 -26,-10.03c-10.03,-0.57 -19.95,3.42 -26,8.21c-6.04,4.78 -15.16,14.14 -15.96,17.33c-0.79,3.19 5.93,-16.3 10.83,-24.06c4.9,-7.75 10.71,-15.73 21.32,-18.93c10.6,-3.19 21.66,-2.05 28.73,0.11c7.07,2.16 19.72,8.43 26.34,12.88c6.61,4.44 20.41,14.93 27.71,20.41c7.29,5.47 41.51,29.99 43.33,31.47c1.82,1.48 -23.72,-17.33 -23.72,-17.33l0,0l0.01,0.05z" fill="#d1892d" id="svg_3" stroke="#131517" stroke-linecap="round" stroke-linejoin="round" stroke-width="3"/>
    <path d="m343.73,274.38c0,0 -5.93,-13.11 -8.78,-21.09c-2.85,-7.98 -10.03,-23.94 -11.74,-29.53c-1.71,-5.58 -4.56,-13.11 -5.81,-20.86c-1.25,-7.75 -1.59,-13.79 -0.11,-19.38c1.48,-5.58 6.27,-8.09 9.69,-8.78c3.42,-0.68 10.37,1.02 13.79,2.96c3.42,1.93 6.95,4.78 9.8,8.66c2.85,3.87 7.29,8.09 13.22,21.78c5.93,13.68 7.64,22.46 8.43,29.764c0.79,7.29 0.11,20.52 -0.79,26.11c-0.91,5.58 -2.85,10.26 -3.3,11.06c-0.46,0.79 -3.07,-0.11 -6.5,-0.34c-3.42,-0.22 -5.81,-0.45 -9.69,-0.68c-3.87,-0.22 -8.21,0.34 -8.21,0.34l0,0l0,-0.014z" fill="#fff" id="svg_11" stroke="#131517" stroke-linecap="round" stroke-linejoin="round" stroke-width="3"/>
    <path d="m368.02,275.4c0,0 -13.45,-1.02 -13.45,-1.02c0,0 -0.45,-0.91 -2.62,-8.89c-2.16,-7.98 -2.39,-14.59 -2.16,-17.33c0.22,-2.73 1.71,-7.86 3.3,-10.14c1.59,-2.28 3.53,-2.5 4.56,-2.62c1.02,-0.11 2.85,0.45 3.76,1.25c0.91,0.79 2.73,3.3 3.99,6.72c1.25,3.42 1.82,4.9 2.73,9.12c0.91,4.21 1.36,8.78 0.91,12.54c-0.45,3.76 -0.22,3.64 -0.79,6.38c-0.57,2.73 -0.22,3.99 -0.22,3.99l0,0l-0.01,0z" fill="#131517" id="svg_13" stroke="#131517" stroke-linecap="round" stroke-linejoin="round" stroke-width="3"/>
    <path d="m434.96,276.77c0,0 4.1,-11.74 5.47,-16.53c1.36,-4.78 3.64,-16.53 3.64,-25.43c0,-8.89 -1.71,-22.8 -4.44,-30.33c-2.73,-7.52 -5.35,-13.45 -8.21,-16.3c-2.85,-2.85 -6.84,-5.24 -10.71,-4.67c-3.87,0.57 -5.7,3.87 -7.86,7.98c-2.16,4.1 -3.07,12.77 -3.3,16.19c-0.22,3.42 -0.45,7.18 -0.34,12.65c0.11,5.47 4.56,29.19 5.93,34.66c1.36,5.47 4.56,22.57 4.78,22.92c0.22,0.34 5.81,-1.71 7.86,-1.71c2.05,0 7.18,0.57 7.18,0.57l0,0z" fill="#fff" id="svg_14" stroke="#131517" stroke-linecap="round" stroke-linejoin="round" stroke-width="3"/>
    <path d="m420.7,277.34c0,0 -4.1,-14.59 -4.33,-20.07c-0.22,-5.47 -0.11,-6.84 0.91,-11.17c1.02,-4.33 2.85,-8.32 5.01,-9.57c2.16,-1.25 5.58,2.85 6.84,5.81c1.25,2.96 1.93,6.61 2.16,12.65c0.22,6.04 -1.36,14.36 -1.82,16.64c-0.45,2.28 -0.91,5.24 -1.02,5.35c-0.11,0.11 -7.75,0.34 -7.75,0.34l0,0.02z" fill="#131517" id="svg_15" stroke="#131517" stroke-linecap="round" stroke-linejoin="round" stroke-width="3"/>
    <path d="m318.29,257.84c0,0 7.18,3.53 12.08,7.29c4.9,3.76 7.86,5.93 11.28,9.92c3.42,3.99 5.58,10.14 5.81,15.5c0.22,5.35 0.34,7.86 -1.93,11.63c-2.28,3.76 -4.44,7.41 -8.21,8.43c-3.76,1.02 -11.74,2.39 -18.81,0.68c-7.07,-1.71 -9.23,-3.07 -14.59,-4.33c-5.35,-1.25 -5.47,-1.48 -10.37,-1.82c-4.9,-0.34 -6.95,0.11 -10.03,1.02c-3.07,0.91 -5.35,1.25 -5.35,1.25c0,0 7.07,-2.28 11.06,-2.5c3.99,-0.22 4.56,1.02 4.56,1.02c0,0 -1.36,4.78 -1.14,9.23c0.22,4.44 -1.02,12.65 3.42,22.69c4.44,10.03 7.04,19.41 25.88,32.5c18.84,13.08 2.1,-2.13 -0.11,-8.29c-2.22,-6.15 1.74,6.65 10,13.89c8.25,7.23 7.33,6.6 9.01,7.75c1.68,1.15 3.12,2.03 4.23,2.49c4.44,1.82 6.84,2.28 14.14,1.14c7.29,-1.14 15.05,-9.92 18.93,-13.11c3.87,-3.19 11.28,-12.65 13.91,-15.28c2.62,-2.62 -11.4,11.63 -6.15,9.69c5.24,-1.93 7.07,-1.71 17.44,-6.38c10.37,-4.67 14.93,-9.23 16.87,-12.31c1.93,-3.07 6.04,-10.37 7.64,-14.59c1.59,-4.21 3.3,-9.92 3.64,-14.25c0.34,-4.33 -2.16,-4.1 3.3,-7.98c5.47,-3.87 9.12,-12.77 10.14,-18.47c1.02,-5.7 -2.39,-14.14 -6.84,-16.53c-4.44,-2.39 -7.75,-2.28 -14.02,-1.48c-6.27,0.79 -8.32,3.53 -13.57,4.1c-5.24,0.57 -3.19,0.34 -9.92,0.68c-6.72,0.34 -14.48,-1.71 -19.84,-3.42c-5.35,-1.71 -8.89,-2.28 -14.93,-2.85c-6.04,-0.57 -10.6,-1.25 -14.36,-1.14c-3.76,0.11 -6.95,0.57 -8.55,0.68c-0.79,0.05 -6.15,-5.07 -12.11,-9.3c-5.95,-4.23 -12.51,-7.56 -12.51,-7.56l0,0l0.018,0l-0.018,0.01z" fill="#f1e4b9" id="svg_9" stroke="#131517" stroke-linecap="round" stroke-linejoin="round" stroke-width="3"/>
    <path d="m408.39,306.31c0.11,0.11 8.43,-2.73 11.4,-5.47c2.96,-2.73 4.67,-4.78 5.35,-7.07c0.68,-2.28 1.93,-4.56 0.11,-6.84c-1.82,-2.28 -4.56,-5.01 -7.07,-6.38c-2.5,-1.36 -4.1,-1.82 -8.55,-2.39c-4.44,-0.57 -6.38,-0.22 -9.69,0.68c-3.3,0.91 -6.38,1.71 -8.43,3.19c-2.05,1.48 -4.67,3.53 -5.01,5.81c-0.34,2.28 -0.11,3.76 1.36,5.24c1.48,1.48 3.87,3.19 5.7,4.1c1.82,0.91 6.38,2.85 8.89,4.33c2.5,1.48 5.81,4.67 5.93,4.78l0.01,0.02z" fill="#131517" id="svg_17" stroke="#131517" stroke-linecap="round" stroke-linejoin="round" stroke-width="3"/>
    <path d="m417.05,287.72c-1.14,0.11 -0.79,0.45 -3.76,0.68c-2.96,0.22 -5.01,0.79 -7.18,0.45c-2.16,-0.34 -6.15,-0.91 -6.5,-1.14c-0.34,-0.22 -2.85,-1.59 -2.96,-2.28c-0.11,-0.68 0.45,-0.91 2.16,-1.14c1.71,-0.22 3.53,0.11 5.13,0.11c1.59,0 0.91,0 5.01,0.34c4.1,0.34 7.29,2.05 7.29,2.05l0.79,0.91l0,0l0.02,0.02z" fill="#fff" id="svg_19" stroke="#fff" stroke-linecap="round" stroke-linejoin="round" stroke-width="3"/>
    <path d="m324.57,312.12c0,0 1.14,7.64 1.36,9.8c0.22,2.16 1.71,9.35 2.39,12.65c0.68,3.3 3.07,9.23 3.99,12.08c0.91,2.85 4.44,8.21 7.29,11.86c2.85,3.64 8.43,9.69 14.14,10.83c5.7,1.14 10.03,0 12.54,-1.59c2.5,-1.59 4.44,-6.04 7.41,-9.69c2.96,-3.64 9.12,-12.77 12.65,-18.01c3.53,-5.24 11.74,-14.82 13.91,-16.07c2.16,-1.25 2.16,-1.82 5.47,-1.48c3.3,0.34 6.38,-0.11 11.06,-0.91c4.67,-0.79 9.57,-2.39 11.4,-2.85c1.82,-0.45 2.96,-0.57 2.96,-1.48l0.11,-1.48c-3.07,1.14 -9.12,3.07 -14.25,3.64c-5.13,0.57 -4.67,0.45 -11.28,0c-6.61,-0.45 -9.12,-4.33 -9.12,-4.33c0,0 -2.73,3.53 -8.66,5.47c-5.93,1.93 -14.71,1.93 -16.53,1.59c-1.82,-0.34 -4.78,-0.22 -8.66,-1.59c-3.87,-1.36 -8.43,-3.64 -10.49,-5.01c-2.05,-1.36 -3.76,-3.42 -5.35,-5.13c-1.59,-1.71 -3.07,-6.72 -3.07,-6.72c0,0 -0.22,2.39 -1.82,3.87c-1.59,1.48 -6.61,4.21 -9.23,4.33c-2.62,0.11 -8.21,0.22 -8.21,0.22l0,0l-0.01,0z" fill="#131517" id="svg_20" stroke="#131517" stroke-linecap="round" stroke-linejoin="round" stroke-width="3"/>
    <path d="m362.88,364.69c0.57,-0.79 0.57,-3.53 0,-7.64c-0.57,-4.1 -0.91,-6.61 -4.1,-11.28c-3.19,-4.67 -7.25,-7.07 -9.92,-8.35c-2.67,-1.27 -6.28,-4.04 -4.48,-2.29c1.8,1.75 7.23,7.25 4.03,8.92c-3.19,1.66 -3.66,-0.84 -4.22,-1.58c-0.55,-0.74 -3.99,-5.24 -6.5,-7.86c-2.5,-2.62 -6.04,-5.13 -6.95,-5.24c-0.91,-0.11 0.79,7.18 1.82,10.26c1.02,3.07 3.53,8.89 5.35,11.63c1.82,2.73 6.15,8.32 9.23,10.37c3.07,2.05 8.32,3.42 10.26,3.64c1.93,0.22 4.9,0.22 5.47,-0.57l0.01,-0.01z" fill="#e25282" id="svg_22" stroke="#e25282" stroke-linecap="round" stroke-linejoin="round" stroke-width="3"/>
    <path d="m358.66,293.19c0,0 -19.61,-10.49 -25.31,-11.4c-5.7,-0.91 -22.8,-6.61 -41.28,-9.12c-18.47,-2.5 -51.77,-6.84 -51.77,-6.84" fill="none" id="svg_23" stroke="#131517" stroke-linecap="round" stroke-linejoin="round" stroke-width="3"/>
    <path d="m356.84,299.81c-4.33,0.22 -18.47,-1.36 -27.36,-1.82c-8.89,-0.45 -25.77,-0.45 -35.8,0.22c-10.03,0.68 -20.07,3.42 -20.07,3.42" fill="none" id="svg_24" stroke="#131517" stroke-linecap="round" stroke-linejoin="round" stroke-width="3"/>
    <path d="m444.88,292.05c0,0 5.24,-5.24 14.14,-9.35c8.89,-4.1 33.52,-15.28 61.58,-18.01" fill="none" id="svg_25" stroke="#131517" stroke-linecap="round" stroke-linejoin="round" stroke-width="3"/>
    <path d="m407.7,161.82c0.22,-4.78 1.59,-9.57 6.61,-11.4c5.01,-1.82 9.12,-0.22 12.31,1.59c3.19,1.82 10.49,7.52 10.49,7.75c0,0.22 2.5,2.5 2.5,2.5" fill="none" id="svg_26" stroke="#131517" stroke-linecap="round" stroke-linejoin="round" stroke-width="6"/>
    <path d="m336.31,147.91c-3.19,-2.05 -11.4,-6.38 -18.01,-7.29c-6.61,-0.91 -13.68,-0.45 -17.79,6.84c-4.1,7.29 -3.19,15.05 -2.05,19.61c1.14,4.56 1.82,9.35 1.82,9.3512" fill="none" id="svg_27" stroke="#131517" stroke-linecap="round" stroke-linejoin="round" stroke-width="6"/>
    <path d="m334.26,175.28c6.15,-2.05 9.35,-7.07 11.17,-10.49c1.82,-3.42 4.78,-15.05 3.87,-22.35c-0.91,-7.29 -4.1,-16.19 -4.1,-16.19" fill="none" id="svg_28" stroke="#131517" stroke-linecap="round" stroke-linejoin="round" stroke-width="3"/>
    <path d="m323.54,175.73c0,0 2.96,-1.59 4.56,-8.21c1.59,-6.61 0.45,-20.98 -0.91,-24.86c-1.36,-3.87 -7.29,-14.82 -7.29,-14.82" fill="none" id="svg_29" stroke="#131517" stroke-linecap="round" stroke-linejoin="round" stroke-width="3"/>
    <path d="m420.93,183.03c2.73,-1.59 6.15,-5.24 8.21,-8.21c2.05,-2.96 5.7,-15.73 6.38,-21.21c0.68,-5.47 -0.22,-19.15 -0.22,-19.15" fill="none" id="svg_30" stroke="#131517" stroke-linecap="round" stroke-linejoin="round" stroke-width="3"/>
    <path d="m428.91,186.22c4.78,-1.82 11.63,-5.7 15.73,-10.49c4.1,-4.78 8.43,-11.86 10.03,-15.73c1.59,-3.87 3.87,-12.77 3.87,-12.77" fill="none" id="svg_31" stroke="#131517" stroke-linecap="round" stroke-linejoin="round" stroke-width="3"/>
    <path d="m443.97061,294.79c3.19,0 21.66,0.45 32.15,1.59c10.49,1.14 28.96,1.59 43.33,5.93c14.36,4.33 42.19,14.14 42.19,14.14" fill="none" id="svg_32" stroke="#131517" stroke-linecap="round" stroke-linejoin="round" stroke-width="3"/>
   </g>
  </g>
 </g>
</svg>