<svg xmlns="http://www.w3.org/2000/svg" viewBox="0 0 51.04 49.47"><defs><style>.cls-1,.cls-2,.cls-3,.cls-5{fill:none;}.cls-1{stroke:#f9ba00;stroke-linecap:round;}.cls-1,.cls-2{stroke-linejoin:round;}.cls-1,.cls-2,.cls-5{stroke-width:2px;}.cls-2,.cls-5{stroke:#fff;}.cls-4{fill:#fff;}.cls-5{stroke-miterlimit:10;}</style></defs><g id="Calque_2" data-name="Calque 2"><g id="Calque_1-2" data-name="Calque 1"><path class="cls-1" d="M40.52,22.58c3.59,1.85,5.82,4.45,5.82,7.34,0,5.61-8.42,10.16-18.79,10.16S8.75,35.53,8.75,29.92s8.42-10.15,18.8-10.15"/><line class="cls-2" x1="44.72" y1="8.14" x2="29.2" y2="27.42"/><polyline class="cls-2" points="40.44 4.14 22.66 26.21 20.6 38.09 31.55 33.72 49.33 11.65"/><polyline class="cls-3" points="6.8 0 51.04 0 51.04 49.47 0 49.47 0 0 6.8 0"/><path class="cls-4" d="M21.45,33.22s1.72-1.35,3.16-.48.88,3.4.88,3.4l-4.89,2Z"/><path class="cls-5" d="M22.66,26.21s4.38-.55,6.54,1.21,2.35,6.3,2.35,6.3"/></g></g></svg>