<?xml version="1.0" encoding="utf-8"?><!-- Uploaded to: SVG Repo, www.svgrepo.com, Generator: SVG Repo Mixer Tools -->
<svg version="1.1" id="Uploaded to svgrepo.com" xmlns="http://www.w3.org/2000/svg" xmlns:xlink="http://www.w3.org/1999/xlink" 
	 width="800px" height="800px" viewBox="0 0 32 32" xml:space="preserve">
<style type="text/css">
	.linesandangles_een{fill:#111918;}
</style>
<path class="linesandangles_een" d="M20,7l-8-2L3,7v20l9-2l8,2l9-2V5L20,7z M27,23.396l-6.973,1.55l-8-2L5,24.507V18h1v-2H5V8.604
	l6.973-1.549l8,2L27,7.493V23.396z M20.707,14.293L22,15.586l1.293-1.293l1.414,1.414L23.414,17l1.293,1.293l-1.414,1.414L22,18.414
	l-1.293,1.293l-1.414-1.414L20.586,17l-1.293-1.293L20.707,14.293z M16,16h2v2h-2V16z M12,16h2v2h-2V16z M8,16h2v2H8V16z"/>
</svg>