<svg xmlns="http://www.w3.org/2000/svg" viewBox="0 0 14.76 14.3"><defs><style>.cls-1{fill:#fff;}.cls-2{fill:none;}</style></defs><g id="Calque_2" data-name="Calque 2"><g id="Calque_1-2" data-name="Calque 1"><path class="cls-1" d="M9.14,8.5l-.36-5A1.62,1.62,0,0,1,8.83,3a1.33,1.33,0,0,1,.28-.42,1.23,1.23,0,0,1,.59-.34.52.52,0,0,1,.49.1.88.88,0,0,1,.14.51l.52,7.42L3.43,9.69a.9.9,0,0,1-.51-.13.52.52,0,0,1-.1-.49,1.26,1.26,0,0,1,.35-.59,1.18,1.18,0,0,1,.42-.29,1.63,1.63,0,0,1,.58,0Z"/><polyline class="cls-2" points="1.97 0 14.76 0 14.76 14.3 0 14.3 0 0 1.97 0"/></g></g></svg>