<?xml version="1.0" encoding="UTF-8"?>
<!-- Uploaded to: SVG Repo, www.svgrepo.com, Generator: SVG Repo Mixer Tools -->
<svg width="800px" height="800px" viewBox="0 0 512 512" version="1.1" xmlns="http://www.w3.org/2000/svg" xmlns:xlink="http://www.w3.org/1999/xlink">
    <title>label</title>
    <g id="Page-1" stroke="none" stroke-width="1" fill="none" fill-rule="evenodd">
        <g id="icon" fill="#000000" transform="translate(21.333333, 106.666667)">
            <path d="M448,2.84217094e-14 L448,298.666667 L106.666667,298.666667 L3.55271368e-15,149.333333 L106.666667,2.84217094e-14 L448,2.84217094e-14 Z M405.333333,42.6666667 L128.597333,42.6666667 L52.416,149.333333 L128.618667,256 L405.333333,256 L405.333333,42.6666667 Z M138.666667,117.333333 C156.339779,117.333333 170.666667,131.660221 170.666667,149.333333 C170.666667,167.006445 156.339779,181.333333 138.666667,181.333333 C120.993555,181.333333 106.666667,167.006445 106.666667,149.333333 C106.666667,131.660221 120.993555,117.333333 138.666667,117.333333 Z M213.333333,170.666667 L362.666667,170.666667 L362.666667,213.333333 L213.333333,213.333333 L213.333333,170.666667 Z M213.333333,85.3333333 L362.666667,85.3333333 L362.666667,128 L213.333333,128 L213.333333,85.3333333 Z" id="Combined-Shape">

</path>
        </g>
    </g>
</svg>