<svg xmlns="http://www.w3.org/2000/svg" viewBox="0 0 51.04 49.47"><defs><style>.cls-1,.cls-2,.cls-3,.cls-5{fill:none;}.cls-1{stroke:#f9ba00;}.cls-1,.cls-2{stroke-linejoin:round;}.cls-1,.cls-2,.cls-5{stroke-width:2px;}.cls-2,.cls-5{stroke:#fff;}.cls-4{fill:#fff;}.cls-5{stroke-miterlimit:10;}</style></defs><g id="Calque_2" data-name="Calque 2"><g id="Calque_1-2" data-name="Calque 1"><path class="cls-1" d="M7.14,13.51l3.47,1.17,1,6.14s.09,1.89-1.24,8.47S8.21,41,9.36,41.57s3.72,2.77,5.82,2.48.14-5.55,4-5.55,5.42,4.82,7.2,6.72,8-1.9,8.62-3.36"/><line class="cls-2" x1="44.72" y1="8.14" x2="29.2" y2="27.42"/><polyline class="cls-2" points="40.44 4.14 22.66 26.21 20.6 38.09 31.55 33.72 49.33 11.65"/><rect class="cls-3" width="51.04" height="49.47"/><path class="cls-4" d="M21.45,33.22s1.72-1.35,3.16-.48.88,3.4.88,3.4l-4.89,2Z"/><path class="cls-5" d="M22.66,26.21s4.38-.55,6.54,1.21,2.35,6.3,2.35,6.3"/></g></g></svg>