<svg xmlns="http://www.w3.org/2000/svg" viewBox="0 0 51.04 49.47"><defs><style>.cls-1{fill:#f9ba00;}.cls-2{fill:#fff;}.cls-3{fill:none;}</style></defs><g id="Calque_2" data-name="Calque 2"><g id="Calque_1-2" data-name="Calque 1"><path class="cls-1" d="M3,35.15l8.66-.62a2.72,2.72,0,0,1,1,.08,1.92,1.92,0,0,1,.72.5,2,2,0,0,1,.6,1,.84.84,0,0,1-.16.84,1.48,1.48,0,0,1-.89.24L0,38.13.91,25.21a1.55,1.55,0,0,1,.24-.87A.87.87,0,0,1,2,24.16a2.08,2.08,0,0,1,1,.6,1.92,1.92,0,0,1,.5.72,2.72,2.72,0,0,1,.08,1Z"/><path class="cls-1" d="M47.81,14.42l-8.65.63a2.64,2.64,0,0,1-1-.09,1.91,1.91,0,0,1-.73-.49,2.09,2.09,0,0,1-.59-1,.86.86,0,0,1,.17-.85,1.56,1.56,0,0,1,.88-.24l12.91-.91-.91,12.92a1.54,1.54,0,0,1-.23.89.88.88,0,0,1-.85.17,2.37,2.37,0,0,1-1.53-1.33,2.7,2.7,0,0,1-.08-1Z"/><path class="cls-2" d="M7.29,31.13a2.08,2.08,0,0,1-.51.48,1,1,0,0,1-.47.11,1.14,1.14,0,0,1-.88-.37,1.82,1.82,0,0,1-.33-1.22V28.52a1.8,1.8,0,0,1,.33-1.22,1.11,1.11,0,0,1,.88-.37,1.09,1.09,0,0,1,.7.22,1.39,1.39,0,0,1,.44.74,2,2,0,0,0,.31.7,3.66,3.66,0,0,0,1.2.74,4.72,4.72,0,0,0,1.89.37A4.39,4.39,0,0,0,13.47,29a1.29,1.29,0,0,0,.34-2,2.34,2.34,0,0,0-1-.64,14.81,14.81,0,0,0-2.08-.48,11.3,11.3,0,0,1-3-.87,3.88,3.88,0,0,1-1.58-1.45,3.7,3.7,0,0,1-.58-2,3.91,3.91,0,0,1,1.43-3,5.33,5.33,0,0,1,3.72-1.29,6.57,6.57,0,0,1,1.71.21,4.7,4.7,0,0,1,1.43.62,1.36,1.36,0,0,1,.93-.45,1.1,1.1,0,0,1,.85.36A1.81,1.81,0,0,1,16,19.22V21a1.81,1.81,0,0,1-.34,1.23,1.07,1.07,0,0,1-.85.37,1.17,1.17,0,0,1-.77-.27,1.35,1.35,0,0,1-.39-.79,2.12,2.12,0,0,0-.32-.85,2.62,2.62,0,0,0-1-.75,3.81,3.81,0,0,0-1.56-.3,3.19,3.19,0,0,0-2.05.6A1.66,1.66,0,0,0,8,21.5a1.4,1.4,0,0,0,.31.86,2.14,2.14,0,0,0,.9.65,19.87,19.87,0,0,0,2.23.52,14.13,14.13,0,0,1,2.82.79,4,4,0,0,1,1.64,1.35,3.73,3.73,0,0,1,.65,2.19,3.54,3.54,0,0,1-1.25,2.83A6.31,6.31,0,0,1,11,32.09a7.73,7.73,0,0,1-1.93-.24A7.84,7.84,0,0,1,7.29,31.13Z"/><path class="cls-2" d="M25.08,28.26,28.54,20H28a1.85,1.85,0,0,1-1.23-.33,1.22,1.22,0,0,1,0-1.73A1.79,1.79,0,0,1,28,17.61l3.2,0a1.82,1.82,0,0,1,1.23.32,1.09,1.09,0,0,1,.37.86,1.18,1.18,0,0,1-.56,1,2.19,2.19,0,0,1-1.09.18L26.23,31.74H23.94L19.05,20a2.26,2.26,0,0,1-1.11-.18,1.15,1.15,0,0,1-.56-1,1.13,1.13,0,0,1,.37-.86A1.76,1.76,0,0,1,19,17.61l3.22,0a1.8,1.8,0,0,1,1.22.32,1.09,1.09,0,0,1,.37.86,1.12,1.12,0,0,1-.36.87A1.81,1.81,0,0,1,22.2,20h-.56Z"/><path class="cls-2" d="M45.41,27.37v3.2a14.34,14.34,0,0,1-2.75,1.2,9.18,9.18,0,0,1-2.45.32,10,10,0,0,1-3.39-.55,5.41,5.41,0,0,1-1.93-1.06,6.17,6.17,0,0,1-1.3-1.89,6.56,6.56,0,0,1-.59-2.8V24.07a6.77,6.77,0,0,1,1.45-4.27,6.38,6.38,0,0,1,5.33-2.54,8.46,8.46,0,0,1,1.85.2,6.78,6.78,0,0,1,1.67.6,1.41,1.41,0,0,1,.93-.43,1.12,1.12,0,0,1,.86.36,1.86,1.86,0,0,1,.32,1.22v1.55A1.85,1.85,0,0,1,45.08,22a1.12,1.12,0,0,1-.86.36,1.07,1.07,0,0,1-.72-.25,1.54,1.54,0,0,1-.39-.78,1.94,1.94,0,0,0-.35-.81,2.78,2.78,0,0,0-1.12-.6,5.79,5.79,0,0,0-1.78-.26,5.09,5.09,0,0,0-2.47.58A4,4,0,0,0,36,21.74a4.5,4.5,0,0,0-.63,2.33v1.72a3.74,3.74,0,0,0,1.12,2.92,5.22,5.22,0,0,0,3.53,1,7,7,0,0,0,3-.62V27.37H40.59A1.85,1.85,0,0,1,39.36,27a1.13,1.13,0,0,1-.37-.87,1.16,1.16,0,0,1,.37-.87A1.85,1.85,0,0,1,40.59,25l4.24,0a1.85,1.85,0,0,1,1.23.32,1.12,1.12,0,0,1,.36.86,1.14,1.14,0,0,1-.25.74A1.43,1.43,0,0,1,45.41,27.37Z"/><rect class="cls-3" width="51.04" height="49.47"/></g></g></svg>