<?xml version="1.0" encoding="iso-8859-1"?>
<!-- Uploaded to: SVG Repo, www.svgrepo.com, Generator: SVG Repo Mixer Tools -->
<svg height="800px" width="800px" version="1.1" id="Layer_1" xmlns="http://www.w3.org/2000/svg" xmlns:xlink="http://www.w3.org/1999/xlink" 
	 viewBox="0 0 369.683 369.683" xml:space="preserve">
<g>
	<g>
		<path style="fill:#E8E8E8;" d="M362.184,39.729c0-13.75-11.25-25-25-25H32.5c-13.75,0-25,11.25-25,25v197.115
			c0,13.75,11.25,25,25,25h304.684c13.75,0,25-11.25,25-25V39.729z"/>
		<g>
			<path style="fill:#FEE050;" d="M279.473,171.355c-7.732,0-14-6.268-14-14v-50.877c0-7.732,6.268-14,14-14s14,6.268,14,14v50.877
				C293.473,165.088,287.205,171.355,279.473,171.355z"/>
			<path style="fill:#FEE050;" d="M287.451,325.621c-4.122,0-8.292-1.105-12.057-3.43c-10.811-6.67-14.166-20.842-7.495-31.65
				c4.165-6.75,11.319-24.037,12.433-63.967c0.677-24.277-1.302-44.256-1.321-44.455c-1.274-12.639,7.938-23.918,20.577-25.191
				c12.645-1.279,23.917,7.939,25.19,20.578c0.962,9.541,8.637,94.461-17.732,137.191
				C302.698,321.742,295.163,325.621,287.451,325.621z"/>
			<circle style="fill:#FEE050;" cx="301.895" cy="170.074" r="45.726"/>
		</g>
		<g>
			<path style="fill:#FEE050;" d="M113.178,223.232c-7.732,0-14-6.268-14-14v-50.877c0-7.732,6.268-14,14-14s14,6.268,14,14v50.877
				C127.178,216.965,120.91,223.232,113.178,223.232z"/>
			<path style="fill:#FEE050;" d="M105.199,354.955c-7.713,0-15.247-3.879-19.595-10.924
				C59.001,300.92,66.972,235.848,67.969,228.568c1.724-12.584,13.333-21.395,25.907-19.666
				c12.573,1.721,21.374,13.301,19.672,25.873l0,0c-2.048,15.301-4.027,60.418,11.203,85.1c6.671,10.809,3.315,24.98-7.495,31.65
				C113.492,353.848,109.32,354.955,105.199,354.955z"/>
			<circle style="fill:#FEE050;" cx="90.756" cy="221.951" r="45.726"/>
		</g>
	</g>
	<path style="fill:#071C2C;" d="M137.684,99.828c-3.875,0-7.018,3.143-7.018,7.018s3.143,7.018,7.018,7.018s7.018-3.143,7.018-7.018
		S141.559,99.828,137.684,99.828z M169.123,194.145c-3.877,0-7.018,3.143-7.018,7.016c0,3.877,3.141,7.02,7.018,7.02
		c3.875,0,7.018-3.143,7.018-7.02C176.141,197.287,172.998,194.145,169.123,194.145z M106.244,68.391
		c-3.875,0-7.016,3.143-7.016,7.016c0,3.877,3.141,7.02,7.016,7.02c3.877,0,7.02-3.143,7.02-7.02
		C113.264,71.533,110.121,68.391,106.244,68.391z M43.367,99.828c-3.875,0-7.018,3.143-7.018,7.018s3.143,7.018,7.018,7.018
		s7.018-3.143,7.018-7.018S47.242,99.828,43.367,99.828z M106.244,99.828c-3.875,0-7.016,3.143-7.016,7.018s3.141,7.018,7.016,7.018
		c3.877,0,7.02-3.143,7.02-7.018S110.121,99.828,106.244,99.828z M169.123,162.705c-3.877,0-7.018,3.143-7.018,7.018
		s3.141,7.018,7.018,7.018c3.875,0,7.018-3.143,7.018-7.018S172.998,162.705,169.123,162.705z M74.807,68.391
		c-3.877,0-7.018,3.143-7.018,7.016c0,3.877,3.141,7.02,7.018,7.02c3.875,0,7.018-3.143,7.018-7.02
		C81.824,71.533,78.682,68.391,74.807,68.391z M43.367,68.391c-3.875,0-7.018,3.143-7.018,7.016c0,3.877,3.143,7.02,7.018,7.02
		s7.018-3.143,7.018-7.02C50.385,71.533,47.242,68.391,43.367,68.391z M232,68.391c-3.875,0-7.018,3.143-7.018,7.016
		c0,3.877,3.143,7.02,7.018,7.02s7.018-3.143,7.018-7.02C239.018,71.533,235.875,68.391,232,68.391z M263.439,68.391
		c-3.877,0-7.018,3.143-7.018,7.016c0,3.877,3.141,7.02,7.018,7.02c3.875,0,7.018-3.143,7.018-7.02
		C270.457,71.533,267.314,68.391,263.439,68.391z M232,99.828c-3.875,0-7.018,3.143-7.018,7.018s3.143,7.018,7.018,7.018
		s7.018-3.143,7.018-7.018S235.875,99.828,232,99.828z M337.184,7.229H32.5C14.579,7.229,0,21.808,0,39.729v197.115
		c0,17.921,14.579,32.5,32.5,32.5h26.271c0.912,23.892,5.486,54.378,20.45,78.626c5.598,9.07,15.309,14.485,25.978,14.485
		c5.643,0,11.174-1.572,15.995-4.547c6.934-4.277,11.785-11,13.663-18.928c1.877-7.928,0.555-16.112-3.724-23.044
		c-6.294-10.198-10.204-26.577-11.21-46.593h148.011c-2.321,9.585-4.893,14.786-6.417,17.258
		c-4.279,6.933-5.602,15.117-3.725,23.045c1.878,7.928,6.729,14.65,13.661,18.927c4.819,2.976,10.352,4.548,15.997,4.548
		c10.669,0,20.38-5.415,25.978-14.485c8.423-13.649,13.582-31.1,16.638-49.292h7.117c17.921,0,32.5-14.579,32.5-32.5V39.729
		C369.684,21.808,355.104,7.229,337.184,7.229z M108.665,255.725c-2.486,1.321-4.022,3.923-3.979,6.738
		c0.283,18.331,2.887,43.855,13.683,61.352c2.174,3.522,2.846,7.681,1.892,11.71c-0.954,4.028-3.42,7.444-6.943,9.618
		c-2.451,1.513-5.259,2.313-8.118,2.313c-5.428,0-10.367-2.752-13.212-7.362c-15.057-24.398-18.317-56.796-18.401-79.678
		c-0.01-2.544-1.307-4.909-3.447-6.283c-11.025-7.081-17.608-19.111-17.608-32.181c0-21.077,17.147-38.225,38.226-38.225
		c2.325,0,4.696,0.222,7.049,0.66c2.19,0.41,4.451-0.179,6.166-1.604s2.707-3.539,2.707-5.769v-18.658c0-3.584,2.916-6.5,6.5-6.5
		s6.5,2.916,6.5,6.5v35.958c0,1.64,0.537,3.233,1.529,4.538c5.086,6.692,7.774,14.68,7.774,23.1
		C128.981,236.12,121.196,249.062,108.665,255.725z M322.443,202.299c-2.196,1.403-3.506,3.846-3.46,6.451
		c0.798,45.345-5.709,81.572-18.32,102.009c-2.845,4.61-7.784,7.362-13.212,7.362c-2.86,0-5.667-0.799-8.118-2.313
		c-3.523-2.174-5.989-5.59-6.943-9.618c-0.954-4.029-0.282-8.188,1.893-11.711c5.57-9.028,12.443-28.102,13.547-67.696
		c0.147-5.297,0.181-10.829,0.099-16.441c-0.04-2.731-1.562-5.226-3.973-6.51c-12.513-6.667-20.286-19.603-20.286-33.758
		c0-8.42,2.688-16.407,7.774-23.1c0.992-1.305,1.529-2.898,1.529-4.538v-35.958c0-3.584,2.916-6.5,6.5-6.5s6.5,2.916,6.5,6.5v18.658
		c0,2.229,0.992,4.344,2.707,5.769s3.979,2.012,6.166,1.604c2.353-0.438,4.724-0.66,7.049-0.66
		c21.078,0,38.226,17.147,38.226,38.225C340.12,183.177,333.512,195.224,322.443,202.299z M354.684,236.844
		c0,9.649-7.851,17.5-17.5,17.5h-5.063c1.57-14.509,2.021-28.96,1.912-41.851c11.479-8.683,18.858-21.492,20.65-35.666v60.017
		H354.684z M354.684,163.375c-3.343-26.492-26.211-46.99-53.711-46.518v-6.543c0.584-1.024,0.922-2.206,0.922-3.469
		c0-1.485-0.465-2.861-1.252-3.996c-1.733-10.13-10.554-17.871-21.17-17.871c-10.276,0-18.88,7.251-20.993,16.902
		c-1.271,1.271-2.058,3.026-2.058,4.965c0,1.664,0.582,3.191,1.551,4.395v28.772c-6.096,8.871-9.304,19.209-9.304,30.062
		c0,10.295,2.956,20.122,8.257,28.486c-0.322,0.805-0.504,1.681-0.504,2.6c0,3.877,3.141,7.02,7.018,7.02
		c0.408,0,0.807-0.042,1.196-0.109c2.526,2.476,5.305,4.727,8.333,6.686c0.016,3.957-0.029,7.847-0.134,11.609
		c-0.31,11.11-1.098,20.339-2.139,27.979H132.972c7.013-9.132,11.01-20.44,11.01-32.393c0-5.193-0.742-10.266-2.177-15.118
		c1.753-1.276,2.896-3.339,2.896-5.673c0-3.873-3.143-7.016-7.018-7.016c-0.499,0-0.985,0.054-1.455,0.153
		c-0.496-0.813-1.008-1.618-1.551-2.408v-33.534c0-11.855-9.645-21.5-21.5-21.5s-21.5,9.645-21.5,21.5v10.379
		c-0.308-0.005-0.615-0.008-0.922-0.008c-3.049,0-6.033,0.271-8.943,0.767c-0.122-3.769-3.209-6.788-7.006-6.788
		c-3.877,0-7.018,3.143-7.018,7.018c0,1.373,0.4,2.649,1.081,3.73c-9.827,4.453-18.079,11.794-23.641,20.949
		c-0.594-0.163-1.216-0.258-1.862-0.258c-3.875,0-7.018,3.143-7.018,7.016c0,2.511,1.322,4.707,3.303,5.947
		c-1.372,4.715-2.122,9.692-2.122,14.844c0,11.938,3.957,23.24,10.999,32.393H32.5c-9.649,0-17.5-7.851-17.5-17.5V39.729
		c0-9.649,7.851-17.5,17.5-17.5h304.684c9.649,0,17.5,7.851,17.5,17.5V163.375z M169.123,99.828c-3.877,0-7.018,3.143-7.018,7.018
		s3.141,7.018,7.018,7.018c3.875,0,7.018-3.143,7.018-7.018S172.998,99.828,169.123,99.828z M326.316,68.391
		c-3.875,0-7.018,3.143-7.018,7.016c0,3.877,3.143,7.02,7.018,7.02s7.018-3.143,7.018-7.02
		C333.334,71.533,330.191,68.391,326.316,68.391z M200.561,194.145c-3.875,0-7.016,3.143-7.016,7.016c0,3.877,3.141,7.02,7.016,7.02
		c3.877,0,7.018-3.143,7.018-7.02C207.578,197.287,204.438,194.145,200.561,194.145z M169.123,68.391
		c-3.877,0-7.018,3.143-7.018,7.016c0,3.877,3.141,7.02,7.018,7.02c3.875,0,7.018-3.143,7.018-7.02
		C176.141,71.533,172.998,68.391,169.123,68.391z M200.561,162.705c-3.875,0-7.016,3.143-7.016,7.018s3.141,7.018,7.016,7.018
		c3.877,0,7.018-3.143,7.018-7.018S204.438,162.705,200.561,162.705z M200.561,68.391c-3.875,0-7.016,3.143-7.016,7.016
		c0,3.877,3.141,7.02,7.016,7.02c3.877,0,7.018-3.143,7.018-7.02C207.578,71.533,204.438,68.391,200.561,68.391z M232,194.145
		c-3.875,0-7.018,3.143-7.018,7.016c0,3.877,3.143,7.02,7.018,7.02s7.018-3.143,7.018-7.02
		C239.018,197.287,235.875,194.145,232,194.145z"/>
</g>
</svg>