 <svg xmlns="http://www.w3.org/2000/svg" xmlns:xlink="http://www.w3.org/1999/xlink" viewBox="0 0 84 84">
      <g fill="#444" opacity="0.2" transform="translate(6,6)">
        <path d="M42.8,74.3c0,4.3,0,5.9,11.8,5.9l4.1,0l0,3.8c-4.5-0.4-16.1-0.4-21.2-0.3c-5.1,0-16.6,0-21,0.4l0-3.8l4.1,0
      c11.8,0,11.8-1.7,11.8-5.9l0-6.9C13.9,65.6,0,54.6,0,42c0-12.2,13.3-23.5,32.4-25.4l0-6.9c0-4.3,0-5.9-11.8-5.9l-4.1,0l0-3.8
      c4.5,0.4,16.1,0.4,21.2,0.3c5.1,0,16.6,0,21-0.4l0,3.8l-4.1,0c-11.8,0-11.8,1.7-11.8,5.9l0,6.9C61.6,18.1,75.8,29.2,75.8,42
      c0,12.4-13.8,23.9-33.1,25.4L42.8,74.3z M32.4,19.4c-18.7,2.5-19.9,16.2-19.9,22.6c0,7.6,2.3,20.2,20,22.5L32.4,19.4z M42.7,64.7
      c18.8-2.2,20.7-15.4,20.6-22.8c0-9.3-3.5-20.6-20.7-22.6L42.7,64.7z"/>
      </g>
      <g fill="#444" opacity="0.3" transform="translate(4,4)">
        <path d="M42.8,74.3c0,4.3,0,5.9,11.8,5.9l4.1,0l0,3.8c-4.5-0.4-16.1-0.4-21.2-0.3c-5.1,0-16.6,0-21,0.4l0-3.8l4.1,0
      c11.8,0,11.8-1.7,11.8-5.9l0-6.9C13.9,65.6,0,54.6,0,42c0-12.2,13.3-23.5,32.4-25.4l0-6.9c0-4.3,0-5.9-11.8-5.9l-4.1,0l0-3.8
      c4.5,0.4,16.1,0.4,21.2,0.3c5.1,0,16.6,0,21-0.4l0,3.8l-4.1,0c-11.8,0-11.8,1.7-11.8,5.9l0,6.9C61.6,18.1,75.8,29.2,75.8,42
      c0,12.4-13.8,23.9-33.1,25.4L42.8,74.3z M32.4,19.4c-18.7,2.5-19.9,16.2-19.9,22.6c0,7.6,2.3,20.2,20,22.5L32.4,19.4z M42.7,64.7
      c18.8-2.2,20.7-15.4,20.6-22.8c0-9.3-3.5-20.6-20.7-22.6L42.7,64.7z"/>
      </g>
      <g fill="#444" opacity="0.5" transform="translate(2,2)">
        <path d="M42.8,74.3c0,4.3,0,5.9,11.8,5.9l4.1,0l0,3.8c-4.5-0.4-16.1-0.4-21.2-0.3c-5.1,0-16.6,0-21,0.4l0-3.8l4.1,0
      c11.8,0,11.8-1.7,11.8-5.9l0-6.9C13.9,65.6,0,54.6,0,42c0-12.2,13.3-23.5,32.4-25.4l0-6.9c0-4.3,0-5.9-11.8-5.9l-4.1,0l0-3.8
      c4.5,0.4,16.1,0.4,21.2,0.3c5.1,0,16.6,0,21-0.4l0,3.8l-4.1,0c-11.8,0-11.8,1.7-11.8,5.9l0,6.9C61.6,18.1,75.8,29.2,75.8,42
      c0,12.4-13.8,23.9-33.1,25.4L42.8,74.3z M32.4,19.4c-18.7,2.5-19.9,16.2-19.9,22.6c0,7.6,2.3,20.2,20,22.5L32.4,19.4z M42.7,64.7
      c18.8-2.2,20.7-15.4,20.6-22.8c0-9.3-3.5-20.6-20.7-22.6L42.7,64.7z"/>
      </g>
      <g fill="#0000CC">
        <path id="xyz321" d="M42.8,74.3c0,4.3,0,5.9,11.8,5.9l4.1,0l0,3.8c-4.5-0.4-16.1-0.4-21.2-0.3c-5.1,0-16.6,0-21,0.4l0-3.8l4.1,0
      c11.8,0,11.8-1.7,11.8-5.9l0-6.9C13.9,65.6,0,54.6,0,42c0-12.2,13.3-23.5,32.4-25.4l0-6.9c0-4.3,0-5.9-11.8-5.9l-4.1,0l0-3.8
      c4.5,0.4,16.1,0.4,21.2,0.3c5.1,0,16.6,0,21-0.4l0,3.8l-4.1,0c-11.8,0-11.8,1.7-11.8,5.9l0,6.9C61.6,18.1,75.8,29.2,75.8,42
      c0,12.4-13.8,23.9-33.1,25.4L42.8,74.3z M32.4,19.4c-18.7,2.5-19.9,16.2-19.9,22.6c0,7.6,2.3,20.2,20,22.5L32.4,19.4z M42.7,64.7
      c18.8-2.2,20.7-15.4,20.6-22.8c0-9.3-3.5-20.6-20.7-22.6L42.7,64.7z"/>
      </g>
    </svg>