<?xml version="1.0" encoding="iso-8859-1"?>
<!-- Uploaded to: SVG Repo, www.svgrepo.com, Generator: SVG Repo Mixer Tools -->
<svg fill="#000000" height="800px" width="800px" version="1.1" id="Capa_1" xmlns="http://www.w3.org/2000/svg" xmlns:xlink="http://www.w3.org/1999/xlink" 
	 viewBox="0 0 57.384 57.384" xml:space="preserve">
<g>
	<g>
		<path d="M45.55,44.148l-2.966-2.966c0.134-2.189,0.604-11.381-0.726-14.706c-0.618-1.545,0.07-3.315,0.736-5.028
			c0.676-1.738,1.313-3.38,0.669-4.893c-0.43-1.006-1.152-1.34-1.683-1.442c-1.431-0.274-3.344,0.783-5.705,3.145
			c-1.295,1.295-1.578,2.711-1.937,4.504c-0.157,0.787-0.411,1.881-0.649,2.911c-0.096,0.413-0.182,0.784-0.257,1.116L17.965,12.602
			c-0.066-0.061-0.14-0.114-0.22-0.156c-1.007-0.53-3.079-1.056-4.461,0.328c-0.683,0.683-1.043,1.556-1.043,2.523
			c0.001,0.844,0.287,1.696,0.712,2.119c0.173,0.173,3.079,3.119,5.694,5.771c-0.673,0.139-1.429,0.473-2.137,1.182
			c-1.307,1.307-1.078,2.885-0.527,3.869c-0.644,0.119-1.342,0.446-2.011,1.115c-1.519,1.52-1.353,3.649,0.423,5.426
			c0.084,0.084,0.184,0.195,0.295,0.327c-0.716-0.067-1.414,0.103-1.984,0.673c-1.576,1.576-1.551,3.72,0.064,5.335l9.662,9.661
			c0.056,0.056,0.117,0.104,0.184,0.145c0.158,0.098,3.764,2.299,6.553,2.735l3.436,3.437c0.195,0.195,0.451,0.293,0.707,0.293
			c0.256,0,0.512-0.098,0.707-0.293l11.53-11.529c0.188-0.188,0.293-0.441,0.293-0.707S45.737,44.335,45.55,44.148z M33.312,54.97
			L30.343,52c-0.163-0.163-0.378-0.265-0.607-0.288c-2.154-0.217-5.377-2.083-5.976-2.438l-9.575-9.574
			c-0.586-0.587-1.073-1.497-0.064-2.507c0.377-0.378,2,0.394,3.092,1.284c0.385,0.313,0.941,0.299,1.31-0.039
			c0.365-0.336,0.43-0.89,0.148-1.3c-0.202-0.296-2.004-2.917-2.86-3.773c-0.688-0.689-1.321-1.699-0.423-2.598
			c0.755-0.756,1.406-0.603,1.658-0.498l1.793,1.88c0.362,0.381,0.961,0.414,1.365,0.076c0.404-0.338,0.477-0.932,0.165-1.357
			l-2.469-3.368c-0.229-0.278-0.688-1.003,0.025-1.717c0.804-0.806,1.674-0.715,1.999-0.644l2.992,2.364
			c0.414,0.329,1.011,0.276,1.365-0.117c0.353-0.394,0.338-0.993-0.033-1.369c0,0-9.564-9.697-9.834-9.961
			c-0.007-0.01-0.534-1.05,0.284-1.868c0.573-0.573,1.671-0.165,2.013-0.019l16.255,15.304c0.275,0.259,0.673,0.343,1.029,0.211
			c0.355-0.13,0.606-0.449,0.649-0.825c0.039-0.337,0.334-1.61,0.594-2.734c0.243-1.051,0.502-2.167,0.662-2.97
			c0.354-1.767,0.561-2.652,1.39-3.482c1.93-1.93,3.373-2.697,3.911-2.596c0.036,0.008,0.12,0.023,0.223,0.265
			c0.325,0.763-0.169,2.035-0.693,3.383c-0.769,1.978-1.64,4.219-0.729,6.495c1.09,2.725,0.772,11.232,0.559,14.28
			c-0.021,0.289,0.085,0.572,0.29,0.777l2.579,2.579L33.312,54.97z"/>
		<path d="M32.341,5.243h8.829l-3.536,3.535c-0.391,0.391-0.391,1.023,0,1.414c0.195,0.195,0.451,0.293,0.707,0.293
			c0.256,0,0.512-0.098,0.707-0.293l4.243-4.242c0.188-0.188,0.293-0.441,0.293-0.707s-0.105-0.519-0.293-0.707l-4.243-4.243
			c-0.391-0.391-1.023-0.391-1.414,0s-0.391,1.023,0,1.414l1.536,1.536h-6.829c-0.553,0-1,0.447-1,1S31.788,5.243,32.341,5.243z"/>
		<path d="M16.634,10.192c0.195,0.195,0.451,0.293,0.707,0.293s0.512-0.098,0.707-0.293c0.391-0.391,0.391-1.023,0-1.414
			l-3.535-3.535h8.828c0.553,0,1-0.447,1-1s-0.447-1-1-1h-6.829l1.536-1.536c0.391-0.391,0.391-1.023,0-1.414s-1.023-0.391-1.414,0
			l-4.242,4.243c-0.391,0.391-0.391,1.023,0,1.414L16.634,10.192z"/>
	</g>
</g>
</svg>