<?xml version="1.0" standalone="no"?>
<svg width="800" height="600" xmlns:xlink="http://www.w3.org/1999/xlink" xmlns="http://www.w3.org/2000/svg">
 <!-- Created with SVG-edit - http://svg-edit.googlecode.com/ -->
 <defs>
  <linearGradient y2="1" x2="1" y1="0" x1="0" id="svg_10">
   <stop stop-opacity="1" stop-color="#ff00ff" offset="0"/>
   <stop stop-opacity="0" stop-color="#ff00ff" offset="1"/>
  </linearGradient>
  <linearGradient y2="1" x2="1" y1="0" x1="0" id="svg_11">
   <stop stop-opacity="1" stop-color="#7f007f" offset="0"/>
   <stop stop-opacity="0" stop-color="#7f007f" offset="1"/>
  </linearGradient>
  <linearGradient y2="1" x2="1" y1="0" x1="0" id="svg_17">
   <stop stop-opacity="1" stop-color="#cccccc" offset="0"/>
   <stop stop-opacity="1" stop-color="#0b3535" offset="1"/>
  </linearGradient>
  <linearGradient y2="1" x2="1" y1="0" x1="0" id="svg_26">
   <stop stop-opacity="1" stop-color="#bf005f" offset="0"/>
   <stop stop-opacity="1" stop-color="#aaffff" offset="1"/>
  </linearGradient>
  <linearGradient y2="0.65234" x2="0.74609" y1="0" x1="0" id="svg_27">
   <stop stop-opacity="1" stop-color="#bf005f" offset="0"/>
   <stop stop-opacity="1" stop-color="#aaffff" offset="1"/>
  </linearGradient>
  <linearGradient y2="0.51953" x2="0.61719" y1="0" x1="0" id="svg_28">
   <stop stop-opacity="1" stop-color="#bf005f" offset="0"/>
   <stop stop-opacity="1" stop-color="#aaffff" offset="1"/>
  </linearGradient>
  <linearGradient y2="0.34766" x2="0.42188" y1="0" x1="0" id="svg_29">
   <stop stop-opacity="1" stop-color="#bf005f" offset="0"/>
   <stop stop-opacity="1" stop-color="#aaffff" offset="1"/>
  </linearGradient>
  <linearGradient y2="1" x2="1" y1="0" x1="0" id="svg_43">
   <stop stop-opacity="1" stop-color="#0000ff" offset="0"/>
   <stop stop-opacity="1" stop-color="#333333" offset="1"/>
  </linearGradient>
  <linearGradient y2="0.94141" x2="0.42578" y1="0.17188" x1="0.80859" id="svg_31">
   <stop stop-opacity="1" stop-color="#ffffff" offset="0"/>
   <stop stop-opacity="1" stop-color="#626784" offset="1"/>
  </linearGradient>
  <linearGradient y2="0.95703" x2="0.98828" y1="0.38281" x1="0.46484" id="svg_38">
   <stop stop-opacity="1" stop-color="#ffffff" offset="0"/>
   <stop stop-opacity="1" stop-color="#626784" offset="1"/>
  </linearGradient>
  <linearGradient y2="0.03125" x2="0.98438" y1="0.90234" x1="0.11719" id="svg_39">
   <stop stop-opacity="1" stop-color="#ffffff" offset="0"/>
   <stop stop-opacity="1" stop-color="#626784" offset="1"/>
  </linearGradient>
  <linearGradient y2="0.125" x2="0.69922" y1="0.75781" x1="0.48828" id="svg_40">
   <stop stop-opacity="1" stop-color="#ffffff" offset="0"/>
   <stop stop-opacity="1" stop-color="#626784" offset="1"/>
  </linearGradient>
  <linearGradient y2="0.46094" x2="0.66016" y1="0.77734" x1="0.09766" id="svg_106">
   <stop stop-opacity="1" stop-color="#ffffff" offset="0"/>
   <stop stop-opacity="1" stop-color="#626784" offset="1"/>
  </linearGradient>
  <linearGradient y2="0.10156" x2="0.88672" y1="0.33984" x1="0.40625" id="svg_116">
   <stop stop-opacity="1" stop-color="#ffffff" offset="0"/>
   <stop stop-opacity="0.82" stop-color="#626784" offset="1"/>
  </linearGradient>
  <linearGradient y2="1" x2="1" y1="0" x1="0" id="svg_125">
   <stop stop-opacity="1" stop-color="#060649" offset="0"/>
   <stop stop-opacity="0.77" stop-color="#3b5b7a" offset="1"/>
  </linearGradient>
  <linearGradient y2="1" x2="1" y1="0.18359" x1="0.23438" id="svg_126">
   <stop stop-opacity="1" stop-color="#c7eaea" offset="0"/>
   <stop stop-opacity="1" stop-color="#e5e5e5" offset="1"/>
  </linearGradient>
  <linearGradient y2="1" x2="1" y1="0.18359" x1="0.23438" id="svg_132">
   <stop stop-opacity="1" stop-color="#a1c6c6" offset="0"/>
   <stop stop-opacity="1" stop-color="#e5e5e5" offset="1"/>
  </linearGradient>
  <linearGradient y2="0.85938" x2="0.22266" y1="0.07813" x1="0.875" id="svg_134">
   <stop stop-opacity="1" stop-color="#333333" offset="0"/>
   <stop stop-opacity="1" stop-color="#5b5b93" offset="1"/>
  </linearGradient>
  <linearGradient y2="1" x2="1" y1="0.18359" x1="0.23438" id="svg_135">
   <stop stop-opacity="1" stop-color="#ffffff" offset="0"/>
   <stop stop-opacity="1" stop-color="#e5e5e5" offset="1"/>
  </linearGradient>
  <linearGradient id="svg_58" x1="0.60938" y1="0.62891" x2="1" y2="0.01953">
   <stop offset="0" stop-color="#0b0b28" stop-opacity="1"/>
   <stop offset="1" stop-color="#0b0b28" stop-opacity="0.5"/>
  </linearGradient>
  <linearGradient id="svg_60" x1="0.96094" y1="0" x2="0.60938" y2="0.29297">
   <stop offset="0" stop-color="#00ccff" stop-opacity="1"/>
   <stop offset="1" stop-color="#00ccff" stop-opacity="0.42"/>
  </linearGradient>
  <linearGradient id="svg_71" x1="0.48047" y1="0.01172" x2="0.49609" y2="0.22656">
   <stop offset="0" stop-color="#ffffff" stop-opacity="1"/>
   <stop offset="1" stop-color="#ffffff" stop-opacity="0"/>
  </linearGradient>
  <linearGradient id="svg_76" x1="0.46094" y1="0.75391" x2="0.46094" y2="0.37891">
   <stop offset="0" stop-color="#ffffff" stop-opacity="1"/>
   <stop offset="1" stop-color="#ffffff" stop-opacity="0"/>
  </linearGradient>
  <linearGradient id="svg_80" x1="0.48828" y1="0.88672" x2="0.5" y2="0.00391">
   <stop offset="0" stop-color="#ffffff" stop-opacity="1"/>
   <stop offset="1" stop-color="#ffffff" stop-opacity="0"/>
  </linearGradient>
  <linearGradient id="svg_83" x1="0" y1="0" x2="1" y2="1">
   <stop offset="0" stop-color="#ffffff" stop-opacity="1"/>
   <stop offset="1" stop-color="#ffffff" stop-opacity="0"/>
  </linearGradient>
  <linearGradient id="svg_84" x1="0.48828" y1="0.97266" x2="0.54297" y2="0.28516">
   <stop offset="0" stop-color="#871187" stop-opacity="1"/>
   <stop offset="1" stop-color="#871187" stop-opacity="0.46"/>
  </linearGradient>
 </defs>
 <title>SVG-edit 2.4 Arbelos</title>
 <g display="none">
  <title>Layer 2</title>
  <circle cx="280" cy="300" r="180" id="svg_4" fill="url(#svg_17)" stroke="#000000"/>
  <circle cx="179" cy="300" r="80" id="svg_2" fill="url(#svg_10)" stroke="#000000"/>
  <circle cx="360" cy="300" r="100" id="svg_3" fill="url(#svg_11)" stroke="#000000" fill-opacity="0.6"/>
 </g>
 <g display="none">
  <title>Layer 3</title>
  <line x1="259" y1="121" x2="99" y2="299" id="svg_6" stroke="#000000" fill="none"/>
  <line x1="460" y1="300" x2="259" y2="121" id="svg_7" stroke="#000000" fill="none"/>
  <line x1="100" y1="300" x2="460" y2="300" id="svg_8" stroke="#0000ff" fill="none"/>
  <line x1="259" y1="299.97382" x2="259" y2="121.04712" id="svg_5" stroke="#000000" fill="none"/>
 </g>
 <g display="none">
  <title>Layer 4</title>
  <path d="m99.525726,299.499542l159.636566,-178.688034l200.536591,179.430405l-199.525635,0l-160.647522,-0.742371z" id="svg_9" fill="none" stroke="#0000ff"/>
 </g>
 <g>
  <title>Background</title>
  <rect x="8" y="8" width="784" height="584" fill="url(#svg_60)" stroke="url(#svg_43)" stroke-width="0" id="svg_59"/>
  <rect x="8" y="8" width="784" height="584" id="svg_57" fill="url(#svg_58)" stroke="url(#svg_43)" stroke-width="0"/>
 </g>
 <g>
  <title>Arbelos</title>
  <g id="svg_53" transform="rotate(-66 347 266)">
   <path fill-opacity="0.6" id="svg_15" d="m132.525726,317.499542c3.75296,-121.903915 104.845871,-175.455826 159.636566,-178.688034c106.957916,-8.789658 198.214752,65.527283 200.536591,179.430405c-3.961182,-134.668137 -195.764465,-131.935898 -199.525635,0c-5.528442,-102.427689 -153.615875,-110.62442 -160.647522,-0.742371z" fill="url(#svg_26)" stroke="#0000ff"/>
   <path fill-opacity="0.6" transform="rotate(36 327 243)" id="svg_18" d="m147.563293,332.537598c3.753296,-121.904007 104.846313,-175.455994 159.636292,-178.688004c106.958008,-8.789993 198.215027,65.527008 200.536987,179.430008c-3.960938,-134.667999 -195.764984,-131.936005 -199.52597,0c-5.527985,-102.428009 -153.615997,-110.625 -160.647308,-0.742004z" fill="url(#svg_26)" stroke="#0000ff"/>
   <path fill-opacity="0.6" id="svg_19" transform="rotate(72 342 258)" d="m162.600891,347.575195c3.753296,-121.904007 104.846313,-175.455994 159.636292,-178.688004c106.958008,-8.789993 198.215027,65.527008 200.536987,179.430008c-3.960938,-134.667999 -195.764984,-131.936005 -199.52597,0c-5.527985,-102.428009 -153.615997,-110.625 -160.647308,-0.742004z" fill="url(#svg_27)" stroke="#0000ff"/>
   <path fill-opacity="0.4" id="svg_22" transform="rotate(180 387 303)" d="m207.713684,392.687988c3.753296,-121.903992 104.846313,-175.455994 159.636292,-178.688004c106.958008,-8.789993 198.215027,65.526993 200.536987,179.430008c-3.960938,-134.667999 -195.764984,-131.936005 -199.52597,0c-5.527985,-102.428009 -153.615997,-110.625 -160.647308,-0.742004z" fill="url(#svg_29)" stroke="#0000ff"/>
   <path fill-opacity="0.4" id="svg_21" transform="rotate(144 372 288)" d="m192.676086,377.650391c3.753311,-121.903992 104.846313,-175.455994 159.636292,-178.688004c106.958008,-8.789993 198.215027,65.526993 200.536987,179.430008c-3.960938,-134.667999 -195.764984,-131.936005 -199.52597,0c-5.527985,-102.428009 -153.615997,-110.625 -160.647308,-0.742004z" fill="url(#svg_29)" stroke="#0000ff"/>
   <path fill-opacity="0.5" id="svg_20" transform="rotate(108 357 273)" d="m177.638489,362.612793c3.753296,-121.904007 104.846313,-175.455994 159.636292,-178.688004c106.958008,-8.789993 198.215027,65.526993 200.536987,179.430008c-3.960938,-134.667999 -195.764984,-131.936005 -199.52597,0c-5.527985,-102.428009 -153.615997,-110.625 -160.647308,-0.742004z" fill="url(#svg_28)" stroke="#0000ff"/>
  </g>
 </g>
 <g>
  <title>Manta Ray</title>
  <path stroke="#29295b" fill="#29295b" id="svg_29" d="m755.333008,260l8.333984,-8c5.333008,-7.666992 9.333008,-9.333008 15,-9.666992c4.333008,2.333984 7,4.333984 8,8c-4,6 -11,9.666992 -21.333984,11l-10,-1.333008z"/>
  <path opacity="0.6" fill="#ffffff" id="svg_43" d="m774.666992,242.333008c-2.666992,7.333984 -4,10 -9.666992,12.333984c-1.666992,3 -5.5,5.666016 -6.666992,2.333008c10.333984,-11 17.666992,-15 16.333984,-14.666992z"/>
  <path d="m442,381.333008l-145.333313,95.333984l114.666321,-80.666992c6.666992,-6 9.333984,-6 13.333984,-14c4,-4.666992 8,-8 17.333008,-0.666992z" id="svg_8" fill="#29295b" stroke-width="2" opacity="0.9"/>
  <path d="m441.83075,380.559021l-141.997375,92.499817l112.034271,-78.26886c6.513977,-5.821625 9.119781,-5.821625 13.027985,-13.583801c3.908142,-4.528229 7.816345,-7.762146 16.935089,-0.647156z" fill="url(#svg_106)" stroke-width="2" opacity="0.8" id="svg_9"/>
  <path fill="#29295b" id="svg_5" d="m721.5,191c10.578003,2.804001 60.166992,39.833008 45.166992,51.333008c-18.666992,17.666992 -23.666992,-10.666016 -63.166992,-16.833008c-17.25,-9 -6.5,-34 18,-34.5z"/>
  <path id="svg_41" fill="#ffffff" d="m752.549072,243.189545c14.5,6.499969 13.999634,-9.332947 14.666626,-1c-18.666992,17.667053 -24.333374,-9.999649 -63.833374,-16.166672c-17.25,-9 9.166748,-4.833298 49.166748,17.166672z"/>
  <path opacity="0.9" fill="#ffffff" id="svg_44" d="m715,216.666992c11.666992,4.666016 13.666992,4.333008 34,14.333008c-9.333008,-8.666992 -14.333008,-8.666992 -13.666992,-12.666992l6.333984,-1c-6.666992,-5 -8,-5.666016 -13.333984,-8c-6,-1.666016 -7.333008,4 -13.333008,7.333984z"/>
  <path fill="#29295b" id="svg_2" d="m436,77c62,76 83.5,141 14,293c-11,1.5 -10.5,5.5 -11.5,10.5c51,21.5 68.5,28 119.5,46.5c69.5,38 85,68.5 74.5,122.5c-1.5,10.166992 -6,15 0.5,14.5c136.5,-126 30.333008,-224 110.333008,-270c8.666992,-2.666992 13,-4 16,-9.666992l7.666992,-4.333008c0.333008,-9 2,-14.333008 9,-19.5c6.5,-4 11.5,-6 10,-10.5c-33,17 -114.156982,-43.026001 -62.156982,-58.026001c-14.770996,-8.888992 -60.843018,-2.973999 -96.843018,9.026001c-35.5,-9.5 -171.5,-132.5 -191,-124z"/>
  <path fill="url(#svg_31)" id="svg_3" d="m688.5,235l-7.5,3.5l-61,22.5c-7.333008,5.666992 -8,9 -2,13.5c24.333008,-1.166992 41.666992,-6.5 57,-7c22,5.5 33,6.166992 46.5,15c-4.833008,9.5 1.5,10 -21.5,23.833008c4.666992,5.333984 5.333008,3.666992 10,4.666992c6,-0.333008 11,-3.333008 15,-11.25l-12.666992,18.916992c-3.333008,10.666016 -2.333008,18.333008 -2.666016,30.666016c3.333008,-27.333008 13,-41 21.333008,-47.333008c3.666992,-2.666992 6.666992,-5.333008 9,-8.333008l0,-9.666992l-43.5,-48.5c-3.833008,-2.166992 -4.166992,-1.833008 -8,-0.5z"/>
  <path opacity="0.9" fill="url(#svg_31)" id="svg_4" d="m636.833374,202l19.5,-3.667007c-8.166992,7.334 -36.666992,34.667007 -56,46.167007c1.666626,5.5 4.333313,6.833344 10,4c26.333313,-11.5 37.666626,-19.833344 53,-28c6.666626,-1.5 10.333313,0.166656 14.5,-1.5l3,-4.5c0.5,-5.833313 -3.5,-16.166672 -6.5,-20.5c-17.666992,-4 -34,2.667007 -37.5,8z"/>
  <path fill="url(#svg_31)" id="svg_32" d="m633.036987,502.564636c5.046204,0 0.840942,-5.06134 2.691284,-3.71167l-4.478271,-4.852966c11.774475,-3.711792 -0.567932,-12.018127 7.169556,-15.392395c8.746765,-14.171814 9.756042,8.772949 19.175659,12.822021c4.709717,-15.858826 11.774414,-14.171753 22.035034,-15.858887c13.961182,-4.723938 21.025879,-28.680939 22.035095,-15.858887c-11.665344,35.788147 -24.915344,60.038147 -64.415344,100.538147c-5.964294,5.607117 -8.172791,4.136475 -7.5,-0.25c7,-20.5 7.996765,-48.662292 3.286987,-57.435425z"/>
  <path opacity="0.8" fill="url(#svg_116)" id="svg_33" d="m483,154.5c2,-3 1.5,-6 1.5,-7.5c21,22.5 29.5,31 8,-16c22,21.5 28.5,11.5 41.5,9c-27.5,-21 -74.5,-61 -98,-64c29.5,38 33,42.5 47,78.5z"/>
  <path fill="url(#svg_38)" id="svg_34" d="m606,217c-6.5,8 1,14.5 -4,25l-9,5c7,-11 4.166992,-16.833008 4.666992,-24.333008c4,0.333008 6.5,-10.166992 8.333008,-5.666992z"/>
  <path fill="url(#svg_39)" id="svg_35" d="m568,255.666992c-12.666992,21 -30.666992,33.666016 -40.666992,47.666016c-6.333008,9.666992 -21.666016,26.666992 -36.333008,36c17,-18.666016 21.333008,-24.666016 30,-34.666016l47,-49z"/>
  <path fill="url(#svg_40)" id="svg_36" d="m464,344c12.666992,-4 11.666992,-6 26.333008,-3.666992c21,-3 26.333984,-5.333008 44.666992,-1.333008c-18,5 -27.666992,6.333008 -42,7l-10.666992,-1.666992c-7,-1.333008 -9.333008,1 -18.333008,-0.333008z"/>
  <path opacity="0.6" fill="#ffffff" id="svg_42" d="m767.333008,271c-4.666016,-4 -5.333008,-2 -8.333008,4.333008c2,-3.833008 1.333008,9.666992 7.666992,4l0.666016,-8.333008z"/>
  <path stroke="#000000" fill-opacity="0.53" opacity="0.4" stroke-width="0" fill="url(#svg_134)" id="svg_117" d="m641,296c-1.5,-17.5 28.209839,5.037048 35,-3c13.580261,2.481476 20.987671,3.098755 28,5c2.246948,20.938263 14.123413,13.271606 22,9.827148c-25.308655,9.876556 -12.345703,37.037048 -15,105.172852c-5.987671,52.234558 -7.222229,57.172852 -54,128c28.259277,-54.160522 41.222229,-80.703735 21,-66c-18.049377,42.086426 -21.753052,46.40741 -32.864197,-1.740723c-16.049377,-8.641968 -7.765442,22.308594 -15.135803,14.740723c-11.40741,-24.61731 12.049377,-42.518524 3,-73c-15.024658,-28.777771 42.38269,-75.074066 4,-97c6.901245,-8.938263 -4.209839,-12.024689 -9,-19l13,-3z"/>
  <path opacity="0.9" stroke-width="0" stroke="#000000" fill="url(#svg_125)" id="svg_118" d="m653.777771,273.259247c5.555542,-2.777802 5.555603,5.555573 5.555603,11.111115c-13.580322,5.555573 -17.901245,9.876556 -6.790161,17.901245c1.851807,7.40741 1.234558,9.259247 6.172852,12.345673c-15.432129,27.777771 -15.432129,42.59259 -23.456787,81.481476c7.407349,35.185181 15.432068,45.061737 28.39502,37.654327c20.370361,-6.790131 35.185181,-31.481476 40.740723,-11.111115c-14.19751,27.160492 -24.074036,65.432129 -46.913574,83.950623c-17.901184,-35.185181 -28.39502,-63.580231 -30.246887,-108.641846c8.024719,-34.567902 11.728394,-58.02475 19.753113,-72.8396c8.024658,-7.40744 2.469116,-10.493866 -4.321045,-15.432129c6.790161,-11.110992 4.321045,-8.024689 -11.111084,-11.110992c1.234619,-6.172852 9.259277,-12.345673 14.814819,-14.814819l-5.555542,-8.642059l12.962952,-1.851898z"/>
  <path opacity="0.9" stroke-width="0" stroke="#000000" fill="url(#svg_125)" id="svg_124" d="m457.372559,350.274506c8.823517,-5.882355 14.705872,-3.92157 16.666656,-5.882355c37.254913,6.862762 44.117645,2.941193 85.294159,-8.823517c21.568604,-2.941193 19.607788,-0.980408 40.196045,-8.823547c-17.647095,14.705902 -19.607849,15.686279 -48.039185,22.549042c-34.313782,9.803925 -39.215698,8.823517 -68.627502,10.784302c-11.764709,6.862732 -11.764709,5.882355 -24.509796,9.803925l-0.980377,-19.607849z"/>
  <path opacity="0.9" stroke-width="0" stroke="#000000" fill="url(#svg_125)" id="svg_122" d="m465.216003,96.352997c33.333008,25.490021 38.234985,30.392014 71.567993,49.020004c27.450989,19.606995 29.412048,21.567993 53.921997,35.294006c-4.902039,1.960449 -9.804016,1.960449 -16.666992,-0.981003c0.981018,19.608002 5.882996,26.470978 16.666992,40.196014c-32.352966,-6.862 -24.509949,-10.783997 -55.882019,-12.745026c-16.666992,-12.74501 -21.56897,-16.666 -30.392975,-41.17598c-0.980011,-9.804138 -2.940826,-19.608078 -8.822998,-31.373001l-30.391998,-38.234993z"/>
  <path opacity="0.9" stroke-width="0" stroke="#000000" fill="url(#svg_125)" id="svg_123" d="m688.745117,218.901978c-34.313721,1.960754 -45.098022,12.745087 -63.725464,24.509796c-37.254944,19.607849 -38.235352,19.607849 -58.823608,39.215668c-32.352905,13.725494 -31.372559,10.784332 -48.039185,33.333344l-18.627441,19.607849c25.490173,5.882355 28.431396,3.92157 44.117676,-1.960785c24.509766,-3.92157 30.39209,-18.627472 49.019531,-34.313721c14.705933,-5.882263 14.705933,-4.901978 42.15686,-11.764709c-21.568604,-0.980408 -25.490112,2.941162 -21.568604,-7.84314c0.980408,-7.84314 3.921631,-19.607849 9.803955,-24.509796c37.254883,-15.686279 38.235291,-15.686279 66.666626,-25.490189c-5.39209,0.490189 -6.372559,-10.294128 -0.980347,-10.784302z"/>
  <path opacity="0.9" stroke-width="0" stroke="#000000" fill="url(#svg_132)" id="svg_119" d="m770.06311,236.356201c-2.040833,-14.656769 -31.717407,-38.405579 -40.976685,-42.109283c-13.568787,-3.716309 -16.722778,1.107437 -31.481445,0l10.493774,1.851852c-16.049377,9.259262 -6.124756,23.930923 9.088623,36.732407c25.925964,19.753082 52.639771,28.082397 62.516357,23.144135l3.086426,-8.641968l-11.728394,6.7901c-20.370422,-3.703705 -29.01239,-9.876541 -50.61731,-25.308624c-11.111084,-10.493835 -16.049438,-22.222229 -7.40741,-29.012344c3.408264,-3.149399 9.345154,-4.44812 17.901184,-0.617279c20.370422,11.728378 32.816895,23.070847 39.124756,37.171021z"/>
  <path opacity="0.9" stroke-width="0" stroke="#000000" fill="url(#svg_132)" id="svg_121" d="m651.325012,255.095001c-5.381042,-1.485016 -6.308044,1.484009 -12.616028,3.153992c-17.625977,0.742004 -12.244995,8.718994 -6.86499,6.493011c3.525024,2.411987 3.339966,5.936981 14.099976,4.638c-4.451965,-3.709991 0,-5.937012 6.308044,-3.895996c7.79303,3.153992 7.79303,-2.226013 13.357971,-2.226013c-5.008972,-0.742004 -7.049988,-1.298981 -4.452026,-2.597992c4.822998,-1.855011 5.195068,-1.669006 7.792053,0l7.791992,7.235992c-2.411804,6.493622 -1.484131,5.380432 1.85498,8.533997c6.308411,2.597839 10.389954,0.557007 16.14093,-0.742004c4.824219,5.009613 13.72998,-6.86499 13.72998,0c0.927246,-4.266846 4.081299,-5.380005 9.83313,-7.605988c-7.421631,-0.742493 -7.97821,-0.371429 -16.140991,5.380005c7.235107,-5.009308 4.637695,-9.090942 14.470947,-7.791992c-7.050293,-2.968719 -9.647705,-7.977997 -20.593994,-10.761017c-2.782837,3.525146 -3.15387,3.710663 -7.978027,3.339996c-2.782532,0.74173 -5.379883,0.927246 -4.266968,4.080994l12.059998,3.154022l-11.689026,0.742004c-5.936951,-1.669128 -6.863953,-4.081024 2.968994,-11.873154c-7.050049,3.339066 -7.050049,1.298004 -11.132019,-0.372009c-5.379944,2.041153 -7.606995,2.227005 -14.100037,2.598007c-1.29895,2.041138 -2.968994,3.338989 -6.122925,2.78299l-4.452026,-4.266968z"/>
  <path opacity="0.9" stroke-width="0" stroke="#000000" fill="url(#svg_132)" id="svg_120" d="m649.655029,196.839005c12.429932,-2.041 10.390015,-3.710999 20.778931,-1.485001l-7.977966,4.082001c4.453064,1.298691 3.339905,4.267151 -2.039978,6.678986c7.791748,1.484253 0.370972,3.710999 -0.927979,5.009003c-0.742065,1.855988 -2.597046,6.123016 -8.163025,5.937012c-7.050415,4.823929 -0.927979,5.380508 -7.606995,8.348999l-7.791992,3.710999l-9.64801,7.605988l-6.308044,-1.112976l-1.112976,-3.710022c1.855408,-5.937378 0.556702,-5.751862 6.308044,-10.760986c11.502869,-4.267288 15.955566,-14.471375 22.078003,-19.294998c5.009277,-0.92778 -0.092529,-6.215012 2.411987,-5.009003z"/>
  <path opacity="0.9" stroke-width="0" fill="url(#svg_126)" id="svg_127" d="m782.441711,256.331299c-4.601257,4.601227 -10.429443,9.509186 -14.110413,14.417175c0.306763,-2.147247 3.374268,-7.361969 3.374268,-8.895721c4.294434,-3.680969 5.521423,-3.067474 10.736145,-5.521454z"/>
  <path opacity="0.9" stroke-width="0" fill="url(#svg_126)" id="svg_128" d="m783.668701,250.809814c0.920288,0.920258 0.306763,1.840469 -0.920227,3.374237c-2.760742,1.840485 -3.067505,1.840485 -7.055237,1.533752c-1.533752,0.920258 -3.374268,-2.147247 -1.840454,-3.067505c6.134949,0.920258 7.361938,0.306763 9.815918,-1.840485z"/>
  <path opacity="0.9" stroke-width="0" fill="url(#svg_135)" id="svg_129" d="m763.957031,268.601227c-4.601196,-1.22699 -3.680969,3.374237 -6.134949,6.441711c-1.840515,5.214722 -2.453979,6.441711 4.601257,7.668732c4.907959,-2.45401 6.44165,-1.840515 4.294434,-6.441742c3.68103,-0.613495 1.533752,-4.294464 -2.760742,-7.668701z"/>
  <path opacity="0.3" stroke-width="0" fill="#ffffff" id="svg_130" d="m656.368103,270.134979c-0.920227,2.760712 -0.613464,3.067474 -5.214722,6.748444c7.668701,0.306763 8.895691,0.920258 15.337402,4.90799c4.294495,3.987732 8.282227,5.521484 15.950928,14.723938c-15.030701,-5.521484 -20.552185,-7.055237 -32.208557,-5.521484c-5.828247,-0.613495 -4.907959,0.306763 -7.668701,5.828217c-2.453979,3.987732 0.920166,4.294495 11.34967,10.736206c-8.895691,1.533722 -1.22699,6.748474 -5.521484,8.282227l8.588928,11.963379c-11.34967,-5.828369 -12.883423,-6.748474 -19.325134,-12.269989c1.533752,-2.760681 1.840515,-3.68103 2.454041,-7.668671c-7.668762,-7.055389 -8.282227,-5.828369 -15.644226,-9.81601c6.134949,-2.147369 13.496948,-7.055359 15.644226,-11.34964c-6.748535,-3.987701 -5.828247,-4.60141 -14.110474,-4.90802l-12.269897,-4.90802c11.656372,-5.521362 13.80365,-6.44162 21.472351,-6.748352c11.963196,0.306732 11.963196,1.22699 21.165649,0z"/>
  <path opacity="0.5" stroke-width="0" fill="#ffffff" id="svg_131" d="m731.521484,214c-3.987732,-1.22699 -6.748474,-4.294495 -11.656494,-8.588959l4.601257,8.895721c-3.680969,3.374207 -1.840515,3.680969 -11.963196,5.828217c15.950928,2.453979 25.153381,1.22699 29.754639,5.828217c-10.122681,-4.601227 -11.963257,-8.895691 -7.055237,-7.975449l13.80365,-2.147263c-8.282166,0.920273 -10.736206,0.306763 -17.484619,-1.840469z"/>
  <g id="svg_45"/>
 </g>
 <g>
  <title>Text - Link</title>
  <g id="svg_14">
    <a xlink:href="http://svg-edit.googlecode.com/svn/branches/2.4/editor/svg-editor.html" target="_blank" >
   <text xml:space="preserve" text-anchor="middle" font-family="serif" font-size="122" stroke-width="0" stroke="url(#svg_43)" fill="#6f7c91" y="567" x="380" id="svg_54">SVG-edit</text>
   <text xml:space="preserve" text-anchor="middle" font-family="serif" font-size="122" stroke-width="0" stroke="url(#svg_43)" fill="#220055" id="svg_41" y="565" x="377">SVG-edit</text>
   <g id="svg_1">
    <path id="svg_36" d="m728.054871,491.510803c32.546997,0.870117 46.844849,24.30603 47.707703,37.00769c2.346863,24.795593 -17.494934,45.951233 -47.905823,46.489563c35.954895,-0.918213 35.225525,-45.38324 0,-46.255127c27.347168,-1.281555 29.535645,-35.612091 0.19812,-37.242126z" fill="#800080" stroke="#0000ff"/>
    <path d="m728.044861,491.504089c32.547058,0.870117 46.84491,24.305969 47.707764,37.00769c2.346863,24.795593 -17.494995,45.951233 -47.905823,46.489563c35.954956,-0.918274 35.225525,-45.38324 0,-46.255188c27.347168,-1.281555 29.535706,-35.61203 0.198059,-37.242065z" fill="url(#svg_71)" fill-opacity="0.46" id="svg_64"/>
    <path d="m728.055786,491.511322c32.547058,0.870087 46.844788,24.305939 47.707764,37.00766c2.346741,24.795593 -17.494995,45.951233 -47.905884,46.489563c35.954895,-0.918274 35.225464,-45.38324 0,-46.255188c27.347168,-1.281494 29.535706,-35.612 0.19812,-37.242035z" fill="url(#svg_76)" fill-opacity="0.46" id="svg_72"/>
   </g>
   <text xml:space="preserve" text-anchor="middle" font-family="serif" font-size="122" stroke-width="0" stroke="url(#svg_43)" fill="url(#svg_80)" y="564" x="378" id="svg_55">SVG-edit</text>
   <g id="svg_13">
    <text xml:space="preserve" text-anchor="middle" font-family="serif" font-size="84" stroke-width="0" stroke="#0000ff" fill="#00ccff" y="476.992" x="153.817" transform="matrix(1,0,0,1,150.31700134277344,-6) " id="svg_12">2.4 Arbelos</text>
    <text xml:space="preserve" text-anchor="middle" font-family="serif" font-size="85" stroke-width="0" stroke="#0000ff" fill="url(#svg_84)" id="svg_37" y="476.397" x="262.247" transform="matrix(1,0,0,1,42.36981201171875,-5.456512451171875) ">2.4 Arbelos</text>
    <text id="svg_40" xml:space="preserve" text-anchor="middle" font-family="serif" font-size="85" stroke-width="0" stroke="#0000ff" fill="url(#svg_83)" y="475.398" x="360.58" transform="matrix(1,0,0,1,-57,-5) ">2.4 Arbelos</text>
   </g>
  </a>
  </g>
 </g>
</svg>