<svg width="137" height="137" xmlns="http://www.w3.org/2000/svg">
 <title>Cool smiley</title>
  <path fill="url(#svg_4)" stroke="#000000" stroke-width="3" d="m32.18682,97.71674q36.3159,24.94076 72.54585,0m-64.67542,-49.25576c0,-3.8554 3.12526,-6.98079 6.98068,-6.98079c3.85449,0 6.97872,3.12539 6.97872,6.98079c0,3.85346 -3.12423,6.97867 -6.97872,6.97867c-3.85542,0 -6.98068,-3.12521 -6.98068,-6.97867m42.93047,0c0,-3.8554 3.12529,-6.98079 6.97963,-6.98079c3.8544,0 6.97971,3.12539 6.97971,6.98079c0,3.85346 -3.12531,6.97867 -6.97971,6.97867c-3.85434,0 -6.97963,-3.12521 -6.97963,-6.97867m-81.48596,20.036l0,0c0,-37.00197 29.99679,-66.99892 67.00095,-66.99892c37.00303,0 66.99998,29.99695 66.99998,66.99892c0,37.00409 -29.99695,67.00101 -66.99998,67.00101c-37.00416,0 -67.00095,-29.99692 -67.00095,-67.00101zm0,0l0,0c0,-37.00197 29.99679,-66.99892 67.00095,-66.99892c37.00303,0 66.99998,29.99695 66.99998,66.99892c0,37.00409 -29.99695,67.00101 -66.99998,67.00101c-37.00416,0 -67.00095,-29.99692 -67.00095,-67.00101z" id="svg_1"/>
  <path id="svg_5" d="m23.84005,41.03445l17.57052,0l5.42937,-19.67914l5.42941,19.67914l17.5706,0l-14.21488,12.16242l5.42982,19.67939l-14.21495,-12.16281l-14.21489,12.16281l5.42991,-19.67939l-14.21491,-12.16242l0,0z" stroke-width="3" fill="#000000"/>
  <path id="svg_6" d="m65.84005,41.03445l17.57052,0l5.42937,-19.67914l5.42941,19.67914l17.5706,0l-14.21487,12.16242l5.42982,19.67939l-14.21496,-12.1628l-14.2149,12.1628l5.42992,-19.67939l-14.21491,-12.16242l0,0z" stroke-width="3" fill="#000000"/>
 <defs>
  <linearGradient y2="0.25391" x2="0.46484" y1="0.94922" x1="0.44531" id="svg_4">
   <stop stop-color="#ff0000" offset="0"/>
   <stop stop-color="#ffff00" offset="1"/>
  </linearGradient>
 </defs>
</svg>