<?xml version="1.0" encoding="UTF-8"?>
<svg width="880px" height="1120px" viewBox="0 0 880 1120" version="1.1" xmlns="http://www.w3.org/2000/svg" xmlns:xlink="http://www.w3.org/1999/xlink">
    <defs>
        <marker id="se_arrow_fw" markerHeight="5" markerUnits="strokeWidth" markerWidth="5" orient="auto" refX="8" refY="5" viewBox="0 0 10 10">
            <path d="m0,0l10,5l-10,5l5,-5l-5,-5z" fill="#000000"/>
        </marker>
        <style xmlns="http://www.w3.org/2000/svg" type="text/css">
            @media print {
                .background{
                    fill: #FFFFFF !important;
                }
                .outline {
                    stroke: #000000 !important;
                }
            }
        </style>
    </defs>
    <g class="layer" fill-rule="nonzero">
        <title>Field</title>
        <rect fill="#7FC784" x="0" y="0" width="880" height="1120" class="background" />
        <rect fill="#87D888" x="160" y="80" width="560" height="960" class="background" />
    </g>
    <g class="layer">
        <title>Lines</title>
        <g stroke="#FFFFFF" stroke-width="2" fill="none" class="outline">
            <rect x="159" y="79" width="562" height="962" />
            <line x1="160.5" y1="399.666667" x2="720.5" y2="399.666667" />
            <line x1="160.5" y1="720.333333" x2="720.5" y2="720.333333" />
            <line x1="160.5" y1="560" x2="720.5" y2="560" />
            <line x1="263" y1="79.6664067" x2="263" y2="399.167187" />
            <line x1="616.5" y1="79.8328133" x2="616.5" y2="399.333593" />
            <line x1="263" y1="720.333333" x2="263" y2="1039.83411" />
            <line x1="616.5" y1="720.49974" x2="616.5" y2="1040.00052" />
            <line x1="263" y1="479.749914" x2="263" y2="640.58238" />
            <line x1="616.5" y1="479.749914" x2="616.5" y2="640.58238" />
            <line x1="413.5" y1="543.377777778" x2="466.5" y2="576.6222222" />
            <line x1="466.5" y1="543.377777778" x2="413.5" y2="576.6222222" />
            <circle cx="440" cy="218" r="34" />
            <line x1="421.7" y1="218.3" x2="458.9" y2="218.3" />
            <circle cx="440" cy="904" r="34" />
            <line x1="421.7" y1="904.3" x2="458.9" y2="904.3" />
        </g>
    </g>
    <g class="layer">
        <title>Drill</title>
        <g></g>
    </g>
</svg>