<svg version="1.0" id="Layer_1" xmlns:xodm="http://www.corel.com/coreldraw/odm/2003"
     xmlns="http://www.w3.org/2000/svg" xmlns:xlink="http://www.w3.org/1999/xlink" x="0px" y="0px" width="2243.9px"
     height="2163.3px" viewBox="0 0 2243.9 2163.3" style="enable-background:new 0 0 2243.9 2163.3;" xml:space="preserve">
<g >
	<g>
		<path style="fill-rule:evenodd;clip-rule:evenodd;fill:#222222;" d="M530.6,30.5L530.6,30.5c21-13.8,49.5-7.9,63.3,13.2
			c45.7,69.7,265.3,407.3,496.8,761.5c-17.8,27.2-35.6,54.4-53.4,81.6l-520-793C503.7,72.8,509.6,44.3,530.6,30.5L530.6,30.5z
			 M1121.7,1844.8c124.4,0,225.3,32.4,225.3,72.4c0,40-100.9,72.4-225.3,72.4c-124.4,0-225.3-32.4-225.3-72.4
			C896.5,1877.3,997.3,1844.8,1121.7,1844.8z M1357.8,2057.9c0,45.5-105.7,82.3-236.1,82.3s-236.1-36.9-236.1-82.3v-138.6
			c0-0.3,0-0.5,0-0.8c1.2,44.3,106.4,80,236.1,80s234.9-35.8,236.1-80c0,0.3,0,0.5,0,0.8V2057.9z M1712.9,30.5L1712.9,30.5
			c-21-13.8-49.5-7.9-63.3,13.2c-79.4,121.1-684.7,1052.1-963.8,1472.6c-12.4,18.7-128.9,201.6-142.9,206c-12.4,3.9-31.3,3-71.3,3
			c-131.6,0-263.2,0-394.8,0c-33.4,0-60.6,27.3-60.6,60.6v78c0,33.3,27.3,60.6,60.6,60.6c135.2,0,270.4,0,405.6,0
			c33.3,0,51-11.6,69.3-39.5L1726,93.9C1739.8,72.8,1733.9,44.3,1712.9,30.5L1712.9,30.5z M1206.1,981.6
			c132.3,202.2,259.7,396.2,351.7,534.7c12.4,18.7,128.9,201.6,142.9,206c12.4,3.9,31.3,3,71.3,3c131.6,0,263.2,0,394.8,0
			c33.4,0,60.6,27.3,60.6,60.6v78c0,33.3-27.3,60.6-60.6,60.6c-135.2,0-270.4,0-405.6,0c-33.3,0-51-11.6-69.3-39.5l-539.1-822.2
			L1206.1,981.6L1206.1,981.6z"/>
	</g>
</g>
</svg>

