<?xml version="1.0" encoding="UTF-8" standalone="no"?>
<svg
   xmlns:dc="http://purl.org/dc/elements/1.1/"
   xmlns:cc="http://creativecommons.org/ns#"
   xmlns:rdf="http://www.w3.org/1999/02/22-rdf-syntax-ns#"
   xmlns:svg="http://www.w3.org/2000/svg"
   xmlns="http://www.w3.org/2000/svg"
   xmlns:xlink="http://www.w3.org/1999/xlink"
   xmlns:sodipodi="http://sodipodi.sourceforge.net/DTD/sodipodi-0.dtd"
   xmlns:inkscape="http://www.inkscape.org/namespaces/inkscape"
   viewBox="0 0 600 600"
   id="svg2"
   sodipodi:version="0.32"
   inkscape:version="0.46"
   width="48"
   height="48"
   sodipodi:docname="logo.svg"
   inkscape:output_extension="org.inkscape.output.svg.inkscape"
   version="1.0"
   inkscape:export-filename="logo.png"
   inkscape:export-xdpi="90"
   inkscape:export-ydpi="90">
  <sodipodi:namedview
     inkscape:window-height="858"
     inkscape:window-width="911"
     inkscape:pageshadow="2"
     inkscape:pageopacity="0.0"
     guidetolerance="10.0"
     gridtolerance="10.0"
     objecttolerance="10.0"
     borderopacity="1.0"
     bordercolor="#666666"
     pagecolor="#ffffff"
     id="base"
     showgrid="false"
     inkscape:zoom="11.352818"
     inkscape:cx="27.728302"
     inkscape:cy="25.018074"
     inkscape:window-x="0"
     inkscape:window-y="0"
     inkscape:current-layer="a32" />
  <defs
     id="defs14280">
    <inkscape:perspective
       sodipodi:type="inkscape:persp3d"
       inkscape:vp_x="0 : 526.18109 : 1"
       inkscape:vp_y="0 : 1000 : 0"
       inkscape:vp_z="744.09448 : 526.18109 : 1"
       inkscape:persp3d-origin="372.04724 : 350.78739 : 1"
       id="perspective71" />
    <linearGradient
       gradientUnits="userSpaceOnUse"
       id="XMLID_16_"
       x1="67.8452"
       x2="144.5898"
       y1="115.5361"
       y2="115.5361">
      <stop
         id="stop780"
         offset="0"
         stop-color="#7D7D99" />
      <stop
         id="stop781"
         offset="0.1798"
         stop-color="#B1B1C5" />
      <stop
         id="stop782"
         offset="0.3727"
         stop-color="#BCBCC8" />
      <stop
         id="stop783"
         offset="0.6825"
         stop-color="#C8C8CB" />
      <stop
         id="stop784"
         offset="1"
         stop-color="#CCC" />
    </linearGradient>
    <linearGradient
       gradientTransform="matrix(-0.999,4.35e-2,4.35e-2,0.999,-1277.01,-496.517)"
       gradientUnits="userSpaceOnUse"
       id="XMLID_15_"
       x1="-1401.459"
       x2="-1354.6851"
       y1="595.63092"
       y2="699.47632">
      <stop
         id="stop770"
         offset="0"
         stop-color="#FFA700" />
      <stop
         id="stop771"
         offset="0.7753"
         stop-color="#FFD700" />
      <stop
         id="stop772"
         offset="1"
         stop-color="#FF9200" />
    </linearGradient>
    <linearGradient
       gradientTransform="matrix(-0.999,4.35e-2,4.35e-2,0.999,-1277.01,-496.517)"
       gradientUnits="userSpaceOnUse"
       id="XMLID_14_"
       x1="-1336.4497"
       x2="-1325.3219"
       y1="635.79492"
       y2="622.53333">
      <stop
         id="stop763"
         offset="0"
         stop-color="#FFC957" />
      <stop
         id="stop764"
         offset="1"
         stop-color="#FF6D00" />
    </linearGradient>
    <linearGradient
       gradientUnits="userSpaceOnUse"
       id="XMLID_13_"
       x1="65.094704"
       x2="137.6021"
       y1="-0.79540002"
       y2="160.1823">
      <stop
         id="stop750"
         offset="0"
         stop-color="#FFA700" />
      <stop
         id="stop751"
         offset="0.7753"
         stop-color="#FFD700" />
      <stop
         id="stop752"
         offset="1"
         stop-color="#FF794B" />
    </linearGradient>
    <linearGradient
       gradientTransform="matrix(-0.999,4.35e-2,4.35e-2,0.999,-1277.01,-496.517)"
       gradientUnits="userSpaceOnUse"
       id="XMLID_12_"
       x1="-1375.9844"
       x2="-1355.0455"
       y1="685.38092"
       y2="706.32172">
      <stop
         id="stop743"
         offset="0"
         stop-color="#F8F1DC" />
      <stop
         id="stop744"
         offset="1"
         stop-color="#D6A84A" />
    </linearGradient>
    <linearGradient
       gradientTransform="matrix(0.1991,0.98,-0.98,0.1991,91.6944,573.565)"
       gradientUnits="userSpaceOnUse"
       id="XMLID_11_"
       x1="-481.70071"
       x2="-360.24561"
       y1="-94.419403"
       y2="-164.22141">
      <stop
         id="stop736"
         offset="0"
         stop-color="#900" />
      <stop
         id="stop737"
         offset="1"
         stop-color="#7C0000" />
    </linearGradient>
    <clipPath
       clipPathUnits="userSpaceOnUse"
       id="clipPath4418">
      <rect
         height="79.958374"
         id="rect4420"
         stroke-miterlimit="4"
         style="fill:none;stroke:#000000;stroke-width:0.14421287;stroke-miterlimit:4;stroke-dasharray:none"
         transform="scale(-1,1)"
         width="73.952118"
         x="-196.68831"
         y="126.58712" />
    </clipPath>
  </defs>
  <metadata
     id="metadata30">
    <rdf:RDF>
      <cc:Work
         rdf:about="">
        <dc:format>image/svg+xml</dc:format>
        <dc:type
           rdf:resource="http://purl.org/dc/dcmitype/StillImage" />
      </cc:Work>
    </rdf:RDF>
  </metadata>
  <a
     xlink:href="http://svg-edit.googlecode.com/"
     xlink:title="SVG-edit, an in-browser vector graphics editor"
     target="_blank"
     id="a32">
    <path
       sodipodi:type="star"
       style="opacity:1;fill:#ffffff;fill-opacity:1;fill-rule:evenodd;stroke:none;stroke-width:1;stroke-miterlimit:4;stroke-dasharray:none;stroke-opacity:1"
       id="path3216"
       sodipodi:sides="8"
       sodipodi:cx="239.79607"
       sodipodi:cy="346.96844"
       sodipodi:r1="194.03661"
       sodipodi:r2="155.59306"
       sodipodi:arg1="0.78539816"
       sodipodi:arg2="1.1780972"
       inkscape:flatsided="false"
       inkscape:rounded="0"
       inkscape:randomized="0"
       d="M 377.00067,484.17304 L 299.33895,490.71769 L 239.79607,541.00505 L 180.25318,490.71769 L 102.59147,484.17305 L 96.04682,406.51133 L 45.75946,346.96845 L 96.046819,287.42556 L 102.59147,209.76385 L 180.25318,203.2192 L 239.79607,152.93184 L 299.33895,203.2192 L 377.00067,209.76384 L 383.54531,287.42556 L 433.83267,346.96844 L 383.54531,406.51133 L 377.00067,484.17304 z"
       transform="translate(4.1586051,6.9957853)" />
    <path
       d="M 257.74,558.2 C 282.68,551.18 299.44,533.03 303.3,508.86 L 304.6,500.74 L 310.09,504.65 C 342.6,527.8 385.95,516.69 401.92,481.11 C 410.74,461.44 406.88,429.74 394.39,419.38 C 389.52,415.34 390.73,414.03 400.54,412.71 C 463.81,404.2 466.02,308.53 403.26,294.99 C 389.53,292.02 390.07,292.74 395.81,285.17 C 435.22,233.14 367.98,163.64 313.59,200.18 L 305.09,205.89 L 302.14,193.86 C 286.67,130.77 193.37,133.52 184.62,197.33 C 183.22,207.55 183.54,207.42 175.45,201.25 C 145.54,178.44 96.024,193.52 84.229,229.04 C 77.621,248.93 81.839,276.52 93.036,286.66 C 98.393,291.5 97.7,292.63 88.496,294.06 C 22.466,304.29 22.003,403.73 87.943,412.77 L 96.572,413.95 L 91.187,421.94 C 63.478,463.02 91.34,516.89 140.25,516.79 C 154.94,516.76 170.97,511.38 177.33,504.36 C 181.99,499.22 183.95,499.74 183.95,506.13 C 183.95,538.55 224.9,567.45 257.74,558.2 L 257.74,558.2 z M 224.97,526.08 C 211.13,516.23 207.03,494.21 216.63,481.24 C 220.49,476.01 220.78,473.32 220.78,442.14 L 220.78,408.66 L 196.55,432.83 C 177.87,451.47 172.32,458.16 172.32,462.07 C 172.32,481.92 139.36,496.53 122.68,484.07 C 99.738,466.94 105.5,432.15 132.4,425.3 C 138.8,423.67 144.87,418.74 163.57,399.95 L 186.8,376.62 L 154.85,376.63 C 124.63,376.64 122.38,376.9 113.36,381.47 C 76.809,400.02 46.091,351.65 78.652,326.81 C 88.187,319.54 106.02,319.02 115.45,325.74 C 121.2,329.85 123.45,330.1 154.18,330.1 L 186.8,330.1 L 163.79,307.04 C 147.4,290.61 139.05,283.62 134.78,282.77 C 106.14,277.04 98.685,240.4 122.56,222.71 C 139.4,210.23 172.44,224.79 172.28,244.63 C 172.25,248.57 177.44,254.67 196.02,272.54 L 219.81,295.41 L 220.34,263.32 C 220.84,233.01 220.64,230.91 216.67,225.55 C 202.3,206.11 216.23,177.52 241.09,175.46 C 267.18,173.29 284.31,199.14 272.29,222.54 C 267.54,231.79 267.31,233.68 267.3,264.18 L 267.29,296.13 L 290.36,273.12 C 306.39,257.14 313.79,248.33 314.59,244.3 C 320.55,214.53 361.13,208.27 375.2,234.95 C 385.62,254.7 375.71,276.27 353.68,281.82 C 346.89,283.53 341.33,288 322.38,307 L 299.33,330.1 L 332.92,330.1 C 363.2,330.1 367.04,329.73 371.86,326.3 C 384.69,317.16 402.12,319.56 413.39,332.03 C 438.43,359.76 402.17,402.01 371.86,380.43 C 367.04,377 363.2,376.62 332.92,376.62 L 299.33,376.62 L 322.38,399.72 C 341.33,418.73 346.89,423.2 353.68,424.91 C 390.29,434.13 386.87,485.55 349.44,488.65 C 332.45,490.06 313.81,474.97 313.81,459.8 C 313.81,458.26 303.34,446.56 290.55,433.8 L 267.29,410.6 L 267.3,442.55 C 267.31,472.77 267.57,475.02 272.15,484.03 C 287.66,514.61 252.66,545.8 224.97,526.08 L 224.97,526.08 z"
       id="path34"
       style="fill:#000000" />
    <g
       clip-path="url(#clipPath4418)"
       transform="matrix(-4.6717475,0,0,4.6717475,1143.4575,-562.74962)"
       id="g36">
      <path
         d="M 191.92,195.98 C 180.31,159.86 178.21,153.31 177.06,151.92 C 177.18,152 177.35,152.1 177.35,152.1 L 98.804,64.643 C 94.609,59.993 84.799,64.999 77.449,71.619 C 70.166,78.161 64.129,87.392 68.079,92.183 L 147.02,179.73 L 147.56,179.82 L 185.32,197.42 L 193.01,199.79 L 191.92,195.98 L 191.92,195.98 z"
         id="path38"
         style="opacity:0.2" />
      <path
         d="M 193.56,193.52 C 181.95,157.39 179.84,150.85 178.7,149.45 C 178.82,149.52 178.99,149.63 178.99,149.63 L 100.44,62.175 C 96.245,57.524 86.429,62.53 79.083,69.15 C 71.802,75.695 65.763,84.923 69.715,89.716 L 148.66,177.26 L 149.19,177.36 L 186.96,194.95 L 194.64,197.32 L 193.56,193.52 L 193.56,193.52 z"
         id="path40"
         style="opacity:0.2" />
      <path
         d="M 186.77,191.05 C 175.16,154.92 173.06,148.38 171.91,146.98 C 172.03,147.06 172.2,147.16 172.2,147.16 L 93.653,59.704 C 89.461,55.054 79.644,60.063 72.299,66.682 C 65.016,73.224 58.978,82.453 62.93,87.247 L 141.87,174.79 L 142.41,174.88 L 180.18,192.48 L 187.86,194.85 L 186.77,191.05 L 186.77,191.05 z"
         id="path42"
         style="opacity:0.2" />
      <path
         d="M 186.43,189.36 C 174.82,153.23 172.72,146.69 171.57,145.29 C 171.69,145.37 171.86,145.47 171.86,145.47 L 93.314,58.016 C 89.115,53.365 79.299,58.373 71.955,64.993 C 64.672,71.536 58.633,80.767 62.585,85.559 L 141.53,173.1 L 142.06,173.2 L 179.83,190.8 L 187.52,193.16 L 186.43,189.36 L 186.43,189.36 z"
         id="path44"
         style="fill:#ffffff" />
      <path
         d="M 186.43,189.36 C 174.82,153.23 172.72,146.69 171.57,145.29 C 171.69,145.37 171.86,145.47 171.86,145.47 L 93.314,58.016 C 89.115,53.365 79.299,58.373 71.955,64.993 C 64.672,71.536 58.633,80.767 62.585,85.559 L 141.53,173.1 L 142.06,173.2 L 179.83,190.8 L 187.52,193.16 L 186.43,189.36 L 186.43,189.36 z"
         id="path46"
         style="fill:url(#XMLID_11_)" />
      <path
         d="M 166.97,147.76 L 180.69,185.89 L 144.32,167.99 L 144.49,167.84 C 144.24,167.76 143.99,167.66 143.79,167.52 L 143.66,167.64 L 68.36,84.072 L 68.483,83.968 C 66.237,81.478 69.515,74.874 75.791,69.216 C 82.071,63.564 88.971,60.997 91.216,63.483 L 166.51,147.05 L 166.97,147.76 L 166.97,147.76 z"
         id="path48"
         style="fill:url(#XMLID_12_)" />
      <path
         d="M 148.65,170.12 C 150.73,169.75 153.29,168.64 155.9,166.98 C 157.52,165.96 159.18,164.7 160.8,163.24 C 162.26,161.94 163.54,160.57 164.64,159.23 C 166.72,156.7 167.96,154.02 168.42,151.8 L 166.97,147.76 L 166.5,147.05 L 91.707,64.028 C 92.315,66.268 90.745,69.966 87.644,73.768 C 86.51,75.157 85.203,76.557 83.699,77.909 C 82.125,79.328 80.504,80.561 78.932,81.563 C 74.439,84.434 70.304,85.491 68.384,84.049 L 68.359,84.07 L 143.66,167.64 L 143.79,167.52 C 143.99,167.66 144.24,167.76 144.49,167.84 L 144.32,167.99 L 148.65,170.12 L 148.65,170.12 z"
         id="path50"
         style="fill:url(#XMLID_13_)" />
      <path
         d="M 68.083,83.41 C 69.815,85.182 74.077,84.186 78.726,81.216 C 80.267,80.234 81.858,79.023 83.403,77.63 C 84.879,76.305 86.162,74.929 87.275,73.567 C 90.853,69.179 92.366,64.925 90.752,62.983 L 90.775,62.959 L 166.59,147.08 C 167.23,149.34 166,153.58 162.84,157.44 C 161.76,158.75 160.5,160.09 159.07,161.37 C 157.48,162.8 155.85,164.04 154.26,165.04 C 149.52,168.05 144.96,169.24 143.24,167.35 C 142.85,166.91 141.15,165.01 141.1,164.94 L 67.845,83.626 L 68.083,83.41 L 68.083,83.41 z"
         id="path52"
         style="fill:#ffffff" />
      <path
         d="M 75.79,69.215 C 82.07,63.563 88.97,60.996 91.215,63.482 L 108.18,82.31 L 109.33,108.8 L 91.355,109.58 L 68.359,84.071 L 68.482,83.967 C 66.236,81.477 69.514,74.874 75.79,69.215 L 75.79,69.215 z"
         id="path54"
         style="fill:#ffffff" />
      <path
         d="M 68.083,83.41 C 69.815,85.182 74.077,84.186 78.726,81.216 C 80.267,80.234 81.858,79.023 83.403,77.63 C 84.879,76.305 86.162,74.929 87.275,73.567 C 90.853,69.179 92.366,64.925 90.752,62.983 L 90.775,62.959 L 166.59,147.08 C 167.23,149.34 166,153.58 162.84,157.44 C 161.76,158.75 160.5,160.09 159.07,161.37 C 157.48,162.8 155.85,164.04 154.26,165.04 C 149.52,168.05 144.96,169.24 143.24,167.35 C 142.85,166.91 141.15,165.01 141.1,164.94 L 67.845,83.626 L 68.083,83.41 L 68.083,83.41 z"
         id="path56"
         style="fill:#ffffff" />
      <path
         d="M 75.79,69.215 C 82.07,63.563 88.97,60.996 91.215,63.482 L 108.18,82.31 L 109.33,108.8 L 91.355,109.58 L 68.359,84.071 L 68.482,83.967 C 66.236,81.477 69.514,74.874 75.79,69.215 L 75.79,69.215 z"
         id="path58"
         style="fill:url(#XMLID_14_)" />
      <path
         d="M 68.083,83.41 C 69.815,85.182 74.077,84.186 78.726,81.216 C 80.267,80.234 81.858,79.023 83.403,77.63 C 84.879,76.305 86.162,74.929 87.275,73.567 C 90.853,69.179 92.366,64.925 90.752,62.983 L 90.775,62.959 L 166.59,147.08 C 167.23,149.34 166,153.58 162.84,157.44 C 161.76,158.75 160.5,160.09 159.07,161.37 C 157.48,162.8 155.85,164.04 154.26,165.04 C 149.52,168.05 144.96,169.24 143.24,167.35 C 142.85,166.91 141.15,165.01 141.1,164.94 L 67.845,83.626 L 68.083,83.41 L 68.083,83.41 z"
         id="path60"
         style="fill:url(#XMLID_15_)" />
      <path
         d="M 74.357,90.713 C 74.357,90.713 80.393,90.501 85.042,87.531 C 86.584,86.548 88.174,85.338 89.719,83.945 C 91.196,82.619 92.479,81.244 93.592,79.881 C 96.52,76.292 98.061,72.793 97.641,70.574 L 90.776,62.957 L 90.753,62.981 C 92.367,64.923 90.855,69.177 87.276,73.565 C 86.163,74.927 84.88,76.303 83.404,77.628 C 81.859,79.021 80.268,80.232 78.727,81.214 C 74.079,84.185 69.817,85.181 68.084,83.408 L 67.846,83.625 L 141.1,164.94 C 141.15,165.01 142.85,166.9 143.25,167.34 C 143.59,167.72 144.05,167.97 144.59,168.11 L 74.357,90.713 L 74.357,90.713 z"
         id="path62"
         style="fill:url(#XMLID_16_)" />
      <path
         d="M 172.04,175.35 C 170.4,176.83 168.73,178.12 167.09,179.19 L 180.69,185.89 L 175.6,171.74 C 174.54,172.95 173.35,174.18 172.04,175.35 z"
         id="path64"
         style="fill:#003333" />
      <path
         d="M 163.12,157.05 L 86.968,73.93 C 87.068,73.81 87.181,73.688 87.275,73.566 C 88.703,71.814 89.795,70.076 90.5,68.508 L 166.27,151.22 C 165.72,153.04 164.67,155.08 163.12,157.05 L 163.12,157.05 z"
         id="path66"
         style="opacity:0.5;fill:#ffffff" />
      <path
         d="M 87.275,73.566 C 87.909,72.792 88.464,72.018 88.969,71.266 L 164.98,154.24 C 164.41,155.3 163.7,156.39 162.84,157.43 C 162.09,158.33 161.27,159.24 160.37,160.13 L 84.152,76.932 C 85.316,75.824 86.361,74.692 87.275,73.566 L 87.275,73.566 z"
         id="path68"
         style="opacity:0.5;fill:#ffffff" />
    </g>
  </a>
</svg>
