<svg height="620" viewBox="0 0 720 620" width="720" xmlns="http://www.w3.org/2000/svg"
    xmlns:xlink="http://www.w3.org/1999/xlink">
    <defs>
        <path id="a" d="m0 0h434v620h-434z" />
        <mask id="b" fill="#fff">
            <use fill="#fff" fill-rule="evenodd" xlink:href="#a" />
        </mask>
        <marker id="se_arrow_fw" markerHeight="5" markerUnits="strokeWidth" markerWidth="5" orient="auto" refX="8"
            refY="5" viewBox="0 0 10 10">
            <path d="m0,0l10,5l-10,5l5,-5l-5,-5z" fill="#000000" />
        </marker>
        <style xmlns="http://www.w3.org/2000/svg" type="text/css">
            @media print {
                .background {
                    fill: #FFFFFF !important;
                }

                .outline {
                    stroke: #000000 !important;
                }
            }
        </style>
    </defs>

    <g class="layer">
        <title>Rink</title>
        <path d="m0 0h720v620h-720z" fill="#c5e8f6" fill-rule="nonzero" />
    </g>
    <g class="layer" fill="none" fill-rule="evenodd">
        <title>Lines</title>
        <g transform="translate(143)">
            <use fill="#c5e8f6" transform="matrix(-1 0 0 1 434 0)" xlink:href="#a" />
            <g stroke-width="2">
                <path d="m-62.1300056 29h560.1300056v562h-562.0033389z" fill="#fff" fill-opacity=".9" mask="url(#b)"
                    stroke="#0e1535" />
                <path d="m211 30v560" mask="url(#b)" stroke="#ff3860" />
                <circle cx="211" cy="310" mask="url(#b)" r="80" stroke="#ff3860" transform="matrix(0 1 -1 0 521 99)" />
                <path d="m259 590c0-26.509668-21.490332-48-48-48s-48 21.490332-48 48" mask="url(#b)" stroke="#ff3860" />
            </g>
            <path d="m371 30v560" mask="url(#b)" opacity=".5" stroke="#364fc7" stroke-width="4" />
            <path d="m51 30v560" mask="url(#b)" opacity=".5" stroke="#364fc7" stroke-width="4" />
            <circle cx="87" cy="182" fill="#ff3860" mask="url(#b)" r="4" transform="matrix(0 1 1 0 -95 95)" />
            <circle cx="87" cy="438" fill="#ff3860" mask="url(#b)" r="4" transform="matrix(0 1 1 0 -351 351)" />
            <circle cx="335" cy="438" fill="#ff3860" mask="url(#b)" r="4" transform="matrix(0 1 1 0 -103 103)" />
            <circle cx="335" cy="182" fill="#ff3860" mask="url(#b)" r="4" transform="matrix(0 1 1 0 153 -153)" />
        </g>
    </g>
    <g class="layer">
        <title>Drill</title>
    </g>
</svg>