<?xml version="1.0" encoding="UTF-8"?>
<svg width="880px" height="1120px" viewBox="0 0 880 1120" version="1.1" xmlns="http://www.w3.org/2000/svg" xmlns:xlink="http://www.w3.org/1999/xlink">
    <defs>
        <marker id="se_arrow_fw" markerHeight="5" markerUnits="strokeWidth" markerWidth="5" orient="auto" refX="8" refY="5" viewBox="0 0 10 10">
            <path d="m0,0l10,5l-10,5l5,-5l-5,-5z" fill="#000000"/>
        </marker>
        <style xmlns="http://www.w3.org/2000/svg" type="text/css">
            @media print {
                .background{
                    fill: #FFFFFF !important;
                }
                .outline {
                    stroke: #000000 !important;
                }
                .circle {
                    fill: #FFFFFF !important;
                }
            }
        </style>
    </defs>
    <g class="layer" fill-rule="nonzero">
        <title>Field</title>
        <polygon fill="#7FC784" points="0 0 880 0 880 676.609375 880 1120 0 1120" class="background" />
        <rect fill="#87D888" x="160" y="80" width="560" height="960" class="background" />
    </g>
     <g class="layer">
        <title>Lines</title>
        <g stroke="#FFFFFF" stroke-width="2" fill="none" fill-rule="evenodd" class="outline">
            <rect x="159" y="79" width="562" height="962" />
            <circle cx="440" cy="560" r="56" />
            <line x1="409.5" y1="560.5" x2="471.5" y2="560.5" />
            <line x1="160.5" y1="399.666667" x2="720.5" y2="399.666667" />
            <line x1="160.5" y1="720.333333" x2="720.5" y2="720.333333" />
            <g transform="translate(335, 829.884766)">
                <path d="M-1.18030207,-1 L210.348271,-1 L210.154384,0.164268454 C199.18283,66.0473593 163.923745,99.1308594 104.583984,99.1308594 C45.2442234,99.1308594 9.98513899,66.0473593 -0.986415671,0.164268454 L-1.18030207,-1 Z" transform="translate(104.583984, 49.065430) scale(1, -1) translate(-104.583984, -49.065430) " />
                <path d="M80.7049733,99.8789525 L48.1092831,67.2832623 L48.4974041,66.6174715 C60.3136865,46.3475753 78.3685165,36.1816406 102.53418,36.1816406 C126.699843,36.1816406 144.754673,46.3475753 156.570955,66.6174715 L156.959076,67.2832623 L124.363386,99.8789525 L123.77933,98.5275889 C119.465833,88.5472055 112.431299,83.6259766 102.53418,83.6259766 C92.6370599,83.6259766 85.6025263,88.5472055 81.2890293,98.5275889 L80.7049733,99.8789525 Z" />
                <line x1="39.6328125" y1="77.6640625" x2="48.6881053" y2="80.5366348" stroke-linecap="round" />
                <line x1="52.5976562" y1="55.6152344" x2="60.4421575" y2="60.9737603" stroke-linecap="round" />
                <line x1="74.0976563" y1="36.1816406" x2="78.9399898" y2="44.3548778" stroke-linecap="round" />
                <line x1="158.042363" y1="77.6640625" x2="167.097656" y2="80.5366348" stroke-linecap="round" transform="translate(162.570010, 79.100349) scale(-1, 1) translate(-162.570010, -79.100349) " />
                <line x1="146.288311" y1="55.6152344" x2="154.132813" y2="60.9737603" stroke-linecap="round" transform="translate(150.210562, 58.294497) scale(-1, 1) translate(-150.210562, -58.294497) " />
                <line x1="127.790479" y1="36.1816406" x2="132.632812" y2="44.3548778" stroke-linecap="round" transform="translate(130.211646, 40.268259) scale(-1, 1) translate(-130.211646, -40.268259) " />
                <line x1="102.53418" y1="30.1425781" x2="102.53418" y2="39.6425781" stroke-linecap="round" />
                <line x1="38.6328125" y1="94.1308594" x2="38.6328125" y2="102.130859" stroke-linecap="round" />
                <line x1="168.097656" y1="94.1308594" x2="168.097656" y2="102.130859" stroke-linecap="round" />
                <circle class="circle" fill="#87D888" cx="102.43999" cy="105.615234" r="24.5" />
                <path d="M85.88542,99.9975586 L118.99456,99.9975586 L102.43999,117.696835 L85.88542,99.9975586 Z" />
            </g>
            <g transform="translate(440, 236) scale(1, -1) translate(-440, -236) translate(335, 171)">
                <path d="M-1.18030207,-1 L210.348271,-1 L210.154384,0.164268454 C199.18283,66.0473593 163.923745,99.1308594 104.583984,99.1308594 C45.2442234,99.1308594 9.98513899,66.0473593 -0.986415671,0.164268454 L-1.18030207,-1 Z" transform="translate(104.583984, 49.065430) scale(1, -1) translate(-104.583984, -49.065430)" />
                <path d="M80.7049733,99.8789525 L48.1092831,67.2832623 L48.4974041,66.6174715 C60.3136865,46.3475753 78.3685165,36.1816406 102.53418,36.1816406 C126.699843,36.1816406 144.754673,46.3475753 156.570955,66.6174715 L156.959076,67.2832623 L124.363386,99.8789525 L123.77933,98.5275889 C119.465833,88.5472055 112.431299,83.6259766 102.53418,83.6259766 C92.6370599,83.6259766 85.6025263,88.5472055 81.2890293,98.5275889 L80.7049733,99.8789525 Z" />
                <line x1="39.6328125" y1="77.6640625" x2="48.6881053" y2="80.5366348" stroke-linecap="round" />
                <line x1="52.5976562" y1="55.6152344" x2="60.4421575" y2="60.9737603" stroke-linecap="round" />
                <line x1="74.0976563" y1="36.1816406" x2="78.9399898" y2="44.3548778" stroke-linecap="round" />
                <line x1="158.042363" y1="77.6640625" x2="167.097656" y2="80.5366348" stroke-linecap="round" transform="translate(162.570010, 79.100349) scale(-1, 1) translate(-162.570010, -79.100349)" />
                <line x1="146.288311" y1="55.6152344" x2="154.132813" y2="60.9737603" stroke-linecap="round" transform="translate(150.210562, 58.294497) scale(-1, 1) translate(-150.210562, -58.294497)" />
                <line x1="127.790479" y1="36.1816406" x2="132.632812" y2="44.3548778" stroke-linecap="round" transform="translate(130.211646, 40.268259) scale(-1, 1) translate(-130.211646, -40.268259)" />
                <line x1="102.53418" y1="30.1425781" x2="102.53418" y2="39.6425781" stroke-linecap="round" />
                <line x1="38.6328125" y1="94.1308594" x2="38.6328125" y2="102.130859" stroke-linecap="round" />
                <line x1="168.097656" y1="94.1308594" x2="168.097656" y2="102.130859" stroke-linecap="round" />
                <circle class="circle" fill="#87D888" cx="102.43999" cy="105.615234" r="24.5" />
                <path d="M85.88542,99.9975586 L118.99456,99.9975586 L102.43999,117.696835 L85.88542,99.9975586 Z" />
            </g>
        </g>
    </g>
    <g class="layer">
        <title>Drill</title>
        <g></g>
    </g>
</svg>