<?xml version="1.0" encoding="UTF-8" standalone="no"?>
<!-- Created with Inkscape (http://www.inkscape.org/) -->
<svg id="svg4562" xmlns:rdf="http://www.w3.org/1999/02/22-rdf-syntax-ns#" xmlns="http://www.w3.org/2000/svg" xml:space="preserve" height="330.42" width="309.18" version="1.0" xmlns:cc="http://creativecommons.org/ns#" xmlns:dc="http://purl.org/dc/elements/1.1/"><metadata id="metadata4567"><rdf:RDF><cc:Work rdf:about=""><dc:format>image/svg+xml</dc:format><dc:type rdf:resource="http://purl.org/dc/dcmitype/StillImage"/></cc:Work></rdf:RDF></metadata><defs id="defs4565"/><g id="g4569" fill-rule="nonzero" transform="matrix(1.25,0,0,-1.25,-2.8758105,798.03929)" fill="#f9a749"><path id="path4595" d="M160.13,603.66h0.09-0.09"/><g id="g5207" transform="matrix(2.30724,0,0,2.30724,-136.436,314.961)"><path id="path4735" d="M118.02,123.06c0.15,0,0.31-0.05,0.41,0.11,0.11-0.58,0.21-1.15,0.37-1.78l-0.16-0.1-0.21,0.52c-0.57-1.57,0.37-3.14,0.63-4.65,0.52-0.68,0.52-1.62,0.47-2.51-0.63,0.11-0.31-0.68-0.73-0.78,0.1-0.26,0.31-0.47,0.26-0.84-0.94-0.42-1.62,0.63-1.78,1.26-0.15,0.31-0.15,0.73-0.52,0.99-0.16-0.84-0.78-0.05-1.25-0.16-1.15,5.7-0.84,11.65-0.73,17.71,0.42,1.2,0,2.3,0.1,3.61,0.32-0.79,0-1.78,0.26-2.62,0.11,0.68,0.37,1.26,0.26,1.99l0.26-2.35h0.11v6.74c-0.11-6.06,2.14-11.34,2.25-17.14"/><path id="path4761" d="M115.93,131.06l-0.16,2.14,0.16-1.78v-0.36"/><path id="path4763" d="M131.08,114.13c-0.89-0.89-1.83-1.83-2.77-2.25-0.11,3.19,1.62,6.22,2.66,9.3,1.88,3.5,3.03,7.42,5.75,10.66l0.36,0.99c-2.14-6.16-3.6-12.64-6-18.7"/><path id="path4765" d="M102.5,114.76c0.21-0.11,0.31,0.15,0.47,0.26-0.05-1.36,0.73-1.31-0.1-2.51-0.37-0.26-0.74-0.42-1.26-0.37-3.864,3.56-5.222,8.73-6.633,13.01l1.097-2.61c-0.627,2.87-1.619,5.9-2.508,8.88,2.195-5.85,5.486-11.39,8.934-16.66"/><path id="path4767" d="M115.51,126.2l0.15-2.67-0.15,2.67"/><path id="path4769" d="M157.51,118.52c-5.59-4.18-12.07-8.83-15.78-15.41-2.09-0.58-3.86-1.94-6.27-1.78,0.58,0.26-0.26,0.84,0,1.25h-0.52c0.42,0.47,1.2,0.58,1.26,1.26-0.47,0.15-0.21,1.51-1.36,1.04,0.26,0.63,0.89,0.79,1.51,0.84,0.58,1.36,2.15,0.89,3.14,1.51,5.53,3.82,10.29,9.56,16.56,11.81,0.52-0.1,1.36,0.26,1.46-0.52"/><path id="path4771" d="M79.148,110.26l0.261,0.26c3.03-1.98,5.694-5.01,9.142-5.9,0.732,0.16,1.045,0.11,1.776,0.11,0.105-0.27,0-0.68,0.366-0.89,0.627,0.36,0.731-0.37,0.993-0.73-0.209-0.32-0.679,0.1-0.836-0.37,0.313-0.63,1.567-0.31,1.462-1.25-0.574-0.94-2.507-0.05-1.723-1.884l-0.366-1.515c-5.329,1.358-8.254,6.739-12.068,10.399l1.619-1.1c-0.104-0.05-0.156,0.05-0.209,0.11l-0.261-0.27c0.888-0.26,1.097-1.35,2.142-1.35-0.209,1.04-1.724,1.56-2.298,2.61,0.783-0.16,1.514-1.1,2.298-1.62-0.47,1.04-1.515,1.93-2.664,2.77l-2.612,3.13c1.045-1.04,1.828-1.88,2.978-2.51"/><path id="path4773" d="M116.55,111.88c5.38,0.58,10.03-1.62,14.16-4.28-6.11,1.57-12.69,4.07-18.96,0.78-1-0.15-2.09-0.62-2.51-1.62l0.16-0.42-0.89-0.36c0,0.16,0.05,0.31-0.11,0.36-0.42-0.41-1.36-0.1-1.77-0.73l0.1-0.1c-0.52-0.31-1.77-1.05-2.71-0.78-4.184-3.29-7.476-7.005-9.409-11.759,0.471,0,1.097,0.888,1.097,1.359,0.157,0.104,0.209,0.313,0.366,0.261l0.157-0.157c-0.314,0.731,0.731,0.94,0.888,1.515-0.157-0.575-1.202-1.672-0.627-2.508l-2.142-3.395c-0.679,0.261-0.522-0.575-0.784-0.836,0.418-1.829-1.097-4.232-1.097-6.53,0.052-1.672-0.992-2.56-0.261-4.023l0.104,0.104c0.105-0.156,0.418-1.358-0.208-0.992-0.157-0.314,0.261-0.314,0.208-0.366-0.208-0.418-0.104-1.045,0.262-1.358l0.156,0.104c0.314-0.679,0.889-1.828,0.471-2.612,0.731,0,0.679-1.097,0.992-1.672,0.418-2.298,1.568-4.597,3.292-6.478,0.261-0.783,1.201-1.306,1.619-2.037,0.836,0.261,1.676-1.306,2.406-0.732l-0.16,0.105c1.46-0.418,1.1-2.09,2.87-1.985,1.94-1.15,4.29-0.418,6.43-0.627,2.77-0.679,5.12,1.253,7.63,0.731,1.67,0.522,3.29,1.568,5.01,1.515,2.98,1.463,6.32,2.926,8.41,6.165,4.24,5.538,6.22,12.381,5.28,19.8-1.46,6.164-7.26,12.538-13.79,13.268-7.42,1.62-13.43-2.402-17.29-8.41-2.62-4.336-3.3-11.18-0.42-15.672,2.35-4.545,7.62-5.747,12.54-5.225,2.71,0.418,5.59,1.463,6.89,4.127,2.46,3.762,0.79,8.934,0,12.904-0.63,1.359-2.04,1.933-3.24,2.508-2.77-0.052-5.43-0.157-7.42-2.142,0.42-2.926-0.15-6.374,2.93-8.15,1.1-0.261,1.93-1.045,3.24-0.731,0.36-1.045-1.15-0.575-1.62-0.993-2.04,0.784-4.02,1.933-4.55,4.232l-0.62,6.53c0.78,3.448,4.75,3.291,7.52,3.866,3.19-0.47,5.85-2.09,7.78-4.754,0.58-1.881,1.52-3.761,1.15-5.903,0.84-2.09,0-4.336-0.26-6.635-1.15-2.978-2.92-6.008-5.9-7.889-4.02-0.783-8.2-1.567-12.17,0-5.12,1.358-9.35,6.478-10.03,11.65-1.41,8.464,3.13,15.986,9.92,20.427,6.2,3.96,14.76,3.11,20.69-1.463,6.63-5.224,10.55-12.747,9.67-21.471-0.32-7.732-5.23-14.576-12.07-18.285-3.19-0.888-6.53-2.873-9.62-2.665-2.66-0.157-5.01-0.783-7.94-0.365l-1.09-0.366,0.1-0.522c0.47,0.104,0.89,0.156,1.41,0.156-4.49-0.365-9.51,0.523-13.059,2.978-0.679,0.94-1.829,0.94-2.508,1.515-4.545,2.09-5.694,7.157-7.522,11.18l-0.105,1.254c0.209-0.627,0.47-1.254,0.731-1.881,0.575,1.359-0.522,2.299-0.522,3.762-1.724,4.231-0.418,9.874,0,13.792,0.105,0.94,0.94,2.194,0.522,2.612,0.262,1.253,0.68,2.351,1.254,3.5,1.149-0.209,0.731,1.097,1.149,1.672,1.359,1.515,1.725,3.447,3.501,5.017,0.94,0.21,0.992-0.58,1.724,0-0.523-0.68-0.784-0.21-1.463-0.52,0.313,0.1,0.47-0.68,0.836-0.53-0.105-0.15-0.523-0.15-0.366-0.47,0.314-0.15,0.627,0.26,0.888,0.47-0.052,0.32,0.261,0.63,0.523,1.05,0.731-0.05,1.515,0.94,1.619,1.36-0.313,0.41-0.47-0.32-0.783-0.27l0.417,0.37-0.522,0.16,0.732,0.73v-0.11c0.414-0.26,0.884,0,1.144,0.37l-0.52,0.37c2.98,1.09,4.81,4.85,8.15,5.27,2.25,1.41,5.07,1.94,7.94,1.99v-0.11"/><path id="path4775" d="M114.78,110.37c-0.53-0.16-0.94-0.68-1.62-0.47,0.47,0.31,1.09,0.31,1.62,0.47"/><path id="path4777" d="M112.01,110.26h0.52-0.52"/><path id="path4779" d="M101.25,103.73l-0.63-0.62,0.63,0.62"/><path id="path4781" d="M98.582,102.74l-0.105,0.26h0.366l-0.261-0.26"/><path id="path4783" d="M98.843,102.58l-0.627-0.47,0.627,0.47"/><path id="path4785" d="M96.231,100.96l-0.366-0.36,0.366,0.36"/><path id="path4787" d="M91.842,98.718l-0.156-0.627,0.156,0.627"/><path id="path4789" d="M163.41,97.725c0-0.156,0.06-0.209,0.16-0.261-6.43-2.09-12.33-5.485-19.33-6.269-0.36,0.261-0.94,0.105-1.25,0.522,0.21,0.575,0.42,1.15,0.99,1.62-0.36,0.784-2.14-0.052-1.52,1.097,1.68,0.261,3.14,0.94,4.55,1.672,5.01,0.522,10.19,0.313,15.05,1.619h1.35"/><path id="path4791" d="M70.893,91.456c4.441,0.105,8.202-0.731,12.643-0.261,0.313,1.097,1.828-0.104,1.776,0.993,1.202-0.418-0.261-0.941,0.366-1.724,0.731-0.47,1.724-0.679,2.037-1.411-0.104-0.575-1.358-0.731-0.522-1.358-2.873-0.209-6.74-0.105-9.665-0.157-3.552,0.418-7,1.045-10.135,2.403,1.097,0.157,2.403-0.261,3.5-0.104-3.813,0.679-7.261,2.403-10.762,3.866l10.762-2.247"/><path id="path4793" d="M94.35,93.703l-0.157-0.366,0.157,0.366"/><path id="path4795" d="M151.87,79.806c5.12-0.679,10.92,0.157,14.83-3.134-0.2-0.627,0.27-0.889,0.63-1.254l-1.67,0.627c-7.36,0.836-16.46-1.881-21.42,4.231,0.52,0.47,0.94,0.627,1.62,0.888,2.25,0.105,3.97-1.097,6.01-1.358"/><path id="path4797" d="M88.447,79.649h0.105v-0.47h-0.105v0.47z"/><path id="path4799" d="M85.835,76.672c0.47,0,0.835-0.575,1.097-0.784l0.156-0.627c-0.313,0.157-0.418-0.261-0.627-0.366-0.104-0.209,0.157-0.261,0.209-0.365,0.262,0.104,0.366,0.313,0.627,0.261,0.366-0.575,0.366-0.888,0.523-1.515-0.209,0-0.366-0.261-0.523-0.366,0.627-0.47-0.052-1.097,0.157-1.515-1.881-1.881-4.702-1.463-6.792-2.769-3.552-1.41-7.261-2.873-11.127-3.134l-3.761-0.732c1.149,0.471,2.507,0.784,3.5,1.359-2.038,0.157-4.127-0.888-6.008-0.627,1.776,0.784,3.03,1.933,4.754,2.873-0.105,0.209-0.366,0.105-0.523,0.157l0.157,0.104h-0.888l1.358,0.262-0.104,0.104c-0.052,0,0.679-0.052,0.888,0.261-0.105,0.888,2.403,0.314,1.097,0.993,0.314,0.313,0.732,0.261,1.15,0.261l-0.366-0.261c1.41,0,2.351,1.149,3.761,1.619,0.94,0.471,1.985,0.575,2.717,1.515l-0.105,0.157c1.568,0.366,3.03,2.351,4.911,2.508,0.627,1.045,2.194,0.052,3.344,0.365l0.418,0.262"/><path id="path4801" d="M91.215,74.634l0.105,0.157,0.261-0.418c-0.783-0.313-0.104-1.41-0.104-1.724-0.47,1.202-0.732,2.351-0.784,3.605,0.366-0.157-0.209-1.306,0.522-1.62"/><path id="path4803" d="M90.85,71.029c-0.157-0.104-0.157-0.261-0.157-0.418l-0.261,0.784,0.418-0.366"/><path id="path4805" d="M90.954,70.507l0.105-0.522-0.105,0.522"/><path id="path4807" d="M149.15,62.88c2.2-1.62,3.97-3.866,4.76-6.27-4.76,2.561-10.35,4.128-14.32,8.621,0.16,0.731,0.99,0.156,1.41,0.522l-0.26,0.261c3.4,1.15,5.59-2.142,8.41-3.134"/><path id="path4809" d="M94.35,60.738c-1.149-1.254,1.776-2.299-0.157-3.292-4.858-4.701-10.291-10.239-15.672-14.889l2.298,2.508c-0.783,0.209-1.41-0.836-2.037-1.149l-2.247-2.142c0.836,0.836,1.829,1.724,1.986,2.664-1.463-0.992-2.978-2.037-4.493-3.03,0.836,1.202,1.881,1.515,2.612,2.508-0.052,0.156-0.209,0.156-0.366,0.156,4.545,6.113,9.769,12.538,16.038,17.397-0.156,0.366,0.262,0.68,0.523,0.784,0.731,0,1.149-0.94,1.515-1.515"/><path id="path4811" d="M97.223,60.477l1.515-1.15c-1.149,0.261-2.142,0.784-3.03,1.672,0.627,0.052,0.732-0.888,1.515-0.522"/><path id="path4813" d="M125.54,57.864c-0.16-0.104-0.37-0.156-0.63-0.156,0.21,0.052,0.42,0.156,0.63,0.156"/><path id="path4815" d="M129.93,53.685c1.25,0.157,0.21-1.045,0.52-1.463l-0.37-0.784c1.15-4.336,1.88-9.037,1.73-13.791-3.4,4.858-4.39,10.866-6.9,16.195h0.16c0.26,0.261-0.05,0.574-0.26,0.731,1.25,0.941,3.5,1.463,5.01,0.523l0.11-1.411"/><path id="path4817" d="M110.49,51.7c-0.36-0.523,0.53-0.836,0.79-1.254-1.1-0.104-0.21-1.619-1.41-1.359-4.45-6.373-7.16-13.478-10.139-20.478-0.731-1.045-1.463-2.403-2.612-2.978l-0.261,0.366c3.134,9.037,5.802,18.336,10.032,26.957l-0.37,0.731,1.26,0.784c1.09-0.732,1.93-1.568,2.71-2.769"/></g></g></svg>
