<svg width="650" height="490" xmlns="http://www.w3.org/2000/svg" xmlns:svg="http://www.w3.org/2000/svg">
<defs>
  <marker id="se_arrow_fw" markerHeight="5" markerUnits="strokeWidth" markerWidth="5" orient="auto" refX="8" refY="5" viewBox="0 0 10 10">
   <path d="m0,0l10,5l-10,5l5,-5l-5,-5z" fill="#000000"/>
  </marker>
</defs>
<g class="layer">
  <title>Field</title>
  <g>
      <path fill="#7FC784" d="M650 490H0V0h650z"/>
      <path fill="#87D888" d="M610 469H39V20h571z"/>
      <path fill="#7FC784" d="M610 320H39V169h571z"/>
  </g>
 </g>
 <g class="layer">
  <title>Lines</title>
  <g fill="none" stroke="#FFFFFF" stroke-width="2">
      <path d="M39 439a30.0064 30.0064 0 0 1 21.2177 8.7876A29.981 29.981 0 0 1 69 469"/>
      <path d="M609 469H39V19"/>
      <path d="M609 221H311v248M610 383H463v85"/>
      <path d="M40 20h570v450" stroke-dasharray="4,8"/>
      <path d="M609.2139 149c-52.461 0-98.19 29.0125-122.2139 71.9667"/>
  </g>
 </g>
 <g class="layer">
  <title>Drill</title>
    <g>
        <circle cx="25" cy="458" fill="#000" r="15" stroke-width="0"/>
        <text fill="#fff" font-family="Cursive" font-size="24" text-anchor="middle" x="23" y="466.5">C</text>
    </g>
 </g>
</svg>
